<svg width="234" height="430" viewBox="0 0 234 430" fill="none" xmlns="http://www.w3.org/2000/svg">
<rect y="46.0028" width="67" height="243" rx="5" fill="#DFFFE8"/>
<rect x="167" y="46.0028" width="67" height="243" rx="5" fill="#DFFFE8"/>
<rect x="80" y="12.0028" width="67" height="244" rx="5" fill="#DFFFE8"/>
<g clip-path="url(#clip0_103_7471)">
<path d="M51.1189 109.633H16.1224L15.8812 222.849C15.8812 222.849 17.6009 235.628 27.2846 237.755C27.2846 237.755 29.5443 237.559 29.6911 236.061C29.8379 234.564 30.0371 136.301 30.0371 136.301C29.7016 133.409 31.8669 131.184 33.8225 131.168C35.8358 131.153 38.0955 133.466 37.6551 136.445C37.6079 169.442 37.5555 202.434 37.5083 235.432C37.5083 235.432 38.0011 238.044 39.7208 237.998C41.4405 237.951 50.5841 233.547 51.1241 223.959V109.633H51.1189Z" fill="#2B2A31"/>
<path d="M15.3464 112.086H50.3429C50.3429 112.086 53.8819 112.427 54.3747 112.086C54.8676 111.745 55.9738 109.907 55.8637 91.5161C55.7536 73.1252 55.8532 41.9505 54.574 35.1766C53.2947 28.3975 50.1489 14.9425 34.3206 14.168C18.4922 13.3936 11.4142 25.2996 11.2203 44.0829C11.0263 62.8661 11.2203 109.814 11.2203 109.814C11.2203 109.814 12.1011 112.716 15.3464 112.086Z" fill="url(#paint0_linear_103_7471)" stroke="#4A956C" stroke-width="0.5" stroke-miterlimit="10"/>
<path d="M22.7127 224.785C24.8844 224.785 26.6449 223.052 26.6449 220.913C26.6449 218.774 24.8844 217.041 22.7127 217.041C20.541 217.041 18.7805 218.774 18.7805 220.913C18.7805 223.052 20.541 224.785 22.7127 224.785Z" fill="white"/>
<path d="M45.3203 224.785C47.4919 224.785 49.2524 223.052 49.2524 220.913C49.2524 218.774 47.4919 217.041 45.3203 217.041C43.1486 217.041 41.3881 218.774 41.3881 220.913C41.3881 223.052 43.1486 224.785 45.3203 224.785Z" fill="white"/>
<path d="M20.2276 221.543C20.2276 221.543 19.5617 221.254 22.2199 220.526C24.8781 219.798 26.9543 221.047 25.4653 219.147C23.9763 217.247 21.4859 217.913 20.453 219.147C19.4202 220.381 20.2276 221.543 20.2276 221.543Z" fill="#2B2A31"/>
<path d="M42.6044 221.543C42.6044 221.543 41.9386 221.254 44.5967 220.526C47.2549 219.798 49.3311 221.047 47.8421 219.147C46.3531 217.247 43.8627 217.913 42.8299 219.147C41.797 220.381 42.6044 221.543 42.6044 221.543Z" fill="#2B2A31"/>
<path d="M33.4031 37.6549C33.0623 37.6549 32.7792 37.3812 32.7792 37.0404V30.1374C32.7792 29.8018 33.057 29.523 33.4031 29.523C33.7439 29.523 34.027 29.7967 34.027 30.1374V37.0404C34.027 37.376 33.7439 37.6549 33.4031 37.6549Z" fill="#0D0E0F"/>
</g>
<g clip-path="url(#clip1_103_7471)">
<path d="M218.119 109.633H183.122L182.881 222.849C182.881 222.849 184.601 235.628 194.285 237.755C194.285 237.755 196.544 237.559 196.691 236.061C196.838 234.564 197.037 136.301 197.037 136.301C196.702 133.409 198.867 131.184 200.823 131.168C202.836 131.153 205.095 133.466 204.655 136.445C204.608 169.442 204.555 202.434 204.508 235.432C204.508 235.432 205.001 238.044 206.721 237.998C208.44 237.951 217.584 233.547 218.124 223.959V109.633H218.119Z" fill="#2B2A31"/>
<path d="M182.346 112.086H217.343C217.343 112.086 220.882 112.427 221.375 112.086C221.868 111.745 222.974 109.907 222.864 91.5161C222.754 73.1252 222.853 41.9505 221.574 35.1766C220.295 28.3975 217.149 14.9425 201.321 14.168C185.492 13.3936 178.414 25.2996 178.22 44.0829C178.026 62.8661 178.22 109.814 178.22 109.814C178.22 109.814 179.101 112.716 182.346 112.086Z" fill="url(#paint1_linear_103_7471)" stroke="#4A956C" stroke-width="0.5" stroke-miterlimit="10"/>
<path d="M189.713 224.785C191.884 224.785 193.645 223.052 193.645 220.913C193.645 218.774 191.884 217.041 189.713 217.041C187.541 217.041 185.781 218.774 185.781 220.913C185.781 223.052 187.541 224.785 189.713 224.785Z" fill="white"/>
<path d="M212.32 224.785C214.492 224.785 216.252 223.052 216.252 220.913C216.252 218.774 214.492 217.041 212.32 217.041C210.149 217.041 208.388 218.774 208.388 220.913C208.388 223.052 210.149 224.785 212.32 224.785Z" fill="white"/>
<path d="M187.228 221.543C187.228 221.543 186.562 221.254 189.22 220.526C191.878 219.798 193.954 221.047 192.465 219.147C190.976 217.247 188.486 217.913 187.453 219.147C186.42 220.381 187.228 221.543 187.228 221.543Z" fill="#2B2A31"/>
<path d="M209.604 221.543C209.604 221.543 208.939 221.254 211.597 220.526C214.255 219.798 216.331 221.047 214.842 219.147C213.353 217.247 210.863 217.913 209.83 219.147C208.797 220.381 209.604 221.543 209.604 221.543Z" fill="#2B2A31"/>
<path d="M200.403 37.6549C200.062 37.6549 199.779 37.3812 199.779 37.0404V30.1374C199.779 29.8018 200.057 29.523 200.403 29.523C200.744 29.523 201.027 29.7967 201.027 30.1374V37.0404C201.027 37.376 200.744 37.6549 200.403 37.6549Z" fill="#0D0E0F"/>
</g>
<g clip-path="url(#clip2_103_7471)">
<path d="M103.843 106.845V149.2H103.999L103.843 212.362C103.843 212.362 104.958 219.653 111.239 220.869C111.239 220.869 112.707 220.756 112.803 219.904C112.898 219.047 113.025 162.989 113.025 162.989C114.674 163.015 116.319 163.046 117.969 163.072C117.938 181.898 117.903 200.719 117.873 219.545C117.873 219.545 118.191 221.034 119.306 221.008C120.421 220.982 126.353 218.467 126.702 212.999V149.2V147.767V106.845H103.843Z" fill="#2B2A31"/>
<path d="M107.657 113.108H123.044C125.097 113.108 126.772 111.445 126.823 109.355C127.034 100.54 127.605 78.8907 128.114 74.0032C128.76 67.8271 134.642 48.4671 139.975 35.6476C143.663 26.7865 149.767 13.9876 153.183 6.93361C154.373 4.47446 152.729 1.57893 150.04 1.39924L136.065 0.449463C134.632 0.351918 133.27 1.0912 132.544 2.35415L116.728 29.9849C115.991 31.2735 114.583 32.0128 113.125 31.8793L109.528 31.5508C109.417 31.5405 109.301 31.5354 109.19 31.5354C108.459 31.5354 107.747 31.751 107.132 32.1566C104.261 34.051 95.6798 39.7445 93.5458 41.4541C90.9728 43.5128 93.5458 47.4403 93.5458 47.4403C93.5458 47.4403 98.8783 57.3539 100.346 61.1889C101.82 65.024 103.656 69.049 103.838 81.9556C103.969 91.2018 103.913 103.179 103.868 109.232C103.858 111.373 105.558 113.108 107.657 113.108Z" fill="#4A956C" stroke="#006830" stroke-width="0.75" stroke-miterlimit="10"/>
<path d="M123.039 113.36H107.652C106.572 113.36 105.553 112.929 104.791 112.148C104.029 111.368 103.616 110.336 103.626 109.237C103.671 102.979 103.722 91.1197 103.595 81.9659C103.424 69.8088 101.799 65.6195 100.362 61.9179L100.119 61.2865C98.6715 57.5079 93.3844 47.6662 93.3289 47.5635C93.3137 47.5429 90.6702 43.4358 93.3945 41.259C95.5537 39.534 104.352 33.6968 107.001 31.9461C107.753 31.4481 108.661 31.2222 109.549 31.3043L113.146 31.6329C114.508 31.7613 115.83 31.0631 116.516 29.8617L132.327 2.23094C133.104 0.875581 134.546 0.100359 136.075 0.203037L150.05 1.15281C151.392 1.24522 152.597 2.01018 153.268 3.19611C153.939 4.38205 153.985 5.81955 153.39 7.04656C150.045 13.9517 143.885 26.8584 140.187 35.7452C135.096 47.9793 129.012 67.6577 128.346 74.0289C127.837 78.8958 127.277 100.356 127.06 109.361C127.009 111.604 125.244 113.36 123.039 113.36ZM109.19 31.7869C108.504 31.7869 107.838 31.9872 107.268 32.3671C104.625 34.1126 95.8413 39.9396 93.7022 41.6492C91.3361 43.5385 93.7325 47.2657 93.7527 47.3016C93.8182 47.4197 99.1205 57.2923 100.579 61.1016L100.821 61.7331C102.269 65.4706 103.913 69.7061 104.085 81.9556C104.216 91.1145 104.16 102.984 104.115 109.242C104.11 110.208 104.473 111.116 105.139 111.799C105.81 112.482 106.698 112.862 107.652 112.862H123.039C124.971 112.862 126.525 111.322 126.575 109.355C126.792 100.345 127.357 78.8701 127.867 73.9827C128.533 67.5755 134.637 47.8253 139.743 35.5604C143.446 26.6581 149.611 13.7412 152.956 6.83607C153.475 5.75794 153.435 4.495 152.845 3.45281C152.254 2.41062 151.195 1.73808 150.014 1.66107L136.04 0.711295C134.683 0.613751 133.427 1.3017 132.745 2.49277L116.939 30.1133C116.157 31.4789 114.654 32.2747 113.1 32.1309L109.503 31.8023C109.402 31.7921 109.296 31.7869 109.19 31.7869Z" fill="url(#paint2_linear_103_7471)" stroke="#006830" stroke-width="0.75" stroke-miterlimit="10"/>
<path d="M108.07 31.5405L95.9826 17.0834L93.0161 13.8541C93.0161 13.8541 91.8457 12.2421 87.5675 15.8872C83.2894 19.5323 81.1604 21.4369 81.1604 21.4369C81.1604 21.4369 79.7831 22.8385 80.8173 24.3119C81.8515 25.7854 90.9527 41.6389 90.9527 41.6389L91.5026 42.6914C91.5026 42.6914 92.0424 43.6155 92.6276 42.6914C93.2129 41.7673 104.302 33.2912 108.07 31.5405Z" fill="#4A956C" stroke="#006830" stroke-width="0.75" stroke-miterlimit="10"/>
<path d="M92.0727 43.3537C92.0676 43.3537 92.0626 43.3537 92.0575 43.3537C91.6035 43.3434 91.3159 42.8762 91.2857 42.8197L90.7307 41.757C90.6449 41.6081 81.6295 25.9034 80.6104 24.4557C79.6973 23.1517 80.4541 21.7963 80.9838 21.2572C81.0191 21.2264 83.1834 19.3064 87.4111 15.7023C89.979 13.5102 91.4925 13.1713 92.3047 13.2689C92.9303 13.3459 93.1876 13.6744 93.2128 13.7104L96.1591 16.9139L108.469 31.6278L108.176 31.7664C104.468 33.4914 93.3995 41.9367 92.8345 42.83C92.6125 43.1791 92.3552 43.3537 92.0727 43.3537ZM92.0374 13.7515C91.2806 13.7515 89.9487 14.1878 87.7289 16.0823C83.5063 19.6914 81.342 21.6064 81.3218 21.6218C81.2865 21.6628 80.116 22.8847 81.014 24.163C82.0432 25.6314 90.7912 40.8637 91.1595 41.5106L91.7145 42.5733C91.7649 42.6554 91.9264 42.8505 92.0676 42.8505C92.1685 42.8505 92.2947 42.7479 92.4157 42.5528C92.9959 41.6338 103.54 33.5222 107.677 31.4481L95.7959 17.2477L92.8395 14.0287C92.8193 14.003 92.6528 13.8028 92.2139 13.7617C92.1584 13.7566 92.1029 13.7515 92.0374 13.7515Z" fill="#4A956C" stroke="#006830" stroke-width="0.75" stroke-miterlimit="10"/>
<path d="M108.459 153.543C109.86 153.543 110.996 152.387 110.996 150.961C110.996 149.535 109.86 148.378 108.459 148.378C107.057 148.378 105.921 149.535 105.921 150.961C105.921 152.387 107.057 153.543 108.459 153.543Z" fill="white"/>
<path d="M106.703 151.382C106.703 151.382 106.274 151.187 107.99 150.704C109.705 150.221 111.047 151.048 110.083 149.785C109.12 148.517 107.51 148.964 106.844 149.785C106.178 150.606 106.703 151.382 106.703 151.382Z" fill="#2B2A31"/>
<path d="M122.58 153.543C123.981 153.543 125.117 152.387 125.117 150.961C125.117 149.535 123.981 148.378 122.58 148.378C121.178 148.378 120.042 149.535 120.042 150.961C120.042 152.387 121.178 153.543 122.58 153.543Z" fill="white"/>
<path d="M120.829 151.382C120.829 151.382 120.4 151.187 122.116 150.704C123.831 150.221 125.173 151.048 124.209 149.785C123.246 148.517 121.636 148.964 120.97 149.785C120.304 150.606 120.829 151.382 120.829 151.382Z" fill="#2B2A31"/>
<path d="M122.539 115.146H108.01V117.416H122.539V115.146Z" fill="white"/>
</g>
<g clip-path="url(#clip3_103_7471)">
<path d="M64.0263 325.954C66.403 325.306 67.5 321.764 66.4765 318.042C65.453 314.32 62.6966 311.828 60.3198 312.476C57.9431 313.124 56.8461 316.667 57.8696 320.389C58.8931 324.11 61.6495 326.602 64.0263 325.954Z" fill="#263239" stroke="#263239" stroke-miterlimit="10"/>
<path d="M187.757 319.498C187.511 323.347 185.306 326.343 182.841 326.175C180.377 326.02 178.587 322.766 178.846 318.917C179.093 315.068 181.298 312.072 183.762 312.24C186.227 312.408 188.016 315.662 187.757 319.498Z" fill="#263239" stroke="#263239" stroke-miterlimit="10"/>
<path d="M167.808 429.354H77.663L58.3499 303.755H187.135L167.808 429.354Z" fill="#918E93" stroke="#263239" stroke-miterlimit="10"/>
<path d="M57.7273 319.55C57.7273 319.55 50.3859 316.993 49.4261 320.17C48.4663 323.347 40.8137 345.251 44.0044 357.624C47.1952 369.996 63.7715 379.838 70.4643 381.749C77.1572 383.648 85.134 382.072 86.4052 383.015C87.6763 383.97 87.0407 387.148 88.0005 387.78C88.9604 388.413 112.541 387.78 112.541 387.78" stroke="#263239" stroke-width="2" stroke-miterlimit="10"/>
<path d="M185.202 319.55C185.202 319.55 192.543 316.993 193.503 320.17C194.463 323.347 202.115 345.251 198.925 357.624C195.734 369.996 179.158 379.838 172.465 381.749C165.772 383.648 157.795 382.072 156.524 383.015C155.253 383.97 155.888 387.148 154.929 387.78C153.969 388.413 130.388 387.78 130.388 387.78" stroke="#263239" stroke-width="2" stroke-miterlimit="10"/>
<path d="M148.664 384.1C148.353 383.183 146.835 382.731 145.149 382.731C143.463 382.731 142.101 384.255 140.259 384.255C138.43 384.255 135.071 383.338 135.071 383.338H121.945H108.805C108.805 383.338 105.446 384.255 103.617 384.255C101.788 384.255 100.413 382.731 98.7272 382.731C97.0411 382.731 95.5235 383.183 95.2122 384.1C94.9009 385.017 95.2122 395.814 95.2122 395.814C95.2122 395.814 95.8218 397.79 98.2603 397.79C100.699 397.79 102.541 396.111 104.525 396.111C106.51 396.111 107.43 396.718 110.18 397.325C111.957 397.712 113.734 397.596 121.945 397.467C130.155 397.596 131.919 397.712 133.709 397.325C136.459 396.718 137.379 396.111 139.364 396.111C141.348 396.111 143.177 397.79 145.629 397.79C148.08 397.79 148.677 395.814 148.677 395.814C148.677 395.814 148.975 385.004 148.664 384.1Z" fill="white" stroke="#263239" stroke-miterlimit="10"/>
<path d="M140.246 260.076C140.246 260.076 137.341 254.935 130.557 256.537C123.773 258.138 118.935 262.323 120.219 265.862C121.516 269.4 135.395 261.677 135.395 261.677C135.395 261.677 127.639 264.893 127.639 271.97C127.639 279.048 134.746 273.572 136.031 269.077C137.328 264.57 141.517 263.937 141.517 263.937L140.246 260.076Z" fill="#9ACDA3" stroke="#263239" stroke-miterlimit="10"/>
<path d="M145.084 251.074C145.084 251.074 142.827 251.074 141.53 255.581C140.233 260.089 142.179 271.015 148.314 270.369C154.449 269.723 156.07 260.399 153.8 254.935C151.543 249.472 147.03 249.472 145.084 251.074Z" fill="#9ACDA3" stroke="#263239" stroke-miterlimit="10"/>
<path d="M152.516 252.042C152.516 252.042 156.394 248.827 162.529 252.042C168.664 255.258 163.178 258.797 161.557 258.797C159.948 258.797 168.34 262.013 165.111 265.875C161.881 269.736 154.773 261.057 154.773 261.057C154.773 261.057 154.137 254.29 152.516 252.042Z" fill="#9ACDA3" stroke="#263239" stroke-miterlimit="10"/>
<path d="M127.976 219.884C127.976 219.884 122.165 217.314 118.935 219.884C115.706 222.454 116.678 226.315 119.908 225.347C123.125 224.391 127.976 219.884 127.976 219.884Z" fill="#9ACDA3" stroke="#263239" stroke-miterlimit="10"/>
<path d="M126.355 225.347C126.355 225.347 120.544 230.81 126.03 231.779C131.53 232.747 126.355 225.347 126.355 225.347Z" fill="#9ACDA3" stroke="#263239" stroke-miterlimit="10"/>
<path d="M137.989 224.714C137.989 224.714 132.178 217.314 130.557 219.574C128.949 221.821 128.949 230.19 134.111 229.544C139.273 228.886 137.989 224.714 137.989 224.714Z" fill="#9ACDA3" stroke="#263239" stroke-miterlimit="10"/>
<path d="M129.908 215.066C129.908 215.066 127.976 208.312 123.125 211.205C118.287 214.098 120.544 215.066 124.098 216.022C127.652 216.991 129.908 215.066 129.908 215.066Z" fill="#9ACDA3" stroke="#263239" stroke-miterlimit="10"/>
<path d="M96.6519 262.013C96.6519 262.013 90.8411 259.443 87.6115 262.013C84.3818 264.583 85.3546 268.445 88.5842 267.476C91.8009 266.507 96.6519 262.013 96.6519 262.013Z" fill="#9ACDA3" stroke="#263239" stroke-miterlimit="10"/>
<path d="M95.0307 267.476C95.0307 267.476 89.2198 272.939 94.7064 273.908C100.206 274.876 95.0307 267.476 95.0307 267.476Z" fill="#9ACDA3" stroke="#263239" stroke-miterlimit="10"/>
<path d="M106.665 266.83C106.665 266.83 100.854 259.43 99.233 261.69C97.6247 263.937 97.6247 272.306 102.787 271.661C107.949 271.015 106.665 266.83 106.665 266.83Z" fill="#9ACDA3" stroke="#263239" stroke-miterlimit="10"/>
<path d="M98.5846 257.183C98.5846 257.183 96.652 250.428 91.801 253.321C86.963 256.214 89.2198 257.183 92.7738 258.138C96.3277 259.12 98.5846 257.183 98.5846 257.183Z" fill="#9ACDA3" stroke="#263239" stroke-miterlimit="10"/>
<path d="M110.984 286.461C110.984 286.461 110.466 292.777 113.968 294.959C117.47 297.142 120.816 294.959 118.832 292.247C116.86 289.535 110.984 286.461 110.984 286.461Z" fill="#9ACDA3" stroke="#263239" stroke-miterlimit="10"/>
<path d="M116.704 286.177C116.704 286.177 123.799 289.832 122.904 284.356C122.009 278.88 116.704 286.177 116.704 286.177Z" fill="#9ACDA3" stroke="#263239" stroke-miterlimit="10"/>
<path d="M112.255 275.458C112.255 275.458 107.158 283.362 109.83 284.137C112.502 284.911 120.427 282.148 118.105 277.511C115.796 272.875 112.255 275.458 112.255 275.458Z" fill="#9ACDA3" stroke="#263239" stroke-miterlimit="10"/>
<path d="M105.783 286.229C105.783 286.229 100.024 290.284 104.356 293.875C108.702 297.478 108.87 295.024 108.611 291.369C108.351 287.727 105.783 286.229 105.783 286.229Z" fill="#9ACDA3" stroke="#263239" stroke-miterlimit="10"/>
<path d="M81.619 292.131C81.619 292.131 80.9705 300.009 85.3416 302.734C89.7127 305.459 93.8762 302.734 91.4118 299.351C88.9344 295.954 81.619 292.131 81.619 292.131Z" fill="#9ACDA3" stroke="#263239" stroke-miterlimit="10"/>
<path d="M88.7399 291.769C88.7399 291.769 97.5988 296.341 96.4833 289.496C95.3678 282.677 88.7399 291.769 88.7399 291.769Z" fill="#9ACDA3" stroke="#263239" stroke-miterlimit="10"/>
<path d="M83.2014 278.402C83.2014 278.402 76.8459 288.256 80.1793 289.225C83.4998 290.194 93.3963 286.745 90.5039 280.959C87.6114 275.173 83.2014 278.402 83.2014 278.402Z" fill="#9ACDA3" stroke="#263239" stroke-miterlimit="10"/>
<path d="M75.1207 291.847C75.1207 291.847 67.935 296.897 73.3438 301.391C78.7655 305.886 78.973 302.838 78.6487 298.266C78.3245 293.694 75.1207 291.847 75.1207 291.847Z" fill="#9ACDA3" stroke="#263239" stroke-miterlimit="10"/>
<path d="M152.244 303.186C154.501 302.76 156.796 302.644 159.105 302.708C160.623 302.399 162.179 302.45 163.827 302.683C166.057 303.006 168.081 302.786 170.338 302.773C171.103 302.773 171.79 302.876 172.413 303.07C172.426 302.127 172.426 301.081 172.426 299.867C172.374 290.607 172.426 274.928 171.777 271.518C171.142 268.109 169.572 261.341 161.699 260.954C153.826 260.566 150.298 266.559 150.207 276C150.143 282.445 150.169 295.463 150.181 303.109C150.869 303.083 151.543 303.096 152.244 303.186Z" fill="url(#paint3_linear_103_7471)"/>
<path d="M150.246 303.096C150.22 295.45 150.194 282.406 150.259 276C150.324 270.111 151.686 265.875 154.306 263.408C156.161 261.664 158.651 260.863 161.686 261.006C169.819 261.406 171.181 268.755 171.7 271.518C172.244 274.411 172.283 286.009 172.322 295.334C172.322 296.948 172.335 298.472 172.348 299.867C172.361 301.068 172.348 302.101 172.335 303.044C172.374 303.057 172.426 303.07 172.465 303.083C172.478 302.14 172.478 301.081 172.478 299.867C172.465 298.485 172.465 296.948 172.452 295.334C172.413 286.009 172.374 274.399 171.829 271.506C171.31 268.716 169.923 261.29 161.686 260.876C158.612 260.721 156.096 261.548 154.215 263.304C151.569 265.784 150.194 270.059 150.13 275.987C150.065 282.406 150.091 295.45 150.117 303.109C150.156 303.109 150.207 303.096 150.246 303.096Z" fill="#010202"/>
<path d="M161.258 272.771H161.232C161.077 272.771 160.934 272.642 160.934 272.474V268.974C160.934 268.819 161.064 268.677 161.232 268.677H161.258C161.414 268.677 161.557 268.806 161.557 268.974V272.474C161.544 272.629 161.414 272.771 161.258 272.771Z" fill="#0D0E0F"/>
<path d="M102.138 297.53C102.138 297.53 95.1084 301.197 95.1343 306.325C95.1603 311.465 99.7 313.506 101.256 309.618C102.8 305.731 102.138 297.53 102.138 297.53Z" fill="#9ACDA3" stroke="#263239" stroke-miterlimit="10"/>
<path d="M106.25 303.341C106.25 303.341 107.106 313.234 112.307 308.637C117.522 304.039 106.25 303.341 106.25 303.341Z" fill="#9ACDA3" stroke="#263239" stroke-miterlimit="10"/>
<path d="M114.629 291.524C114.629 291.524 102.865 291.446 103.825 294.766C104.784 298.085 112.995 304.555 116.367 299.028C119.739 293.5 114.629 291.524 114.629 291.524Z" fill="#9ACDA3" stroke="#263239" stroke-miterlimit="10"/>
<path d="M98.9088 291.899C98.9088 291.899 90.7763 288.554 89.8683 295.515C88.9604 302.476 91.6583 301.017 95.3549 298.304C99.0515 295.605 98.9088 291.899 98.9088 291.899Z" fill="#9ACDA3" stroke="#263239" stroke-miterlimit="10"/>
<path d="M144.5 298.02C144.5 298.02 137.029 295.36 133.255 298.86C129.48 302.36 131.05 307.074 134.98 305.576C138.897 304.077 144.5 298.02 144.5 298.02Z" fill="#9ACDA3" stroke="#263239" stroke-miterlimit="10"/>
<path d="M143.009 304.969C143.009 304.969 136.29 312.317 143.216 313.002C150.13 313.686 143.009 304.969 143.009 304.969Z" fill="#9ACDA3" stroke="#263239" stroke-miterlimit="10"/>
<path d="M157.406 303.096C157.406 303.096 149.481 294.443 147.678 297.387C145.875 300.332 146.666 310.742 153.035 309.45C159.403 308.159 157.406 303.096 157.406 303.096Z" fill="#9ACDA3" stroke="#263239" stroke-miterlimit="10"/>
<path d="M146.459 291.847C146.459 291.847 143.411 283.633 137.665 287.675C131.906 291.731 134.811 292.712 139.325 293.59C143.839 294.469 146.459 291.847 146.459 291.847Z" fill="#9ACDA3" stroke="#263239" stroke-miterlimit="10"/>
<path d="M152.114 286.552C152.114 286.552 153.67 294.301 158.625 295.721C163.58 297.142 166.836 293.384 163.515 290.801C160.208 288.218 152.114 286.552 152.114 286.552Z" fill="#9ACDA3" stroke="#263239" stroke-miterlimit="10"/>
<path d="M158.872 284.253C158.872 284.253 168.652 286.216 165.681 279.952C162.711 273.688 158.872 284.253 158.872 284.253Z" fill="#9ACDA3" stroke="#263239" stroke-miterlimit="10"/>
<path d="M149.844 272.913C149.844 272.913 146.459 284.137 149.922 284.149C153.385 284.162 161.946 278.144 157.562 273.365C153.191 268.6 149.844 272.913 149.844 272.913Z" fill="#9ACDA3" stroke="#263239" stroke-miterlimit="10"/>
<path d="M145.784 288.05C145.784 288.05 140.272 294.882 146.718 297.71C153.165 300.539 152.529 297.555 150.96 293.255C149.377 288.954 145.784 288.05 145.784 288.05Z" fill="#9ACDA3" stroke="#263239" stroke-miterlimit="10"/>
<path d="M124.344 290.077C124.344 290.077 125.9 297.827 130.855 299.247C135.81 300.668 139.066 296.91 135.745 294.327C132.438 291.756 124.344 290.077 124.344 290.077Z" fill="#9ACDA3" stroke="#263239" stroke-miterlimit="10"/>
<path d="M131.089 287.792C131.089 287.792 140.869 289.755 137.898 283.491C134.941 277.227 131.089 287.792 131.089 287.792Z" fill="#9ACDA3" stroke="#263239" stroke-miterlimit="10"/>
<path d="M122.061 276.452C122.061 276.452 118.676 287.675 122.139 287.688C125.602 287.701 134.163 281.683 129.779 276.904C125.421 272.138 122.061 276.452 122.061 276.452Z" fill="#9ACDA3" stroke="#263239" stroke-miterlimit="10"/>
<path d="M118.014 291.589C118.014 291.589 112.502 298.421 118.948 301.249C125.395 304.077 124.759 301.094 123.19 296.793C121.607 292.493 118.014 291.589 118.014 291.589Z" fill="#9ACDA3" stroke="#263239" stroke-miterlimit="10"/>
<path d="M112.022 250.531C112.022 250.531 113.578 258.28 118.533 259.701C123.488 261.122 126.744 257.363 123.423 254.78C120.116 252.21 112.022 250.531 112.022 250.531Z" fill="#9ACDA3" stroke="#263239" stroke-miterlimit="10"/>
<path d="M118.78 248.232C118.78 248.232 128.559 250.196 125.589 243.932C122.632 237.668 118.78 248.232 118.78 248.232Z" fill="#9ACDA3" stroke="#263239" stroke-miterlimit="10"/>
<path d="M109.752 236.906C109.752 236.906 106.367 248.129 109.83 248.142C113.293 248.155 121.854 242.137 117.47 237.358C113.099 232.592 109.752 236.906 109.752 236.906Z" fill="#9ACDA3" stroke="#263239" stroke-miterlimit="10"/>
<path d="M105.692 252.042C105.692 252.042 100.18 258.875 106.626 261.703C113.073 264.531 112.437 261.548 110.868 257.247C109.298 252.946 105.692 252.042 105.692 252.042Z" fill="#9ACDA3" stroke="#263239" stroke-miterlimit="10"/>
<path d="M66.3657 293.074C66.3657 293.074 59.4005 289.303 55.1202 292.183C50.8529 295.063 51.6701 299.958 55.7817 299.079C59.8934 298.201 66.3657 293.074 66.3657 293.074Z" fill="#9ACDA3" stroke="#263239" stroke-miterlimit="10"/>
<path d="M63.8105 299.712C63.8105 299.712 56.0412 305.937 62.7599 307.681C69.4916 309.424 63.8105 299.712 63.8105 299.712Z" fill="#9ACDA3" stroke="#263239" stroke-miterlimit="10"/>
<path d="M78.3246 300.074C78.3246 300.074 71.8393 290.297 69.6084 292.945C67.3775 295.579 66.5344 305.976 73.0326 305.692C79.5179 305.395 78.3246 300.074 78.3246 300.074Z" fill="#9ACDA3" stroke="#263239" stroke-miterlimit="10"/>
<path d="M69.2582 287.275C69.2582 287.275 67.5201 278.686 61.2164 281.799C54.9127 284.911 57.6236 286.345 61.9428 287.895C66.249 289.445 69.2582 287.275 69.2582 287.275Z" fill="#9ACDA3" stroke="#263239" stroke-miterlimit="10"/>
<path d="M143.8 227.284C143.8 227.284 147.03 250.751 143.8 269.723C140.57 288.696 130.233 301.236 130.233 301.236" stroke="#263239" stroke-miterlimit="10"/>
<path d="M134.435 197.696C134.435 197.696 124.098 271.97 124.422 284.511C124.746 297.052 125.07 302.838 125.07 302.838" stroke="#263239" stroke-miterlimit="10"/>
<path d="M181.907 215.066C181.907 215.066 184.164 245.611 175.772 270.046C167.38 294.482 157.367 303.806 157.367 303.806" stroke="#263239" stroke-miterlimit="10"/>
<path d="M34.3284 200.911C34.3284 200.911 42.0848 232.747 67.5849 255.258C93.085 277.769 113.112 294.482 114.084 302.528" stroke="#263239" stroke-miterlimit="10"/>
<path d="M43.0446 226.315C43.0446 226.315 35.6124 224.068 32.0715 228.24C28.5175 232.424 25.6121 247.858 30.1259 246.579C34.6526 245.288 43.0446 226.315 43.0446 226.315Z" fill="#9ACDA3" stroke="#263239" stroke-miterlimit="10"/>
<path d="M42.3961 209.603C42.3961 209.603 34.6397 208.312 35.2883 212.819C35.9368 217.327 46.2614 226.006 47.8827 222.144C49.491 218.282 51.4366 211.851 49.1797 209.926C46.9229 207.989 44.9773 207.343 42.3961 209.603Z" fill="#9ACDA3" stroke="#263239" stroke-miterlimit="10"/>
<path d="M50.1525 236.932C50.1525 236.932 43.6932 238.856 42.0848 243.041C40.4765 247.225 42.4091 255.581 43.6932 252.365C44.9902 249.149 44.3417 243.041 47.2471 241.439C50.1525 239.825 51.7608 237.577 50.1525 236.932Z" fill="#9ACDA3" stroke="#263239" stroke-miterlimit="10"/>
<path d="M67.5849 255.258C67.5849 255.258 56.2876 253.011 55.3148 263.614C54.342 274.231 64.3553 280.985 66.3008 278.402C68.2334 275.832 71.7874 267.476 70.5033 262.323C69.2062 257.183 67.5849 255.258 67.5849 255.258Z" fill="#9ACDA3" stroke="#263239" stroke-miterlimit="10"/>
<path d="M59.5172 247.212C59.5172 247.212 58.8687 242.072 64.6795 241.749C70.4903 241.426 81.4764 247.858 78.5709 250.751C75.6655 253.644 66.9493 247.212 64.6795 246.889C62.4226 246.579 59.5172 247.212 59.5172 247.212Z" fill="#9ACDA3" stroke="#263239" stroke-miterlimit="10"/>
<path d="M37.5581 196.74C37.5581 196.74 29.8017 192.555 28.1933 197.063C26.585 201.57 28.8418 209.28 31.423 207.033C34.0041 204.773 37.5581 196.74 37.5581 196.74Z" fill="#9ACDA3" stroke="#263239" stroke-miterlimit="10"/>
<path d="M47.8955 230.823C47.8955 230.823 43.3688 228.576 51.7737 226.638C60.1657 224.714 69.5304 230.823 65.3409 232.424C61.1255 234.039 47.8955 230.823 47.8955 230.823Z" fill="#9ACDA3" stroke="#263239" stroke-miterlimit="10"/>
<path d="M170.597 286.125C170.597 286.125 172.53 291.589 175.759 294.804C178.989 298.02 184.151 302.205 185.448 299.312C186.745 296.419 187.057 288.696 183.191 285.48C179.313 282.264 170.597 286.125 170.597 286.125Z" fill="#9ACDA3" stroke="#263239" stroke-miterlimit="10"/>
<path d="M177.381 267.153C177.381 267.153 184.164 264.906 186.745 268.445C189.326 271.983 189.975 281.308 186.745 280.017C183.516 278.725 177.381 267.153 177.381 267.153Z" fill="#9ACDA3" stroke="#263239" stroke-miterlimit="10"/>
<path d="M179.313 256.227C179.313 256.227 176.732 248.827 169.948 247.225C163.165 245.624 156.381 251.087 162.516 252.042C168.664 253.011 177.056 252.688 179.313 256.227Z" fill="#9ACDA3" stroke="#263239" stroke-miterlimit="10"/>
<path d="M180.935 249.795C180.935 249.795 182.867 244.655 188.367 244.978C193.853 245.301 198.38 251.087 196.123 252.701C193.853 254.29 187.718 246.256 180.935 249.795Z" fill="#9ACDA3" stroke="#263239" stroke-miterlimit="10"/>
<path d="M182.543 228.886C182.543 228.886 177.056 224.068 170.597 228.24C164.138 232.424 166.395 234.994 169.948 234.349C173.502 233.716 178.353 227.93 182.543 228.886Z" fill="#9ACDA3" stroke="#263239" stroke-miterlimit="10"/>
<path d="M182.543 228.886C182.543 228.886 184.8 224.701 189.975 224.701C195.137 224.701 199.988 233.057 196.11 233.703C192.232 234.362 182.543 228.886 182.543 228.886Z" fill="#9ACDA3" stroke="#263239" stroke-miterlimit="10"/>
<path d="M185.137 211.851C185.137 211.851 176.097 206.387 173.84 210.249C171.583 214.111 176.097 222.79 180.299 222.144C184.488 221.498 190.299 212.173 185.137 211.851Z" fill="#9ACDA3" stroke="#263239" stroke-miterlimit="10"/>
<path d="M173.178 276.155C173.178 276.155 172.205 271.015 166.719 273.262C161.232 275.509 160.26 281.618 162.192 282.587C164.138 283.555 168.989 276.155 173.178 276.155Z" fill="#9ACDA3" stroke="#263239" stroke-miterlimit="10"/>
<path d="M134.111 206.065C134.111 206.065 136.043 200.601 140.894 200.279C145.732 199.956 148.962 208.002 147.354 209.603C145.732 211.205 134.111 206.065 134.111 206.065Z" fill="#9ACDA3" stroke="#263239" stroke-miterlimit="10"/>
<path d="M137.016 193.847C137.016 193.847 132.178 197.386 128.949 198.031C125.719 198.677 127.652 198.677 129.921 202.216C132.178 205.755 139.286 200.292 140.894 196.43C142.503 192.555 139.597 191.587 137.016 193.847Z" fill="#9ACDA3" stroke="#263239" stroke-miterlimit="10"/>
<path d="M147.354 224.068C147.354 224.068 137.989 226.961 138.962 230.177C139.935 233.393 150.583 236.286 151.881 232.747C153.165 229.208 147.354 224.068 147.354 224.068Z" fill="#9ACDA3" stroke="#263239" stroke-miterlimit="10"/>
<path d="M144.773 241.749C144.773 241.749 140.895 236.932 137.989 240.148C135.084 243.363 132.827 248.504 135.408 250.118C137.989 251.72 144.773 241.749 144.773 241.749Z" fill="#9ACDA3" stroke="#263239" stroke-miterlimit="10"/>
<path d="M144.773 241.749C144.773 241.749 148.975 235.963 152.529 237.887C156.083 239.812 160.285 246.889 156.083 247.535C151.868 248.181 144.773 241.749 144.773 241.749Z" fill="#9ACDA3" stroke="#263239" stroke-miterlimit="10"/>
<path d="M115.693 325.956H184.009" stroke="#263239" stroke-miterlimit="10"/>
<path d="M61.8649 325.956H112.45" stroke="#263239" stroke-miterlimit="10"/>
<path d="M78.9471 330.838H182.854" stroke="#263239" stroke-miterlimit="10"/>
<path d="M62.9414 330.838H74.1869" stroke="#263239" stroke-miterlimit="10"/>
<path d="M169.521 335.72H182.854" stroke="#263239" stroke-miterlimit="10"/>
<path d="M64.0179 335.72H164.981" stroke="#263239" stroke-miterlimit="10"/>
<path d="M171.036 260.533C172.011 261.358 172.631 262.526 172.769 263.796C172.779 263.893 172.864 263.964 172.961 263.956L173.904 263.873C173.953 263.869 173.998 263.845 174.03 263.807C174.062 263.769 174.077 263.721 174.073 263.671C173.722 260.325 170.797 257.849 167.439 258.057C167.39 258.061 167.345 258.084 167.312 258.121C167.28 258.159 167.264 258.207 167.268 258.256L167.343 259.2C167.35 259.297 167.435 259.37 167.532 259.363C168.807 259.289 170.061 259.708 171.036 260.533Z" fill="#359276"/>
<path d="M172.434 258.76C173.902 260.003 174.846 261.75 175.071 263.642C175.087 263.786 175.215 263.894 175.36 263.883L176.767 263.773C176.84 263.768 176.908 263.733 176.954 263.677C177.001 263.622 177.023 263.549 177.016 263.476C176.443 258.49 172.038 254.762 167.026 255.021C166.953 255.025 166.885 255.059 166.838 255.114C166.79 255.17 166.767 255.242 166.774 255.315L166.899 256.721C166.912 256.865 167.039 256.975 167.184 256.966C169.087 256.875 170.966 257.518 172.434 258.76Z" fill="#359276"/>
<path d="M169.623 262.203C170.159 262.656 170.507 263.292 170.599 263.988C170.61 264.084 170.695 264.155 170.792 264.147L171.734 264.063C171.784 264.059 171.829 264.035 171.861 263.997C171.893 263.959 171.908 263.909 171.903 263.86C171.646 261.712 169.774 260.128 167.613 260.229C167.564 260.232 167.517 260.255 167.485 260.293C167.453 260.33 167.437 260.38 167.441 260.429L167.514 261.372C167.522 261.469 167.606 261.541 167.702 261.536C168.403 261.512 169.088 261.75 169.623 262.203Z" fill="#359276"/>
</g>
<path d="M175.084 264.799L168.257 261.663L165.383 253.88L166.235 253.631C170.296 252.445 174.574 254.751 175.769 258.784C176.287 260.518 176.162 262.384 175.427 264.036L175.084 264.799ZM169.594 260.451L174.19 262.567C174.499 261.488 174.491 260.343 174.173 259.257C173.321 256.394 170.48 254.635 167.589 255.042L169.594 260.451Z" fill="#F28C1C"/>
<path d="M178.878 265.878C178.777 265.878 178.669 265.861 178.568 265.82C178.142 265.654 177.925 265.172 178.1 264.741C178.961 262.575 179.07 260.244 178.401 258.012C176.839 252.752 171.399 249.616 166.026 250.877C165.575 250.976 165.123 250.702 165.023 250.263C164.915 249.815 165.199 249.367 165.642 249.267C171.875 247.807 178.184 251.441 179.997 257.547C180.774 260.144 180.649 262.849 179.646 265.363C179.521 265.679 179.212 265.878 178.878 265.878Z" fill="#F28C1C"/>
<path d="M183.691 267.222C183.599 267.222 183.498 267.205 183.407 267.172C182.972 267.014 182.746 266.541 182.905 266.11C184.025 263.04 184.117 259.746 183.181 256.61C181.042 249.425 174.073 244.87 166.594 245.766C166.135 245.824 165.717 245.5 165.667 245.044C165.617 244.587 165.934 244.173 166.394 244.123C174.683 243.135 182.421 248.188 184.785 256.145C185.821 259.63 185.713 263.272 184.476 266.682C184.351 267.014 184.033 267.222 183.691 267.222Z" fill="#F28C1C"/>
<defs>
<linearGradient id="paint0_linear_103_7471" x1="11.1311" y1="63.1854" x2="55.8691" y2="63.1854" gradientUnits="userSpaceOnUse">
<stop stop-color="#706F6F"/>
<stop offset="0.172" stop-color="white"/>
<stop offset="0.4865" stop-color="#F0F0F0"/>
<stop offset="0.6816" stop-color="white"/>
<stop offset="0.8971" stop-color="white"/>
<stop offset="1" stop-color="#9F9F9F"/>
</linearGradient>
<linearGradient id="paint1_linear_103_7471" x1="178.131" y1="63.1854" x2="222.869" y2="63.1854" gradientUnits="userSpaceOnUse">
<stop stop-color="#706F6F"/>
<stop offset="0.172" stop-color="white"/>
<stop offset="0.4865" stop-color="#F0F0F0"/>
<stop offset="0.6816" stop-color="white"/>
<stop offset="0.8971" stop-color="white"/>
<stop offset="1" stop-color="#9F9F9F"/>
</linearGradient>
<linearGradient id="paint2_linear_103_7471" x1="90.9667" y1="50.4797" x2="144.43" y2="59.7434" gradientUnits="userSpaceOnUse">
<stop offset="0.0365" stop-color="#066A2C"/>
<stop offset="0.2792" stop-color="#46AD4E"/>
<stop offset="0.5081" stop-color="#038036"/>
<stop offset="0.9277" stop-color="#038036"/>
</linearGradient>
<linearGradient id="paint3_linear_103_7471" x1="150.157" y1="282.056" x2="172.42" y2="282.056" gradientUnits="userSpaceOnUse">
<stop stop-color="#706F6F"/>
<stop offset="0.172" stop-color="white"/>
<stop offset="0.4865" stop-color="#F0F0F0"/>
<stop offset="0.6816" stop-color="white"/>
<stop offset="0.8971" stop-color="white"/>
<stop offset="1" stop-color="#9F9F9F"/>
</linearGradient>
<clipPath id="clip0_103_7471">
<rect width="45" height="224" fill="white" transform="translate(11 14.0028)"/>
</clipPath>
<clipPath id="clip1_103_7471">
<rect width="45" height="224" fill="white" transform="translate(178 14.0028)"/>
</clipPath>
<clipPath id="clip2_103_7471">
<rect width="74" height="221" fill="white" transform="translate(80 0.00280762)"/>
</clipPath>
<clipPath id="clip3_103_7471">
<rect width="174" height="238" fill="white" transform="translate(27 192)"/>
</clipPath>
</defs>
</svg>
