<svg width="390" height="713" viewBox="0 0 390 713" fill="none" xmlns="http://www.w3.org/2000/svg">
<g opacity="0.3">
<path opacity="0.64" d="M426.492 377.634C423.091 380.759 418.009 382.165 413.474 382.751C408.9 383.415 404.366 383.337 399.831 383.103C390.683 382.634 381.301 381.423 369.456 382.204C345.61 383.728 330.794 400.955 324.266 407.401C321.295 410.37 316.604 415.135 312.812 419.354C311.952 420.331 311.131 421.229 310.349 422.089C315.04 411.151 321.686 404.002 328.722 397.869C336.424 391.033 344.946 385.447 353.233 374.782C358.745 367.633 361.833 359.781 362.537 353.14C363.358 346.5 361.794 341.226 359.879 337.827C358.081 334.39 355.461 332.515 353.859 331.46C352.139 330.405 351.005 330.132 351.005 330.132C351.865 338.804 347.721 345.132 342.678 349.507C337.518 354.039 331.342 357.242 324.344 362.946C317.308 368.61 313.437 376.462 311.444 383.884C309.45 391.345 309.45 398.26 309.137 402.244C308.903 405.838 308.707 411.58 308.785 416.424C308.864 419.12 308.942 421.542 308.981 423.143C296.471 429.042 284.158 435.371 272.078 442.09C275.557 433.886 279.896 427.831 284.548 421.972C290.256 414.627 296.55 407.362 300.537 396.267C305.619 381.228 301.749 370.602 297.488 365.485C293.11 360.172 288.536 359.078 288.536 359.078C289.005 366.618 286.151 372.399 282.437 377.399C278.685 382.439 274.15 386.736 269.889 392.595C265.589 398.416 264.729 405.096 264.924 411.62C265.12 418.065 266.488 424.198 266.918 427.753C267.426 431.659 268.364 438.964 268.99 443.848C266.918 445.019 264.846 446.191 262.774 447.402C259.764 448.574 256.246 450.293 253.705 452.168C252.532 453.067 251.555 453.887 250.773 454.668C248.388 456.153 246.004 457.637 243.658 459.161C238.42 462.598 233.26 466.153 228.099 469.825C231.657 463.184 235.136 458.028 238.928 453.106C241.625 449.551 244.401 446.113 246.981 442.48C249.6 438.691 251.946 435.332 254.33 429.784C257.028 423.065 257.536 418.495 257.497 414.628C257.419 410.838 256.715 407.83 256.05 404.979C255.386 402.361 254.76 399.744 254.291 397.752C253.822 395.877 253.431 394.744 253.431 394.744C247.45 400.291 243.15 405.057 238.185 409.705C235.879 411.971 233.338 414.471 230.953 416.815C229.741 418.065 228.569 419.237 227.513 420.331C226.419 421.425 225.324 422.518 224.073 424.198C219.343 430.253 218.678 436.933 219.147 443.144C219.656 449.317 221.219 455.137 221.728 458.614C222.197 461.7 222.861 466.817 223.135 471.349C223.174 472.013 223.213 472.677 223.252 473.302C210.195 482.834 197.647 493.068 185.88 504.163C189.555 491.271 193.542 481.623 197.725 472.247C202.338 461.817 207.029 451.66 209.57 438.964C210 436.816 210.313 434.785 210.586 432.753C210.821 430.449 210.899 428.573 210.899 426.776C210.899 423.222 210.586 420.292 210.117 417.753C209.218 412.674 207.85 409.002 206.521 405.838C205.192 402.713 203.941 400.135 202.963 398.299C202.025 396.502 201.282 395.486 201.282 395.486C196.63 404.549 193.777 412.01 189.985 419.276C188.147 422.909 186.271 426.386 184.277 429.706C182.245 433.3 180.212 437.324 178.374 441.777C174.7 450.723 175.012 459.083 176.224 466.544C177.514 473.966 179.704 480.529 180.564 484.552C181.306 488.107 182.596 494.045 183.339 499.202C183.73 501.663 184.004 503.889 184.238 505.608C178.023 511.546 172.002 517.679 166.295 524.124C161.565 529.359 157.03 534.828 152.691 540.453C150.345 511.624 160.001 495.569 163.598 470.333C166.178 452.754 163.793 441.621 160.588 434.511C157.46 427.441 153.434 424.628 153.434 424.628C149.72 444.824 138.931 454.903 132.598 475.958C126.421 497.053 137.836 514.671 141.589 522.484C144.052 527.523 149.016 537.055 151.557 541.899C142.762 553.384 134.865 565.572 128.024 578.385C123.137 567.173 122.668 556.235 122.786 545.805C122.825 533.617 124.271 521.117 120.166 505.53C115.241 486.545 106.797 476.661 100.268 471.974C93.6619 467.208 88.7363 467.208 88.7363 467.208C92.9974 476.935 93.701 485.568 93.6619 494.24C93.5446 498.576 93.4274 503.264 93.3101 507.639C93.1928 512.366 93.3883 517.366 93.3101 521.976C93.4274 532.172 96.6329 541.313 100.855 548.969C105.038 556.626 110.159 562.407 112.973 565.845C115.475 568.97 119.775 573.775 123.606 577.408C124.818 578.58 125.952 579.596 126.968 580.494C121.925 590.143 117.469 600.065 113.794 610.3C112.231 614.714 110.784 619.168 109.494 623.66C107.54 615.769 105.35 608.894 103.279 602.487C100.425 594.049 97.7666 586.315 94.8347 578.893C91.981 571.47 88.8927 564.126 85.2571 556.978C81.8952 550.18 78.2597 542.992 73.1777 535.258C66.4538 524.984 59.1045 517.405 52.1071 512.522C45.1096 507.639 38.6985 505.452 33.7729 504.749C28.7691 504.085 25.2899 504.749 23.0617 505.569C20.8725 506.35 19.8952 507.092 19.8952 507.092C31.5056 512.444 37.4866 521.429 41.8259 530.453C46.2433 539.672 49.097 549.633 54.7262 561.939C60.7073 574.791 68.4085 582.604 75.445 589.596C82.4816 596.471 89.1272 601.901 92.7237 605.769C95.9293 609.167 101.05 614.988 104.842 620.691C106.328 622.84 107.618 624.949 108.634 626.746C105.624 637.567 103.435 648.622 102.262 659.794C101.715 664.795 101.363 669.795 101.168 674.795C101.05 674.444 100.972 674.131 100.855 673.78C98.6657 666.943 96.2811 660.498 93.3492 654.247C90.4955 647.919 87.2117 641.669 82.9898 635.34C78.7679 629.012 73.725 622.527 66.8839 616.121C60.1209 609.714 51.9898 604.909 44.3278 602.058C36.5093 599.128 29.0818 597.878 22.3971 597.487C8.94944 596.784 -1.37086 599.479 -7.46922 601.003C-12.9421 602.292 -21.4642 605.105 -27.7189 608.386C-34.0909 611.589 -37.8438 615.027 -37.8438 615.027C-28.6962 611.277 -18.1023 610.886 -8.87654 612.019C0.466465 613.152 9.06672 615.691 16.9242 619.051C32.952 625.809 44.836 635.262 59.0655 648.896C77.7515 667.06 87.4854 678.428 94.6001 685.772C97.3757 688.819 99.7212 691.163 101.48 692.921C101.871 698.898 102.614 704.875 103.826 710.851C104.1 712.219 105.429 713.078 106.797 712.805C108.165 712.531 109.025 711.203 108.751 709.836L108.712 709.601C107.813 705.148 107.149 700.617 106.719 696.046C107.071 695.616 107.422 695.187 107.735 694.796C108.517 694.093 109.299 693.429 110.002 692.843C111.449 691.515 113.052 690.304 114.811 689.21C116.531 688.116 118.134 686.983 119.971 686.046C127.047 682.178 134.279 679.444 141.511 677.139C156.014 672.49 170.595 669.365 187.561 662.842C210.234 654.169 222.275 644.13 228.256 636.512C234.198 628.738 234.354 623.66 234.354 623.66C210 635.848 192.252 632.489 164.692 639.559C136.859 646.474 121.065 667.568 114.811 676.241C112.27 679.522 108.673 684.874 106.25 689.757C105.702 679.952 106.054 669.99 107.031 660.263C107.227 658.154 107.501 656.044 107.774 653.935C110.159 649.325 113.794 645.341 118.173 642.372C124.779 637.684 132.363 634.872 140.103 632.918C148 630.887 155.584 629.949 165.083 627.996C173.449 626.199 182.088 624.559 191.783 622.176C217.701 616.082 233.181 606.941 240.609 599.362C244.401 595.573 246.395 592.37 247.489 590.065C248.545 587.799 248.701 586.51 248.701 586.51C235.019 592.604 223.018 593.737 210.977 594.245C198.859 594.753 186.466 594.284 170.361 596.745C166.334 597.37 162.464 598.307 158.828 599.44C156.913 600.026 155.427 600.534 153.942 601.081C152.3 601.667 150.736 602.253 149.094 602.917C142.605 605.534 136.507 608.855 131.425 612.488C121.105 619.832 115.006 628.27 111.918 633.27C111.801 633.426 111.722 633.582 111.605 633.739C113.403 626.277 115.553 618.933 118.055 611.706C120.518 604.675 123.411 597.8 126.538 591.002C138.852 582.838 152.026 580.104 164.379 578.502C179.078 576.627 193.659 576.783 211.954 572.72C222.431 570.377 232.243 567.759 239.632 564.165C247.137 560.65 252.454 556.509 255.738 552.602C259.06 548.657 260.35 545.258 260.741 542.914C261.132 540.571 260.859 539.399 260.859 539.399C255.933 543.149 250.304 544.946 244.948 545.766C239.553 546.625 234.315 546.625 228.999 546.391C223.682 546.157 218.248 545.649 212.189 545.532C209.218 545.414 205.7 545.649 202.768 545.688C199.797 545.766 196.591 545.883 193.19 546.118C179.547 547.016 167.624 551.587 158.32 557.134C149.016 562.642 142.566 569.126 138.735 572.799C136.859 574.517 134.513 576.9 132.168 579.557C139.791 565.142 148.86 551.43 159.024 538.617C163.285 534.516 169.579 532.015 175.794 531.078C183.339 529.984 190.767 530.492 198.116 531.742C201.791 532.328 205.465 533.148 209.296 533.93L215.395 535.18C217.427 535.531 219.46 535.883 221.454 536.234C229.507 537.563 238.185 538.774 248.115 538.852C261.328 538.969 272.547 536.391 280.874 532.601C289.239 528.773 294.556 523.695 297.644 519.554C299.13 517.327 300.146 515.374 300.85 513.694C301.475 511.897 301.788 510.413 301.944 509.241C302.257 506.858 301.983 505.686 301.983 505.686C291.741 514.319 280.444 515.608 270.163 514.749C259.647 513.89 249.444 510.999 235.801 508.538C229.038 507.288 222.118 506.936 216.215 507.249C210.352 507.444 203.862 508.147 198.39 509.514C188.499 511.858 180.954 515.96 176.146 518.929C185.724 508.772 195.966 499.241 206.716 490.295C217.466 487.717 227.396 489.982 236.426 493.186C247.098 497.014 259.021 502.717 274.58 503.811C284.939 504.592 293.383 502.991 299.677 500.647C306.01 498.264 310.232 495.1 313.125 492.209C315.666 489.592 317.112 487.17 317.972 485.256C319.809 485.373 321.569 485.373 323.289 485.217C329.817 484.67 334.586 482.209 337.44 479.63C340.333 477.013 341.584 474.357 342.209 472.443C342.796 470.528 342.796 469.356 342.796 469.356C334.899 472.013 328.253 469.122 323.25 465.098C318.168 461.036 313.672 455.489 306.596 450.254C300.459 445.215 291.663 442.871 284.001 442.949C280.444 442.949 277.16 443.379 274.267 444.004C281.617 439.824 289.083 435.839 296.628 431.972C306.166 431.738 313.828 435.683 320.748 440.215C328.527 445.215 336.189 451.621 348.659 455.059C356.947 457.247 364.257 457.012 369.73 455.332C375.203 453.887 378.917 451.035 381.34 448.574C386.149 443.223 386.461 438.574 386.461 438.574C378.721 440.41 372.193 438.496 366.642 435.488C360.973 432.402 356.361 428.144 350.067 424.159C343.812 420.136 336.384 419.198 329.27 419.706C324.5 420.057 320.122 421.151 316.682 422.128C318.441 421.307 320.161 420.487 321.92 419.667C330.638 416.581 338.769 415.057 346.783 414.042C359.449 412.44 371.763 412.127 386.54 408.963C406.164 404.861 417.931 397.127 423.443 389.744C426.179 386.111 427.273 382.829 427.234 380.603C427.039 378.649 426.492 377.634 426.492 377.634ZM292.601 481.701C284.588 479.552 277.043 476.31 267.582 473.224C262.852 471.661 258.279 470.919 253.705 470.685C249.092 470.45 244.362 470.763 240.023 471.544C234.002 472.599 228.842 474.552 224.933 476.31C225.011 476.154 225.089 475.958 225.168 475.802C231.735 470.919 238.459 466.231 245.261 461.7C248.193 459.786 251.164 457.911 254.135 456.036C256.793 455.879 259.608 456.27 262.149 457.012C266.683 458.34 270.749 460.723 274.58 463.38C278.45 466.075 282.086 469.083 286.229 472.208C288.379 473.771 290.49 475.333 293.227 476.935C295.924 478.537 298.192 479.708 301.084 481.037C303.274 482.052 305.463 482.873 307.652 483.537C302.374 483.732 297.41 482.951 292.601 481.701Z" fill="#B9C6C0"/>
<path opacity="0.64" d="M390.918 206.65C387.439 205.79 384.35 203.134 382.044 200.478C379.659 197.782 377.744 194.852 375.946 191.805C372.31 185.711 369.065 179.109 363.475 171.804C352.256 157.077 334.743 154.89 327.784 153.483C324.618 152.858 319.497 151.882 315.158 151.257C314.18 151.1 313.203 150.983 312.343 150.866C321.451 149.186 328.879 150.436 335.876 152.311C343.617 154.343 350.888 157.429 361.325 158.21C368.323 158.679 374.695 157.312 379.308 154.929C383.96 152.624 386.696 149.342 388.064 146.647C389.511 143.991 389.589 141.53 389.589 140.006C389.511 138.444 389.198 137.623 389.198 137.623C383.96 141.92 378.096 141.959 373.092 140.592C367.971 139.225 363.202 136.608 356.517 134.537C349.832 132.428 343.108 133.287 337.479 135.24C331.811 137.154 327.315 140.123 324.618 141.647C322.194 143.014 318.402 145.397 315.314 147.506C313.594 148.717 312.069 149.811 311.053 150.514C301.866 144.967 292.484 139.733 282.946 134.85C289.748 133.561 295.533 133.795 301.28 134.225C308.473 134.772 315.861 135.67 324.735 133.482C336.619 130.318 341.818 123.248 343.343 118.286C344.907 113.169 343.617 109.77 343.617 109.77C338.965 113.325 333.961 113.95 329.192 113.716C324.344 113.482 319.614 112.388 313.985 112.153C308.356 111.88 303.704 114.185 299.599 117.115C295.533 120.005 292.171 123.521 290.06 125.318C287.754 127.31 283.415 131.06 280.561 133.561C278.919 132.74 277.238 131.92 275.596 131.1C273.564 129.654 270.944 128.131 268.638 127.31C267.543 126.959 266.605 126.685 265.745 126.49C263.751 125.591 261.797 124.693 259.803 123.834C255.347 121.919 250.812 120.122 246.238 118.404C252.063 117.857 256.871 117.857 261.68 118.208C265.12 118.443 268.521 118.716 272 118.833C275.596 118.911 278.763 118.99 283.337 118.091C288.849 116.958 292.015 115.278 294.478 113.638C296.902 111.958 298.543 110.2 300.107 108.559C301.514 106.997 302.922 105.473 304.016 104.301C305.033 103.208 305.58 102.465 305.58 102.465C299.403 100.981 294.517 100.278 289.357 99.0668C286.894 98.559 284.197 97.973 281.656 97.4652C280.327 97.2308 279.076 96.9574 277.903 96.7621C276.73 96.5277 275.557 96.2933 273.915 96.2152C267.973 95.7464 263.361 98.2074 259.569 101.176C255.777 104.145 252.728 107.661 250.656 109.497C248.857 111.099 245.847 113.755 243.033 115.864C242.603 116.177 242.212 116.489 241.821 116.763C230.054 112.427 218.053 108.755 205.856 105.903C215.786 102.739 223.682 101.176 231.54 99.8091C240.257 98.2856 248.818 96.9574 258.122 93.1681C259.686 92.5431 261.132 91.84 262.579 91.1368C264.182 90.3165 265.432 89.5352 266.566 88.793C268.873 87.2694 270.593 85.785 272.078 84.4178C274.971 81.6442 276.769 79.1832 278.216 76.9956C279.662 74.808 280.796 72.8548 281.538 71.4875C282.281 70.0812 282.633 69.1827 282.633 69.1827C274.775 70.0812 268.755 71.4484 262.422 72.1125C259.295 72.5032 256.246 72.7766 253.236 72.9329C250.069 73.1673 246.59 73.5579 242.915 74.3001C235.566 75.7846 230.289 79.5738 225.989 83.5583C221.728 87.582 218.444 91.8009 216.216 94.1057C214.261 96.137 210.938 99.4966 207.967 102.192C206.56 103.481 205.231 104.653 204.214 105.512C197.725 104.028 191.158 102.817 184.551 101.879C179.117 101.059 173.644 100.512 168.171 100.122C185.802 86.2147 200.305 85.5506 218.131 77.0346C230.601 71.1359 236.739 64.8075 239.984 59.7292C243.189 54.6899 243.306 50.8616 243.306 50.8616C228.608 57.0337 217.506 54.3774 201.165 59.3776C184.903 64.4559 178.414 79.3785 174.973 85.16C172.784 88.9101 168.758 96.2152 166.686 99.9263C155.466 99.184 144.208 99.3403 133.028 100.434C138.149 92.465 145.029 87.4648 151.831 83.0505C159.728 77.855 168.406 73.4016 176.733 64.0653C186.857 52.7367 189.633 43.0488 189.868 36.7985C190.102 30.5091 187.991 27.3059 187.991 27.3059C183.535 34.2202 178.257 38.4001 172.628 42.0722C169.774 43.8691 166.725 45.7833 163.832 47.6193C160.744 49.5725 157.577 51.8382 154.567 53.7914C148.039 58.2447 143.504 64.2606 140.377 70.2765C137.211 76.2533 135.686 82.0348 134.67 85.3553C133.692 88.2851 132.441 93.1681 131.777 97.1918C131.542 98.4809 131.386 99.6528 131.229 100.668C122.864 101.567 114.498 102.934 106.289 104.966C102.77 105.864 99.2912 106.841 95.812 107.934C100.073 103.286 103.552 98.9106 106.797 94.8088C111.019 89.3399 114.85 84.3006 118.407 79.2222C121.965 74.1829 125.405 69.0265 128.454 63.6356C131.386 58.5573 134.474 53.0883 137.289 46.5255C141.042 37.7751 142.762 29.7669 142.918 23.1651C143.074 16.5632 141.706 11.4458 140.064 7.9691C138.344 4.45332 136.429 2.50011 134.943 1.40631C133.497 0.312512 132.598 0.0390625 132.598 0.0390625C134.122 9.80512 130.878 17.5398 126.929 24.2198C122.864 31.017 117.664 37.1501 112.153 46.0958C106.445 55.4712 104.686 63.7919 103.161 71.3313C101.754 78.7925 101.089 85.4725 100.112 89.418C99.2912 92.9338 97.7275 98.7153 95.6947 103.637C94.952 105.512 94.1311 107.231 93.4274 108.677C85.1399 111.411 77.0869 114.732 69.3467 118.755C65.9066 120.552 62.5056 122.466 59.1828 124.498C59.3391 124.302 59.5346 124.068 59.691 123.873C63.1702 119.536 66.2975 115.2 69.0731 110.63C71.9268 106.059 74.5459 101.254 76.8524 95.8245C79.1588 90.3946 81.1525 84.3396 82.3253 77.1909C83.5371 70.0812 83.1462 62.7762 81.7389 56.565C80.2925 50.2366 77.9079 44.9238 75.2496 40.4315C69.9331 31.4858 63.7565 25.9777 60.1601 22.6963C56.9936 19.7274 51.5207 15.4304 46.6733 12.8131C41.865 10.0786 38.034 9.10196 38.034 9.10196C44.3669 13.399 49.1752 20.0399 52.4198 26.4855C55.7036 33.0093 57.7364 39.6502 58.9482 46.1739C61.4501 59.4167 60.4728 71.1359 57.7755 86.1757C54.0617 106.02 50.8953 117.193 49.2143 124.927C48.4715 128.013 47.9243 130.553 47.5333 132.428C43.8587 135.24 40.3013 138.287 36.9394 141.647C36.1966 142.428 36.1966 143.639 36.9394 144.381C37.7212 145.124 38.9331 145.124 39.6758 144.381L39.7931 144.264C42.2559 141.764 44.9142 139.42 47.6897 137.154C48.1197 137.194 48.5497 137.233 48.9406 137.272C49.7225 137.506 50.4652 137.701 51.1689 137.897C52.6544 138.248 54.1008 138.756 55.5863 139.459C57.0327 140.123 58.44 140.631 59.8473 141.452C65.3984 144.342 70.2458 147.858 74.8587 151.491C84.0844 158.835 92.3719 166.882 103.904 175.047C119.228 185.946 130.917 189.422 138.383 189.969C145.967 190.477 149.29 188.368 149.29 188.368C130.956 177.898 125.483 165.007 109.064 150.28C92.6456 135.279 72.2395 134.186 63.952 133.873C60.7464 133.639 55.7427 133.639 51.5598 134.146C57.6582 129.576 64.2256 125.513 70.9495 121.998C72.3959 121.216 73.8814 120.474 75.3669 119.732C79.3543 119.263 83.498 119.927 87.29 121.49C93.1538 123.755 98.2357 127.427 102.81 131.568C107.501 135.787 111.371 140.28 116.726 145.553C121.456 150.163 126.265 155.046 131.972 160.28C147.023 174.383 159.61 180.438 167.702 181.961C171.768 182.781 174.7 182.703 176.654 182.391C178.57 182.117 179.469 181.649 179.469 181.649C169.657 175.437 163.754 168.211 158.242 160.632C152.73 153.015 147.687 144.811 139.165 135.514C137.015 133.209 134.787 131.099 132.48 129.224C131.269 128.248 130.33 127.506 129.314 126.763C128.258 125.943 127.164 125.201 126.03 124.42C121.574 121.333 116.804 118.833 112.27 117.115C103.083 113.599 95.0302 113.325 90.4955 113.442C90.3782 113.442 90.1828 113.442 90.0655 113.442C95.6557 111.411 101.324 109.614 107.071 108.13C112.661 106.723 118.368 105.591 124.076 104.692C134.63 109.145 142.058 116.45 148.391 123.716C155.936 132.389 162.073 141.881 172.55 151.921C178.57 157.702 184.473 162.859 189.946 166.101C195.419 169.421 200.422 171.062 204.332 171.531C208.28 171.961 211.055 171.336 212.736 170.593C214.417 169.851 215.082 169.148 215.082 169.148C210.547 167.585 206.99 164.734 204.136 161.648C201.282 158.523 199.015 155.163 196.904 151.647C194.754 148.092 192.76 144.42 190.258 140.436C189.047 138.483 187.405 136.295 186.115 134.42C184.786 132.545 183.339 130.514 181.697 128.443C175.247 120.044 167.194 114.302 159.61 110.708C152.026 107.075 145.107 105.708 141.081 104.809C139.165 104.341 136.624 103.872 133.888 103.481C146.475 102.192 159.219 102.153 171.885 103.208C176.381 104.184 180.681 107.192 183.965 110.786C187.913 115.161 190.767 120.201 193.112 125.474C194.324 128.092 195.379 130.826 196.474 133.6L198.311 138.053C198.976 139.498 199.601 140.983 200.227 142.389C202.807 148.171 205.778 154.265 210 160.71C215.59 169.265 222.079 175.437 228.1 179.148C234.159 182.899 239.71 184.149 243.697 184.344C245.769 184.344 247.489 184.149 248.857 183.914C250.265 183.563 251.359 183.094 252.219 182.703C253.861 181.883 254.526 181.18 254.526 181.18C244.557 178.289 238.85 171.57 234.98 164.538C231.031 157.39 228.49 149.577 224.229 139.694C222.118 134.811 219.382 130.201 216.646 126.529C213.987 122.818 210.743 118.951 207.498 116.021C201.712 110.669 195.849 107.544 191.861 105.708C202.533 107.505 213.088 110.044 223.487 113.13C229.781 118.951 232.595 126.334 234.393 133.521C236.504 142.037 237.951 152.194 243.932 162.702C247.88 169.734 252.532 174.5 256.754 177.508C261.015 180.555 264.885 181.961 267.973 182.547C270.788 183.055 272.938 182.938 274.541 182.664C275.245 183.914 276.026 185.047 276.847 186.063C280.014 190.008 283.649 192.04 286.542 192.782C289.474 193.524 291.741 193.212 293.227 192.743C294.712 192.313 295.455 191.805 295.455 191.805C290.373 187.86 289.357 182.313 289.826 177.391C290.256 172.351 291.898 167.078 292.289 160.28C292.914 154.147 290.647 147.467 287.285 142.584C285.76 140.28 284.079 138.365 282.437 136.764C288.301 139.733 294.087 142.819 299.794 146.022C304.016 152.077 304.798 158.718 304.837 165.124C304.954 172.273 304.094 179.969 307.222 189.501C309.372 195.79 312.656 200.399 316.096 203.173C319.379 206.103 322.82 207.236 325.439 207.783C330.951 208.603 334.078 206.806 334.078 206.806C329.582 202.587 328.019 197.548 327.55 192.704C327.12 187.743 327.862 182.938 327.745 177.117C327.667 171.336 325.087 166.14 321.686 161.804C319.419 158.874 316.839 156.53 314.688 154.733C315.978 155.515 317.268 156.296 318.519 157.077C324.266 161.374 328.722 165.984 332.827 170.672C339.316 178.133 344.828 185.946 353.194 194.149C364.296 205.048 374.343 209.306 381.458 209.697C384.976 209.892 387.556 209.189 389.002 208.212C390.527 207.392 390.918 206.65 390.918 206.65ZM266.214 164.968C264.142 158.874 263.009 152.624 260.976 145.202C259.96 141.491 258.474 138.209 256.637 135.162C254.799 132.076 252.571 129.185 250.187 126.724C246.903 123.287 243.463 120.826 240.648 119.029C240.804 118.99 240.922 118.99 241.078 118.951C247.059 121.099 252.962 123.404 258.826 125.865C261.328 126.92 263.83 128.013 266.292 129.146C267.543 130.787 268.521 132.779 269.107 134.732C270.202 138.248 270.436 141.881 270.358 145.475C270.28 149.108 269.889 152.78 269.654 156.765C269.576 158.835 269.459 160.827 269.615 163.327C269.733 165.749 269.967 167.742 270.358 170.164C270.671 172 271.062 173.758 271.57 175.476C269.107 172.156 267.465 168.601 266.214 164.968Z" fill="#B9C6C0"/>
</g>
</svg>
