<svg width="132" height="146" viewBox="0 0 132 146" fill="none" xmlns="http://www.w3.org/2000/svg">
<path d="M2.46591 132.818V143H1.23295V132.818H2.46591ZM7.66246 143.159C7.0261 143.159 6.46431 142.998 5.9771 142.677C5.48988 142.352 5.10872 141.895 4.83363 141.305C4.55853 140.711 4.42099 140.01 4.42099 139.202C4.42099 138.4 4.55853 137.704 4.83363 137.114C5.10872 136.524 5.49154 136.068 5.98207 135.746C6.4726 135.425 7.03936 135.264 7.68235 135.264C8.17951 135.264 8.57227 135.347 8.86062 135.513C9.15228 135.675 9.37435 135.861 9.52681 136.07C9.68259 136.275 9.80356 136.444 9.88974 136.577H9.98917V132.818H11.1625V143H10.0289V141.827H9.88974C9.80356 141.966 9.68093 142.142 9.52184 142.354C9.36275 142.562 9.13571 142.75 8.84073 142.915C8.54575 143.078 8.15299 143.159 7.66246 143.159ZM7.82156 142.105C8.2922 142.105 8.68993 141.982 9.01474 141.737C9.33955 141.489 9.58647 141.146 9.7555 140.708C9.92454 140.267 10.0091 139.759 10.0091 139.182C10.0091 138.612 9.9262 138.113 9.76048 137.685C9.59476 137.254 9.34949 136.92 9.02468 136.681C8.69987 136.439 8.29883 136.318 7.82156 136.318C7.3244 136.318 6.9101 136.446 6.57866 136.701C6.25053 136.953 6.00361 137.296 5.83789 137.73C5.67549 138.161 5.59428 138.645 5.59428 139.182C5.59428 139.725 5.67714 140.219 5.84286 140.663C6.0119 141.104 6.26048 141.455 6.5886 141.717C6.92004 141.976 7.33103 142.105 7.82156 142.105ZM16.676 143.159C15.9402 143.159 15.3055 142.997 14.7718 142.672C14.2415 142.344 13.8322 141.886 13.5439 141.3C13.2588 140.71 13.1163 140.024 13.1163 139.241C13.1163 138.459 13.2588 137.77 13.5439 137.173C13.8322 136.573 14.2333 136.106 14.747 135.771C15.264 135.433 15.8672 135.264 16.5566 135.264C16.9544 135.264 17.3471 135.33 17.7349 135.463C18.1227 135.596 18.4757 135.811 18.7939 136.109C19.112 136.404 19.3656 136.795 19.5545 137.283C19.7434 137.77 19.8379 138.37 19.8379 139.082V139.58H13.9515V138.565H18.6447C18.6447 138.134 18.5585 137.75 18.3862 137.412C18.2172 137.074 17.9752 136.807 17.6603 136.612C17.3488 136.416 16.9809 136.318 16.5566 136.318C16.0893 136.318 15.685 136.434 15.3436 136.666C15.0055 136.895 14.7453 137.193 14.563 137.561C14.3807 137.929 14.2896 138.323 14.2896 138.744V139.42C14.2896 139.997 14.389 140.486 14.5879 140.887C14.7901 141.285 15.0701 141.588 15.4281 141.797C15.786 142.002 16.202 142.105 16.676 142.105C16.9842 142.105 17.2626 142.062 17.5112 141.976C17.7631 141.886 17.9802 141.754 18.1625 141.578C18.3448 141.399 18.4856 141.177 18.585 140.912L19.7186 141.23C19.5993 141.615 19.3987 141.953 19.117 142.244C18.8353 142.533 18.4873 142.758 18.073 142.92C17.6587 143.08 17.193 143.159 16.676 143.159ZM22.796 138.406V143H21.6227V135.364H22.7562V136.557H22.8556C23.0346 136.169 23.3064 135.857 23.671 135.622C24.0356 135.384 24.5062 135.264 25.0829 135.264C25.6 135.264 26.0524 135.37 26.4402 135.582C26.8279 135.791 27.1296 136.109 27.345 136.537C27.5604 136.961 27.6681 137.498 27.6681 138.148V143H26.4949V138.227C26.4949 137.627 26.3391 137.16 26.0275 136.825C25.716 136.487 25.2884 136.318 24.7449 136.318C24.3703 136.318 24.0356 136.399 23.7406 136.562C23.4489 136.724 23.2186 136.961 23.0495 137.273C22.8805 137.584 22.796 137.962 22.796 138.406ZM33.1332 135.364V136.358H29.1758V135.364H33.1332ZM30.3292 133.534H31.5025V140.812C31.5025 141.144 31.5505 141.393 31.6467 141.558C31.7461 141.721 31.872 141.83 32.0245 141.886C32.1803 141.939 32.3443 141.966 32.5167 141.966C32.646 141.966 32.752 141.959 32.8349 141.946C32.9177 141.929 32.984 141.916 33.0337 141.906L33.2724 142.96C33.1928 142.99 33.0818 143.02 32.9393 143.05C32.7968 143.083 32.6161 143.099 32.3974 143.099C32.0659 143.099 31.7411 143.028 31.4229 142.886C31.1081 142.743 30.8462 142.526 30.6374 142.234C30.4319 141.943 30.3292 141.575 30.3292 141.131V133.534ZM34.8981 143V135.364H36.0714V143H34.8981ZM35.4947 134.091C35.266 134.091 35.0688 134.013 34.9031 133.857C34.7406 133.701 34.6594 133.514 34.6594 133.295C34.6594 133.077 34.7406 132.889 34.9031 132.734C35.0688 132.578 35.266 132.5 35.4947 132.5C35.7234 132.5 35.9189 132.578 36.0813 132.734C36.247 132.889 36.3299 133.077 36.3299 133.295C36.3299 133.514 36.247 133.701 36.0813 133.857C35.9189 134.013 35.7234 134.091 35.4947 134.091ZM41.6209 135.364V136.358H37.5044V135.364H41.6209ZM38.7374 143V134.31C38.7374 133.872 38.8401 133.508 39.0456 133.216C39.2511 132.924 39.5179 132.705 39.8461 132.56C40.1742 132.414 40.5205 132.341 40.8851 132.341C41.1735 132.341 41.4088 132.364 41.5911 132.411C41.7734 132.457 41.9093 132.5 41.9988 132.54L41.6607 133.554C41.601 133.534 41.5182 133.509 41.4121 133.479C41.3094 133.45 41.1735 133.435 41.0044 133.435C40.6167 133.435 40.3366 133.532 40.1642 133.728C39.9952 133.924 39.9107 134.21 39.9107 134.588V143H38.7374ZM43.2653 143V135.364H44.4386V143H43.2653ZM43.8619 134.091C43.6332 134.091 43.436 134.013 43.2702 133.857C43.1078 133.701 43.0266 133.514 43.0266 133.295C43.0266 133.077 43.1078 132.889 43.2702 132.734C43.436 132.578 43.6332 132.5 43.8619 132.5C44.0906 132.5 44.2861 132.578 44.4485 132.734C44.6142 132.889 44.6971 133.077 44.6971 133.295C44.6971 133.514 44.6142 133.701 44.4485 133.857C44.2861 134.013 44.0906 134.091 43.8619 134.091ZM49.7892 143.159C49.0534 143.159 48.4187 142.997 47.8851 142.672C47.3548 142.344 46.9455 141.886 46.6571 141.3C46.3721 140.71 46.2296 140.024 46.2296 139.241C46.2296 138.459 46.3721 137.77 46.6571 137.173C46.9455 136.573 47.3465 136.106 47.8603 135.771C48.3773 135.433 48.9805 135.264 49.6699 135.264C50.0676 135.264 50.4604 135.33 50.8482 135.463C51.236 135.596 51.589 135.811 51.9071 136.109C52.2253 136.404 52.4789 136.795 52.6678 137.283C52.8567 137.77 52.9512 138.37 52.9512 139.082V139.58H47.0648V138.565H51.758C51.758 138.134 51.6718 137.75 51.4995 137.412C51.3304 137.074 51.0885 136.807 50.7736 136.612C50.4621 136.416 50.0942 136.318 49.6699 136.318C49.2026 136.318 48.7982 136.434 48.4569 136.666C48.1188 136.895 47.8586 137.193 47.6763 137.561C47.494 137.929 47.4029 138.323 47.4029 138.744V139.42C47.4029 139.997 47.5023 140.486 47.7012 140.887C47.9033 141.285 48.1834 141.588 48.5414 141.797C48.8993 142.002 49.3153 142.105 49.7892 142.105C50.0975 142.105 50.3759 142.062 50.6245 141.976C50.8764 141.886 51.0935 141.754 51.2757 141.578C51.458 141.399 51.5989 141.177 51.6983 140.912L52.8319 141.23C52.7125 141.615 52.512 141.953 52.2303 142.244C51.9486 142.533 51.6006 142.758 51.1863 142.92C50.772 143.08 50.3063 143.159 49.7892 143.159ZM54.736 143V135.364H55.8695V136.517H55.949C56.0882 136.139 56.3401 135.833 56.7047 135.597C57.0693 135.362 57.4803 135.244 57.9377 135.244C58.0239 135.244 58.1316 135.246 58.2608 135.249C58.3901 135.253 58.4879 135.258 58.5542 135.264V136.457C58.5144 136.447 58.4232 136.433 58.2807 136.413C58.1415 136.389 57.994 136.378 57.8382 136.378C57.467 136.378 57.1356 136.456 56.8439 136.612C56.5556 136.764 56.3269 136.976 56.1578 137.248C55.9921 137.516 55.9093 137.823 55.9093 138.168V143H54.736ZM68.695 139.878V135.364H69.8683V143H68.695V141.707H68.6154C68.4364 142.095 68.158 142.425 67.7802 142.697C67.4023 142.965 66.9251 143.099 66.3484 143.099C65.8711 143.099 65.4469 142.995 65.0756 142.786C64.7044 142.574 64.4128 142.256 64.2006 141.832C63.9885 141.404 63.8825 140.866 63.8825 140.216V135.364H65.0558V140.136C65.0558 140.693 65.2115 141.137 65.5231 141.469C65.8379 141.8 66.239 141.966 66.7262 141.966C67.0179 141.966 67.3145 141.891 67.6161 141.742C67.921 141.593 68.1763 141.364 68.3817 141.056C68.5906 140.748 68.695 140.355 68.695 139.878ZM73.1905 138.406V143H72.0172V135.364H73.1507V136.557H73.2502C73.4292 136.169 73.7009 135.857 74.0655 135.622C74.4301 135.384 74.9007 135.264 75.4775 135.264C75.9945 135.264 76.4469 135.37 76.8347 135.582C77.2225 135.791 77.5241 136.109 77.7395 136.537C77.955 136.961 78.0627 137.498 78.0627 138.148V143H76.8894V138.227C76.8894 137.627 76.7336 137.16 76.4221 136.825C76.1105 136.487 75.6829 136.318 75.1394 136.318C74.7649 136.318 74.4301 136.399 74.1351 136.562C73.8435 136.724 73.6131 136.961 73.4441 137.273C73.275 137.584 73.1905 137.962 73.1905 138.406ZM84.1442 143V135.364H85.3175V143H84.1442ZM84.7408 134.091C84.5121 134.091 84.3149 134.013 84.1491 133.857C83.9867 133.701 83.9055 133.514 83.9055 133.295C83.9055 133.077 83.9867 132.889 84.1491 132.734C84.3149 132.578 84.5121 132.5 84.7408 132.5C84.9695 132.5 85.165 132.578 85.3274 132.734C85.4931 132.889 85.576 133.077 85.576 133.295C85.576 133.514 85.4931 133.701 85.3274 133.857C85.165 134.013 84.9695 134.091 84.7408 134.091ZM88.6397 138.406V143H87.4664V135.364H88.6V136.557H88.6994C88.8784 136.169 89.1502 135.857 89.5147 135.622C89.8793 135.384 90.35 135.264 90.9267 135.264C91.4437 135.264 91.8961 135.37 92.2839 135.582C92.6717 135.791 92.9733 136.109 93.1887 136.537C93.4042 136.961 93.5119 137.498 93.5119 138.148V143H92.3386V138.227C92.3386 137.627 92.1828 137.16 91.8713 136.825C91.5597 136.487 91.1322 136.318 90.5886 136.318C90.2141 136.318 89.8793 136.399 89.5843 136.562C89.2927 136.724 89.0623 136.961 88.8933 137.273C88.7243 137.584 88.6397 137.962 88.6397 138.406ZM101.065 137.074L100.011 137.372C99.9447 137.196 99.8469 137.026 99.7177 136.86C99.5917 136.691 99.4194 136.552 99.2006 136.442C98.9819 136.333 98.7018 136.278 98.3604 136.278C97.8931 136.278 97.5037 136.386 97.1921 136.602C96.8839 136.814 96.7298 137.084 96.7298 137.412C96.7298 137.704 96.8358 137.934 97.0479 138.103C97.2601 138.272 97.5915 138.413 98.0423 138.526L99.1758 138.804C99.8585 138.97 100.367 139.223 100.702 139.565C101.037 139.903 101.204 140.339 101.204 140.872C101.204 141.31 101.078 141.701 100.826 142.045C100.578 142.39 100.23 142.662 99.7823 142.861C99.3349 143.06 98.8145 143.159 98.2212 143.159C97.4424 143.159 96.7977 142.99 96.2873 142.652C95.7769 142.314 95.4537 141.82 95.3178 141.17L96.4315 140.892C96.5375 141.303 96.738 141.611 97.033 141.817C97.3313 142.022 97.7208 142.125 98.2013 142.125C98.7482 142.125 99.1824 142.009 99.5039 141.777C99.8287 141.542 99.9911 141.26 99.9911 140.932C99.9911 140.667 99.8983 140.445 99.7127 140.266C99.5271 140.083 99.2421 139.947 98.8576 139.858L97.5849 139.56C96.8855 139.394 96.3718 139.137 96.0437 138.789C95.7189 138.438 95.5565 137.999 95.5565 137.472C95.5565 137.041 95.6774 136.66 95.9194 136.328C96.1647 135.997 96.4978 135.737 96.9187 135.548C97.3429 135.359 97.8235 135.264 98.3604 135.264C99.1161 135.264 99.7094 135.43 100.14 135.761C100.574 136.093 100.883 136.53 101.065 137.074ZM106.172 143.159C105.436 143.159 104.802 142.997 104.268 142.672C103.738 142.344 103.328 141.886 103.04 141.3C102.755 140.71 102.612 140.024 102.612 139.241C102.612 138.459 102.755 137.77 103.04 137.173C103.328 136.573 103.729 136.106 104.243 135.771C104.76 135.433 105.363 135.264 106.053 135.264C106.45 135.264 106.843 135.33 107.231 135.463C107.619 135.596 107.972 135.811 108.29 136.109C108.608 136.404 108.862 136.795 109.051 137.283C109.24 137.77 109.334 138.37 109.334 139.082V139.58H103.448V138.565H108.141C108.141 138.134 108.055 137.75 107.882 137.412C107.713 137.074 107.471 136.807 107.156 136.612C106.845 136.416 106.477 136.318 106.053 136.318C105.585 136.318 105.181 136.434 104.84 136.666C104.502 136.895 104.241 137.193 104.059 137.561C103.877 137.929 103.786 138.323 103.786 138.744V139.42C103.786 139.997 103.885 140.486 104.084 140.887C104.286 141.285 104.566 141.588 104.924 141.797C105.282 142.002 105.698 142.105 106.172 142.105C106.48 142.105 106.759 142.062 107.007 141.976C107.259 141.886 107.476 141.754 107.659 141.578C107.841 141.399 107.982 141.177 108.081 140.912L109.215 141.23C109.095 141.615 108.895 141.953 108.613 142.244C108.331 142.533 107.983 142.758 107.569 142.92C107.155 143.08 106.689 143.159 106.172 143.159ZM114.221 143.159C113.505 143.159 112.889 142.99 112.372 142.652C111.855 142.314 111.457 141.848 111.178 141.255C110.9 140.662 110.761 139.984 110.761 139.222C110.761 138.446 110.903 137.762 111.188 137.168C111.477 136.572 111.878 136.106 112.392 135.771C112.909 135.433 113.512 135.264 114.201 135.264C114.738 135.264 115.222 135.364 115.653 135.562C116.084 135.761 116.437 136.04 116.712 136.398C116.987 136.756 117.158 137.173 117.224 137.651H116.051C115.961 137.303 115.762 136.994 115.454 136.726C115.149 136.454 114.738 136.318 114.221 136.318C113.764 136.318 113.363 136.437 113.018 136.676C112.677 136.911 112.41 137.245 112.218 137.675C112.029 138.103 111.934 138.605 111.934 139.182C111.934 139.772 112.027 140.286 112.213 140.723C112.401 141.161 112.667 141.5 113.008 141.742C113.353 141.984 113.757 142.105 114.221 142.105C114.526 142.105 114.803 142.052 115.051 141.946C115.3 141.84 115.51 141.688 115.683 141.489C115.855 141.29 115.978 141.051 116.051 140.773H117.224C117.158 141.223 116.994 141.629 116.732 141.991C116.473 142.349 116.13 142.634 115.703 142.846C115.278 143.055 114.785 143.159 114.221 143.159ZM122.26 135.364V136.358H118.303V135.364H122.26ZM119.456 133.534H120.629V140.812C120.629 141.144 120.677 141.393 120.774 141.558C120.873 141.721 120.999 141.83 121.151 141.886C121.307 141.939 121.471 141.966 121.644 141.966C121.773 141.966 121.879 141.959 121.962 141.946C122.045 141.929 122.111 141.916 122.161 141.906L122.399 142.96C122.32 142.99 122.209 143.02 122.066 143.05C121.924 143.083 121.743 143.099 121.524 143.099C121.193 143.099 120.868 143.028 120.55 142.886C120.235 142.743 119.973 142.526 119.764 142.234C119.559 141.943 119.456 141.575 119.456 141.131V133.534ZM127.145 143.159C126.409 143.159 125.774 142.997 125.241 142.672C124.71 142.344 124.301 141.886 124.013 141.3C123.728 140.71 123.585 140.024 123.585 139.241C123.585 138.459 123.728 137.77 124.013 137.173C124.301 136.573 124.702 136.106 125.216 135.771C125.733 135.433 126.336 135.264 127.025 135.264C127.423 135.264 127.816 135.33 128.204 135.463C128.591 135.596 128.944 135.811 129.263 136.109C129.581 136.404 129.834 136.795 130.023 137.283C130.212 137.77 130.307 138.37 130.307 139.082V139.58H124.42V138.565H129.113C129.113 138.134 129.027 137.75 128.855 137.412C128.686 137.074 128.444 136.807 128.129 136.612C127.818 136.416 127.45 136.318 127.025 136.318C126.558 136.318 126.154 136.434 125.812 136.666C125.474 136.895 125.214 137.193 125.032 137.561C124.849 137.929 124.758 138.323 124.758 138.744V139.42C124.758 139.997 124.858 140.486 125.057 140.887C125.259 141.285 125.539 141.588 125.897 141.797C126.255 142.002 126.671 142.105 127.145 142.105C127.453 142.105 127.731 142.062 127.98 141.976C128.232 141.886 128.449 141.754 128.631 141.578C128.814 141.399 128.954 141.177 129.054 140.912L130.187 141.23C130.068 141.615 129.867 141.953 129.586 142.244C129.304 142.533 128.956 142.758 128.542 142.92C128.127 143.08 127.662 143.159 127.145 143.159Z" fill="#515151"/>
<rect x="9.5" y="1.5" width="113.026" height="113.055" rx="8.5" fill="#E3F9F2"/>
<path d="M44.1257 15.0118C46.8816 15.0118 49.6375 14.9852 52.3671 15.0118C54.2831 15.0384 55.543 16.0212 55.8579 17.5884C56.3041 19.7931 54.8868 21.5994 52.5246 21.6259C48.1677 21.679 43.7845 21.6259 39.4276 21.6525C38.1677 21.6525 36.8817 21.6259 35.6481 21.7587C32.1835 22.1837 29.6639 24.9463 29.6114 28.4791C29.5326 33.1276 29.5851 37.7495 29.5851 42.398C29.5851 42.7964 29.6114 43.1948 29.5851 43.5933C29.4276 45.5855 28.0103 46.9933 26.2255 46.9402C24.4145 46.8871 23.076 45.4527 23.076 43.4339C23.0235 38.6792 23.0235 33.8979 23.0497 29.1166C23.1022 20.9353 28.7977 15.1446 36.9079 15.0384C39.3226 14.9852 41.711 15.0118 44.1257 15.0118Z" fill="#359276"/>
<path d="M43.942 100.915C41.0548 100.915 38.1677 101.075 35.3068 100.889C28.6402 100.464 23.2334 94.7527 23.0759 87.9792C22.9447 82.9057 23.0234 77.8323 23.0234 72.7588C23.0234 70.5541 24.3882 69.0666 26.3043 69.0931C28.194 69.1197 29.5588 70.6072 29.5588 72.8119C29.5851 77.4604 29.5588 82.0823 29.5851 86.7308C29.5851 87.5276 29.6113 88.3245 29.795 89.0948C30.6087 92.3355 33.2333 94.3543 36.7504 94.4074C40.5037 94.4605 44.2569 94.4074 48.0102 94.4074C49.5325 94.4074 51.0548 94.3808 52.5771 94.434C54.6243 94.5136 55.9366 95.8418 55.9366 97.7277C55.9366 99.6137 54.6243 100.968 52.5771 101.022C49.69 101.075 46.8291 101.048 43.942 101.048C43.942 100.968 43.942 100.942 43.942 100.915Z" fill="#359276"/>
<path d="M88.01 101.022C85.2279 101.022 82.4195 101.048 79.6373 101.022C77.8263 100.995 76.6715 100.198 76.1728 98.7374C75.4904 96.6656 76.8814 94.5671 79.1387 94.4608C81.4484 94.3546 83.758 94.4077 86.0677 94.4077C89.0336 94.4077 91.9995 94.4343 94.9653 94.4077C99.5322 94.3812 102.393 91.4593 102.419 86.8639C102.446 82.0826 102.393 77.3279 102.446 72.5466C102.472 69.8903 104.965 68.3231 107.17 69.4919C108.377 70.1294 108.955 71.1919 108.955 72.52C108.981 77.6466 109.139 82.7732 108.876 87.8733C108.482 95.6562 102.813 100.916 95.0703 101.022C92.7081 101.048 90.3459 101.022 88.01 101.022Z" fill="#359276"/>
<path d="M88.2199 15.1447C91.1071 15.1447 93.9942 14.9588 96.8551 15.1713C103.285 15.676 108.561 21.2807 108.771 27.8417C108.929 32.9949 108.85 38.1746 108.824 43.3543C108.824 45.4793 107.485 46.9403 105.621 46.9668C103.732 46.9934 102.341 45.5059 102.314 43.3012C102.288 38.759 102.314 34.1902 102.288 29.648C102.288 24.4151 99.5585 21.6791 94.3616 21.6791C89.611 21.6791 84.8341 21.7057 80.0835 21.6526C77.5901 21.626 76.0678 19.501 76.8289 17.2697C77.3014 15.8885 78.535 15.065 80.346 15.065C82.9706 15.0385 85.5953 15.065 88.1937 15.065C88.2199 15.065 88.2199 15.1182 88.2199 15.1447Z" fill="#359276"/>
<path d="M55.3357 71.849C54.7555 72.329 54.2193 72.7479 53.7182 73.2105C53.604 73.3152 53.5688 73.5421 53.56 73.7079C53.5512 75.5058 53.56 77.3123 53.5512 79.1101C53.5424 80.3407 52.5139 81.1611 51.3887 80.8469C50.6767 80.6462 50.158 80.0003 50.158 79.2236C50.1493 76.9981 50.1493 74.7814 50.158 72.5559C50.158 71.9625 50.4306 71.5087 50.8877 71.1334C51.9162 70.2956 52.9359 69.449 53.9468 68.5937C54.0699 68.489 54.1929 68.2446 54.1666 68.0963C53.771 66.3159 53.5512 64.5268 53.5336 62.7028C53.5336 62.6504 53.5161 62.5893 53.4897 62.4846C52.5403 62.4846 51.5909 62.5631 50.6503 62.4671C49.7625 62.3799 49.3581 62.7202 48.9889 63.4882C47.6967 66.1937 46.3165 68.8643 44.954 71.5436C44.365 72.7043 42.8706 72.8788 42.0882 71.8839C41.6311 71.2992 41.6136 70.6708 41.9476 70.0075C43.2047 67.5203 44.4529 65.033 45.71 62.5457C46.1056 61.7515 46.5099 60.966 46.9055 60.1718C47.2483 59.4737 47.8022 59.1333 48.5845 59.142C50.1756 59.1507 51.7755 59.1333 53.3666 59.1507C53.6831 59.1507 53.7886 59.0635 53.8325 58.7493C53.938 58.0336 54.0875 57.3267 54.2457 56.6198C54.3072 56.3405 54.2808 56.1573 54.0347 55.9565C52.4348 54.7173 50.8437 53.4518 49.2438 52.2038C48.7252 51.8023 48.4615 51.2962 48.4702 50.6329C48.479 47.8838 48.4702 45.1434 48.479 42.3943C48.479 41.6612 48.9537 41.0241 49.6306 40.8059C50.3163 40.5877 51.125 40.7884 51.4942 41.3994C51.7052 41.7484 51.8283 42.211 51.8371 42.6212C51.8722 44.9165 51.8546 47.2118 51.8458 49.507C51.8458 49.83 51.9338 50.0394 52.1975 50.2401C53.3227 51.0954 54.4215 51.9856 55.5643 52.8758C55.6874 52.6489 55.7928 52.4482 55.8983 52.2474C56.5664 50.9994 57.3752 49.8474 58.3773 48.835C58.4828 48.7303 58.5707 48.5383 58.5707 48.3899C58.5795 46.4438 59.3003 44.7768 60.531 43.2932C60.6277 43.171 60.7156 42.9441 60.6628 42.8219C59.3618 39.6975 57.2433 37.3237 53.9995 36.1193C51.0107 35.0109 47.8109 36.1368 45.9298 38.8597C45.5693 39.3833 45.2792 39.9593 44.9892 40.5266C44.5233 41.4517 43.5827 41.827 42.6948 41.4168C41.8421 41.0241 41.4905 40.0553 41.9212 39.1477C43.3717 36.0233 45.5781 33.7019 49.0065 32.7593C52.4084 31.8167 55.4852 32.6284 58.307 34.5833C60.6013 36.1717 62.3243 38.2401 63.5022 40.7535C63.5462 40.8583 63.6077 40.9543 63.6604 41.0503C65.4625 40.6401 65.1724 40.6314 67.0097 41.0503C67.0888 40.8932 67.1679 40.7274 67.2558 40.5615C68.8557 37.3586 71.2028 34.8888 74.4905 33.3789C79.2199 31.2146 84.4679 32.6371 87.4479 36.8873C87.949 37.5942 88.3621 38.371 88.7489 39.1477C89.1972 40.0466 88.828 41.0328 87.9665 41.4343C87.0787 41.8532 86.1205 41.4866 85.6722 40.5441C85.1096 39.331 84.4151 38.2052 83.3603 37.3586C81.1011 35.5433 78.5957 35.2204 75.9761 36.4161C73.1192 37.7164 71.2028 39.9419 70.0073 42.7957C69.9545 42.9266 70.0073 43.171 70.104 43.2757C71.3698 44.7768 72.0995 46.4699 72.0907 48.4423C72.0907 48.5558 72.1434 48.7041 72.2225 48.7827C73.3917 49.9434 74.2971 51.2874 75.0267 52.7536C75.0443 52.7885 75.0795 52.8234 75.1146 52.8671C76.2926 51.942 77.4705 51.0256 78.6221 50.0918C78.7452 49.9871 78.8067 49.7427 78.8067 49.5594C78.8155 47.2205 78.8155 44.8816 78.8155 42.5426C78.8155 41.6437 79.2814 40.9892 80.0374 40.7884C81.1538 40.4917 82.1823 41.2684 82.1823 42.4379C82.1911 45.1696 82.1735 47.9012 82.1911 50.6329C82.1911 51.3049 81.9362 51.8023 81.4175 52.2038C79.8176 53.4518 78.2353 54.7085 76.6266 55.9565C76.3717 56.1485 76.3453 56.3318 76.4069 56.6198C76.5651 57.3267 76.7057 58.0336 76.82 58.7493C76.864 59.0547 76.9695 59.1595 77.2859 59.1595C78.8507 59.142 80.4154 59.1682 81.9801 59.142C82.8416 59.1333 83.4042 59.4911 83.791 60.2504C85.4173 63.5144 87.0611 66.761 88.6962 70.0163C89.1005 70.8192 88.9511 71.6134 88.3182 72.1457C87.4655 72.8614 86.2172 72.5908 85.6898 71.5523C84.6261 69.4577 83.5712 67.3544 82.5163 65.2512C82.112 64.4482 81.69 63.6541 81.3032 62.8424C81.1802 62.5893 81.0395 62.4759 80.7406 62.4846C79.5539 62.502 78.376 62.4933 77.1365 62.4933C77.1189 62.8511 77.1277 63.2002 77.0837 63.5406C76.8991 65.0068 76.7233 66.473 76.5036 67.9304C76.4508 68.2621 76.5036 68.4628 76.7585 68.6723C77.7255 69.449 78.6573 70.2606 79.633 71.0286C80.2308 71.4999 80.5121 72.0585 80.5033 72.8265C80.4769 74.9472 80.5033 77.068 80.4945 79.1887C80.4945 80.0178 79.9319 80.716 79.1759 80.8731C78.3496 81.0389 77.5409 80.6374 77.2508 79.8694C77.1453 79.5902 77.1101 79.276 77.1013 78.9792C77.0925 77.225 77.0925 75.4621 77.1013 73.7079C77.1013 73.4374 77.031 73.2454 76.8112 73.0796C76.319 72.6956 75.8443 72.2854 75.3168 71.849C75.2201 72.0672 75.141 72.2505 75.0619 72.425C73.9894 74.825 72.6181 77.0156 70.5875 78.7436C68.926 80.1574 67.0448 81.0476 64.7944 80.8818C62.9572 80.7422 61.4188 79.9131 60.0475 78.7436C58.0169 77.0156 56.6455 74.825 55.5731 72.425C55.5115 72.2505 55.4412 72.0847 55.3357 71.849ZM67.0185 77.1465C67.4316 76.8847 67.7569 76.7014 68.047 76.4745C69.7172 75.1916 70.8512 73.4898 71.7215 71.6221C73.6202 67.5726 74.1653 63.3311 73.4708 58.9326C73.1104 56.6809 72.3983 54.5427 71.0973 52.6402C70.9918 52.4918 70.8864 52.3522 70.7545 52.1776C69.8578 53.1725 68.759 53.6874 67.5283 53.9143C67.1064 53.9929 67.0009 54.1413 67.0009 54.5514C67.0185 61.8824 67.0097 69.2046 67.0097 76.5356C67.0185 76.6927 67.0185 76.8498 67.0185 77.1465ZM63.5286 77.1203C63.5725 77.0854 63.6077 77.0418 63.6517 77.0069C63.6517 76.9021 63.6517 76.8061 63.6517 76.7014C63.6517 69.2832 63.6517 61.8562 63.6517 54.438C63.6517 54.3769 63.6692 54.3071 63.6429 54.2634C63.5725 54.1587 63.5022 53.9929 63.4055 53.9754C62.0606 53.7398 60.8738 53.2162 59.9069 52.1863C59.1772 53.1289 58.6234 54.1238 58.2191 55.1973C56.373 60.1544 56.4961 65.1115 58.2806 70.0512C59.0805 72.2767 60.2233 74.3101 61.9814 75.9334C62.4649 76.3785 63.0099 76.7276 63.5286 77.1203ZM65.3307 50.8423C65.3307 50.8249 65.3395 50.8074 65.3395 50.79C65.6999 50.7638 66.0691 50.7638 66.4295 50.7201C67.7217 50.5805 68.4513 49.9609 68.6447 48.8612C68.97 47.0285 67.5283 44.6896 65.7087 44.1834C65.3922 44.0961 64.9703 44.1572 64.6626 44.2881C63.0275 44.995 61.8847 46.9063 61.999 48.6692C62.0606 49.6292 62.544 50.2925 63.4846 50.5456C64.0824 50.7027 64.7153 50.7463 65.3307 50.8423Z" fill="#359276"/>
<rect x="9.5" y="1.5" width="113.026" height="113.055" rx="8.5" stroke="#359276" stroke-width="3"/>
<circle cx="112" cy="103" r="17.5" fill="#F8FFFC" stroke="#98B6AD"/>
<g clip-path="url(#clip0_1086_13354)">
<path d="M104.509 99.1497C104.613 98.4199 104.697 98.3551 105.525 98.3551C105.905 98.3551 106.285 98.3542 106.664 98.3551C107.186 98.3564 107.396 98.5405 107.413 99.0082C107.415 99.0504 107.423 99.0926 107.43 99.1606C107.771 99.1606 108.109 99.1675 108.445 99.1532C108.495 99.151 108.572 99.0552 108.583 98.9951C108.65 98.6385 108.698 98.2793 108.758 97.9218C108.846 97.4041 109.144 97.1307 109.726 97.0384C109.892 97.0123 110.063 97.0022 110.233 97.0014C111.404 96.9983 112.575 96.9983 113.747 97.0009C113.916 97.0014 114.086 97.0109 114.253 97.0345C114.859 97.1202 115.161 97.3941 115.254 97.9371C115.313 98.2802 115.372 98.6233 115.414 98.9685C115.434 99.1288 115.511 99.1653 115.68 99.1645C116.892 99.1584 118.104 99.1606 119.315 99.1614C120.317 99.1623 120.997 99.7614 120.998 100.655C121 103.267 121 105.88 120.997 108.492C120.995 109.389 120.318 109.997 119.324 109.998C114.461 110 109.598 109.999 104.735 109.998C103.842 109.997 103.182 109.537 103.039 108.817C103.012 108.683 103.012 108.544 103.012 108.407C103.011 105.889 103.033 103.371 103 100.853C102.988 99.9378 103.497 99.2886 104.509 99.1497ZM117.473 104.645C117.477 101.935 115.037 99.7401 112.014 99.7323C108.994 99.7244 106.516 101.92 106.508 104.611C106.5 107.337 108.954 109.541 112.001 109.544C115.021 109.547 117.469 107.355 117.473 104.645ZM118.22 100.288C117.906 100.288 117.591 100.284 117.277 100.289C117 100.293 116.831 100.431 116.824 100.646C116.817 100.87 116.992 101.028 117.273 101.03C117.894 101.035 118.515 101.035 119.135 101.03C119.416 101.028 119.594 100.871 119.589 100.65C119.585 100.438 119.409 100.293 119.139 100.289C118.833 100.284 118.526 100.288 118.22 100.288Z" fill="#359276"/>
<path d="M116.741 104.644C116.747 106.991 114.628 108.887 111.996 108.892C109.378 108.895 107.241 106.987 107.24 104.645C107.24 102.298 109.358 100.395 111.982 100.386C114.614 100.377 116.735 102.274 116.741 104.644ZM111.971 107.601C113.801 107.62 115.3 106.31 115.326 104.668C115.352 103.034 113.881 101.68 112.056 101.658C110.227 101.635 108.714 102.95 108.689 104.582C108.665 106.235 110.129 107.581 111.971 107.601Z" fill="#359276"/>
<path d="M112.177 102.133C112.542 102.134 112.964 102.212 113.361 102.392C113.606 102.504 113.692 102.644 113.627 102.818C113.565 102.986 113.388 103.056 113.121 102.98C112.073 102.678 110.611 103.163 110.062 104.373C109.996 104.519 109.958 104.676 109.916 104.83C109.866 105.014 109.762 105.144 109.533 105.111C109.317 105.081 109.264 104.928 109.258 104.755C109.206 103.359 110.518 102.148 112.177 102.133Z" fill="#359276"/>
</g>
<defs>
<clipPath id="clip0_1086_13354">
<rect width="18" height="13" fill="white" transform="translate(103 97)"/>
</clipPath>
</defs>
</svg>
