<svg width="355" height="316" viewBox="0 0 355 316" fill="none" xmlns="http://www.w3.org/2000/svg">
<g clip-path="url(#clip0_1262_13804)">
<path d="M321.27 69.5564C321.27 69.5564 299.211 27.8045 250.506 21.6156C201.802 15.4268 167.799 45.5819 131.958 61.0499C113.193 69.1455 91.7547 66.0059 71.8227 69.9263C8.1118 82.4601 -15.8843 160.992 10.653 205.645C33.6309 244.307 74.0659 264.41 135.633 269.054C197.208 273.689 240.4 279.105 295.535 241.216C350.679 203.327 347.004 124.459 321.27 69.5564Z" fill="#359276"/>
<path opacity="0.75" d="M321.27 69.5564C321.27 69.5564 299.211 27.8045 250.506 21.6156C201.802 15.4268 167.799 45.5819 131.958 61.0499C113.193 69.1455 91.7547 66.0059 71.8227 69.9263C8.1118 82.4601 -15.8843 160.992 10.653 205.645C33.6309 244.307 74.0659 264.41 135.633 269.054C197.208 273.689 240.4 279.105 295.535 241.216C350.679 203.327 347.004 124.459 321.27 69.5564Z" fill="white"/>
<path d="M72.4022 121.747C72.4022 121.747 72.4022 117.358 66.219 111.218C60.0358 105.079 56.0627 101.569 56.0627 101.569C56.0627 101.569 52.9669 111.654 58.7114 117.793C64.4559 123.933 72.4022 129.637 72.4022 129.637V121.747Z" fill="#359276"/>
<path d="M63.4295 149.132C63.4295 149.132 63.4295 144.743 57.2463 138.604C51.0631 132.464 47.09 128.955 47.09 128.955C47.09 128.955 43.9943 139.039 49.7388 145.179C55.4833 151.318 63.4295 157.022 63.4295 157.022V149.132Z" fill="#359276"/>
<path d="M72.0132 129.218C72.0132 129.218 72.4767 124.853 79.2807 119.396C86.0847 113.939 90.4055 110.865 90.4055 110.865C90.4055 110.865 92.4086 121.221 86.0433 126.719C79.678 132.226 71.1689 137.058 71.1689 137.058L72.0132 129.218Z" fill="#359276"/>
<path d="M61.1698 161.559C61.1698 161.559 62.0969 157.269 69.4389 152.551C76.7809 147.833 81.408 145.228 81.408 145.228C81.408 145.228 82.3019 155.732 75.3903 160.54C68.4787 165.348 59.506 169.268 59.506 169.268L61.1698 161.559Z" fill="#359276"/>
<path d="M63.2144 196.826C63.2144 196.826 63.2144 192.437 69.3975 186.298C75.5807 180.158 79.5539 176.649 79.5539 176.649C79.5539 176.649 82.6496 186.734 76.9051 192.873C71.1606 199.013 63.2144 204.716 63.2144 204.716V196.826Z" fill="#359276"/>
<path d="M63.1067 205.431C63.1067 205.431 63.7358 201.092 58.4962 194.139C53.2566 187.185 49.8215 183.158 49.8215 183.158C49.8215 183.158 45.3186 192.709 50.1195 199.596C54.9204 206.483 61.981 213.248 61.981 213.248L63.1067 205.431Z" fill="#359276"/>
<path d="M57.0146 230.943C57.0146 230.943 57.0146 226.554 63.1978 220.415C69.381 214.275 73.3541 210.766 73.3541 210.766C73.3541 210.766 76.4499 220.85 70.7054 226.99C64.9609 233.129 57.0146 238.833 57.0146 238.833V230.943Z" fill="#359276"/>
<path d="M61.1367 254.071C61.1367 254.071 60.0193 249.83 64.4311 242.334C68.8429 234.839 71.798 230.45 71.798 230.45C71.798 230.45 77.3604 239.433 73.3707 246.814C69.381 254.194 63.1481 261.714 63.1481 261.714L61.1367 254.071Z" fill="#359276"/>
<path d="M72.9651 120.621C72.6009 125.305 72.0628 130.155 71.2682 134.239C68.8264 146.781 62.7094 154.869 60.2676 166.194C57.8257 177.52 64.8367 192.109 62.9577 206.656C61.0788 221.203 55.3756 229.291 57.0063 238.997C58.6369 248.704 67.1875 274.996 67.1875 274.996" stroke="#263238" stroke-miterlimit="10" stroke-linecap="round" stroke-linejoin="round"/>
<path d="M71.9553 132.127L78.6185 127.048" stroke="#263238" stroke-miterlimit="10" stroke-linecap="round" stroke-linejoin="round"/>
<path d="M72.2615 126.283L69.472 121.36" stroke="#263238" stroke-miterlimit="10" stroke-linecap="round" stroke-linejoin="round"/>
<path d="M60.6401 165.676C60.6401 165.676 66.219 161.526 71.9552 157.367" stroke="#263238" stroke-miterlimit="10" stroke-linecap="round" stroke-linejoin="round"/>
<path d="M63.4295 157.03C63.4295 157.03 58.7777 147.981 53.5132 141.981" stroke="#263238" stroke-miterlimit="10" stroke-linecap="round" stroke-linejoin="round"/>
<path d="M63.4296 203.064C63.4296 203.064 67.7669 194.599 75.3655 187.218" stroke="#263238" stroke-miterlimit="10" stroke-linecap="round" stroke-linejoin="round"/>
<path d="M62.3452 209.22C62.3452 209.22 59.5557 202.604 56.3027 197.837C53.0497 193.07 52.5862 192.454 52.5862 192.454" stroke="#263238" stroke-miterlimit="10" stroke-linecap="round" stroke-linejoin="round"/>
<path d="M57.0146 239.006C57.0146 239.006 59.2495 233.376 62.039 228.921C64.8284 224.458 68.545 220.456 68.545 220.456" stroke="#263238" stroke-miterlimit="10" stroke-linecap="round" stroke-linejoin="round"/>
<path d="M63.1564 261.706C63.1564 261.706 62.5024 256.454 64.8284 251.991C67.1543 247.529 69.7865 241.685 70.8709 239.375" stroke="#263238" stroke-miterlimit="10" stroke-linecap="round" stroke-linejoin="round"/>
<path d="M31.9093 180.331C31.9093 180.331 31.4292 177.578 34.6326 173.066C37.8359 168.545 39.9467 165.923 39.9467 165.923C39.9467 165.923 42.9844 171.915 40.0625 176.386C37.1323 180.857 32.7702 185.287 32.7702 185.287L31.9093 180.331Z" fill="#359276"/>
<path d="M40.5343 196.539C40.5343 196.539 40.0542 193.785 43.2576 189.273C46.4609 184.753 48.5717 182.131 48.5717 182.131C48.5717 182.131 51.6094 188.122 48.6875 192.594C45.7573 197.065 41.3952 201.495 41.3952 201.495L40.5343 196.539Z" fill="#359276"/>
<path d="M32.9688 184.975C32.9688 184.975 32.199 182.287 27.3402 179.6C22.4814 176.912 19.427 175.449 19.427 175.449C19.427 175.449 19.3029 182.156 23.8968 184.926C28.4907 187.687 34.3511 189.808 34.3511 189.808L32.9688 184.975Z" fill="#359276"/>
<path d="M43.3072 204.092C43.3072 204.092 42.256 201.503 37.1406 199.333C32.0252 197.164 28.8384 196.029 28.8384 196.029C28.8384 196.029 29.4261 202.711 34.2849 204.988C39.1437 207.256 45.2027 208.752 45.2027 208.752L43.3072 204.092Z" fill="#359276"/>
<path d="M45.8815 226.423C45.8815 226.423 45.4014 223.669 40.8571 220.489C36.3046 217.308 33.4323 215.533 33.4323 215.533C33.4323 215.533 32.5963 222.19 36.8674 225.42C41.1386 228.65 46.7506 231.371 46.7506 231.371L45.8815 226.423Z" fill="#359276"/>
<path d="M46.8913 231.814C46.8913 231.814 46.0222 229.16 48.5468 224.236C51.0714 219.313 52.7848 216.412 52.7848 216.412C52.7848 216.412 56.6504 221.911 54.3906 226.751C52.1309 231.592 48.4475 236.589 48.4475 236.589L46.8913 231.814Z" fill="#359276"/>
<path d="M54.6472 253.997C54.6472 253.997 54.97 251.227 59.3239 247.792C63.6861 244.356 66.4508 242.425 66.4508 242.425C66.4508 242.425 67.6675 249.025 63.5868 252.493C59.506 255.961 54.0678 258.994 54.0678 258.994L54.6472 253.997Z" fill="#359276"/>
<path d="M53.505 247.151C53.505 247.151 53.0249 244.397 48.4806 241.217C43.928 238.036 41.0558 236.261 41.0558 236.261C41.0558 236.261 40.2198 242.918 44.4909 246.148C48.762 249.378 54.3741 252.099 54.3741 252.099L53.505 247.151Z" fill="#359276"/>
<path d="M53.4387 262.101C53.4387 262.101 53.6788 259.323 50.0864 255.098C46.494 250.874 44.1681 248.441 44.1681 248.441C44.1681 248.441 41.66 254.671 44.971 258.871C48.2819 263.071 53.0083 267.114 53.0083 267.114L53.4387 262.101Z" fill="#359276"/>
<path d="M31.4375 179.69C32.1742 182.591 33.0433 185.575 33.9869 188.049C36.8923 195.651 41.6104 200.065 44.375 206.903C47.148 213.741 44.3419 223.645 47.1066 232.57C49.8712 241.488 54.3327 245.951 54.3741 252.213C54.4155 258.476 51.924 275.884 51.924 275.884" stroke="#263238" stroke-miterlimit="10" stroke-linecap="round" stroke-linejoin="round"/>
<path d="M33.333 186.799L28.5983 184.333" stroke="#263238" stroke-miterlimit="10" stroke-linecap="round" stroke-linejoin="round"/>
<path d="M32.497 183.166L33.7055 179.772" stroke="#263238" stroke-miterlimit="10" stroke-linecap="round" stroke-linejoin="round"/>
<path d="M44.0936 206.615C44.0936 206.615 40.137 204.61 36.0894 202.621" stroke="#263238" stroke-miterlimit="10" stroke-linecap="round" stroke-linejoin="round"/>
<path d="M41.3951 201.494C41.3951 201.494 43.3238 195.322 45.9643 190.991" stroke="#263238" stroke-miterlimit="10" stroke-linecap="round" stroke-linejoin="round"/>
<path d="M46.4278 230.36C46.4278 230.36 42.7858 225.519 37.2151 221.705" stroke="#263238" stroke-miterlimit="10" stroke-linecap="round" stroke-linejoin="round"/>
<path d="M47.7853 234.099C47.7853 234.099 48.8117 229.653 50.3264 226.308C51.8495 222.962 52.073 222.527 52.073 222.527" stroke="#263238" stroke-miterlimit="10" stroke-linecap="round" stroke-linejoin="round"/>
<path d="M54.1672 256.956C54.1672 256.956 57.3043 253.134 59.2578 251.712C61.2112 250.282 62.5604 248.86 62.5604 248.86" stroke="#263238" stroke-miterlimit="10" stroke-linecap="round" stroke-linejoin="round"/>
<path d="M54.3824 252.205C54.3824 252.205 52.3627 248.918 50.1278 246.419C47.8929 243.92 45.12 241.816 45.12 241.816" stroke="#263238" stroke-miterlimit="10" stroke-linecap="round" stroke-linejoin="round"/>
<path d="M53.0166 267.106C53.0166 267.106 52.8511 263.745 50.9059 261.197C48.9607 258.649 46.6679 255.263 45.7325 253.939" stroke="#263238" stroke-miterlimit="10" stroke-linecap="round" stroke-linejoin="round"/>
<path d="M76.8555 289.601H42.1981C40.6006 289.601 39.301 288.311 39.301 286.724V272.834H79.7526V286.724C79.7526 288.319 78.453 289.601 76.8555 289.601Z" fill="#727272" stroke="#263238" stroke-miterlimit="10" stroke-linecap="round" stroke-linejoin="round"/>
<path d="M79.3966 278.078H39.301C37.5545 278.078 36.139 276.673 36.139 274.938C36.139 273.204 37.5545 271.799 39.301 271.799H79.3966C81.1431 271.799 82.5585 273.204 82.5585 274.938C82.5668 276.673 81.1431 278.078 79.3966 278.078Z" fill="#727272" stroke="#263238" stroke-miterlimit="10" stroke-linecap="round" stroke-linejoin="round"/>
<path d="M40.8903 278.218H70.0101" stroke="white" stroke-miterlimit="10" stroke-linecap="round" stroke-linejoin="round"/>
<path d="M72.7499 278.218H77.5425" stroke="white" stroke-miterlimit="10" stroke-linecap="round" stroke-linejoin="round"/>
<path d="M199.865 223.423H93.6667C90.1571 223.423 87.318 220.595 87.318 217.119V6.71502C87.318 3.23021 90.1654 0.411133 93.6667 0.411133H199.865C203.375 0.411133 206.214 3.23843 206.214 6.71502V217.11C206.222 220.595 203.375 223.423 199.865 223.423Z" fill="white" stroke="#263238" stroke-miterlimit="10" stroke-linecap="round" stroke-linejoin="round"/>
<path d="M200.933 24.895H92.599V198.93H200.933V24.895Z" fill="white"/>
<mask id="mask0_1262_13804" style="mask-type:luminance" maskUnits="userSpaceOnUse" x="92" y="24" width="109" height="175">
<path d="M200.933 24.895H92.599V198.93H200.933V24.895Z" fill="white"/>
</mask>
<g mask="url(#mask0_1262_13804)">
<path opacity="0.3" d="M200.933 140.461L99.9493 198.938H200.933V140.461Z" fill="white"/>
</g>
<path d="M200.933 24.895H92.599V198.93H200.933V24.895Z" stroke="white" stroke-miterlimit="10" stroke-linecap="round" stroke-linejoin="round"/>
<path d="M158.545 12.7148H134.987C134.102 12.7148 133.382 11.9998 133.382 11.1203C133.382 10.2409 134.102 9.52588 134.987 9.52588H158.545C159.43 9.52588 160.151 10.2409 160.151 11.1203C160.151 12.008 159.43 12.7148 158.545 12.7148Z" fill="#727272"/>
<path d="M153.189 208.76C153.189 205.234 150.317 202.382 146.766 202.382C143.215 202.382 140.343 205.234 140.343 208.76C140.343 212.286 143.215 215.138 146.766 215.138C150.317 215.138 153.189 212.286 153.189 208.76Z" fill="white" stroke="#263238" stroke-width="0.7043" stroke-miterlimit="10" stroke-linecap="round" stroke-linejoin="round"/>
<path d="M150.027 205.53H143.513V211.999H150.027V205.53Z" fill="#727272"/>
<path d="M149.2 115.566C154.535 115.566 158.859 111.272 158.859 105.975C158.859 100.678 154.535 96.3833 149.2 96.3833C143.865 96.3833 139.54 100.678 139.54 105.975C139.54 111.272 143.865 115.566 149.2 115.566Z" stroke="#9E9E9E" stroke-miterlimit="10"/>
<path d="M149.2 132.596C164.007 132.596 176.01 120.677 176.01 105.975C176.01 91.2721 164.007 79.3535 149.2 79.3535C134.393 79.3535 122.389 91.2721 122.389 105.975C122.389 120.677 134.393 132.596 149.2 132.596Z" stroke="#9E9E9E" stroke-miterlimit="10"/>
<path d="M149.2 142.582C169.561 142.582 186.067 126.192 186.067 105.975C186.067 85.7572 169.561 69.3677 149.2 69.3677C128.838 69.3677 112.332 85.7572 112.332 105.975C112.332 126.192 128.838 142.582 149.2 142.582Z" stroke="#9E9E9E" stroke-miterlimit="10"/>
<path d="M149.2 151.294C174.407 151.294 194.841 131.004 194.841 105.975C194.841 80.9458 174.407 60.6558 149.2 60.6558C123.993 60.6558 103.558 80.9458 103.558 105.975C103.558 131.004 123.993 151.294 149.2 151.294Z" stroke="#9E9E9E" stroke-miterlimit="10"/>
<path d="M121.583 53.2998H120.105V48.9362H121.613C122.046 48.9362 122.419 49.0235 122.73 49.1982C123.042 49.3715 123.282 49.6208 123.45 49.9461C123.617 50.2714 123.701 50.6606 123.701 51.1137C123.701 51.5683 123.617 51.9589 123.448 52.2856C123.28 52.6123 123.038 52.863 122.721 53.0377C122.406 53.2124 122.027 53.2998 121.583 53.2998ZM120.895 52.6159H121.545C121.849 52.6159 122.103 52.5605 122.306 52.4497C122.509 52.3374 122.661 52.1705 122.764 51.949C122.866 51.7259 122.917 51.4475 122.917 51.1137C122.917 50.7799 122.866 50.5029 122.764 50.2828C122.661 50.0612 122.51 49.8957 122.31 49.7863C122.111 49.6755 121.864 49.6201 121.568 49.6201H120.895V52.6159ZM125.867 53.3637C125.539 53.3637 125.256 53.2955 125.017 53.1592C124.78 53.0214 124.597 52.8268 124.469 52.5754C124.342 52.3225 124.278 52.0249 124.278 51.6826C124.278 51.346 124.342 51.0505 124.469 50.7963C124.599 50.5406 124.779 50.3417 125.011 50.1997C125.242 50.0562 125.514 49.9845 125.827 49.9845C126.028 49.9845 126.219 50.0171 126.398 50.0825C126.578 50.1464 126.737 50.2458 126.875 50.3808C127.014 50.5157 127.123 50.6876 127.203 50.8964C127.283 51.1038 127.322 51.3509 127.322 51.6379V51.8744H124.64V51.3545H126.583C126.582 51.2068 126.55 51.0754 126.487 50.9603C126.425 50.8438 126.337 50.7522 126.225 50.6855C126.114 50.6187 125.985 50.5853 125.837 50.5853C125.68 50.5853 125.541 50.6237 125.422 50.7004C125.302 50.7757 125.209 50.8751 125.143 50.9987C125.077 51.1208 125.044 51.2551 125.043 51.4014V51.8552C125.043 52.0455 125.077 52.2089 125.147 52.3453C125.217 52.4802 125.314 52.5839 125.439 52.6563C125.564 52.7274 125.71 52.7629 125.878 52.7629C125.99 52.7629 126.092 52.7472 126.182 52.716C126.273 52.6833 126.352 52.6357 126.419 52.5732C126.486 52.5107 126.536 52.4333 126.57 52.341L127.29 52.422C127.245 52.6123 127.158 52.7785 127.03 52.9205C126.904 53.0612 126.742 53.1705 126.545 53.2487C126.347 53.3254 126.121 53.3637 125.867 53.3637ZM130.804 50.0271L129.639 53.2998H128.787L127.621 50.0271H128.444L129.196 52.4582H129.23L129.984 50.0271H130.804ZM131.338 53.2998V50.0271H132.109V53.2998H131.338ZM131.726 49.5626C131.604 49.5626 131.499 49.5221 131.411 49.4411C131.323 49.3588 131.278 49.26 131.278 49.145C131.278 49.0285 131.323 48.9298 131.411 48.8488C131.499 48.7664 131.604 48.7252 131.726 48.7252C131.85 48.7252 131.955 48.7664 132.041 48.8488C132.129 48.9298 132.173 49.0285 132.173 49.145C132.173 49.26 132.129 49.3588 132.041 49.4411C131.955 49.5221 131.85 49.5626 131.726 49.5626ZM134.33 53.3637C134.003 53.3637 133.723 53.292 133.489 53.1485C133.256 53.0051 133.076 52.8069 132.949 52.5541C132.824 52.2998 132.762 52.0072 132.762 51.6762C132.762 51.3438 132.826 51.0505 132.954 50.7963C133.082 50.5406 133.262 50.3417 133.495 50.1997C133.729 50.0562 134.006 49.9845 134.326 49.9845C134.592 49.9845 134.827 50.0335 135.031 50.1315C135.237 50.2281 135.401 50.3651 135.523 50.5427C135.645 50.7188 135.715 50.9248 135.732 51.1606H134.995C134.965 51.0029 134.894 50.8715 134.782 50.7664C134.671 50.6599 134.523 50.6066 134.337 50.6066C134.179 50.6066 134.04 50.6492 133.921 50.7345C133.802 50.8183 133.709 50.939 133.642 51.0967C133.577 51.2544 133.544 51.4433 133.544 51.6634C133.544 51.8865 133.577 52.0782 133.642 52.2387C133.707 52.3978 133.799 52.5207 133.917 52.6073C134.036 52.6926 134.176 52.7352 134.337 52.7352C134.45 52.7352 134.552 52.7139 134.641 52.6713C134.732 52.6272 134.808 52.564 134.869 52.4816C134.93 52.3992 134.972 52.2991 134.995 52.1812H135.732C135.714 52.4127 135.645 52.618 135.528 52.797C135.41 52.9745 135.249 53.1137 135.046 53.2146C134.843 53.314 134.604 53.3637 134.33 53.3637ZM137.814 53.3637C137.486 53.3637 137.203 53.2955 136.964 53.1592C136.727 53.0214 136.544 52.8268 136.417 52.5754C136.289 52.3225 136.225 52.0249 136.225 51.6826C136.225 51.346 136.289 51.0505 136.417 50.7963C136.546 50.5406 136.726 50.3417 136.958 50.1997C137.189 50.0562 137.461 49.9845 137.774 49.9845C137.976 49.9845 138.166 50.0171 138.345 50.0825C138.525 50.1464 138.684 50.2458 138.822 50.3808C138.961 50.5157 139.071 50.6876 139.15 50.8964C139.23 51.1038 139.27 51.3509 139.27 51.6379V51.8744H136.587V51.3545H138.53C138.529 51.2068 138.497 51.0754 138.434 50.9603C138.372 50.8438 138.285 50.7522 138.172 50.6855C138.062 50.6187 137.932 50.5853 137.785 50.5853C137.627 50.5853 137.488 50.6237 137.369 50.7004C137.25 50.7757 137.157 50.8751 137.09 50.9987C137.025 51.1208 136.991 51.2551 136.99 51.4014V51.8552C136.99 52.0455 137.025 52.2089 137.094 52.3453C137.164 52.4802 137.261 52.5839 137.386 52.6563C137.511 52.7274 137.657 52.7629 137.825 52.7629C137.937 52.7629 138.039 52.7472 138.13 52.716C138.221 52.6833 138.299 52.6357 138.366 52.5732C138.433 52.5107 138.483 52.4333 138.517 52.341L139.238 52.422C139.192 52.6123 139.106 52.7785 138.978 52.9205C138.851 53.0612 138.689 53.1705 138.492 53.2487C138.294 53.3254 138.069 53.3637 137.814 53.3637ZM142.509 50.8921L141.806 50.9688C141.786 50.8978 141.751 50.8311 141.701 50.7686C141.653 50.7061 141.588 50.6556 141.505 50.6173C141.423 50.5789 141.322 50.5597 141.203 50.5597C141.042 50.5597 140.907 50.5945 140.798 50.6642C140.69 50.7338 140.637 50.824 140.638 50.9347C140.637 51.0299 140.671 51.1073 140.742 51.167C140.815 51.2267 140.934 51.2757 141.1 51.314L141.659 51.4333C141.968 51.5001 142.198 51.6059 142.349 51.7508C142.501 51.8957 142.578 52.0853 142.579 52.3197C142.578 52.5257 142.517 52.7075 142.398 52.8651C142.28 53.0214 142.116 53.1436 141.906 53.2316C141.696 53.3197 141.454 53.3637 141.181 53.3637C140.781 53.3637 140.458 53.2799 140.214 53.1123C139.97 52.9433 139.824 52.7082 139.777 52.407L140.529 52.3346C140.563 52.4823 140.636 52.5938 140.747 52.6691C140.857 52.7444 141.002 52.782 141.179 52.782C141.362 52.782 141.509 52.7444 141.62 52.6691C141.732 52.5938 141.789 52.5008 141.789 52.39C141.789 52.2963 141.752 52.2188 141.68 52.1578C141.609 52.0967 141.498 52.0498 141.348 52.0171L140.789 51.8999C140.475 51.8346 140.243 51.7245 140.093 51.5697C139.942 51.4134 139.867 51.216 139.869 50.9774C139.867 50.7757 139.922 50.6009 140.033 50.4532C140.145 50.3041 140.301 50.189 140.5 50.108C140.7 50.0257 140.931 49.9845 141.192 49.9845C141.576 49.9845 141.877 50.0661 142.098 50.2295C142.319 50.3928 142.456 50.6137 142.509 50.8921ZM147.29 50.8921L146.587 50.9688C146.567 50.8978 146.532 50.8311 146.482 50.7686C146.434 50.7061 146.369 50.6556 146.286 50.6173C146.204 50.5789 146.103 50.5597 145.984 50.5597C145.823 50.5597 145.688 50.5945 145.579 50.6642C145.471 50.7338 145.418 50.824 145.419 50.9347C145.418 51.0299 145.453 51.1073 145.524 51.167C145.596 51.2267 145.715 51.2757 145.882 51.314L146.44 51.4333C146.75 51.5001 146.98 51.6059 147.13 51.7508C147.282 51.8957 147.359 52.0853 147.36 52.3197C147.359 52.5257 147.299 52.7075 147.179 52.8651C147.061 53.0214 146.897 53.1436 146.687 53.2316C146.477 53.3197 146.235 53.3637 145.963 53.3637C145.562 53.3637 145.24 53.2799 144.995 53.1123C144.751 52.9433 144.605 52.7082 144.558 52.407L145.311 52.3346C145.345 52.4823 145.417 52.5938 145.528 52.6691C145.639 52.7444 145.783 52.782 145.96 52.782C146.144 52.782 146.291 52.7444 146.402 52.6691C146.514 52.5938 146.57 52.5008 146.57 52.39C146.57 52.2963 146.534 52.2188 146.461 52.1578C146.39 52.0967 146.279 52.0498 146.129 52.0171L145.571 51.8999C145.257 51.8346 145.024 51.7245 144.874 51.5697C144.723 51.4134 144.649 51.216 144.65 50.9774C144.649 50.7757 144.703 50.6009 144.814 50.4532C144.926 50.3041 145.082 50.189 145.281 50.108C145.481 50.0257 145.712 49.9845 145.973 49.9845C146.357 49.9845 146.659 50.0661 146.879 50.2295C147.1 50.3928 147.237 50.6137 147.29 50.8921ZM149.445 53.3637C149.117 53.3637 148.834 53.2955 148.595 53.1592C148.358 53.0214 148.175 52.8268 148.047 52.5754C147.92 52.3225 147.856 52.0249 147.856 51.6826C147.856 51.346 147.92 51.0505 148.047 50.7963C148.177 50.5406 148.357 50.3417 148.589 50.1997C148.82 50.0562 149.092 49.9845 149.405 49.9845C149.606 49.9845 149.797 50.0171 149.976 50.0825C150.156 50.1464 150.315 50.2458 150.453 50.3808C150.592 50.5157 150.702 50.6876 150.781 50.8964C150.861 51.1038 150.9 51.3509 150.9 51.6379V51.8744H148.218V51.3545H150.161C150.16 51.2068 150.128 51.0754 150.065 50.9603C150.003 50.8438 149.915 50.7522 149.803 50.6855C149.692 50.6187 149.563 50.5853 149.415 50.5853C149.258 50.5853 149.119 50.6237 149 50.7004C148.881 50.7757 148.788 50.8751 148.721 50.9987C148.655 51.1208 148.622 51.2551 148.621 51.4014V51.8552C148.621 52.0455 148.655 52.2089 148.725 52.3453C148.795 52.4802 148.892 52.5839 149.017 52.6563C149.142 52.7274 149.288 52.7629 149.456 52.7629C149.568 52.7629 149.67 52.7472 149.761 52.716C149.851 52.6833 149.93 52.6357 149.997 52.5732C150.064 52.5107 150.114 52.4333 150.148 52.341L150.869 52.422C150.823 52.6123 150.736 52.7785 150.609 52.9205C150.482 53.0612 150.32 53.1705 150.123 53.2487C149.925 53.3254 149.699 53.3637 149.445 53.3637ZM152.495 53.3659C152.287 53.3659 152.101 53.3289 151.934 53.2551C151.77 53.1798 151.639 53.069 151.542 52.9227C151.447 52.7764 151.4 52.596 151.4 52.3815C151.4 52.1968 151.434 52.0441 151.502 51.9234C151.57 51.8026 151.663 51.7061 151.781 51.6336C151.899 51.5612 152.032 51.5065 152.179 51.4695C152.329 51.4312 152.483 51.4035 152.642 51.3865C152.834 51.3666 152.989 51.3488 153.108 51.3332C153.228 51.3161 153.314 51.2906 153.368 51.2565C153.424 51.221 153.451 51.1663 153.451 51.0924V51.0796C153.451 50.9191 153.404 50.7948 153.309 50.7068C153.213 50.6187 153.076 50.5747 152.897 50.5747C152.709 50.5747 152.559 50.6159 152.448 50.6982C152.338 50.7806 152.265 50.8779 152.226 50.9901L151.506 50.8879C151.563 50.689 151.657 50.5228 151.787 50.3893C151.918 50.2543 152.078 50.1535 152.267 50.0867C152.456 50.0186 152.664 49.9845 152.893 49.9845C153.051 49.9845 153.208 50.0029 153.364 50.0399C153.52 50.0768 153.663 50.1379 153.792 50.2231C153.922 50.3069 154.025 50.4213 154.103 50.5661C154.183 50.711 154.223 50.8921 154.223 51.1095V53.2998H153.481V52.8502H153.456C153.409 52.9411 153.343 53.0264 153.258 53.1059C153.174 53.184 153.068 53.2472 152.94 53.2955C152.814 53.3424 152.665 53.3659 152.495 53.3659ZM152.695 52.7991C152.85 52.7991 152.984 52.7686 153.098 52.7075C153.211 52.645 153.299 52.5626 153.36 52.4603C153.422 52.358 153.454 52.2465 153.454 52.1258V51.7401C153.429 51.76 153.388 51.7785 153.33 51.7955C153.273 51.8126 153.209 51.8275 153.138 51.8403C153.067 51.8531 152.997 51.8644 152.927 51.8744C152.858 51.8843 152.797 51.8928 152.746 51.8999C152.631 51.9156 152.528 51.9411 152.437 51.9767C152.346 52.0122 152.275 52.0619 152.222 52.1258C152.169 52.1883 152.143 52.2693 152.143 52.3687C152.143 52.5107 152.195 52.618 152.299 52.6904C152.402 52.7629 152.535 52.7991 152.695 52.7991ZM154.998 53.2998V50.0271H155.746V50.5725H155.78C155.84 50.3836 155.942 50.238 156.087 50.1357C156.233 50.032 156.4 49.9802 156.588 49.9802C156.63 49.9802 156.678 49.9823 156.731 49.9866C156.785 49.9894 156.829 49.9944 156.865 50.0015V50.711C156.832 50.6997 156.78 50.6897 156.709 50.6812C156.64 50.6713 156.572 50.6663 156.507 50.6663C156.366 50.6663 156.24 50.6968 156.128 50.7579C156.017 50.8176 155.929 50.9007 155.865 51.0072C155.802 51.1137 155.77 51.2366 155.77 51.3758V53.2998H154.998ZM158.67 53.3637C158.343 53.3637 158.063 53.292 157.828 53.1485C157.595 53.0051 157.416 52.8069 157.289 52.5541C157.164 52.2998 157.102 52.0072 157.102 51.6762C157.102 51.3438 157.166 51.0505 157.294 50.7963C157.421 50.5406 157.602 50.3417 157.835 50.1997C158.069 50.0562 158.346 49.9845 158.666 49.9845C158.931 49.9845 159.166 50.0335 159.371 50.1315C159.577 50.2281 159.741 50.3651 159.863 50.5427C159.985 50.7188 160.055 50.9248 160.072 51.1606H159.335C159.305 51.0029 159.234 50.8715 159.122 50.7664C159.011 50.6599 158.862 50.6066 158.676 50.6066C158.519 50.6066 158.38 50.6492 158.261 50.7345C158.142 50.8183 158.049 50.939 157.982 51.0967C157.916 51.2544 157.884 51.4433 157.884 51.6634C157.884 51.8865 157.916 52.0782 157.982 52.2387C158.047 52.3978 158.139 52.5207 158.257 52.6073C158.376 52.6926 158.516 52.7352 158.676 52.7352C158.79 52.7352 158.892 52.7139 158.981 52.6713C159.072 52.6272 159.148 52.564 159.209 52.4816C159.27 52.3992 159.312 52.2991 159.335 52.1812H160.072C160.054 52.4127 159.985 52.618 159.867 52.797C159.75 52.9745 159.589 53.1137 159.386 53.2146C159.183 53.314 158.944 53.3637 158.67 53.3637ZM161.477 51.3822V53.2998H160.705V48.9362H161.46V50.5832H161.498C161.575 50.3985 161.693 50.2529 161.854 50.1464C162.016 50.0384 162.222 49.9845 162.472 49.9845C162.699 49.9845 162.897 50.032 163.066 50.1272C163.235 50.2224 163.366 50.3616 163.458 50.5448C163.552 50.7281 163.599 50.9518 163.599 51.216V53.2998H162.827V51.3353C162.827 51.1151 162.771 50.944 162.657 50.8218C162.545 50.6982 162.387 50.6365 162.184 50.6365C162.048 50.6365 161.925 50.6663 161.818 50.7259C161.711 50.7842 161.627 50.8687 161.566 50.9795C161.506 51.0903 161.477 51.2245 161.477 51.3822ZM166.348 53.3467C166.219 53.3467 166.108 53.3012 166.016 53.2103C165.924 53.1194 165.878 53.0086 165.88 52.8779C165.878 52.7501 165.924 52.6407 166.016 52.5498C166.108 52.4589 166.219 52.4134 166.348 52.4134C166.473 52.4134 166.582 52.4589 166.674 52.5498C166.768 52.6407 166.816 52.7501 166.817 52.8779C166.816 52.9646 166.793 53.0434 166.749 53.1144C166.706 53.1855 166.65 53.2423 166.579 53.2849C166.509 53.3261 166.432 53.3467 166.348 53.3467ZM168.089 53.3467C167.959 53.3467 167.849 53.3012 167.756 53.2103C167.664 53.1194 167.619 53.0086 167.62 52.8779C167.619 52.7501 167.664 52.6407 167.756 52.5498C167.849 52.4589 167.959 52.4134 168.089 52.4134C168.214 52.4134 168.322 52.4589 168.415 52.5498C168.508 52.6407 168.556 52.7501 168.557 52.8779C168.556 52.9646 168.533 53.0434 168.489 53.1144C168.447 53.1855 168.39 53.2423 168.319 53.2849C168.249 53.3261 168.172 53.3467 168.089 53.3467ZM169.829 53.3467C169.7 53.3467 169.589 53.3012 169.497 53.2103C169.404 53.1194 169.359 53.0086 169.36 52.8779C169.359 52.7501 169.404 52.6407 169.497 52.5498C169.589 52.4589 169.7 52.4134 169.829 52.4134C169.954 52.4134 170.063 52.4589 170.155 52.5498C170.249 52.6407 170.296 52.7501 170.298 52.8779C170.296 52.9646 170.274 53.0434 170.229 53.1144C170.187 53.1855 170.13 53.2423 170.059 53.2849C169.989 53.3261 169.913 53.3467 169.829 53.3467Z" fill="#7E7E7E"/>
<path d="M208.242 315.597C289.066 315.597 354.586 309.644 354.586 302.299C354.586 294.955 289.066 289.001 208.242 289.001C127.419 289.001 61.8982 294.955 61.8982 302.299C61.8982 309.644 127.419 315.597 208.242 315.597Z" fill="#727272" stroke="#263238" stroke-miterlimit="10" stroke-linecap="round" stroke-linejoin="round"/>
<path d="M269.387 290.842H239.175C211.744 290.842 189.51 268.766 189.51 241.529V187.695C189.51 160.458 211.744 138.382 239.175 138.382H269.387C296.818 138.382 319.051 160.458 319.051 187.695V241.529C319.051 268.758 296.818 290.842 269.387 290.842Z" fill="#359276"/>
<mask id="mask1_1262_13804" style="mask-type:luminance" maskUnits="userSpaceOnUse" x="189" y="138" width="131" height="153">
<path d="M269.387 290.842H239.175C211.744 290.842 189.51 268.766 189.51 241.529V187.695C189.51 160.458 211.744 138.382 239.175 138.382H269.387C296.818 138.382 319.051 160.458 319.051 187.695V241.529C319.051 268.758 296.818 290.842 269.387 290.842Z" fill="white"/>
</mask>
<g mask="url(#mask1_1262_13804)">
<path opacity="0.3" d="M276.497 138.891C275.935 138.809 275.363 138.735 274.801 138.678C274.527 138.645 274.254 138.62 273.981 138.596C273.468 138.546 272.946 138.513 272.425 138.48C272.177 138.464 271.928 138.448 271.688 138.439C270.927 138.406 270.165 138.382 269.395 138.382H256.259H253.611L253.238 239.68C253.238 239.68 281.149 239.269 283.608 237.641C286.074 236.014 295.097 174.882 294.277 167.551C293.458 160.211 277.035 148.803 277.035 148.803V142.91C294.079 150.718 305.915 167.83 305.915 187.695V241.529C305.915 268.766 283.682 290.842 256.251 290.842H269.387C296.818 290.842 319.051 268.766 319.051 241.529V187.695C319.051 162.858 300.552 142.31 276.497 138.891Z" fill="black"/>
</g>
<path d="M269.387 290.842H239.175C211.744 290.842 189.51 268.766 189.51 241.529V187.695C189.51 160.458 211.744 138.382 239.175 138.382H269.387C296.818 138.382 319.051 160.458 319.051 187.695V241.529C319.051 268.758 296.818 290.842 269.387 290.842Z" stroke="#263238" stroke-miterlimit="10" stroke-linecap="round" stroke-linejoin="round"/>
<path d="M177.715 305.636H150.764C143.795 305.636 138.141 300.023 138.141 293.102V221.187C138.141 214.267 143.795 208.653 150.764 208.653H177.715C184.685 208.653 190.338 214.267 190.338 221.187V293.102C190.338 300.023 184.685 305.636 177.715 305.636Z" fill="#359276"/>
<mask id="mask2_1262_13804" style="mask-type:luminance" maskUnits="userSpaceOnUse" x="138" y="208" width="53" height="98">
<path d="M177.715 305.636H150.764C143.795 305.636 138.141 300.023 138.141 293.102V221.187C138.141 214.267 143.795 208.653 150.764 208.653H177.715C184.685 208.653 190.338 214.267 190.338 221.187V293.102C190.338 300.023 184.685 305.636 177.715 305.636Z" fill="white"/>
</mask>
<g mask="url(#mask2_1262_13804)">
<path opacity="0.3" d="M177.715 305.636H150.764C143.795 305.636 138.141 300.023 138.141 293.102V221.187C138.141 214.267 143.795 208.653 150.764 208.653H177.715C184.685 208.653 190.338 214.267 190.338 221.187V293.102C190.338 300.023 184.685 305.636 177.715 305.636Z" fill="black"/>
</g>
<path d="M177.715 305.636H150.764C143.795 305.636 138.141 300.023 138.141 293.102V221.187C138.141 214.267 143.795 208.653 150.764 208.653H177.715C184.685 208.653 190.338 214.267 190.338 221.187V293.102C190.338 300.023 184.685 305.636 177.715 305.636Z" stroke="#263238" stroke-miterlimit="10" stroke-linecap="round" stroke-linejoin="round"/>
<path d="M164.695 305.636H129.731C128.299 305.636 127.141 304.486 127.141 303.064V221.187C127.141 214.267 132.794 208.653 139.763 208.653H154.663C161.632 208.653 167.286 214.267 167.286 221.187V303.064C167.286 304.477 166.127 305.636 164.695 305.636Z" fill="#359276"/>
<mask id="mask3_1262_13804" style="mask-type:luminance" maskUnits="userSpaceOnUse" x="127" y="208" width="41" height="98">
<path d="M164.695 305.636H129.731C128.299 305.636 127.141 304.486 127.141 303.064V221.187C127.141 214.267 132.794 208.653 139.763 208.653H154.663C161.632 208.653 167.286 214.267 167.286 221.187V303.064C167.286 304.477 166.127 305.636 164.695 305.636Z" fill="white"/>
</mask>
<g mask="url(#mask3_1262_13804)">
<path opacity="0.3" d="M154.663 208.653H148.314C155.284 208.653 160.937 214.267 160.937 221.187V293.102C160.937 300.023 155.284 305.636 148.314 305.636H165.092C166.301 305.636 167.286 304.658 167.286 303.458V221.187C167.286 214.259 161.641 208.653 154.663 208.653Z" fill="black"/>
</g>
<path d="M164.695 305.636H129.731C128.299 305.636 127.141 304.486 127.141 303.064V221.187C127.141 214.267 132.794 208.653 139.763 208.653H154.663C161.632 208.653 167.286 214.267 167.286 221.187V303.064C167.286 304.477 166.127 305.636 164.695 305.636Z" stroke="#263238" stroke-miterlimit="10" stroke-linecap="round" stroke-linejoin="round"/>
<path d="M289.12 305.636H167.062C165.514 305.636 164.265 304.395 164.265 302.858V246.46C164.265 240.559 169.082 235.776 175.025 235.776H281.158C287.101 235.776 291.918 240.559 291.918 246.46V302.858C291.918 304.387 290.66 305.636 289.12 305.636Z" fill="#359276" stroke="#263238" stroke-miterlimit="10" stroke-linecap="round" stroke-linejoin="round"/>
<path d="M164.265 268.241H279.933" stroke="#263238" stroke-miterlimit="10" stroke-linecap="round" stroke-linejoin="round"/>
<path d="M187.027 230.565C187.027 230.565 179.023 229.743 179.023 232.48C179.023 235.217 182.607 236.861 189.511 237.14C196.406 237.411 201.099 236.589 201.099 236.589C201.099 236.589 191.994 231.666 187.027 230.565Z" fill="white"/>
<mask id="mask4_1262_13804" style="mask-type:luminance" maskUnits="userSpaceOnUse" x="179" y="230" width="23" height="8">
<path d="M187.027 230.565C187.027 230.565 179.023 229.743 179.023 232.48C179.023 235.217 182.607 236.861 189.511 237.14C196.406 237.411 201.099 236.589 201.099 236.589C201.099 236.589 191.994 231.666 187.027 230.565Z" fill="white"/>
</mask>
<g mask="url(#mask4_1262_13804)">
<path opacity="0.15" d="M187.027 230.565C187.027 230.565 179.023 229.743 179.023 232.48C179.023 235.217 182.607 236.861 189.511 237.14C196.406 237.411 201.099 236.589 201.099 236.589C201.099 236.589 191.994 231.666 187.027 230.565Z" fill="black"/>
</g>
<path d="M187.027 230.565C187.027 230.565 179.023 229.743 179.023 232.48C179.023 235.217 182.607 236.861 189.511 237.14C196.406 237.411 201.099 236.589 201.099 236.589C201.099 236.589 191.994 231.666 187.027 230.565Z" stroke="#263238" stroke-miterlimit="10" stroke-linecap="round" stroke-linejoin="round"/>
<path d="M226.676 213.872C226.676 213.872 218.697 214.834 217.248 214.834C215.8 214.834 186.307 203.073 180.505 203.073C174.702 203.073 172.285 215.311 180.745 223.234C189.204 231.157 222.322 240.995 240.21 240.033C258.097 239.071 270.182 226.834 270.182 218.434C270.182 210.034 250.358 215.557 242.386 213.396C234.415 211.234 226.676 213.872 226.676 213.872Z" fill="#727272" stroke="#263238" stroke-miterlimit="10" stroke-linecap="round" stroke-linejoin="round"/>
<path d="M222.33 217.234C222.33 217.234 229.821 222.034 231.998 226.357" stroke="white" stroke-miterlimit="10" stroke-linecap="round" stroke-linejoin="round"/>
<path d="M275.753 153.874C267.533 143.79 249.646 142.836 237.801 144.751C237.801 144.751 224.747 148.589 222.33 154.112C219.913 159.636 206.893 183.996 206.893 183.996C206.893 183.996 191.977 192.421 186.34 194.582C182.193 196.169 176.052 197.278 173.08 197.755C170.68 196.678 163.909 193.728 161.988 193.728C159.646 193.728 156.84 198.379 158.239 199.768C159.646 201.166 164.438 204.289 168.287 204.018C169.612 205.349 204.17 198.856 207.762 198.305C211.355 197.763 228.853 174.027 228.853 174.027C228.853 174.027 230.061 195.388 228.613 203.787C227.164 212.187 223.779 213.625 224.747 214.11C225.716 214.587 232.727 218.434 250.126 218.672C267.533 218.91 275.993 212.91 275.993 212.91C275.993 212.91 282.035 183.15 283.003 175.465C283.972 167.789 283.972 163.95 275.753 153.874Z" fill="white"/>
<mask id="mask5_1262_13804" style="mask-type:luminance" maskUnits="userSpaceOnUse" x="157" y="143" width="127" height="76">
<path d="M275.753 153.874C267.533 143.79 249.646 142.836 237.801 144.751C237.801 144.751 224.747 148.589 222.33 154.112C219.913 159.636 206.893 183.996 206.893 183.996C206.893 183.996 191.977 192.421 186.34 194.582C182.193 196.169 176.052 197.278 173.08 197.755C170.68 196.678 163.909 193.728 161.988 193.728C159.646 193.728 156.84 198.379 158.239 199.768C159.646 201.166 164.438 204.289 168.287 204.018C169.612 205.349 204.17 198.856 207.762 198.305C211.355 197.763 228.853 174.027 228.853 174.027C228.853 174.027 230.061 195.388 228.613 203.787C227.164 212.187 223.779 213.625 224.747 214.11C225.716 214.587 232.727 218.434 250.126 218.672C267.533 218.91 275.993 212.91 275.993 212.91C275.993 212.91 282.035 183.15 283.003 175.465C283.972 167.789 283.972 163.95 275.753 153.874Z" fill="white"/>
</mask>
<g mask="url(#mask5_1262_13804)">
<path d="M198.591 196.925C198.591 196.925 182.243 201.042 176.573 202.448C173.767 203.147 170.613 203.673 168.147 204.018C168.196 204.018 168.246 204.018 168.287 204.018C169.413 205.144 194.32 200.664 204.137 198.93L198.591 196.925Z" fill="#359276"/>
</g>
<mask id="mask6_1262_13804" style="mask-type:luminance" maskUnits="userSpaceOnUse" x="157" y="143" width="127" height="76">
<path d="M275.753 153.874C267.533 143.79 249.646 142.836 237.801 144.751C237.801 144.751 224.747 148.589 222.33 154.112C219.913 159.636 206.893 183.996 206.893 183.996C206.893 183.996 191.977 192.421 186.34 194.582C182.193 196.169 176.052 197.278 173.08 197.755C170.68 196.678 163.909 193.728 161.988 193.728C159.646 193.728 156.84 198.379 158.239 199.768C159.646 201.166 164.438 204.289 168.287 204.018C169.612 205.349 204.17 198.856 207.762 198.305C211.355 197.763 228.853 174.027 228.853 174.027C228.853 174.027 230.061 195.388 228.613 203.787C227.164 212.187 223.779 213.625 224.747 214.11C225.716 214.587 232.727 218.434 250.126 218.672C267.533 218.91 275.993 212.91 275.993 212.91C275.993 212.91 282.035 183.15 283.003 175.465C283.972 167.789 283.972 163.95 275.753 153.874Z" fill="white"/>
</mask>
<g mask="url(#mask6_1262_13804)">
<path opacity="0.5" d="M198.591 196.925C198.591 196.925 182.243 201.042 176.573 202.448C173.767 203.147 170.613 203.673 168.147 204.018C168.196 204.018 168.246 204.018 168.287 204.018C169.413 205.144 194.32 200.664 204.137 198.93L198.591 196.925Z" fill="white"/>
</g>
<path d="M275.753 153.874C267.533 143.79 249.646 142.836 237.801 144.751C237.801 144.751 224.747 148.589 222.33 154.112C219.913 159.636 206.893 183.996 206.893 183.996C206.893 183.996 191.977 192.421 186.34 194.582C182.193 196.169 176.052 197.278 173.08 197.755C170.68 196.678 163.909 193.728 161.988 193.728C159.646 193.728 156.84 198.379 158.239 199.768C159.646 201.166 164.438 204.289 168.287 204.018C169.612 205.349 204.17 198.856 207.762 198.305C211.355 197.763 228.853 174.027 228.853 174.027C228.853 174.027 230.061 195.388 228.613 203.787C227.164 212.187 223.779 213.625 224.747 214.11C225.716 214.587 232.727 218.434 250.126 218.672C267.533 218.91 275.993 212.91 275.993 212.91C275.993 212.91 282.035 183.15 283.003 175.465C283.972 167.789 283.972 163.95 275.753 153.874Z" stroke="#263238" stroke-miterlimit="10" stroke-linecap="round" stroke-linejoin="round"/>
<path d="M173.08 197.755C173.08 197.755 170.489 193.637 169.529 192.824C168.569 192.002 166.64 191.459 164.852 190.777C163.064 190.095 160.73 187.498 160.589 188.18C160.449 188.862 160.176 189.684 161.69 190.909C163.205 192.142 164.852 192.955 164.852 192.955C164.852 192.955 162.791 194.459 162.924 196.366C163.064 198.281 166.499 198.824 169.248 199.234" fill="white"/>
<path d="M173.08 197.755C173.08 197.755 170.489 193.637 169.529 192.824C168.569 192.002 166.64 191.459 164.852 190.777C163.064 190.095 160.73 187.498 160.589 188.18C160.449 188.862 160.176 189.684 161.69 190.909C163.205 192.142 164.852 192.955 164.852 192.955C164.852 192.955 162.791 194.459 162.924 196.366C163.064 198.281 166.499 198.824 169.248 199.234" stroke="#263238" stroke-miterlimit="10" stroke-linecap="round" stroke-linejoin="round"/>
<path d="M149.2 182.114L144.606 183.824L163.445 199.341L165.614 195.084L149.2 182.114Z" fill="#727272" stroke="#263238" stroke-miterlimit="10" stroke-linecap="round" stroke-linejoin="round"/>
<path d="M159.488 200.738L151.509 195.141C151.509 195.141 149.448 188.862 150.822 188.722C152.196 188.582 152.064 193.497 152.064 193.497L153.305 194.451C153.305 194.451 152.759 189.947 153.446 189.807C154.133 189.667 154.406 190.76 154.547 191.582C154.688 192.404 155.375 194.59 155.375 194.59L156.335 195.133C156.335 195.133 156.062 191.993 156.194 191.311C156.335 190.629 157.295 191.04 157.436 191.993C157.576 192.947 158.537 196.768 158.537 196.768C158.537 196.768 160.184 192.125 160.598 193.358C161.012 194.59 160.457 197.179 160.457 197.179C160.457 197.179 164.306 199.497 164.579 200.73" fill="white"/>
<path d="M159.488 200.738L151.509 195.141C151.509 195.141 149.448 188.862 150.822 188.722C152.196 188.582 152.064 193.497 152.064 193.497L153.305 194.451C153.305 194.451 152.759 189.947 153.446 189.807C154.133 189.667 154.406 190.76 154.547 191.582C154.688 192.404 155.375 194.59 155.375 194.59L156.335 195.133C156.335 195.133 156.062 191.993 156.194 191.311C156.335 190.629 157.295 191.04 157.436 191.993C157.576 192.947 158.537 196.768 158.537 196.768C158.537 196.768 160.184 192.125 160.598 193.358C161.012 194.59 160.457 197.179 160.457 197.179C160.457 197.179 164.306 199.497 164.579 200.73" stroke="#263238" stroke-miterlimit="10" stroke-linecap="round" stroke-linejoin="round"/>
<path d="M158.528 196.777C158.528 196.777 160.531 201.486 161.574 202.103" stroke="#263238" stroke-miterlimit="10" stroke-linecap="round" stroke-linejoin="round"/>
<path d="M156.327 195.141C156.327 195.141 156.79 197.977 157.204 199.218" stroke="#263238" stroke-miterlimit="10" stroke-linecap="round" stroke-linejoin="round"/>
<path d="M153.297 194.459C153.297 194.459 153.454 195.914 154.704 197.155" stroke="#263238" stroke-miterlimit="10" stroke-linecap="round" stroke-linejoin="round"/>
<path d="M237.801 144.751C237.801 144.751 224.747 148.589 222.33 154.113C219.913 159.636 206.893 183.996 206.893 183.996C206.893 183.996 201.48 187.407 194.601 190.785C196.223 192.404 198.342 195.24 199.518 199.678C203.599 199.004 206.761 198.462 207.762 198.314C211.354 197.771 228.853 174.035 228.853 174.035C228.853 174.035 230.061 195.396 228.613 203.796C227.255 211.637 224.217 213.412 224.615 214.004C226.163 217.036 226.163 219.675 235.475 220.562C238.521 220.94 245.937 218.623 250.134 218.68C267.541 218.919 276.001 212.919 276.001 212.919C276.001 212.919 282.043 183.158 283.012 175.473C283.98 167.789 283.98 163.951 275.761 153.874C267.533 143.79 249.646 142.828 237.801 144.751Z" fill="white"/>
<mask id="mask7_1262_13804" style="mask-type:luminance" maskUnits="userSpaceOnUse" x="194" y="143" width="90" height="78">
<path d="M237.801 144.751C237.801 144.751 224.747 148.589 222.33 154.113C219.913 159.636 206.893 183.996 206.893 183.996C206.893 183.996 201.48 187.407 194.601 190.785C196.223 192.404 198.342 195.24 199.518 199.678C203.599 199.004 206.761 198.462 207.762 198.314C211.354 197.771 228.853 174.035 228.853 174.035C228.853 174.035 230.061 195.396 228.613 203.796C227.255 211.637 224.217 213.412 224.615 214.004C226.163 217.036 226.163 219.675 235.475 220.562C238.521 220.94 245.937 218.623 250.134 218.68C267.541 218.919 276.001 212.919 276.001 212.919C276.001 212.919 282.043 183.158 283.012 175.473C283.98 167.789 283.98 163.951 275.761 153.874C267.533 143.79 249.646 142.828 237.801 144.751Z" fill="white"/>
</mask>
<g mask="url(#mask7_1262_13804)">
<path opacity="0.15" d="M198.591 196.925C202.812 195.437 208.78 193.045 210.336 190.982C212.82 187.695 227.305 166.326 227.305 166.326C227.305 166.326 228.547 169.646 228.389 174.66C225.6 178.408 211.007 197.821 207.762 198.306C206.761 198.453 203.59 198.996 199.518 199.67C199.253 198.675 198.938 197.763 198.591 196.925ZM275.753 153.874C272.599 150.011 268.021 147.488 262.914 145.951C258.271 168.923 252.799 202.949 249.248 206.187C244.282 210.708 236.832 213.174 242.395 213.395C247.957 213.617 248.834 211.941 248.834 214.817C248.834 215.886 248.834 217.349 248.321 218.771C248.967 218.705 249.579 218.672 250.126 218.68C267.533 218.918 275.993 212.919 275.993 212.919C275.993 212.919 282.035 183.158 283.003 175.473C283.972 167.789 283.972 163.951 275.753 153.874Z" fill="black"/>
</g>
<mask id="mask8_1262_13804" style="mask-type:luminance" maskUnits="userSpaceOnUse" x="194" y="143" width="90" height="78">
<path d="M237.801 144.751C237.801 144.751 224.747 148.589 222.33 154.113C219.913 159.636 206.893 183.996 206.893 183.996C206.893 183.996 201.48 187.407 194.601 190.785C196.223 192.404 198.342 195.24 199.518 199.678C203.599 199.004 206.761 198.462 207.762 198.314C211.354 197.771 228.853 174.035 228.853 174.035C228.853 174.035 230.061 195.396 228.613 203.796C227.255 211.637 224.217 213.412 224.615 214.004C226.163 217.036 226.163 219.675 235.475 220.562C238.521 220.94 245.937 218.623 250.134 218.68C267.541 218.919 276.001 212.919 276.001 212.919C276.001 212.919 282.043 183.158 283.012 175.473C283.98 167.789 283.98 163.951 275.761 153.874C267.533 143.79 249.646 142.828 237.801 144.751Z" fill="white"/>
</mask>
<g mask="url(#mask8_1262_13804)">
<path d="M226.759 163.86L228.853 174.035L224.276 161.395" stroke="#263238" stroke-miterlimit="10" stroke-linecap="round" stroke-linejoin="round"/>
</g>
<path d="M237.801 144.751C237.801 144.751 224.747 148.589 222.33 154.113C219.913 159.636 206.893 183.996 206.893 183.996C206.893 183.996 201.48 187.407 194.601 190.785C196.223 192.404 198.342 195.24 199.518 199.678C203.599 199.004 206.761 198.462 207.762 198.314C211.354 197.771 228.853 174.035 228.853 174.035C228.853 174.035 230.061 195.396 228.613 203.796C227.255 211.637 224.217 213.412 224.615 214.004C226.163 217.036 226.163 219.675 235.475 220.562C238.521 220.94 245.937 218.623 250.134 218.68C267.541 218.919 276.001 212.919 276.001 212.919C276.001 212.919 282.043 183.158 283.012 175.473C283.98 167.789 283.98 163.951 275.761 153.874C267.533 143.79 249.646 142.828 237.801 144.751Z" stroke="#263238" stroke-miterlimit="10" stroke-linecap="round" stroke-linejoin="round"/>
<path d="M259.074 240.518C259.074 240.518 272.028 240.181 279.138 228.518C284.7 219.395 279.138 210.281 269.71 209.319C260.282 208.357 253.809 216.379 245.292 220.842C227.884 229.965 213.142 230.926 203.475 232.126C193.807 233.326 195.495 234.526 204.923 237.888C214.351 241.233 240.938 244.833 259.074 240.518Z" fill="#727272" stroke="#263238" stroke-miterlimit="10" stroke-linecap="round" stroke-linejoin="round"/>
<path d="M225.931 229.611C225.931 229.611 239.423 225.757 251.094 218.442" stroke="white" stroke-miterlimit="10" stroke-linecap="round" stroke-linejoin="round"/>
<path d="M259.073 240.518C259.073 240.518 269.23 237.156 274.784 224.434" stroke="#263238" stroke-miterlimit="10" stroke-linecap="round" stroke-linejoin="round"/>
<path d="M180.513 203.073C180.513 203.073 175.679 201.873 172.054 208.349C168.428 214.826 171.325 222.51 181.001 229.71C190.678 236.91 216.536 240.995 217.256 240.995C217.976 240.995 220.402 231.157 220.402 231.157L188.252 208.596" fill="#727272"/>
<path d="M180.513 203.073C180.513 203.073 175.679 201.873 172.054 208.349C168.428 214.826 171.325 222.51 181.001 229.71C190.678 236.91 216.536 240.995 217.256 240.995C217.976 240.995 220.402 231.157 220.402 231.157L188.252 208.596" stroke="#263238" stroke-miterlimit="10" stroke-linecap="round" stroke-linejoin="round"/>
<path d="M195.528 213.716L192.821 211.53" stroke="white" stroke-miterlimit="10" stroke-linecap="round" stroke-linejoin="round"/>
<path d="M213.101 227.967L198.731 216.313" stroke="white" stroke-miterlimit="10" stroke-linecap="round" stroke-linejoin="round"/>
<path d="M221.602 233.557C221.602 233.557 238.281 239.08 244.083 239.08C249.886 239.08 265.356 237.156 264.868 241.241C264.388 245.318 259.305 246.041 251.574 245.318C243.843 244.595 218.945 240.756 218.945 240.756L221.602 233.557Z" fill="white"/>
<mask id="mask9_1262_13804" style="mask-type:luminance" maskUnits="userSpaceOnUse" x="218" y="233" width="47" height="13">
<path d="M221.602 233.557C221.602 233.557 238.281 239.08 244.083 239.08C249.886 239.08 265.356 237.156 264.868 241.241C264.388 245.318 259.305 246.041 251.574 245.318C243.843 244.595 218.945 240.756 218.945 240.756L221.602 233.557Z" fill="white"/>
</mask>
<g mask="url(#mask9_1262_13804)">
<path opacity="0.15" d="M221.602 233.557C221.602 233.557 238.281 239.08 244.083 239.08C249.886 239.08 265.356 237.156 264.868 241.241C264.388 245.318 259.305 246.041 251.574 245.318C243.843 244.595 218.945 240.756 218.945 240.756L221.602 233.557Z" fill="black"/>
</g>
<path d="M221.602 233.557C221.602 233.557 238.281 239.08 244.083 239.08C249.886 239.08 265.356 237.156 264.868 241.241C264.388 245.318 259.305 246.041 251.574 245.318C243.843 244.595 218.945 240.756 218.945 240.756L221.602 233.557Z" stroke="#263238" stroke-miterlimit="10" stroke-linecap="round" stroke-linejoin="round"/>
<path d="M216.768 227.795L211.694 240.756C211.694 240.756 217.736 241.956 219.425 241.956C221.113 241.956 223.05 231.156 223.05 230.433C223.05 229.71 216.768 227.795 216.768 227.795Z" fill="white" stroke="#263238" stroke-miterlimit="10" stroke-linecap="round" stroke-linejoin="round"/>
<path d="M316.875 305.636H281.911C280.479 305.636 279.32 304.486 279.32 303.064V221.187C279.32 214.267 284.974 208.653 291.943 208.653H306.842C313.812 208.653 319.465 214.267 319.465 221.187V303.064C319.465 304.477 318.306 305.636 316.875 305.636Z" fill="#359276"/>
<mask id="mask10_1262_13804" style="mask-type:luminance" maskUnits="userSpaceOnUse" x="279" y="208" width="41" height="98">
<path d="M316.875 305.636H281.911C280.479 305.636 279.32 304.486 279.32 303.064V221.187C279.32 214.267 284.974 208.653 291.943 208.653H306.842C313.812 208.653 319.465 214.267 319.465 221.187V303.064C319.465 304.477 318.306 305.636 316.875 305.636Z" fill="white"/>
</mask>
<g mask="url(#mask10_1262_13804)">
<path opacity="0.3" d="M306.842 208.653H300.494C307.463 208.653 313.117 214.267 313.117 221.187V293.102C313.117 300.023 307.463 305.636 300.494 305.636H317.272C318.48 305.636 319.465 304.658 319.465 303.458V221.187C319.465 214.259 313.812 208.653 306.842 208.653Z" fill="black"/>
</g>
<path d="M316.875 305.636H281.911C280.479 305.636 279.32 304.486 279.32 303.064V221.187C279.32 214.267 284.974 208.653 291.943 208.653H306.842C313.812 208.653 319.465 214.267 319.465 221.187V303.064C319.465 304.477 318.306 305.636 316.875 305.636Z" stroke="#263238" stroke-miterlimit="10" stroke-linecap="round" stroke-linejoin="round"/>
<path d="M227.884 113.067C227.884 113.067 217.248 116.191 220.633 119.79C224.019 123.39 234.167 121.714 234.167 121.714L227.884 113.067Z" fill="#727272" stroke="#263238" stroke-miterlimit="10" stroke-linecap="round" stroke-linejoin="round"/>
<path d="M239.249 146.666C239.249 146.666 245.772 161.304 247.229 158.427C248.677 155.551 248.917 141.39 248.917 141.39L239.249 146.666Z" stroke="#263238" stroke-miterlimit="10" stroke-linecap="round" stroke-linejoin="round"/>
<path d="M230.152 116.667C227.487 121.155 227.495 127.13 229.11 132.242C229.598 133.779 226.047 136.105 226.047 137.067C226.047 138.028 228.704 138.267 228.704 138.267C228.704 138.267 231.675 147.735 234.092 148.211C236.509 148.688 246.591 144.028 248.28 142.828C249.968 141.628 249.728 129.628 246.831 124.59C243.934 119.544 235.226 112.591 230.152 116.667Z" fill="white"/>
<mask id="mask11_1262_13804" style="mask-type:luminance" maskUnits="userSpaceOnUse" x="226" y="115" width="24" height="34">
<path d="M230.152 116.667C227.487 121.155 227.495 127.13 229.11 132.242C229.598 133.779 226.047 136.105 226.047 137.067C226.047 138.028 228.704 138.267 228.704 138.267C228.704 138.267 231.675 147.735 234.092 148.211C236.509 148.688 246.591 144.028 248.28 142.828C249.968 141.628 249.728 129.628 246.831 124.59C243.934 119.544 235.226 112.591 230.152 116.667Z" fill="white"/>
</mask>
<g mask="url(#mask11_1262_13804)">
<path d="M248.28 142.828C249.969 141.628 249.728 129.629 246.831 124.591C245.466 122.224 242.825 119.429 239.878 117.555C237.337 120.432 235.334 122.807 235.334 122.807C235.334 122.807 241.004 132.185 241.633 139.064C242.213 145.384 234.291 147.217 233 147.472C233.083 147.562 233.165 147.645 233.248 147.719L234.308 148.245C237.031 148.458 246.633 143.995 248.28 142.828Z" fill="#359276"/>
</g>
<mask id="mask12_1262_13804" style="mask-type:luminance" maskUnits="userSpaceOnUse" x="226" y="115" width="24" height="34">
<path d="M230.152 116.667C227.487 121.155 227.495 127.13 229.11 132.242C229.598 133.779 226.047 136.105 226.047 137.067C226.047 138.028 228.704 138.267 228.704 138.267C228.704 138.267 231.675 147.735 234.092 148.211C236.509 148.688 246.591 144.028 248.28 142.828C249.968 141.628 249.728 129.628 246.831 124.59C243.934 119.544 235.226 112.591 230.152 116.667Z" fill="white"/>
</mask>
<g mask="url(#mask12_1262_13804)">
<path opacity="0.5" d="M248.28 142.828C249.969 141.628 249.728 129.629 246.831 124.591C245.466 122.224 242.825 119.429 239.878 117.555C237.337 120.432 235.334 122.807 235.334 122.807C235.334 122.807 241.004 132.185 241.633 139.064C242.213 145.384 234.291 147.217 233 147.472C233.083 147.562 233.165 147.645 233.248 147.719L234.308 148.245C237.031 148.458 246.633 143.995 248.28 142.828Z" fill="white"/>
</g>
<path d="M230.152 116.667C227.487 121.155 227.495 127.13 229.11 132.242C229.598 133.779 226.047 136.105 226.047 137.067C226.047 138.028 228.704 138.267 228.704 138.267C228.704 138.267 231.675 147.735 234.092 148.211C236.509 148.688 246.591 144.028 248.28 142.828C249.968 141.628 249.728 129.628 246.831 124.59C243.934 119.544 235.226 112.591 230.152 116.667Z" stroke="#263238" stroke-miterlimit="10" stroke-linecap="round" stroke-linejoin="round"/>
<path d="M231.402 130.96L231.187 132.883C231.187 132.883 233.977 133.738 234.622 132.669" stroke="#263238" stroke-miterlimit="10" stroke-linecap="round" stroke-linejoin="round"/>
<path d="M231.005 129.785C231.005 129.785 232.478 127.336 235.276 129.686" stroke="#263238" stroke-miterlimit="10" stroke-linecap="round" stroke-linejoin="round"/>
<path d="M233.761 133.311L232.263 133.952" stroke="#263238" stroke-miterlimit="10" stroke-linecap="round" stroke-linejoin="round"/>
<path d="M238.769 106.344C238.769 106.344 225.476 107.544 225.476 113.783C225.476 120.021 242.767 130.837 242.767 130.837L245.78 194.665H266.813C266.813 194.665 265.844 125.782 265.844 118.821C265.836 111.868 251.334 104.183 238.769 106.344Z" fill="#727272" stroke="#263238" stroke-miterlimit="10" stroke-linecap="round" stroke-linejoin="round"/>
<path d="M242.759 130.845C242.759 130.845 262.898 146.461 265.381 162.348" stroke="white" stroke-miterlimit="10" stroke-linecap="round" stroke-linejoin="round"/>
<path d="M254.546 174.964C254.505 175.958 254.438 176.961 254.347 177.972" stroke="white" stroke-miterlimit="10" stroke-linecap="round" stroke-linejoin="round"/>
<path d="M247.452 135.505C247.452 135.505 254.339 151.318 254.62 170.295" stroke="white" stroke-miterlimit="10" stroke-linecap="round" stroke-linejoin="round"/>
<path d="M248.28 115.229C248.28 115.229 258.32 121.738 263.386 136.154" stroke="white" stroke-miterlimit="10" stroke-linecap="round" stroke-linejoin="round"/>
<path d="M264.446 139.565C264.802 140.888 265.124 142.277 265.381 143.715" stroke="white" stroke-miterlimit="10" stroke-linecap="round" stroke-linejoin="round"/>
<path d="M280.826 161.312C283.483 165.151 285.42 167.551 283.972 172.835C282.523 178.12 257.137 214.596 253.999 214.357C250.854 214.119 248.437 212.681 246.989 208.596C245.54 204.519 251.094 198.035 251.094 198.035L268.146 168.381C268.146 168.381 271.382 163.712 275.223 162.159" fill="white"/>
<mask id="mask13_1262_13804" style="mask-type:luminance" maskUnits="userSpaceOnUse" x="246" y="161" width="39" height="54">
<path d="M280.826 161.312C283.483 165.151 285.42 167.551 283.972 172.835C282.523 178.12 257.137 214.596 253.999 214.357C250.854 214.119 248.437 212.681 246.989 208.596C245.54 204.519 251.094 198.035 251.094 198.035L268.146 168.381C268.146 168.381 271.382 163.712 275.223 162.159" fill="white"/>
</mask>
<g mask="url(#mask13_1262_13804)">
<path opacity="0.15" d="M275.943 172.819C269.644 175.317 248.238 204.075 248.238 204.075C248.238 204.075 247.725 206.344 247.303 209.409C248.776 212.861 251.069 214.127 253.991 214.349C256.756 214.563 276.713 186.372 282.474 175.983C282.209 174.495 281.033 170.805 275.943 172.819Z" fill="black"/>
</g>
<path d="M280.826 161.312C283.483 165.151 285.42 167.551 283.972 172.835C282.523 178.12 257.137 214.596 253.999 214.357C250.854 214.119 248.437 212.681 246.989 208.596C245.54 204.519 251.094 198.035 251.094 198.035L268.146 168.381C268.146 168.381 271.382 163.712 275.223 162.159" stroke="#263238" stroke-miterlimit="10" stroke-linecap="round" stroke-linejoin="round"/>
<path d="M256.201 203.582C254.529 197.796 243.603 168.602 243.603 166.827C243.603 164.904 244.083 150.504 244.083 150.504L243.115 149.066C243.115 149.066 240.698 145.705 239.489 145.705C238.281 145.705 238.041 147.143 237.552 147.866C237.072 148.589 234.407 149.066 233.927 150.266C233.447 151.466 233.447 151.466 233.447 151.466C233.447 151.466 232.238 152.189 231.998 153.866C231.758 155.543 235.864 164.666 236.352 167.065C236.832 169.465 242.875 200.911 244.332 206.911C245.78 212.91 249.406 218.434 251.102 218.434C251.102 218.434 255.456 215.557 256.665 211.957" fill="white"/>
<mask id="mask14_1262_13804" style="mask-type:luminance" maskUnits="userSpaceOnUse" x="231" y="145" width="26" height="74">
<path d="M256.201 203.582C254.529 197.796 243.603 168.602 243.603 166.827C243.603 164.904 244.083 150.504 244.083 150.504L243.115 149.066C243.115 149.066 240.698 145.705 239.489 145.705C238.281 145.705 238.041 147.143 237.552 147.866C237.072 148.589 234.407 149.066 233.927 150.266C233.447 151.466 233.447 151.466 233.447 151.466C233.447 151.466 232.238 152.189 231.998 153.866C231.758 155.543 235.864 164.666 236.352 167.065C236.832 169.465 242.875 200.911 244.332 206.911C245.78 212.91 249.406 218.434 251.102 218.434C251.102 218.434 255.456 215.557 256.665 211.957" fill="white"/>
</mask>
<g mask="url(#mask14_1262_13804)">
<path d="M235.649 158.444C235.649 160.334 244.075 203.837 249.43 217.373C250.068 218.047 250.655 218.442 251.094 218.442C251.094 218.442 255.448 215.565 256.657 211.965L256.201 203.598C254.529 197.812 243.603 168.619 243.603 166.844C243.603 164.92 244.083 150.521 244.083 150.521L243.115 149.083C243.115 149.066 235.649 156.258 235.649 158.444Z" fill="#359276"/>
</g>
<mask id="mask15_1262_13804" style="mask-type:luminance" maskUnits="userSpaceOnUse" x="231" y="145" width="26" height="74">
<path d="M256.201 203.582C254.529 197.796 243.603 168.602 243.603 166.827C243.603 164.904 244.083 150.504 244.083 150.504L243.115 149.066C243.115 149.066 240.698 145.705 239.489 145.705C238.281 145.705 238.041 147.143 237.552 147.866C237.072 148.589 234.407 149.066 233.927 150.266C233.447 151.466 233.447 151.466 233.447 151.466C233.447 151.466 232.238 152.189 231.998 153.866C231.758 155.543 235.864 164.666 236.352 167.065C236.832 169.465 242.875 200.911 244.332 206.911C245.78 212.91 249.406 218.434 251.102 218.434C251.102 218.434 255.456 215.557 256.665 211.957" fill="white"/>
</mask>
<g mask="url(#mask15_1262_13804)">
<path opacity="0.5" d="M235.649 158.444C235.649 160.334 244.075 203.837 249.43 217.373C250.068 218.047 250.655 218.442 251.094 218.442C251.094 218.442 255.448 215.565 256.657 211.965L256.201 203.598C254.529 197.812 243.603 168.619 243.603 166.844C243.603 164.92 244.083 150.521 244.083 150.521L243.115 149.083C243.115 149.066 235.649 156.258 235.649 158.444Z" fill="white"/>
</g>
<path d="M256.201 203.582C254.529 197.796 243.603 168.602 243.603 166.827C243.603 164.904 244.083 150.504 244.083 150.504L243.115 149.066C243.115 149.066 240.698 145.705 239.489 145.705C238.281 145.705 238.041 147.143 237.552 147.866C237.072 148.589 234.407 149.066 233.927 150.266C233.447 151.466 233.447 151.466 233.447 151.466C233.447 151.466 232.238 152.189 231.998 153.866C231.758 155.543 235.864 164.666 236.352 167.065C236.832 169.465 242.875 200.911 244.332 206.911C245.78 212.91 249.406 218.434 251.102 218.434C251.102 218.434 255.456 215.557 256.665 211.957" stroke="#263238" stroke-miterlimit="10" stroke-linecap="round" stroke-linejoin="round"/>
<path d="M256.201 203.582C255.249 200.451 252.245 192.018 249.48 184.268C245.821 188.262 243.065 190.358 241.128 191.451C242.494 198.322 243.76 204.56 244.332 206.911C245.78 212.91 249.406 218.434 251.102 218.434C251.102 218.434 255.456 215.557 256.665 211.957" fill="white"/>
<mask id="mask16_1262_13804" style="mask-type:luminance" maskUnits="userSpaceOnUse" x="241" y="184" width="16" height="35">
<path d="M256.201 203.582C255.249 200.451 252.245 192.018 249.48 184.268C245.821 188.262 243.065 190.358 241.128 191.451C242.494 198.322 243.76 204.56 244.332 206.911C245.78 212.91 249.406 218.434 251.102 218.434C251.102 218.434 255.456 215.557 256.665 211.957" fill="white"/>
</mask>
<g mask="url(#mask16_1262_13804)">
<path opacity="0.15" d="M235.649 158.444C235.649 160.334 244.075 203.837 249.43 217.373C250.068 218.047 250.655 218.442 251.094 218.442C251.094 218.442 256.069 214.957 257.277 211.357L256.201 203.59C254.529 197.804 243.603 168.611 243.603 166.835C243.603 164.912 244.083 150.513 244.083 150.513L243.115 149.074C243.115 149.066 235.649 156.258 235.649 158.444Z" fill="black"/>
</g>
<path d="M256.201 203.582C255.249 200.451 252.245 192.018 249.48 184.268C245.821 188.262 243.065 190.358 241.128 191.451C242.494 198.322 243.76 204.56 244.332 206.911C245.78 212.91 249.406 218.434 251.102 218.434C251.102 218.434 255.456 215.557 256.665 211.957" stroke="#263238" stroke-miterlimit="10" stroke-linecap="round" stroke-linejoin="round"/>
<path d="M73.6274 271.371C73.7101 271.371 73.7846 271.363 73.8674 271.363C74.1488 271.363 74.4137 271.388 74.6703 271.437C74.9186 271.396 75.1752 271.363 75.4567 271.363C75.6719 271.363 75.8788 271.388 76.0775 271.421C76.1934 271.412 76.3092 271.404 76.4251 271.404C76.4996 271.404 76.5658 271.412 76.6403 271.412C76.6983 271.412 76.7562 271.404 76.8142 271.404C76.9135 271.404 76.9963 271.421 77.0873 271.429C77.3191 271.388 77.5674 271.363 77.824 271.363C77.8985 271.363 77.973 271.371 78.0475 271.371C78.0309 268.158 78.0309 263.719 77.8323 262.667C77.6088 261.484 77.0708 259.15 74.3392 259.01C71.6077 258.87 70.3826 260.95 70.3495 264.221C70.333 265.922 70.333 268.93 70.3413 271.445C70.3495 271.445 70.3578 271.445 70.3661 271.445C70.5565 271.421 70.7551 271.404 70.9703 271.404C71.1193 271.404 71.26 271.412 71.3925 271.429C72.0629 271.379 72.8741 271.33 73.6274 271.371Z" fill="url(#paint0_linear_1262_13804)"/>
<path d="M77.799 262.676C77.9894 263.679 77.9977 267.689 78.0142 270.911C78.0142 271.067 78.0142 271.224 78.0142 271.371C78.0308 271.371 78.0473 271.371 78.0556 271.371C78.0556 271.215 78.0556 271.067 78.0556 270.911C78.0391 267.689 78.0308 263.67 77.8404 262.668C77.6583 261.698 77.1782 259.134 74.3225 258.994C73.2547 258.945 72.3856 259.224 71.7317 259.832C70.8129 260.695 70.3328 262.166 70.3163 264.221C70.2997 265.906 70.2997 268.93 70.308 271.445C70.3245 271.445 70.3328 271.445 70.3494 271.445C70.3411 268.93 70.3411 265.914 70.3577 264.221C70.3825 262.183 70.8543 260.72 71.7648 259.865C72.4104 259.265 73.2713 258.986 74.3225 259.035C77.1451 259.175 77.6169 261.714 77.799 262.676Z" fill="#010200"/>
<path d="M74.1652 263.103C74.1073 263.103 74.0576 263.054 74.0576 262.996V261.796C74.0576 261.739 74.1073 261.689 74.1652 261.689C74.2232 261.689 74.2728 261.739 74.2728 261.796V262.996C74.2728 263.054 74.2232 263.103 74.1652 263.103Z" fill="#151616"/>
<path d="M86.931 263.233L80.1041 260.097L77.2296 252.314L78.0819 252.065C82.143 250.879 86.4213 253.186 87.6162 257.218C88.1342 258.952 88.0089 260.819 87.2736 262.47L86.931 263.233ZM81.4411 258.886L86.0369 261.001C86.3461 259.923 86.3377 258.778 86.0202 257.691C85.1679 254.828 82.3268 253.069 79.4356 253.476L81.4411 258.886Z" fill="#359276"/>
<path d="M90.7246 264.312C90.6243 264.312 90.5157 264.295 90.4154 264.254C89.9892 264.088 89.772 263.606 89.9474 263.175C90.8081 261.009 90.9167 258.678 90.2483 256.446C88.6857 251.186 83.2459 248.049 77.873 249.311C77.4217 249.41 76.9705 249.136 76.8702 248.697C76.7616 248.249 77.0457 247.801 77.4886 247.701C83.7222 246.241 90.031 249.875 91.8443 255.981C92.6214 258.578 92.496 261.283 91.4933 263.797C91.368 264.112 91.0588 264.312 90.7246 264.312Z" fill="#359276"/>
<path d="M95.5377 265.656C95.4458 265.656 95.3455 265.639 95.2536 265.606C94.819 265.448 94.5934 264.975 94.7522 264.544C95.8719 261.474 95.9638 258.18 95.0279 255.044C92.8888 247.859 85.9199 243.304 78.4412 244.2C77.9816 244.258 77.5638 243.934 77.5137 243.478C77.4635 243.022 77.7811 242.607 78.2407 242.557C86.5299 241.57 94.2676 246.622 96.6323 254.579C97.6685 258.064 97.5598 261.706 96.3231 265.116C96.1978 265.448 95.8803 265.656 95.5377 265.656Z" fill="#359276"/>
<path d="M142.176 181.199L142.92 183.213L141.913 185.378L141.686 185.257C140.618 184.679 140.219 183.348 140.8 182.284C141.053 181.827 141.458 181.47 141.949 181.284L142.176 181.199ZM142.404 183.193L141.903 181.832C141.62 181.987 141.387 182.223 141.23 182.51C140.816 183.263 141.033 184.192 141.706 184.694L142.404 183.193Z" fill="#359276"/>
<path d="M141.625 180.214C141.645 180.234 141.665 180.259 141.676 180.29C141.726 180.41 141.671 180.551 141.549 180.601C140.932 180.867 140.431 181.319 140.107 181.907C139.349 183.293 139.809 185.026 141.165 185.855C141.276 185.925 141.311 186.071 141.241 186.181C141.17 186.292 141.023 186.327 140.912 186.257C139.344 185.297 138.807 183.283 139.688 181.676C140.062 180.993 140.639 180.465 141.357 180.159C141.453 180.124 141.559 180.144 141.625 180.214Z" fill="#359276"/>
<path d="M140.922 178.969C140.942 178.989 140.957 179.009 140.967 179.034C141.023 179.155 140.972 179.295 140.851 179.35C139.996 179.752 139.303 180.4 138.848 181.229C137.811 183.122 138.297 185.458 140.001 186.784C140.107 186.864 140.123 187.015 140.042 187.12C139.961 187.226 139.809 187.241 139.703 187.161C137.816 185.689 137.275 183.097 138.423 181.003C138.924 180.084 139.693 179.366 140.644 178.924C140.745 178.878 140.856 178.898 140.922 178.969Z" fill="#359276"/>
<path d="M191.979 78.8986L191.972 78.8482C191.708 77.7562 190.753 76.9588 189.649 76.9126C188.466 76.86 187.398 77.6763 187.112 78.8482L187.106 85.0252H188.3C188.3 87.3753 188.3 89.7233 188.3 92.0733C188.409 92.5888 188.729 92.9906 189.128 93.18V87.0239H189.994V93.241C190.471 93.0916 190.858 92.6519 190.98 92.0733V85.0252H191.979V78.8986ZM191.558 84.6044H187.526V78.9239C187.774 77.9603 188.647 77.2913 189.633 77.3333C190.543 77.3712 191.331 78.0255 191.56 78.9239V84.6044H191.558Z" fill="#359276"/>
<path d="M189.534 78.0654C189.101 78.0654 188.708 78.4021 188.365 79.0669C188.312 79.17 188.352 79.2962 188.455 79.3509C188.487 79.3677 188.518 79.3741 188.552 79.3741C188.628 79.3741 188.701 79.332 188.739 79.2604C188.92 78.9091 189.204 78.4883 189.532 78.4883C189.9 78.4883 190.251 79.0059 190.354 79.2057C190.406 79.3088 190.534 79.3488 190.638 79.2962C190.741 79.2436 190.78 79.1174 190.728 79.0122C190.68 78.9133 190.223 78.0654 189.534 78.0654Z" fill="#359276"/>
<path d="M189.542 79.7905C189.37 79.7905 189.231 79.9294 189.231 80.1019C189.231 80.2744 189.37 80.4133 189.542 80.4133C189.715 80.4133 189.853 80.2744 189.853 80.1019C189.853 79.9294 189.715 79.7905 189.542 79.7905Z" fill="#359276"/>
</g>
<path d="M118.379 129.129H128.656L129.084 128.456H117.98L118.379 129.129Z" fill="#359276"/>
<path d="M127.898 137.454L128.576 129.429H118.455L119.13 137.454H127.898Z" fill="#359276"/>
<path d="M118.863 137.755H118.444V138.723H128.588V137.755H128.168H118.863Z" fill="#359276"/>
<path d="M117 124.906L117.83 128.155H129.239L130.035 124.906H117ZM123.702 127.271C123.303 127.271 122.98 126.941 122.98 126.532C122.98 126.123 123.303 125.792 123.702 125.792C124.101 125.792 124.424 126.123 124.424 126.532C124.424 126.941 124.101 127.271 123.702 127.271Z" fill="#359276"/>
<defs>
<linearGradient id="paint0_linear_1262_13804" x1="70.3222" y1="265.224" x2="78.0387" y2="265.224" gradientUnits="userSpaceOnUse">
<stop stop-color="#6F6E6E"/>
<stop offset="0.172" stop-color="white"/>
<stop offset="0.4865" stop-color="#EFEFEF"/>
<stop offset="0.6816" stop-color="white"/>
<stop offset="0.8971" stop-color="white"/>
<stop offset="1" stop-color="#9D9C9C"/>
</linearGradient>
<clipPath id="clip0_1262_13804">
<rect width="355" height="316" fill="white"/>
</clipPath>
</defs>
</svg>
