<svg width="390" height="465" viewBox="0 0 390 465" fill="none" xmlns="http://www.w3.org/2000/svg">
<g clip-path="url(#clip0_115_2330)">
<path d="M141.17 67.23C134.73 86.27 137.26 107.24 119.68 124.23C106.16 137.29 89.62 149.17 84.29 167.19C79.18 184.48 85.79 203.49 81.34 220.96C76.69 239.25 61.03 252.34 51.24 268.47C31.75 300.62 38.07 344.56 61.66 373.83C85.26 403.1 123.29 418.42 160.86 419.98C198.42 421.54 235.59 410.57 269.67 394.69C311.21 375.34 350.3 347.44 373.76 308.07C397.21 268.7 402.4 216.5 378.63 177.33C367.05 158.25 349.36 142.93 340.8 122.32C331.1 98.96 334.42 71.79 324.8 48.4C309.99 12.38 265.83 -5.69 227.57 1.57C196.61 7.45 168.49 27.31 149.26 51.91C145.44 56.79 142.96 61.94 141.17 67.23Z" fill="#D68C43"/>
<path d="M260.38 463.98C251.84 464.09 144.77 326.11 69.72 273.64C45.91 256.99 7.31003 235.79 -8.25997 210.45C-31.24 173.04 48.82 192.54 60.11 197.05C91.26 209.49 122.88 224.93 154.93 237.53C178.88 246.94 201.61 258.75 215.78 281.08C224.42 294.69 226.38 309.31 231.34 324.29C237.46 342.73 249.43 356.72 261.36 371.52C280.67 395.47 260.38 463.98 260.38 463.98Z" fill="url(#paint0_linear_115_2330)"/>
<path d="M57.78 240.57C145.64 299.79 225.6 357.73 260.38 463.98" stroke="white" stroke-width="0.9213" stroke-miterlimit="10"/>
<path d="M263.3 452.87C199.94 350.21 129.1 308.8 62.53 307.55C-4.02997 306.3 -84.32 365.63 7.07003 370.55C80.73 374.52 73.54 413.21 119.37 420.32C149.01 424.92 163.39 405.49 191.31 441.33C205.68 459.77 263.3 452.87 263.3 452.87Z" fill="url(#paint1_linear_115_2330)"/>
<path d="M33.1901 330.05C33.1901 330.05 142.21 313.36 263.3 452.87" stroke="white" stroke-width="0.9213" stroke-miterlimit="10"/>
<path d="M234.88 387.84C267.95 298.61 261.48 240.53 235.7 169.56C201.58 75.64 120.05 14.37 152.44 121.39C176.52 200.96 138.39 200.34 163.49 244.9C179.72 273.71 203.42 281.24 195.71 317.76C191.75 336.55 234.88 387.84 234.88 387.84Z" fill="url(#paint2_linear_115_2330)"/>
<path d="M234.88 387.84C267.95 298.61 261.48 240.53 235.7 169.56C201.58 75.64 120.05 14.37 152.44 121.39C176.52 200.96 138.39 200.34 163.49 244.9C179.72 273.71 203.42 281.24 195.71 317.76C191.75 336.55 234.88 387.84 234.88 387.84Z" fill="url(#paint3_linear_115_2330)"/>
<path d="M176.06 103.08C176.06 103.08 256.7 234.19 234.88 387.84" stroke="white" stroke-width="0.9213" stroke-miterlimit="10"/>
<path d="M223.72 357.24C190.65 268.01 197.12 209.93 222.9 138.96C257.02 45.04 338.55 -16.23 306.16 90.79C282.08 170.36 320.21 169.74 295.11 214.3C278.88 243.11 255.18 250.64 262.89 287.16C266.86 305.95 223.72 357.24 223.72 357.24Z" fill="url(#paint4_linear_115_2330)"/>
<path d="M282.55 72.48C282.55 72.48 201.91 203.59 223.73 357.24" stroke="white" stroke-width="0.9213" stroke-miterlimit="10"/>
<path d="M259.08 431.12C288.2 303.98 346.3 236.92 414.01 212.47C481.71 188.02 584.55 220.8 492.72 257.65C418.7 287.36 439.53 324.46 395.09 347.7C366.35 362.73 344.86 347.84 328.76 394.25C320.47 418.13 259.08 431.12 259.08 431.12Z" fill="url(#paint5_linear_115_2330)"/>
<path d="M451.87 225.29C451.87 225.29 334.46 246.16 259.08 431.12" stroke="white" stroke-width="0.9213" stroke-miterlimit="10"/>
<path d="M267.16 457.87C275.41 453.56 306.91 265.9 351.82 176.82C366.07 148.55 392.16 108.28 394.01 75.94C396.75 28.18 329.99 88.22 321.49 98.38C298.03 126.4 275.66 157.54 251.42 186.17C233.3 207.56 217.59 230.63 215.52 259.36C214.26 276.88 219.93 291.92 222.89 308.85C226.54 329.7 222.27 349.31 218.47 369.67C212.33 402.63 267.16 457.87 267.16 457.87Z" fill="url(#paint6_linear_115_2330)"/>
<path d="M346.21 138.93C292.48 241.11 245.68 337.98 267.16 457.87" stroke="white" stroke-width="0.9213" stroke-miterlimit="10"/>
<path d="M122.08 360.63L217.55 340.59C228.45 338.3 235.97 327.55 234.5 316.53L199.88 69.25C198.37 57.93 188.13 49.23 176.85 49.84L77.93 55.18C64.75 55.89 55.33 66.63 57.1 79.14L95.79 343.53C97.51 355.66 109.37 363.3 122.08 360.63Z" fill="#E9EBEE"/>
<path d="M118.75 360.79L213.85 340.8C224.71 338.52 232.19 327.79 230.72 316.79L196.15 70.1C194.64 58.8 184.44 50.11 173.2 50.72L74.6601 56C54.7101 61.07 47.65 68.54 49.42 80.99L87.9801 343.96C89.7001 356.06 95.94 361.87 118.75 360.79Z" fill="url(#paint7_linear_115_2330)"/>
<path d="M125.64 359.89L220.66 339.95C231.51 337.67 238.99 326.95 237.53 315.96L202.99 69.03C201.48 57.73 191.29 49.05 180.06 49.66L81.62 54.97C68.5 55.67 59.13 66.38 60.9 78.86L99.48 342.8C101.19 354.92 112.99 362.54 125.64 359.89Z" fill="url(#paint8_linear_115_2330)"/>
<path d="M160.88 331.22C161.72 337.32 167.45 341.24 173.62 339.99C179.74 338.75 184 332.88 183.18 326.88C182.36 320.87 176.76 316.92 170.61 318.06C164.42 319.22 160.04 325.12 160.88 331.22Z" fill="white"/>
<path d="M160.88 331.22C161.72 337.32 167.45 341.24 173.62 339.99C179.74 338.75 184 332.88 183.18 326.88C182.36 320.87 176.76 316.92 170.61 318.06C164.42 319.22 160.04 325.12 160.88 331.22Z" fill="url(#paint9_radial_115_2330)"/>
<path d="M110.85 75.83L145.79 73.4C147.07 73.31 147.97 72.21 147.8 70.94C147.63 69.67 146.45 68.71 145.16 68.8L110.2 71.11C108.85 71.2 107.9 72.33 108.08 73.63C108.26 74.95 109.5 75.93 110.85 75.83Z" fill="#9DB1DC"/>
<path d="M110.85 75.83L145.79 73.4C147.07 73.31 147.97 72.21 147.8 70.94C147.63 69.67 146.45 68.71 145.16 68.8L110.2 71.11C108.85 71.2 107.9 72.33 108.08 73.63C108.26 74.95 109.5 75.93 110.85 75.83Z" fill="url(#paint10_linear_115_2330)"/>
<path d="M153.95 70.53C154.12 71.79 155.29 72.74 156.56 72.66C157.82 72.57 158.71 71.48 158.54 70.22C158.37 68.96 157.2 68.01 155.94 68.09C154.67 68.18 153.78 69.27 153.95 70.53Z" fill="#9DB1DC"/>
<path d="M153.95 70.53C154.12 71.79 155.29 72.74 156.56 72.66C157.82 72.57 158.71 71.48 158.54 70.22C158.37 68.96 157.2 68.01 155.94 68.09C154.67 68.18 153.78 69.27 153.95 70.53Z" fill="url(#paint11_linear_115_2330)"/>
<path d="M108.22 318.12L224.18 297.39C226.59 296.96 228.27 294.62 227.94 292.15L198.69 85.33C198.35 82.81 196.09 80.93 193.62 81.12L74.8801 90.33C71.9501 90.56 69.8901 92.97 70.2801 95.73L102.35 314.17C102.74 316.86 105.37 318.63 108.22 318.12Z" fill="white"/>
<path d="M108.22 318.04L224.18 297.31C226.59 296.88 228.27 294.54 227.94 292.07L198.69 85.25C198.35 82.73 196.09 80.85 193.62 81.04L74.8801 90.25C71.9501 90.48 69.8901 92.89 70.2801 95.65L102.35 314.09C102.74 316.78 105.37 318.55 108.22 318.04Z" fill="white"/>
<path opacity="0.3" d="M108.22 318.04L224.18 297.31C226.59 296.88 228.27 294.54 227.94 292.07L198.69 85.25C198.35 82.73 196.09 80.85 193.62 81.04L74.8801 90.25C71.9501 90.48 69.8901 92.89 70.2801 95.65L102.35 314.09C102.74 316.78 105.37 318.55 108.22 318.04Z" fill="url(#paint12_linear_115_2330)"/>
<path opacity="0.3" d="M74.4201 123.81C116.93 118.29 159.64 114.67 202.36 111.22L198.69 85.25C198.35 82.73 196.09 80.85 193.62 81.04L74.8801 90.25C71.9501 90.48 69.8901 92.89 70.2801 95.65L74.4201 123.81Z" fill="url(#paint13_linear_115_2330)"/>
<path opacity="0.45" d="M72.72 109.8L70.38 95.65C69.99 92.9 72.06 90.48 74.98 90.25L193.72 81.04C196.19 80.85 198.45 82.73 198.79 85.25L200.81 98.19L72.72 109.8Z" fill="#E6EAED"/>
<path opacity="0.45" d="M224.2 265.98L227.94 292.16C228.27 294.62 226.59 296.97 224.18 297.4L108.22 318.13C105.37 318.64 102.74 316.87 102.36 314.18L98.39 287.33L224.2 265.98Z" fill="#E6EAED"/>
<path opacity="0.7" d="M227.94 292.07L198.69 85.25C198.35 82.73 196.09 80.85 193.62 81.04L74.88 90.25C72.62 90.43 70.89 91.91 70.39 93.84C70.86 93.66 71.35 93.53 71.89 93.48L190.63 84.27C193.1 84.08 195.36 85.96 195.7 88.48L224.95 295.3C225.03 295.92 224.99 296.54 224.83 297.11C226.88 296.42 228.24 294.3 227.94 292.07Z" fill="url(#paint14_radial_115_2330)"/>
<path d="M90.21 101.36C90.94 101.3 91.41 100.73 91.27 100.09C91.13 99.45 90.43 98.98 89.7 99.04C88.98 99.1 88.51 99.67 88.65 100.31C88.79 100.94 89.49 101.42 90.21 101.36Z" fill="#D1D1D1"/>
<path d="M85.49 101.76C86.21 101.7 86.68 101.13 86.54 100.49C86.4 99.85 85.7 99.38 84.98 99.44C84.25 99.5 83.79 100.07 83.93 100.71C84.07 101.35 84.76 101.82 85.49 101.76Z" fill="#D1D1D1"/>
<path d="M80.77 102.16C81.49 102.1 81.96 101.53 81.82 100.89C81.68 100.25 80.97 99.78 80.26 99.84C79.54 99.9 79.07 100.47 79.21 101.11C79.35 101.74 80.05 102.22 80.77 102.16Z" fill="#D1D1D1"/>
<path d="M99.7101 100.56C100.43 100.5 100.9 99.92 100.76 99.29C100.62 98.65 99.9201 98.18 99.1901 98.24C98.4601 98.3 97.9901 98.88 98.1301 99.52C98.2801 100.14 98.9801 100.62 99.7101 100.56Z" fill="#D1D1D1"/>
<path d="M94.96 100.96C95.68 100.9 96.16 100.33 96.02 99.69C95.88 99.05 95.17 98.58 94.45 98.64C93.73 98.7 93.25 99.28 93.39 99.91C93.53 100.54 94.23 101.02 94.96 100.96Z" fill="#D1D1D1"/>
<path d="M132.81 96.04C132.95 96.03 133.05 95.98 133.11 95.91C133.16 95.83 133.18 95.75 133.16 95.64C133.14 95.54 133.08 95.45 133 95.38C132.91 95.32 132.79 95.29 132.65 95.3C132.5 95.31 132.41 95.35 132.34 95.43C132.28 95.51 132.27 95.6 132.29 95.7C132.31 95.8 132.37 95.88 132.46 95.95C132.55 96.02 132.66 96.05 132.81 96.04Z" fill="#D1D1D1"/>
<path d="M133.29 98.22C133.15 98.23 133.05 98.28 132.99 98.36C132.93 98.44 132.91 98.52 132.94 98.63C132.96 98.73 133.02 98.81 133.11 98.87C133.2 98.93 133.32 98.96 133.46 98.95C133.61 98.94 133.7 98.9 133.76 98.82C133.82 98.75 133.84 98.66 133.81 98.56C133.79 98.45 133.73 98.37 133.64 98.31C133.55 98.24 133.44 98.21 133.29 98.22Z" fill="#D1D1D1"/>
<path d="M141.4 94C142 93.95 142.47 94.09 142.83 94.4C143.19 94.72 143.44 95.24 143.6 95.94L143.78 96.76C143.92 97.44 143.89 97.96 143.68 98.33C143.47 98.69 143.08 98.9 142.49 98.95C141.89 99 141.42 98.86 141.06 98.54C140.7 98.22 140.44 97.69 140.29 96.98L140.11 96.19C139.96 95.5 139.99 94.98 140.2 94.62C140.4 94.25 140.8 94.05 141.4 94ZM141.02 97.08C141.14 97.58 141.31 97.94 141.52 98.16C141.74 98.38 142.03 98.47 142.37 98.44C142.71 98.41 142.96 98.27 143.07 98.01C143.18 97.74 143.19 97.36 143.07 96.83L142.85 95.85C142.74 95.37 142.57 95.01 142.36 94.79C142.14 94.57 141.85 94.47 141.5 94.5C141.14 94.53 140.9 94.67 140.79 94.92C140.67 95.17 140.67 95.55 140.79 96.08L141.02 97.08Z" fill="#D1D1D1"/>
<path d="M137.07 94.21C137.67 94.16 138.14 94.3 138.5 94.61C138.86 94.93 139.11 95.45 139.27 96.15L139.45 96.97C139.59 97.65 139.56 98.17 139.35 98.54C139.14 98.9 138.75 99.11 138.17 99.16C137.57 99.21 137.1 99.07 136.74 98.75C136.38 98.43 136.12 97.9 135.97 97.19L135.79 96.4C135.64 95.71 135.67 95.19 135.88 94.83C136.08 94.47 136.48 94.26 137.07 94.21ZM136.7 97.29C136.82 97.79 136.99 98.15 137.2 98.37C137.42 98.59 137.7 98.68 138.05 98.65C138.4 98.62 138.63 98.48 138.75 98.22C138.86 97.95 138.87 97.57 138.75 97.04L138.53 96.06C138.42 95.58 138.25 95.22 138.04 95C137.82 94.78 137.53 94.68 137.18 94.71C136.82 94.74 136.58 94.88 136.47 95.13C136.35 95.38 136.36 95.76 136.47 96.29L136.7 97.29Z" fill="#D1D1D1"/>
<path d="M128.44 94.62C129.03 94.57 129.51 94.71 129.86 95.02C130.21 95.34 130.47 95.85 130.63 96.56L130.81 97.38C130.94 98.06 130.92 98.58 130.71 98.94C130.5 99.3 130.11 99.51 129.53 99.56C128.94 99.61 128.46 99.47 128.11 99.15C127.75 98.83 127.5 98.3 127.34 97.59L127.16 96.8C127.01 96.11 127.04 95.59 127.25 95.23C127.45 94.88 127.84 94.67 128.44 94.62ZM128.06 97.7C128.18 98.2 128.35 98.56 128.56 98.78C128.78 99 129.06 99.09 129.41 99.06C129.75 99.03 129.99 98.89 130.11 98.63C130.22 98.36 130.23 97.98 130.11 97.46L129.89 96.48C129.78 96 129.61 95.64 129.4 95.42C129.19 95.2 128.9 95.1 128.54 95.13C128.18 95.16 127.94 95.3 127.83 95.55C127.71 95.8 127.72 96.18 127.83 96.7L128.06 97.7Z" fill="#D1D1D1"/>
<path d="M124.14 94.84C124.73 94.79 125.2 94.93 125.56 95.24C125.91 95.56 126.17 96.07 126.33 96.77L126.51 97.59C126.64 98.27 126.62 98.79 126.41 99.15C126.21 99.51 125.81 99.72 125.23 99.77C124.64 99.82 124.17 99.68 123.81 99.36C123.46 99.04 123.2 98.51 123.04 97.8L122.86 97.01C122.71 96.32 122.74 95.8 122.95 95.44C123.15 95.09 123.54 94.89 124.14 94.84ZM123.76 97.91C123.88 98.41 124.05 98.77 124.26 98.99C124.48 99.21 124.76 99.3 125.11 99.27C125.45 99.24 125.69 99.1 125.81 98.84C125.92 98.57 125.93 98.19 125.81 97.67L125.59 96.69C125.48 96.21 125.31 95.85 125.1 95.63C124.89 95.41 124.6 95.31 124.25 95.34C123.89 95.37 123.65 95.51 123.54 95.76C123.42 96.01 123.43 96.39 123.54 96.91L123.76 97.91Z" fill="#D1D1D1"/>
<path d="M184.11 95.4L182.93 90.1L174.61 90.83L175.78 96.12L184.11 95.4Z" fill="#909BC2"/>
<path d="M189.95 93.59L190.26 94.97C190.37 95.47 190 95.92 189.42 95.97L176 97.1C175.42 97.15 174.86 96.78 174.75 96.28L173.54 90.83C173.43 90.33 173.81 89.88 174.39 89.83L187.81 88.68C188.39 88.63 188.95 89 189.06 89.5L189.36 90.88L189.8 90.84C190.38 90.79 190.95 91.16 191.06 91.66L191.26 92.55C191.37 93.05 190.99 93.5 190.41 93.54L189.95 93.59ZM182.93 90.1L174.6 90.83L175.77 96.12L184.1 95.4L182.93 90.1Z" fill="#D1D1D1"/>
<path d="M109.84 97.56C108.79 97.65 107.81 98.09 107.16 98.87C107 99.07 107.06 99.35 107.3 99.51C107.41 99.59 107.55 99.62 107.68 99.61C107.81 99.6 107.93 99.55 108.02 99.45C108.51 98.87 109.24 98.53 110.04 98.47C110.84 98.4 111.69 98.6 112.41 99.08C112.53 99.16 112.67 99.19 112.8 99.18C112.93 99.17 113.05 99.11 113.13 99.02C113.29 98.82 113.22 98.54 112.99 98.38C112.03 97.74 110.9 97.48 109.84 97.56Z" fill="#D1D1D1"/>
<path d="M110.32 99.7C110.07 99.72 109.84 99.81 109.67 99.98C109.27 100.36 109.32 100.98 109.8 101.38C110.07 101.6 110.43 101.7 110.76 101.68C111 101.66 111.24 101.57 111.41 101.41C111.82 101.02 111.76 100.4 111.28 100C110.99 99.77 110.64 99.67 110.32 99.7Z" fill="#D1D1D1"/>
<path d="M109.32 95.21C107.58 95.36 105.97 96.09 104.91 97.37C104.75 97.57 104.81 97.85 105.05 98.01C105.16 98.09 105.3 98.12 105.43 98.11C105.56 98.1 105.68 98.05 105.76 97.95C106.67 96.87 108.03 96.24 109.51 96.12C110.99 95.99 112.58 96.36 113.93 97.26C114.05 97.34 114.19 97.37 114.32 97.36C114.45 97.35 114.57 97.29 114.65 97.2C114.81 97 114.74 96.72 114.51 96.56C112.94 95.5 111.06 95.06 109.32 95.21Z" fill="#D1D1D1"/>
<path d="M60.87 120.65C62.15 120.36 63.05 119.1 62.86 117.84L60.58 102.13C60.4 100.86 59.21 100.08 57.92 100.38C56.64 100.68 55.75 101.95 55.93 103.22L58.2 118.89C58.4 120.14 59.59 120.94 60.87 120.65Z" fill="url(#paint15_linear_115_2330)"/>
<path d="M64.64 146.68C65.92 146.41 66.82 145.17 66.64 143.91L64.37 128.24C64.19 126.97 63 126.18 61.71 126.46C60.43 126.74 59.54 127.99 59.72 129.26L61.99 144.89C62.17 146.14 63.36 146.95 64.64 146.68Z" fill="url(#paint16_linear_115_2330)"/>
<path d="M59.76 120.17C61.04 119.88 61.94 118.62 61.75 117.36L59.47 101.65C59.29 100.38 58.1 99.6 56.81 99.9C55.53 100.2 54.64 101.47 54.82 102.74L57.09 118.41C57.29 119.66 58.48 120.45 59.76 120.17Z" fill="url(#paint17_linear_115_2330)"/>
<path d="M63.53 146.19C64.81 145.92 65.71 144.68 65.53 143.42L63.26 127.75C63.08 126.48 61.89 125.69 60.6 125.97C59.32 126.25 58.43 127.5 58.61 128.77L60.88 144.4C61.06 145.66 62.25 146.46 63.53 146.19Z" fill="url(#paint18_linear_115_2330)"/>
<path d="M166.2 262.23C166.12 261.65 165.58 261.24 165 261.32C164.42 261.4 164.01 261.94 164.09 262.52C164.17 263.1 164.71 263.51 165.29 263.43C165.88 263.35 166.28 262.81 166.2 262.23Z" fill="#CFCFCF"/>
<path d="M157.45 263.46C157.37 262.88 156.83 262.47 156.25 262.55C155.67 262.63 155.26 263.17 155.34 263.75C155.42 264.33 155.96 264.74 156.54 264.66C157.13 264.58 157.53 264.04 157.45 263.46Z" fill="#CFCFCF"/>
<path d="M172.84 261.3C172.92 261.88 173.46 262.29 174.04 262.21C174.62 262.13 175.03 261.59 174.95 261.01C174.87 260.43 174.33 260.02 173.75 260.1C173.17 260.17 172.76 260.71 172.84 261.3Z" fill="#CFCFCF"/>
<path d="M91.0001 115.33C91.0901 116.42 90.4901 117.35 89.6601 117.42C88.8301 117.49 88.0701 116.67 87.9801 115.58C87.8901 114.49 88.5101 113.84 89.3501 113.77C90.1801 113.71 90.9101 114.24 91.0001 115.33Z" fill="white"/>
<path d="M117.45 294.95C117.31 294.86 117.12 294.89 117.03 295.03L114.43 298.65C114.43 298.65 114.43 298.66 114.43 298.67C114.43 298.68 114.43 298.69 114.43 298.69L115.07 302.3C115.09 302.42 115.15 302.52 115.26 302.59C115.36 302.66 115.47 302.69 115.59 302.67L117.63 302.31L117.16 299.66L118.92 299.35L119.39 302L121.43 301.64C121.55 301.62 121.65 301.56 121.72 301.45C121.79 301.35 121.82 301.24 121.8 301.12L121.16 297.51C121.16 297.49 121.15 297.48 121.15 297.47L117.45 294.95Z" fill="#CFCFCF"/>
<path d="M182.14 291.6C182 291.62 181.87 291.59 181.76 291.51L178.6 289.33C178.58 289.32 178.53 289.28 178.46 289.23C178.4 289.18 178.29 289.1 178.15 288.97C178.01 288.84 177.88 288.71 177.76 288.57C177.64 288.43 177.52 288.25 177.41 288.04C177.29 287.82 177.22 287.6 177.18 287.38C177.05 286.67 177.16 286.07 177.49 285.59C177.82 285.11 178.35 284.8 179.05 284.68C179.25 284.64 179.47 284.64 179.69 284.68C179.91 284.71 180.11 284.77 180.31 284.86C180.5 284.94 180.66 285.02 180.79 285.1C180.86 285.14 180.93 285.18 181 285.23C181.05 285.16 181.1 285.1 181.15 285.04C181.25 284.92 181.38 284.79 181.52 284.65C181.67 284.5 181.85 284.37 182.04 284.27C182.24 284.16 182.44 284.09 182.64 284.05C183.34 283.92 183.94 284.03 184.42 284.37C184.9 284.71 185.21 285.23 185.33 285.94C185.46 286.65 185.23 287.44 184.66 288.27L182.45 291.4C182.39 291.51 182.28 291.58 182.14 291.6Z" fill="#CFCFCF"/>
<path d="M215.49 282.85L210.46 283.75C210.14 283.81 209.84 283.96 209.62 284.21C209.15 284.75 208.83 285.51 209.04 286.69L212.89 286L217.81 285.12C217.6 283.94 217.04 283.34 216.42 282.99C216.15 282.83 215.81 282.79 215.49 282.85Z" fill="#CFCFCF"/>
<path d="M214.55 280.34C214.75 281.47 214 282.55 212.87 282.75C211.74 282.95 210.66 282.2 210.46 281.07C210.26 279.94 211.01 278.86 212.14 278.66C213.27 278.46 214.35 279.21 214.55 280.34Z" fill="#CFCFCF"/>
<path d="M152.53 289.41L148.07 290.21C147.31 290.35 146.79 291.08 146.93 291.85L147.73 296.31C147.87 297.07 148.6 297.59 149.37 297.45L153.83 296.65C154.59 296.51 155.11 295.78 154.97 295.01L154.17 290.55C154.03 289.79 153.3 289.27 152.53 289.41ZM153.14 293.52L151.5 293.81L151.79 295.45C151.81 295.57 151.73 295.68 151.62 295.7L151.11 295.79C150.99 295.81 150.88 295.73 150.86 295.62L150.57 293.98L148.93 294.27C148.81 294.29 148.7 294.21 148.68 294.1L148.59 293.59C148.57 293.47 148.65 293.36 148.76 293.34L150.4 293.05L150.11 291.41C150.09 291.29 150.17 291.18 150.28 291.16L150.79 291.07C150.91 291.05 151.02 291.13 151.04 291.24L151.33 292.88L152.97 292.59C153.09 292.57 153.2 292.65 153.22 292.76L153.31 293.27C153.33 293.38 153.25 293.5 153.14 293.52Z" fill="#CFCFCF"/>
<path d="M174.2 200.51L165.81 202.19L165.75 201.76L173.71 200.18L172.63 192.51L173.05 192.44L174.2 200.51Z" fill="#D68C44"/>
<path d="M143.85 206.59L133.21 208.72L132.04 199.27L132.61 199.18L133.72 208.12L143.79 206.12L143.85 206.59Z" fill="#D68C44"/>
<path d="M129.92 177.5L129.35 177.56L128.2 168.35L138.85 167.74L138.91 168.2L128.84 168.8L129.92 177.5Z" fill="#D68C44"/>
<path d="M170.41 173.86L169.99 173.9L168.92 166.41L160.92 166.88L160.87 166.46L169.29 165.97L170.41 173.86Z" fill="#D68C44"/>
<path d="M173.65 177.68C172.5 177.97 171.34 178.24 170.18 178.57C168.72 178.99 167.43 179.72 166.33 180.79C165.89 181.22 165.83 181.62 165.96 182.16C166.24 183.37 166.54 184.58 166.74 185.81C167.1 187.93 167.14 190.1 166.43 192.18C165.23 195.67 161.71 197.86 158.06 198.31C158.28 198.2 158.5 198.1 158.73 198.05C160.12 197.78 161.33 197.14 162.43 196.33C165.31 194.21 166.06 191.34 165.95 188.21C165.87 185.8 165.16 183.5 164.4 181.22C163.54 178.62 163.51 176.01 163.98 173.4C164.06 172.96 164.13 172.53 164.24 171.89C163.69 172.23 163.31 172.44 162.96 172.7C160.8 174.28 159.1 176.23 158.34 178.83C158.26 179.12 158.35 179.55 158.54 179.8C160.43 182.18 161.96 184.69 162.48 187.64C162.75 189.14 162.74 190.64 162.31 192.16C161.65 194.51 159.88 196.02 157.79 197.33C157.22 197.69 156.6 197.97 156 198.3C156.99 197.4 158.12 196.71 159.03 195.84C161.9 193.05 162.44 189.86 161.23 186.41C160.31 183.77 158.5 181.63 156.69 179.44C155.16 177.6 153.83 175.6 152.47 173.61C151.85 172.7 151.42 171.68 150.85 170.6C150.77 170.93 150.72 171.2 150.64 171.46C150.12 173.26 149.74 175.12 149.03 176.89C148.09 179.24 146.85 181.53 145.77 183.9C144.87 185.89 144.34 187.99 144.47 190.12C144.54 191.35 144.88 192.63 145.43 193.74C146.83 196.61 149.68 197.82 152.79 198.51C153.59 198.69 154.53 198.47 155.29 198.7C157.03 199.23 158.76 199.52 160.59 199.48C162.72 199.43 164.53 198.7 166.12 197.36C168.03 195.75 169.11 193.71 169.65 191.46C170.14 189.44 170.38 187.38 170.73 185.35C171.17 182.81 172.15 180.53 173.58 178.46C173.75 178.22 173.94 177.99 174.18 177.66C173.9 177.66 173.77 177.65 173.65 177.68Z" fill="url(#paint19_linear_115_2330)"/>
<path d="M150.28 198.33C148.53 197.88 146.86 197.22 145.65 195.92C143.74 193.86 143.16 191.29 143.3 188.66C143.44 186.01 144.16 183.41 145.56 181.03C145.65 180.88 145.69 180.63 145.61 180.49C145.37 180.04 145.14 179.56 144.76 179.21C143.6 178.16 142.46 177.04 141.11 176.16C139.84 175.33 138.33 174.76 136.9 174.07C136.83 174.14 136.77 174.21 136.7 174.27C136.76 174.44 136.81 174.62 136.89 174.79C137.3 175.65 137.8 176.49 138.13 177.38C138.91 179.5 139.41 181.66 139.28 183.92C139.17 185.76 139.14 187.61 139.23 189.45C139.35 191.87 139.9 194.2 141.46 196.18C142.91 198.02 144.83 199.22 147.37 199.48C148.36 199.58 149.36 199.62 150.35 199.69C150.08 199.79 149.8 199.86 149.52 199.85C148.65 199.84 147.78 199.82 146.9 199.78C143.45 199.63 140.42 197.51 139.18 194.59C137.95 191.7 137.52 188.67 137.69 185.56C137.72 184.97 137.5 184.55 136.84 184.19C133.94 182.64 130.62 182.62 127.2 182.61C126.71 182.61 126.21 182.71 125.5 182.78C125.84 183.02 125.97 183.11 126.11 183.2C129.3 185.29 131.52 187.95 133.08 191.01C134.03 192.88 134.86 194.81 135.97 196.58C137.41 198.88 139.37 200.76 142.2 201.71C144.22 202.39 146.3 202.44 148.4 201.78C149.22 201.52 150.05 201.25 150.8 200.86C151.85 200.31 152.83 199.66 153.99 198.97C153.53 198.85 153.29 198.77 153.04 198.73C152.13 198.61 151.17 198.56 150.28 198.33Z" fill="url(#paint20_linear_115_2330)"/>
<path d="M155.89 188.19C156.6 188.36 157.04 188.85 157.13 189.54C157.29 190.72 156.55 191.66 155.08 191.89L151.61 192.42L150.7 185.56L153.87 185.16C155.21 184.99 156.27 185.6 156.44 186.85C156.52 187.34 156.32 187.86 155.89 188.19ZM152.48 186.6L152.69 188.15L154.14 187.95C154.68 187.88 154.98 187.56 154.93 187.1C154.87 186.61 154.48 186.33 153.94 186.41L152.48 186.6ZM152.84 189.34L153.05 190.9L154.81 190.64C155.35 190.56 155.62 190.22 155.59 189.76C155.56 189.49 155.42 189.25 155.18 189.14C154.99 189.05 154.77 189.06 154.53 189.09L152.84 189.34Z" fill="white"/>
<path d="M149.6 204.82C149.99 204.89 150.23 205.14 150.28 205.52C150.36 206.16 149.95 206.69 149.15 206.86L147.27 207.25L146.79 203.57L148.51 203.24C149.25 203.1 149.82 203.39 149.91 204.07C149.95 204.33 149.84 204.63 149.6 204.82ZM147.74 204.07L147.85 204.9L148.64 204.74C148.93 204.68 149.1 204.5 149.07 204.25C149.04 203.98 148.83 203.85 148.53 203.91L147.74 204.07ZM147.94 205.54L148.05 206.38L149.01 206.19C149.3 206.13 149.46 205.94 149.44 205.69C149.43 205.54 149.35 205.42 149.21 205.37C149.1 205.33 148.99 205.34 148.86 205.37L147.94 205.54Z" fill="#D68C44"/>
<path d="M151.3 202.53L151.67 205.37C151.72 205.75 151.89 205.8 152.26 205.66L152.36 206.2C151.54 206.51 151 206.42 150.88 205.53L150.51 202.69L151.3 202.53Z" fill="#D68C44"/>
<path d="M154.99 203.13L155.22 204.85C155.25 205.08 155.27 205.16 155.51 205.1L155.57 205.54C155.21 205.7 154.62 205.86 154.55 205.38C154.44 205.7 154.08 205.88 153.75 205.95C152.97 206.11 152.69 205.68 152.61 205.06L152.42 203.64L153.21 203.49L153.4 204.91C153.43 205.26 153.66 205.4 153.93 205.35C154.24 205.29 154.45 205.03 154.41 204.7L154.22 203.3L154.99 203.13Z" fill="#D68C44"/>
<path d="M159.56 204.71L159.37 203.31C159.34 202.99 159.14 202.82 158.89 202.88C158.63 202.94 158.45 203.17 158.48 203.49L158.67 204.89L157.93 205.04L157.74 203.64C157.7 203.31 157.5 203.15 157.22 203.21C156.94 203.27 156.73 203.52 156.78 203.85L156.97 205.24L156.21 205.4L155.98 203.7C155.95 203.46 155.93 203.38 155.69 203.43L155.63 203C155.96 202.84 156.56 202.67 156.62 203.15C156.72 202.84 157.08 202.66 157.41 202.6C157.86 202.51 158.1 202.62 158.26 202.89C158.38 202.56 158.74 202.34 159.09 202.27C159.82 202.13 160.05 202.58 160.12 203.17L160.31 204.57L159.56 204.71Z" fill="#D68C44"/>
<path d="M163.11 202.91L161.41 203.25C161.49 203.62 161.8 203.7 162.15 203.66C162.25 203.64 162.38 203.62 162.48 203.59C162.7 203.52 162.92 203.42 163.06 203.33L163.21 203.82C162.93 204.01 162.6 204.16 162.27 204.23C161.43 204.42 160.76 204.05 160.65 203.23C160.55 202.39 161.14 201.87 161.81 201.74C162.72 201.55 163.19 202.06 163.11 202.91ZM161.35 202.8L162.46 202.58C162.43 202.26 162.15 202.21 161.88 202.26C161.6 202.32 161.37 202.51 161.35 202.8Z" fill="#D68C44"/>
<path d="M212.89 242.47C217.34 238.38 218.07 231.38 219.35 229.12C220.63 226.86 215.15 233.06 221.28 229.92C225.36 227.83 234.46 227.35 239.16 228.24C243.86 229.13 275.7 235.12 275.7 235.12C275.7 235.12 272.77 227.83 272.96 222.42C268.45 220.53 264.09 218.26 259.77 215.93C255.21 213.47 250.63 211.07 246.05 208.66C243.83 208.94 241.81 209.22 240.17 209.42C233.09 210.3 219.14 213.5 216.43 214.35C213.72 215.2 208.11 221.66 206.97 225.78C205.83 229.9 200.98 243.47 200.98 243.47C200.98 243.47 208.44 246.57 212.89 242.47Z" fill="#F7B9B4"/>
<path d="M212.89 242.47C217.34 238.38 218.07 231.38 219.35 229.12C220.63 226.86 215.15 233.06 221.28 229.92C225.36 227.83 234.46 227.35 239.16 228.24C243.86 229.13 275.7 235.12 275.7 235.12C275.7 235.12 272.77 227.83 272.96 222.42C268.45 220.53 264.09 218.26 259.77 215.93C255.21 213.47 250.63 211.07 246.05 208.66C243.83 208.94 241.81 209.22 240.17 209.42C233.09 210.3 219.14 213.5 216.43 214.35C213.72 215.2 208.11 221.66 206.97 225.78C205.83 229.9 200.98 243.47 200.98 243.47C200.98 243.47 208.44 246.57 212.89 242.47Z" fill="url(#paint21_linear_115_2330)"/>
<path d="M199.46 242.93C204.4 238.84 205.25 233.49 206.73 231.26C208.21 229.03 211.39 228.53 215.22 222.57C217.77 218.59 230.01 223.41 235.03 224.45C240.05 225.5 266.69 230.92 266.69 230.92C266.69 230.92 263.51 223.76 263.69 218.56C257.35 214.38 250.96 210.3 244.59 206.17C243.41 205.4 242.23 204.63 241.05 203.85C236.33 204.11 231.8 204.53 228.61 204.77C221.06 205.34 206.18 207.85 203.3 208.56C200.41 209.27 195.64 222.78 194.2 226.82C192.76 230.86 186.86 244.19 186.86 244.19C186.86 244.19 194.53 247.02 199.46 242.93Z" fill="#F7B9B4"/>
<path d="M199.46 242.93C204.4 238.84 205.25 233.49 206.73 231.26C208.21 229.03 211.23 228.43 215.22 222.57C216.81 220.24 230.01 223.41 235.03 224.45C240.05 225.5 266.69 230.92 266.69 230.92C266.69 230.92 263.51 223.76 263.69 218.56C257.35 214.38 250.96 210.3 244.59 206.17C243.41 205.4 242.23 204.63 241.05 203.85C236.33 204.11 231.8 204.53 228.61 204.77C221.06 205.34 206.18 207.85 203.3 208.56C200.41 209.27 195.64 222.78 194.2 226.82C192.76 230.86 186.86 244.19 186.86 244.19C186.86 244.19 194.53 247.02 199.46 242.93Z" fill="url(#paint22_linear_115_2330)"/>
<path d="M186.89 241.26C186.89 241.26 187.71 242.43 188.65 243C188.65 243 194.58 236.41 191.93 232.58C191.93 232.59 187.75 237.81 186.89 241.26Z" fill="#D6DBF0"/>
<path d="M186.12 241.84C186.12 241.84 187.72 242.43 188.65 243C188.65 243 193.72 235.39 191.44 233.27C191.44 233.27 186.97 238.39 186.12 241.84Z" fill="#FBD3C5"/>
<path d="M186.49 245.88C192.34 242.38 195.05 235.33 196.98 233.14C198.91 230.95 203.44 228.92 208.45 220.26C211.07 215.74 215.54 221.08 222.67 219.21C227.91 217.83 258.66 241.71 258.66 241.71C258.66 241.71 255.79 226.43 260.95 222.67C264.15 220.34 269.18 217.21 269.18 217.21C263.17 211.41 237.78 198.64 234.78 197.97C232.84 197.83 219.73 196.21 198.57 203.08C195.5 204.08 185.89 221.32 183.7 225.57C181.51 229.83 173.85 242.97 173.85 242.97C173.85 242.97 180.64 249.37 186.49 245.88Z" fill="#F7B9B4"/>
<path d="M186.49 245.88C192.34 242.38 195.05 235.33 196.98 233.14C198.91 230.95 203.44 228.92 208.45 220.26C211.07 215.74 215.54 221.08 222.67 219.21C227.91 217.83 258.66 241.71 258.66 241.71C258.66 241.71 255.79 226.43 260.95 222.67C264.15 220.34 269.18 217.21 269.18 217.21C263.17 211.41 237.78 198.64 234.78 197.97C232.84 197.83 219.73 196.21 198.57 203.08C195.5 204.08 185.89 221.32 183.7 225.57C181.51 229.83 173.85 242.97 173.85 242.97C173.85 242.97 180.64 249.37 186.49 245.88Z" fill="url(#paint23_linear_115_2330)"/>
<path d="M174.69 240.3C174.69 240.3 175.39 241.94 176.3 242.82C176.3 242.82 183.71 234.96 181.46 229.58C181.46 229.58 176.14 235.88 174.69 240.3Z" fill="#D6DBF0"/>
<path d="M173.76 240.95C173.76 240.95 175.39 241.93 176.3 242.81C176.3 242.81 182.94 233.49 180.83 230.41C180.83 230.41 175.22 236.54 173.76 240.95Z" fill="#FBD3C5"/>
<path d="M235.45 229.69C235.45 229.69 217.35 218.59 212.96 215.26C208.58 211.93 191.81 205.55 187.13 203.55C180.1 200.55 178.6 198.85 175.97 197.68C173.34 196.5 163.02 193.79 159.37 187.99C155.73 182.19 160.29 174.06 160.29 174.06C160.29 174.06 176.81 180.02 181.04 182.03C185.27 184.04 198.04 187.1 200.71 188.83C203.38 190.56 214.83 193.99 222.43 196.76C229.38 199.29 242.8 203.71 249.88 208.57C249.88 208.57 244.78 214.51 238.99 216.8C233.19 219.09 235.45 229.69 235.45 229.69Z" fill="#F7B9B4"/>
<path d="M301.35 281.49C303.69 289.58 299.85 299.92 304.55 305.77C309.24 311.61 322.47 305.2 324.71 297.45C326.95 289.7 332.9 274.16 332.9 274.16L301.35 281.49Z" fill="white"/>
<path d="M301.35 281.49C303.69 289.58 299.85 299.92 304.55 305.77C309.24 311.61 322.47 305.2 324.71 297.45C326.95 289.7 332.9 274.16 332.9 274.16L301.35 281.49Z" fill="url(#paint24_linear_115_2330)"/>
<path d="M294.89 261.45C297.23 269.54 293.39 279.88 298.09 285.73C302.78 291.57 316.01 285.16 318.25 277.41C320.49 269.66 326.44 254.12 326.44 254.12L294.89 261.45Z" fill="white"/>
<path d="M294.89 261.45C297.23 269.54 293.39 279.88 298.09 285.73C302.78 291.57 316.01 285.16 318.25 277.41C320.49 269.66 326.44 254.12 326.44 254.12L294.89 261.45Z" fill="url(#paint25_linear_115_2330)"/>
<path d="M211.14 244.99C217.03 245.84 227.27 246.71 233.94 244.95C240.61 243.19 248.07 239.74 259.31 241.07C259.31 241.07 263.98 248.65 269.8 258.63C275.62 268.61 272.25 279.23 272.25 279.23C272.25 279.23 259.21 280.01 249.46 274.35C238.44 267.96 224.48 265.35 214.69 265.05C204.89 264.75 194.99 260.18 195.24 251.85C195.49 243.52 202.14 243.69 211.14 244.99Z" fill="#F7B9B4"/>
<path d="M332.47 279.36C332.47 279.36 301.84 271.68 291.62 275.19C281.95 278.5 277.75 279.31 272.25 279.14L248.41 262.39C248.41 262.39 249.25 248.49 246.06 241.52C245.49 240.26 244.78 239.23 243.91 238.54C241.94 236.98 238.35 233.04 234.5 228.58C227.31 220.21 219.23 209.97 219.23 209.97C219.23 209.97 232.01 205.63 236.07 203.81C240.14 202 268.88 216.4 278.27 219.11C287.65 221.82 326.56 234.62 326.56 234.62L332.47 279.36Z" fill="#F7B9B4"/>
<path d="M332.47 279.45C332.47 279.45 301.84 271.77 291.62 275.28C281.95 278.59 277.75 279.4 272.25 279.23L248.41 262.48C248.41 262.48 249.25 248.58 246.06 241.61C245.49 240.35 244.78 239.32 243.91 238.63C241.94 237.07 238.35 233.13 234.5 228.67C227.31 220.3 219.23 210.06 219.23 210.06C219.23 210.06 232.01 205.72 236.07 203.9C240.14 202.09 268.88 216.49 278.27 219.2C287.65 221.91 326.56 234.71 326.56 234.71L332.47 279.45Z" fill="url(#paint26_linear_115_2330)"/>
<path d="M297.21 273.45C297.31 278.68 297.97 287.25 301.23 286.82C305.91 286.21 310.01 281.29 312.78 275C315.55 268.71 318.69 250.95 317.51 242.96C316.32 234.97 314.83 230.45 310.84 229.3L341.83 235.92C341.83 235.92 345.29 241.93 342.21 266.44C339.13 290.95 332.28 304.23 332.28 304.23C332.28 304.23 313.1 297.83 304.9 294.84C296.7 291.85 296.26 288.93 296.26 288.93C295.04 284.47 294.8 277.62 294.74 273.38C295.56 273.41 296.39 273.43 297.21 273.45Z" fill="white"/>
<path d="M419.05 252.21L319.97 230.61C323.96 232.03 325.41 237.69 326.52 247.73C327.63 257.77 324.33 280.13 321.5 288.06C318.67 295.99 314.52 302.22 309.83 303.02C307.88 303.36 306.89 299.65 306.39 295.21C305.36 294.66 304.37 294.25 303.49 293.6C303.69 297.7 304.08 302.16 304.83 305.71C304.83 305.71 305.24 309.38 313.42 313.06C321.6 316.74 407.94 337.44 407.94 337.44C407.94 337.44 415.85 321.41 419.16 290.57C422.45 259.73 419.05 252.21 419.05 252.21Z" fill="#203768"/>
<path d="M419.05 252.21L319.97 230.61C323.96 232.03 325.41 237.69 326.52 247.73C327.63 257.77 324.33 280.13 321.5 288.06C318.67 295.99 314.52 302.22 309.83 303.02C307.88 303.36 306.89 299.65 306.39 295.21C305.36 294.66 304.37 294.25 303.49 293.6C303.69 297.7 304.08 302.16 304.83 305.71C304.83 305.71 305.24 309.38 313.42 313.06C321.6 316.74 407.94 337.44 407.94 337.44C407.94 337.44 415.85 321.41 419.16 290.57C422.45 259.73 419.05 252.21 419.05 252.21Z" fill="url(#paint27_linear_115_2330)"/>
<path d="M202.54 247C202.54 247 198.59 249.82 199.42 257.52C199.42 257.52 204.98 261.06 210.85 259.63C216.72 258.2 215.82 251.12 212.28 249.41C207.95 247.31 202.54 247 202.54 247Z" fill="#D6DBF0"/>
<path d="M201.39 246.8C201.39 246.8 197.44 249.62 198.27 257.32C198.27 257.32 203.83 260.86 209.7 259.43C215.57 258 214.67 250.92 211.13 249.21C206.8 247.11 201.39 246.8 201.39 246.8Z" fill="#FBD3C5"/>
<path d="M269.47 241.65C260.46 238.69 246.06 241.52 246.06 241.52C245.49 240.26 244.78 239.23 243.91 238.54C241.94 236.98 238.35 233.04 234.5 228.58C234.59 228.5 234.65 228.47 234.65 228.47C254.88 226.69 269.47 241.65 269.47 241.65Z" fill="url(#paint28_linear_115_2330)"/>
<path d="M162.09 173.81C162.09 173.81 160.64 174.9 159.93 176.04C159.93 176.04 168.29 181.92 173.06 178.38C173.07 178.39 166.44 174.33 162.09 173.81Z" fill="#D6DBF0"/>
<path d="M161.36 173.01C161.36 173.01 160.65 174.91 159.94 176.05C159.94 176.05 169.58 180.81 172.2 177.93C172.2 177.93 165.7 173.52 161.36 173.01Z" fill="#FBD3C5"/>
</g>
<defs>
<linearGradient id="paint0_linear_115_2330" x1="281.5" y1="404.829" x2="4.35787" y2="182.414" gradientUnits="userSpaceOnUse">
<stop stop-color="#39B7B1"/>
<stop offset="1" stop-color="#ACD6B8"/>
</linearGradient>
<linearGradient id="paint1_linear_115_2330" x1="242.171" y1="455.79" x2="-5.31367" y2="308.332" gradientUnits="userSpaceOnUse">
<stop stop-color="#0483A2"/>
<stop offset="1" stop-color="#7EC6AE"/>
</linearGradient>
<linearGradient id="paint2_linear_115_2330" x1="233.624" y1="371.066" x2="294.913" y2="99.7178" gradientUnits="userSpaceOnUse">
<stop stop-color="#03A59B"/>
<stop offset="1" stop-color="#94CCA9"/>
</linearGradient>
<linearGradient id="paint3_linear_115_2330" x1="165.557" y1="99.2784" x2="195.143" y2="195.139" gradientUnits="userSpaceOnUse">
<stop stop-color="white" stop-opacity="0"/>
<stop offset="1" stop-color="#4974B9"/>
</linearGradient>
<linearGradient id="paint4_linear_115_2330" x1="224.977" y1="340.469" x2="163.689" y2="69.1202" gradientUnits="userSpaceOnUse">
<stop stop-color="#03A59B"/>
<stop offset="1" stop-color="#94CCA9"/>
</linearGradient>
<linearGradient id="paint5_linear_115_2330" x1="281.724" y1="426.755" x2="483.733" y2="189.655" gradientUnits="userSpaceOnUse">
<stop stop-color="#03A59B"/>
<stop offset="1" stop-color="#94CCA9"/>
</linearGradient>
<linearGradient id="paint6_linear_115_2330" x1="216.362" y1="412.036" x2="367.424" y2="55.552" gradientUnits="userSpaceOnUse">
<stop stop-color="#39B7B1"/>
<stop offset="1" stop-color="#ACD6B8"/>
</linearGradient>
<linearGradient id="paint7_linear_115_2330" x1="49.1532" y1="205.803" x2="230.907" y2="205.803" gradientUnits="userSpaceOnUse">
<stop stop-color="#39B7B1"/>
<stop offset="1" stop-color="#ACD6B8"/>
</linearGradient>
<linearGradient id="paint8_linear_115_2330" x1="338.631" y1="185.076" x2="70.6057" y2="207.552" gradientUnits="userSpaceOnUse">
<stop stop-color="#39B7B1"/>
<stop offset="1" stop-color="#ACD6B8" stop-opacity="0.5"/>
</linearGradient>
<radialGradient id="paint9_radial_115_2330" cx="0" cy="0" r="1" gradientUnits="userSpaceOnUse" gradientTransform="translate(172.092 331.832) scale(11.5106 11.5106)">
<stop offset="0.8143" stop-color="white" stop-opacity="0"/>
<stop offset="1" stop-color="#4974B9"/>
</radialGradient>
<linearGradient id="paint10_linear_115_2330" x1="108.053" y1="72.3192" x2="147.819" y2="72.3192" gradientUnits="userSpaceOnUse">
<stop stop-color="#39B7B1"/>
<stop offset="1" stop-color="#ACD6B8"/>
</linearGradient>
<linearGradient id="paint11_linear_115_2330" x1="153.933" y1="70.3744" x2="158.562" y2="70.3744" gradientUnits="userSpaceOnUse">
<stop stop-color="#39B7B1"/>
<stop offset="1" stop-color="#ACD6B8"/>
</linearGradient>
<linearGradient id="paint12_linear_115_2330" x1="91.985" y1="94.8515" x2="179.417" y2="251.367" gradientUnits="userSpaceOnUse">
<stop stop-color="#D8DEF2"/>
<stop offset="0.278" stop-color="#DDE3F4" stop-opacity="0.721"/>
<stop offset="0.6639" stop-color="#EDF0F9" stop-opacity="0.3338"/>
<stop offset="0.9964" stop-color="white" stop-opacity="0"/>
</linearGradient>
<linearGradient id="paint13_linear_115_2330" x1="121.98" y1="78.0959" x2="209.412" y2="234.611" gradientUnits="userSpaceOnUse">
<stop stop-color="#D8DEF2"/>
<stop offset="0.278" stop-color="#DDE3F4" stop-opacity="0.721"/>
<stop offset="0.6639" stop-color="#EDF0F9" stop-opacity="0.3338"/>
<stop offset="0.9964" stop-color="white" stop-opacity="0"/>
</linearGradient>
<radialGradient id="paint14_radial_115_2330" cx="0" cy="0" r="1" gradientUnits="userSpaceOnUse" gradientTransform="translate(135.918 102.424) scale(221.66 221.66)">
<stop offset="0.4263" stop-color="white"/>
<stop offset="0.9964" stop-color="white" stop-opacity="0"/>
</radialGradient>
<linearGradient id="paint15_linear_115_2330" x1="55.922" y1="110.508" x2="62.8877" y2="110.508" gradientUnits="userSpaceOnUse">
<stop stop-color="#39B7B1"/>
<stop offset="1" stop-color="#ACD6B8"/>
</linearGradient>
<linearGradient id="paint16_linear_115_2330" x1="59.6993" y1="136.562" x2="66.6629" y2="136.562" gradientUnits="userSpaceOnUse">
<stop stop-color="#39B7B1"/>
<stop offset="1" stop-color="#ACD6B8"/>
</linearGradient>
<linearGradient id="paint17_linear_115_2330" x1="54.8132" y1="110.025" x2="61.779" y2="110.025" gradientUnits="userSpaceOnUse">
<stop stop-color="#39B7B1"/>
<stop offset="1" stop-color="#ACD6B8"/>
</linearGradient>
<linearGradient id="paint18_linear_115_2330" x1="58.5905" y1="136.078" x2="65.5541" y2="136.078" gradientUnits="userSpaceOnUse">
<stop stop-color="#39B7B1"/>
<stop offset="1" stop-color="#ACD6B8"/>
</linearGradient>
<linearGradient id="paint19_linear_115_2330" x1="143.983" y1="186.552" x2="174.799" y2="182.565" gradientUnits="userSpaceOnUse">
<stop stop-color="#359276"/>
<stop offset="1" stop-color="#16442B"/>
</linearGradient>
<linearGradient id="paint20_linear_115_2330" x1="126.447" y1="190.11" x2="152.405" y2="186.752" gradientUnits="userSpaceOnUse">
<stop stop-color="#359276"/>
<stop offset="1" stop-color="#16442B"/>
</linearGradient>
<linearGradient id="paint21_linear_115_2330" x1="238.361" y1="239.782" x2="238.155" y2="229.799" gradientUnits="userSpaceOnUse">
<stop stop-color="white" stop-opacity="0"/>
<stop offset="1" stop-color="#E1BAD1"/>
</linearGradient>
<linearGradient id="paint22_linear_115_2330" x1="226.623" y1="238.9" x2="228.437" y2="221.267" gradientUnits="userSpaceOnUse">
<stop stop-color="white" stop-opacity="0"/>
<stop offset="1" stop-color="#E1BAD1"/>
</linearGradient>
<linearGradient id="paint23_linear_115_2330" x1="221.465" y1="229.36" x2="218.943" y2="198.767" gradientUnits="userSpaceOnUse">
<stop stop-color="white" stop-opacity="0"/>
<stop offset="1" stop-color="#E1BAD1"/>
</linearGradient>
<linearGradient id="paint24_linear_115_2330" x1="297.615" y1="321.865" x2="310.864" y2="294.144" gradientUnits="userSpaceOnUse">
<stop stop-color="white" stop-opacity="0"/>
<stop offset="0.9948" stop-color="#AABAD1"/>
</linearGradient>
<linearGradient id="paint25_linear_115_2330" x1="291.156" y1="301.825" x2="304.405" y2="274.103" gradientUnits="userSpaceOnUse">
<stop stop-color="white" stop-opacity="0"/>
<stop offset="0.9948" stop-color="#AABAD1"/>
</linearGradient>
<linearGradient id="paint26_linear_115_2330" x1="284.121" y1="246.663" x2="319.323" y2="252.908" gradientUnits="userSpaceOnUse">
<stop stop-color="white" stop-opacity="0"/>
<stop offset="1" stop-color="#E1BAD1"/>
</linearGradient>
<linearGradient id="paint27_linear_115_2330" x1="370.766" y1="229.499" x2="358.865" y2="309.163" gradientUnits="userSpaceOnUse">
<stop stop-color="white" stop-opacity="0"/>
<stop offset="0.9948" stop-color="#AABAD1"/>
</linearGradient>
<linearGradient id="paint28_linear_115_2330" x1="253.028" y1="231.973" x2="249.29" y2="243.227" gradientUnits="userSpaceOnUse">
<stop stop-color="white" stop-opacity="0"/>
<stop offset="1" stop-color="#E1BAD1"/>
</linearGradient>
<clipPath id="clip0_115_2330">
<rect width="563.12" height="464.12" fill="white" transform="translate(-34)"/>
</clipPath>
</defs>
</svg>
