<svg width="47" height="36" viewBox="0 0 47 36" fill="none" xmlns="http://www.w3.org/2000/svg">
<path d="M47 36C46.1386 36 45.2772 36 44.2897 36C44.2897 34.6154 44.2897 33.2928 44.2897 31.9082C30.4019 31.9082 16.6191 31.9082 2.71033 31.9082C2.71033 33.2101 2.71033 34.5327 2.71033 35.9173C1.76486 35.9173 0.903442 35.9173 0 35.9173C0 30.2342 0 24.5304 0 18.7233C0.273134 18.682 0.567278 18.6406 0.882432 18.62C0.924452 18.5166 0.987483 18.4133 0.987483 18.3307C0.693339 16.6774 1.05051 15.2308 2.41618 14.0735C2.6473 13.8875 2.66831 13.3915 2.66831 13.0402C2.68932 10.1883 2.66831 7.35706 2.68932 4.50517C2.68932 1.65327 4.39115 0 7.31158 0C18.0899 0 28.8471 0 39.6254 0C42.5458 0 44.2266 1.65327 44.2266 4.52583C44.2266 7.37773 44.2056 10.209 44.2477 13.0609C44.2477 13.4948 44.4998 14.0321 44.8149 14.3628C45.7814 15.4168 45.9705 15.9127 45.9915 18.62C46.3277 18.6613 46.6638 18.682 47 18.7233C47 24.4891 47 30.2549 47 36ZM44.2266 21.4305C30.3178 21.4305 16.5141 21.4305 2.73134 21.4305C2.73134 24.0344 2.73134 26.5557 2.73134 29.0769C16.5981 29.0769 30.4019 29.0769 44.2266 29.0769C44.2266 26.4937 44.2266 24.0138 44.2266 21.4305ZM8.173 13.1642C8.19401 12.8542 8.21502 12.5442 8.23603 12.2549C8.29906 9.32032 9.87483 7.81171 12.9003 7.81171C15.1274 7.81171 17.3545 7.83238 19.5816 7.79105C20.9893 7.77038 22.3549 7.85304 23.2374 8.61768C24.3509 8.30769 25.2334 7.87371 26.1158 7.83238C28.9732 7.74971 31.8306 7.77038 34.688 7.81171C36.8941 7.83238 38.5539 9.48565 38.6589 11.6556C38.6799 12.1516 38.7009 12.6475 38.743 13.1435C39.7094 13.1435 40.5709 13.1435 41.5163 13.1435C41.5163 10.3123 41.5163 7.54305 41.5163 4.77382C41.5163 3.12055 41.0751 2.68657 39.4363 2.68657C36.1587 2.68657 32.8811 2.68657 29.6035 2.68657C22.1869 2.68657 14.7492 2.68657 7.33259 2.68657C5.88288 2.68657 5.39964 3.16188 5.37863 4.58783C5.37863 5.47646 5.37863 6.3651 5.37863 7.25373C5.37863 9.19633 5.37863 11.1389 5.37863 13.1435C6.34511 13.1642 7.16451 13.1642 8.173 13.1642ZM23.5735 15.8921C17.6486 15.8921 11.7237 15.8921 5.79884 15.8921C5.42065 15.8921 4.93742 15.8094 4.68529 15.9954C4.24408 16.3054 3.65579 16.822 3.6768 17.2147C3.69781 17.69 4.24408 18.186 4.68529 18.558C4.8954 18.744 5.35762 18.6613 5.69379 18.6613C17.5436 18.6613 29.3934 18.6613 41.2432 18.6613C41.4113 18.6613 41.6004 18.6613 41.7684 18.6613C42.7349 18.5993 43.4072 18 43.3442 17.2147C43.2602 16.3261 42.6719 15.9127 41.7895 15.8714C41.5163 15.8507 41.2222 15.8714 40.949 15.8714C35.1502 15.8921 29.3514 15.8921 23.5735 15.8921ZM35.8646 13.1642C36.2427 11.0563 35.7805 10.4983 33.6795 10.4983C31.4944 10.4983 29.2883 10.4983 27.1033 10.4983C25.0232 10.4983 24.561 11.0769 24.9602 13.1642C28.595 13.1642 32.2298 13.1642 35.8646 13.1642ZM11.0514 13.1435C14.7072 13.1435 18.363 13.1435 22.0188 13.1435C22.2079 10.8703 21.8717 10.4983 19.7076 10.4983C17.5436 10.4983 15.4005 10.4983 13.2365 10.4983C11.1565 10.4983 10.6942 11.0356 11.0514 13.1435Z" fill="#359276"/>
</svg>
