<svg width="26" height="21" viewBox="0 0 26 21" fill="none" xmlns="http://www.w3.org/2000/svg">
<path d="M25.1538 9.40766C25.1364 9.35472 25.119 9.31944 25.1016 9.2665C24.8583 8.22549 24.0239 7.51971 22.9809 7.50207C21.2078 7.48442 19.4347 7.50207 17.6789 7.50207C17.592 7.50207 17.5051 7.50207 17.4182 7.50207C17.6442 7.00803 17.8701 6.56692 18.0614 6.09052C18.5133 4.96128 18.7741 3.79675 18.5829 2.56165C18.3743 1.22068 17.4529 0.267881 16.1492 0.0385046C15.2452 -0.120295 14.463 0.214948 14.0979 0.9913C13.9241 1.36183 13.8198 1.7853 13.7155 2.19112C13.5069 3.07333 13.2809 3.93791 12.829 4.7319C12.2032 5.87879 11.2818 6.72572 10.2562 7.44913C10.1867 7.50207 10.0824 7.50207 9.99546 7.50207C9.40442 7.50207 8.81339 7.50207 8.22235 7.50207C8.04852 7.50207 7.9616 7.44913 7.87468 7.29034C7.49225 6.49634 6.84906 6.03759 5.97989 6.01994C4.27632 6.0023 2.55536 6.01994 0.851787 6.01994C0.278135 6.01994 0 6.30225 0 6.90216C0 11.3132 0 15.7067 0 20.1178C0 20.7177 0.278135 21 0.86917 21C2.50321 21 4.13725 21 5.78867 21C6.77953 21 7.49225 20.5589 7.92683 19.6414C7.9616 19.5708 8.0659 19.5002 8.13544 19.5002C8.57002 19.4649 8.98722 19.5179 9.42181 19.659C9.96069 19.8355 10.517 19.9766 11.0732 20.1178C12.4639 20.4883 13.8893 20.8588 15.3322 20.9294C16.8967 21 18.4786 21 20.0431 20.9824C20.8775 20.9824 21.5207 20.5589 21.9379 19.8178C22.2681 19.2179 22.2855 18.5827 22.0595 17.9299C22.6853 17.7358 23.1547 17.3476 23.4328 16.7654C23.7284 16.1831 23.7631 15.5655 23.5371 14.9303C24.1456 14.7363 24.5975 14.3834 24.893 13.8364C25.0147 13.607 25.0669 13.36 25.1712 13.1306C25.1712 12.9012 25.1712 12.6719 25.1712 12.4248C25.0147 12.0367 24.8583 11.6485 24.7018 11.2603C24.8583 10.9074 25.0147 10.5193 25.1712 10.1134C25.1538 9.88406 25.1538 9.63703 25.1538 9.40766ZM6.64046 18.6886C6.62308 19.1473 6.34494 19.4649 5.89298 19.4826C4.43277 19.5002 2.97256 19.4826 1.51236 19.4826C1.51236 15.495 1.51236 11.525 1.51236 7.51971C2.41629 7.51971 3.28546 7.51971 4.17202 7.51971C4.69352 7.51971 5.19764 7.51971 5.71914 7.51971C6.37971 7.51971 6.64046 7.78438 6.64046 8.47251C6.64046 11.6838 6.64046 14.9127 6.64046 18.124C6.64046 18.3004 6.64046 18.4945 6.64046 18.6886ZM18.7045 11.7367C18.861 11.9308 19.087 12.0014 19.3303 12.0014C20.5124 12.0014 21.6945 12.0014 22.8766 12.0014C23.2938 12.0014 23.5719 12.2131 23.6588 12.5836C23.7457 12.9542 23.5371 13.36 23.1547 13.4482C23.033 13.4835 22.8939 13.4835 22.7723 13.4835C21.6076 13.4835 20.4255 13.4835 19.2608 13.4835C18.9479 13.4835 18.7219 13.6423 18.6002 13.9423C18.4786 14.2246 18.5133 14.5245 18.7393 14.7186C18.8958 14.8598 19.1217 14.9656 19.3303 14.9656C20.0431 15.0009 20.7558 14.9656 21.4685 14.9833C22.0248 14.9833 22.3724 15.495 22.1812 15.989C22.0595 16.289 21.7814 16.4654 21.399 16.4654C20.6863 16.4654 19.9735 16.4654 19.2608 16.4654C18.9479 16.4654 18.7393 16.6418 18.6176 16.9242C18.4959 17.2065 18.5307 17.4888 18.7393 17.6829C18.8784 17.824 19.087 17.9122 19.2956 17.9475C19.5216 18.0005 19.7649 17.9475 20.0083 17.9652C20.4429 17.9828 20.7558 18.2828 20.7732 18.6886C20.7906 19.0768 20.495 19.412 20.0778 19.4473C20.0083 19.4649 19.9388 19.4473 19.8519 19.4473C18.4612 19.4297 17.0879 19.4473 15.6972 19.3944C14.5499 19.3591 13.42 19.1121 12.3248 18.8297C11.3514 18.5827 10.3953 18.2828 9.42181 18.0534C9.02199 17.9652 8.60479 17.9652 8.1702 17.9122C8.1702 14.9656 8.1702 11.9837 8.1702 8.96655C8.796 8.96655 9.42181 8.9489 10.0302 8.96655C10.517 9.00184 10.8994 8.84304 11.2818 8.56073C12.4291 7.69616 13.4374 6.72572 14.1675 5.47297C14.7237 4.52017 15.0193 3.46151 15.2452 2.3852C15.2974 2.17347 15.3495 1.96174 15.4017 1.76765C15.4712 1.52063 15.6451 1.4677 15.8537 1.48534C16.4969 1.53827 16.9488 1.90881 17.1053 2.56165C17.2096 3.21449 17.1748 3.83204 17.0357 4.43195C16.7924 5.49061 16.3056 6.44341 15.732 7.36091C15.6103 7.555 15.4886 7.73144 15.3843 7.92553C15.1583 8.40193 15.4712 8.9489 15.9927 8.98419C16.0797 8.98419 16.1666 8.98419 16.2709 8.98419C18.4612 8.98419 20.6689 8.98419 22.8592 8.98419C23.2938 8.98419 23.5719 9.17828 23.6588 9.56646C23.7457 9.93699 23.5198 10.3428 23.1547 10.431C23.033 10.4663 22.8939 10.4663 22.7723 10.4663C21.6076 10.4663 20.4255 10.4663 19.2608 10.4663C18.9479 10.4663 18.7219 10.6251 18.6002 10.9074C18.4612 11.225 18.5133 11.4897 18.7045 11.7367Z" fill="#359276"/>
<path d="M4.43279 16.5005C4.01559 16.5005 3.6853 16.8181 3.6853 17.2416C3.6853 17.6474 4.01559 17.9826 4.41541 17.9826C4.83261 17.9826 5.16289 17.6474 5.16289 17.2239C5.16289 16.8181 4.84999 16.5005 4.43279 16.5005Z" fill="#359276"/>
</svg>
