<svg width="52" height="52" viewBox="0 0 52 52" fill="none" xmlns="http://www.w3.org/2000/svg">
<g clip-path="url(#clip0_93_536)">
<path d="M26.5 52.9536C41.1355 52.9536 53 41.0996 53 26.4768C53 11.8541 41.1355 0 26.5 0C11.8645 0 0 11.8541 0 26.4768C0 41.0996 11.8645 52.9536 26.5 52.9536Z" fill="#F8FFFD"/>
<path d="M33.2871 42.1032H19.3654C18.3693 42.1032 17.5586 41.2918 17.5586 40.2948C17.5586 39.2979 18.3693 38.4865 19.3654 38.4865H33.3103C34.3064 38.4865 35.1171 39.2979 35.1171 40.2948C35.094 41.315 34.2832 42.1032 33.2871 42.1032Z" fill="#DCA700"/>
<path d="M27.1254 9.25061H25.8977V15.4409H27.1254V9.25061Z" fill="#DCA700"/>
<path d="M8.43181 34.035C10.4148 34.035 12.0223 32.4261 12.0223 30.4414C12.0223 28.4567 10.4148 26.8478 8.43181 26.8478C6.44885 26.8478 4.84134 28.4567 4.84134 30.4414C4.84134 32.4261 6.44885 34.035 8.43181 34.035Z" fill="#359276"/>
<path d="M44.7535 33.8032C46.7365 33.8032 48.344 32.1943 48.344 30.2096C48.344 28.2249 46.7365 26.616 44.7535 26.616C42.7705 26.616 41.163 28.2249 41.163 30.2096C41.163 32.1943 42.7705 33.8032 44.7535 33.8032Z" fill="#359276"/>
<path d="M27.0328 14.1657C27.0328 14.1657 41.6495 13.9803 43.9659 26.6623C46.2824 39.3442 33.9126 39.5761 30.3453 39.8311C28.7238 39.947 25.2723 39.947 22.2378 39.9007C15.4969 39.7847 10.7251 38.4864 9.10359 32.2266C8.91828 31.5078 8.77929 30.7427 8.73296 29.9776C8.33917 23.0918 12.972 13.818 27.0328 14.1657Z" fill="#359276"/>
<path d="M16.4235 33.4785L37.6652 33.8031C39.889 33.8495 41.719 32.0643 41.7653 29.8386C41.7884 27.6128 40.028 25.7813 37.8042 25.7349L16.5625 25.4103C14.3387 25.3639 12.5087 27.1492 12.4624 29.3749C12.4161 31.6006 14.1997 33.4322 16.4235 33.4785Z" fill="#DCA700"/>
<path d="M33.264 29.3981C33.403 30.0937 34.0747 30.5574 34.7928 30.4182C35.4878 30.2791 35.951 29.6068 35.8121 28.8881C35.6731 28.1925 35.0013 27.7288 34.2832 27.8679C33.5883 28.007 33.125 28.6794 33.264 29.3981Z" fill="white"/>
<path d="M18.4156 29.143C18.5546 29.8385 19.2264 30.3022 19.9445 30.1631C20.6394 30.024 21.1027 29.3517 20.9637 28.6329C20.8247 27.9374 20.153 27.4737 19.4349 27.6128C18.7399 27.7751 18.2766 28.4475 18.4156 29.143Z" fill="white"/>
<path d="M28.5153 9.13474C28.5153 10.2476 27.6119 11.1518 26.5 11.1518C25.3881 11.1518 24.4847 10.2476 24.4847 9.13474C24.4847 8.02188 25.3881 7.11768 26.5 7.11768C27.6119 7.11768 28.5153 8.02188 28.5153 9.13474Z" fill="#359276"/>
<path d="M29.5577 28.7953C29.604 28.7953 29.6503 28.888 29.6967 29.0967C29.743 29.3054 29.7198 29.6299 29.6272 30.0009C29.5114 30.3718 29.2797 30.7892 28.9091 31.1601C28.5385 31.5311 28.0057 31.8093 27.3802 31.8788C26.7548 31.9252 26.1757 31.7397 25.7587 31.4383C25.3186 31.1601 25.0175 30.7892 24.8553 30.4414C24.67 30.0936 24.6237 29.7922 24.6237 29.5604C24.6237 29.3517 24.67 29.2358 24.6932 29.2358C24.7858 29.2358 24.809 29.6763 25.2028 30.2327C25.3881 30.5109 25.6661 30.7892 26.0367 30.9978C26.4073 31.2065 26.8706 31.3456 27.3339 31.3224C27.7972 31.276 28.2373 31.0674 28.5616 30.766C28.8859 30.4878 29.1176 30.1632 29.2566 29.8618C29.5114 29.259 29.465 28.7953 29.5577 28.7953Z" fill="white"/>
<path d="M43.9427 26.245C43.9427 26.245 43.9891 26.3609 44.0586 26.5696C44.1049 26.6623 44.128 26.8014 44.1744 26.9405C44.2207 27.0796 44.267 27.2651 44.2902 27.4506C44.3829 27.8215 44.4292 28.2852 44.4755 28.7953C44.4987 29.3054 44.5218 29.8618 44.4523 30.4414C44.406 31.021 44.2902 31.5775 44.1744 32.0643C44.0354 32.5512 43.8964 32.9917 43.7574 33.3395C43.6879 33.525 43.6184 33.6873 43.5489 33.8264C43.4794 33.9655 43.4331 34.0814 43.3636 34.1741C43.271 34.3596 43.2015 34.4755 43.2015 34.4523C43.2015 34.4523 43.2478 34.3364 43.3405 34.1509C43.3868 34.0582 43.4331 33.9423 43.5026 33.8032C43.5489 33.6641 43.6416 33.5018 43.6879 33.3163C43.8269 32.9685 43.9659 32.528 44.0817 32.0411C44.1975 31.5543 44.2902 30.9978 44.3365 30.4182C44.3829 29.8386 44.3829 29.2822 44.3597 28.7721C44.3365 28.2621 44.267 27.8215 44.1975 27.4506C44.1744 27.2651 44.128 27.1028 44.1049 26.9405C44.0817 26.8014 44.0354 26.6623 44.0122 26.5696C43.9659 26.3609 43.9427 26.245 43.9427 26.245Z" fill="#DCA700"/>
<path d="M9.28888 26.3378C9.28888 26.3378 9.24256 26.4537 9.17306 26.6624C9.12673 26.7551 9.10357 26.8942 9.05724 27.0333C9.01091 27.1724 8.96458 27.3579 8.94142 27.5434C8.84876 27.9143 8.80243 28.378 8.7561 28.8881C8.73294 29.3981 8.70978 29.9546 8.77927 30.5342C8.8256 31.1138 8.94142 31.6702 9.05724 32.1571C9.19623 32.644 9.33521 33.0845 9.4742 33.4323C9.54369 33.6177 9.61319 33.78 9.68268 33.9191C9.75217 34.0582 9.7985 34.1742 9.86799 34.2669C9.96065 34.4524 10.0301 34.5683 10.0301 34.5451C10.0301 34.5451 9.98381 34.4292 9.89116 34.2437C9.84483 34.151 9.7985 34.0351 9.72901 33.8959C9.68268 33.7568 9.59002 33.5946 9.54369 33.4091C9.40471 33.0613 9.26572 32.6208 9.1499 32.1339C9.03408 31.647 8.94142 31.0906 8.89509 30.511C8.84876 29.9314 8.84876 29.375 8.87193 28.8649C8.89509 28.3548 8.96458 27.9143 9.03408 27.5434C9.05724 27.3579 9.10357 27.1956 9.12673 27.0333C9.1499 26.8942 9.19623 26.7551 9.21939 26.6624C9.26572 26.4537 9.31205 26.3378 9.28888 26.3378Z" fill="#DCA700"/>
<path d="M12.4624 49.1977C12.4624 49.1977 16.7941 44.955 25.8977 44.955C35.0013 44.955 39.6342 49.1977 39.6342 49.1977C39.6342 49.1977 26.9633 57.776 12.4624 49.1977Z" fill="#359276"/>
</g>
<defs>
<clipPath id="clip0_93_536">
<rect width="53" height="53" fill="white"/>
</clipPath>
</defs>
</svg>
