<svg width="78" height="69" viewBox="0 0 78 69" fill="none" xmlns="http://www.w3.org/2000/svg">
<g filter="url(#filter0_d_5_62)">
<rect x="15.4145" y="11" width="47.0173" height="45.152" rx="22.576" fill="#9CE2CD" fill-opacity="0.72" shape-rendering="crispEdges"/>
<path d="M56.9696 28.9239C55.9112 29.0716 54.8501 29.2006 53.797 29.3842C52.4828 29.6131 51.2944 30.1253 50.2333 30.9581C49.8153 31.2854 49.7188 31.6313 49.7604 32.1076C49.8528 33.1879 49.96 34.2695 49.9895 35.3525C50.0431 37.227 49.8274 39.0896 48.99 40.7779C47.6087 43.5651 44.5354 44.8675 41.6348 44.7026C41.813 44.644 41.9965 44.5921 42.1814 44.5895C43.2921 44.5695 44.313 44.2183 45.2709 43.7087C47.8311 42.3477 48.777 40.0089 49.0476 37.3228C49.258 35.2394 48.9338 33.1799 48.572 31.1337C48.1607 28.8055 48.4313 26.5385 49.124 24.3021C49.2406 23.9256 49.3531 23.5477 49.5192 22.9996C49.0208 23.2617 48.6752 23.42 48.3536 23.6169C46.3976 24.8249 44.8113 26.3722 43.9231 28.5221C43.8253 28.7589 43.8521 29.1354 43.978 29.359C45.228 31.5608 46.1792 33.8531 46.2744 36.4181C46.3226 37.7179 46.1484 38.9831 45.6393 40.2031C44.8542 42.0803 43.2988 43.0821 41.5343 43.8564C41.0587 44.0653 40.555 44.2103 40.0633 44.3846C40.9113 43.7952 41.8518 43.3948 42.6463 42.8014C45.2079 40.8843 45.9957 38.2767 45.4035 35.2128C44.9534 32.8806 43.7503 30.8849 42.5565 28.8667C41.5611 27.1837 40.7345 25.3997 39.8998 23.6289C39.518 22.82 39.2956 21.9379 38.97 21C38.8763 21.2727 38.8093 21.4909 38.7262 21.7051C38.1528 23.1739 37.6785 24.6932 36.9751 26.0981C36.048 27.9501 34.9213 29.7035 33.9165 31.5195C33.0845 33.0229 32.5191 34.642 32.4146 36.3503C32.3544 37.3348 32.4749 38.3791 32.7576 39.3251C33.4891 41.7664 35.4224 43.1021 37.6316 44.0879C38.2091 44.346 38.9339 44.3048 39.4805 44.6014C40.7452 45.2853 42.0448 45.7829 43.4703 46.0237C45.161 46.3097 46.691 45.9864 48.1339 45.107C49.893 44.036 51.0398 42.4462 51.7646 40.5956C52.4238 38.9113 52.8807 37.1498 53.4286 35.4216C54.1199 33.2411 55.2627 31.3186 56.7887 29.6157C56.9709 29.4122 57.1705 29.2233 57.4318 28.9572C57.1947 28.9372 57.0794 28.9093 56.9696 28.9239Z" fill="url(#paint0_linear_5_62)"/>
<path d="M35.8123 43.6077C34.5891 43.009 33.4543 42.2653 32.7161 41.0812C31.5585 39.224 31.3911 37.1419 31.7274 35.0864C32.069 32.999 32.8139 30.9967 34.0384 29.214C34.1161 29.0996 34.1697 28.9053 34.1282 28.7856C33.9956 28.4051 33.879 27.9913 33.6378 27.6813C32.905 26.7381 32.1949 25.7549 31.3268 24.946C30.5162 24.1903 29.5128 23.6369 28.595 22.9956C28.5441 23.0449 28.4919 23.0941 28.441 23.1433C28.4691 23.2857 28.4852 23.4293 28.5254 23.5677C28.733 24.2795 29.0023 24.9793 29.1483 25.703C29.5007 27.4392 29.6521 29.1847 29.3614 30.9608C29.1269 32.391 28.9393 33.8358 28.8442 35.282C28.7196 37.1725 28.8857 39.0404 29.7807 40.7699C30.6167 42.385 31.8412 43.5704 33.6137 44.1265C34.3144 44.346 35.0312 44.5163 35.7399 44.7092C35.5336 44.7531 35.3219 44.7625 35.1223 44.7212C34.498 44.5908 33.875 44.4498 33.2547 44.2981C30.8525 43.7114 28.9554 41.6666 28.3713 39.2705C27.7925 36.8957 27.7577 34.5117 28.1382 32.1089C28.2105 31.6499 28.098 31.3 27.6773 30.9621C25.8646 29.5053 23.6875 29.2073 21.4984 28.9253C21.1862 28.8854 20.8647 28.9199 20.4145 28.9199C20.6088 29.1248 20.6851 29.2086 20.7642 29.2885C22.6278 31.1404 23.8402 33.3662 24.6066 35.8514C25.0768 37.376 25.46 38.9353 26.0455 40.4147C26.8091 42.3438 27.96 44.0361 29.7995 45.1509C31.1312 45.9585 32.5794 46.3017 34.1349 46.0915C34.7472 46.009 35.3701 45.9119 35.9502 45.715C36.7715 45.4356 37.5593 45.0551 38.4877 44.664C38.1541 44.503 37.9853 44.4046 37.8058 44.3381C37.1413 44.0933 36.4433 43.9176 35.8123 43.6077Z" fill="url(#paint1_linear_5_62)"/>
<path d="M41.0266 36.1002C41.5572 36.3197 41.8439 36.7813 41.8439 37.3654C41.8439 38.3632 41.174 39.0443 40.0312 39.0443H37.3758V33.3741H39.8021C40.8471 33.3741 41.5987 33.9901 41.5987 35.0531C41.5987 35.4669 41.3857 35.8806 41.0266 36.1002ZM38.5923 34.4132V35.7024H39.711C40.1277 35.7024 40.3889 35.4749 40.3969 35.0944C40.405 34.6806 40.1357 34.4132 39.711 34.4132H38.5923ZM38.5923 36.6922V37.9893H39.9481C40.3648 37.9893 40.61 37.7459 40.6341 37.3654C40.6421 37.1379 40.5524 36.9277 40.3809 36.8053C40.2415 36.7082 40.0781 36.6922 39.8905 36.6922H38.5923Z" fill="white"/>
<rect x="16.4145" y="12" width="45.0173" height="43.152" rx="21.576" stroke="#359276" stroke-width="2" shape-rendering="crispEdges"/>
</g>
<defs>
<filter id="filter0_d_5_62" x="0.41452" y="0" width="77.0173" height="75.152" filterUnits="userSpaceOnUse" color-interpolation-filters="sRGB">
<feFlood flood-opacity="0" result="BackgroundImageFix"/>
<feColorMatrix in="SourceAlpha" type="matrix" values="0 0 0 0 0 0 0 0 0 0 0 0 0 0 0 0 0 0 127 0" result="hardAlpha"/>
<feOffset dy="4"/>
<feGaussianBlur stdDeviation="7.5"/>
<feComposite in2="hardAlpha" operator="out"/>
<feColorMatrix type="matrix" values="0 0 0 0 0 0 0 0 0 0 0 0 0 0 0 0 0 0 0.38 0"/>
<feBlend mode="normal" in2="BackgroundImageFix" result="effect1_dropShadow_5_62"/>
<feBlend mode="normal" in="SourceGraphic" in2="effect1_dropShadow_5_62" result="shape"/>
</filter>
<linearGradient id="paint0_linear_5_62" x1="32.403" y1="33.56" x2="57.4358" y2="33.56" gradientUnits="userSpaceOnUse">
<stop stop-color="#359276"/>
<stop offset="1" stop-color="#16442B"/>
</linearGradient>
<linearGradient id="paint1_linear_5_62" x1="20.4145" y1="34.5724" x2="38.4883" y2="34.5724" gradientUnits="userSpaceOnUse">
<stop stop-color="#359276"/>
<stop offset="1" stop-color="#16442B"/>
</linearGradient>
</defs>
</svg>
