<svg width="18" height="14" viewBox="0 0 18 14" fill="none" xmlns="http://www.w3.org/2000/svg">
<path d="M7.4202 7.65956C7.34839 7.56382 7.25265 7.49201 7.13297 7.46808L7.01329 7.44414C6.94148 7.44414 6.86967 7.46807 6.79786 7.49201C6.67818 7.56382 6.60637 7.65956 6.58244 7.80318C6.51063 8.13829 6.39095 8.37765 6.19946 8.49733C6.0319 8.61701 5.81648 8.68882 5.52925 8.68882C5.1702 8.68882 4.88297 8.56914 4.66754 8.30584C4.42818 8.01861 4.3085 7.58776 4.3085 7.03722C4.3085 6.51063 4.42818 6.07978 4.66754 5.79254C4.88297 5.52925 5.1702 5.40956 5.52925 5.40956C5.81648 5.40956 6.0319 5.48137 6.19946 5.60105C6.39095 5.72073 6.51063 5.91222 6.5585 6.17552C6.58244 6.36701 6.67818 6.46276 6.74999 6.51063C6.8218 6.5585 6.91754 6.58244 6.98935 6.58244L7.0851 6.5585C7.20478 6.53456 7.30052 6.46276 7.37233 6.36701C7.44414 6.27127 7.46808 6.15159 7.44414 6.00797C7.37233 5.57712 7.18084 5.21808 6.86967 4.95478C6.53456 4.66754 6.07978 4.52393 5.50531 4.52393C4.88297 4.52393 4.35637 4.76329 3.97339 5.21807C3.59042 5.67286 3.39893 6.27127 3.39893 7.01329C3.39893 7.75531 3.59042 8.37765 3.97339 8.83244C4.35637 9.28722 4.88297 9.52659 5.52925 9.52659C6.07978 9.52659 6.53456 9.35903 6.89361 9.04786C7.18084 8.78456 7.37233 8.42552 7.49201 7.99467C7.51595 7.85105 7.46807 7.73137 7.4202 7.65956Z" fill="#359276"/>
<path d="M11.8006 5.36167C11.3937 4.83508 10.8432 4.57178 10.1251 4.57178C9.40702 4.57178 8.83255 4.83508 8.42563 5.36167C8.09053 5.81646 7.92297 6.39093 7.92297 7.06114C7.92297 7.73135 8.09053 8.30582 8.42563 8.76061C8.83255 9.2872 9.38308 9.5505 10.1251 9.5505C10.8432 9.5505 11.4177 9.2872 11.8006 8.76061C12.1357 8.30582 12.3272 7.73135 12.3272 7.06114C12.3272 6.39093 12.1357 5.79252 11.8006 5.36167ZM11.1065 8.23401C10.8911 8.54518 10.556 8.6888 10.1251 8.6888C9.69425 8.6888 9.35914 8.54518 9.14372 8.23401C8.92829 7.94678 8.83255 7.53986 8.83255 7.06114C8.83255 6.55848 8.92829 6.1755 9.14372 5.88827C9.35914 5.5771 9.69425 5.43348 10.1251 5.43348C10.556 5.43348 10.8911 5.5771 11.1065 5.88827C11.3219 6.1755 11.4177 6.58242 11.4177 7.06114C11.4177 7.53986 11.3219 7.94678 11.1065 8.23401Z" fill="#359276"/>
<path d="M15.032 10.3165C14.9363 10.2208 14.8405 10.1729 14.6969 10.1729H13.5958C13.6676 10.1011 13.8113 9.95747 14.0985 9.78992L14.1703 9.74205C14.4815 9.55056 14.673 9.383 14.7926 9.26332C14.9841 9.0479 15.0799 8.76066 15.0799 8.42556C15.0799 8.11439 14.9602 7.82715 14.7448 7.61173C14.266 7.10907 13.3565 7.133 12.8777 7.61173C12.6623 7.82715 12.5666 8.11439 12.5666 8.42556V8.54524C12.5666 8.71279 12.6384 8.83247 12.7102 8.90428C12.8777 9.07183 13.2128 9.07183 13.3565 8.90428C13.4522 8.80853 13.5001 8.68885 13.5001 8.54524V8.42556C13.5001 8.32981 13.548 8.258 13.5719 8.23407C13.6198 8.18619 13.6676 8.16226 13.8113 8.16226C13.9549 8.16226 14.0267 8.21013 14.0506 8.258C14.0745 8.28194 14.1224 8.35375 14.1224 8.44949C14.1224 8.56917 14.0985 8.66492 14.0267 8.73673C13.9788 8.7846 13.8591 8.90428 13.524 9.09577C13.1889 9.28726 12.9256 9.52662 12.7581 9.78992C12.5666 10.0772 12.4708 10.4123 12.4708 10.7952V11.1303H14.649C14.7926 11.1303 14.9123 11.0825 14.9841 10.9867C15.0799 10.891 15.1277 10.7952 15.1277 10.6756C15.1517 10.508 15.1038 10.3883 15.032 10.3165Z" fill="#359276"/>
<path d="M15.008 4.78723C14.1463 1.96277 11.5372 0 8.54521 0C5.72075 0 3.18351 1.77128 2.20213 4.45213C0.81383 5.3617 0 6.89362 0 8.54521C0 11.2739 2.22606 13.5 4.95479 13.5C5.50532 13.5 6.05585 13.4043 6.60638 13.2128C8.16223 13.6915 9.83777 13.5718 11.2979 12.9255C11.9681 13.3085 12.734 13.5239 13.5 13.5239C15.9894 13.5239 18 11.5133 18 9.02394C18 7.08511 16.8032 5.40957 15.008 4.78723ZM13.5 12.6144C12.8059 12.6144 12.1356 12.4229 11.5612 12.0399L11.3457 11.8963L11.1064 12.016C9.74202 12.6862 8.16223 12.8059 6.70213 12.3271L6.55851 12.2793L6.41489 12.3271C5.93617 12.5186 5.43351 12.6144 4.95479 12.6144C2.72872 12.6144 0.909575 10.7952 0.909575 8.56915C0.909575 7.15691 1.62766 5.8883 2.82447 5.14628L2.96809 5.05053L3.01596 4.90691C3.82979 2.5133 6.05585 0.933511 8.56915 0.933511C11.2261 0.933511 13.5479 2.72872 14.2181 5.28989L14.2899 5.52926L14.5293 5.60106C16.0851 6.05585 17.1144 7.44415 17.1144 9.04787C17.1144 10.9867 15.4867 12.6144 13.5 12.6144Z" fill="#359276"/>
</svg>
