<svg width="26" height="25" viewBox="0 0 26 25" fill="none" xmlns="http://www.w3.org/2000/svg">
<path d="M25.7065 14.0055C25.5754 13.8733 25.4846 13.7004 25.3434 13.5834C25.0005 13.3088 24.8391 12.9731 24.824 12.5256C24.8139 12.2713 24.7181 12.0171 24.6324 11.7679C24.4206 11.1576 23.8053 10.8932 23.2254 11.178C22.7111 11.4272 22.3177 11.8187 22.121 12.368C21.9647 12.8053 21.6975 13.1155 21.2587 13.2935C20.8654 13.4512 20.4872 13.6648 20.1039 13.8529C20.0132 13.8987 19.9224 13.9394 19.7812 14.0106C20.1997 13.1155 20.2502 12.251 20.0636 11.356C20.0434 11.2695 20.0938 11.1474 20.1493 11.0763C20.3561 10.8118 20.5981 10.5728 20.7898 10.2982C21.7529 8.91999 22.0404 7.36891 21.763 5.73646C21.3697 3.40729 20.1291 1.69856 17.9103 0.803511C17.3707 0.584834 16.7959 0.44244 16.226 0.305131C15.6461 0.177993 15.0511 0.10171 14.4711 0C13.9164 0 13.3617 0 12.8121 0C12.1968 0.0864538 11.5816 0.142394 10.9714 0.259361C9.68554 0.503466 8.43493 0.879794 7.42133 1.75959C5.53028 3.39712 4.80916 5.46693 5.28823 7.93849C5.53028 9.18952 6.01439 10.3236 6.89183 11.2644C6.94226 11.3204 6.96748 11.4322 6.95235 11.5085C6.77585 12.3629 6.84645 13.1867 7.22466 13.9801C7.2297 13.9902 7.22466 14.0106 7.21962 14.0716C6.54388 13.7156 5.87319 13.3952 5.24284 13.0087C5.05122 12.8918 4.93523 12.6172 4.82934 12.3883C4.59232 11.8899 4.26454 11.4882 3.76026 11.2593C3.11983 10.9695 2.53487 11.2034 2.29786 11.8747C2.18692 12.1951 2.13649 12.546 2.10623 12.8867C2.08606 13.0901 2.02555 13.2274 1.87426 13.3546C1.47084 13.6851 1.14306 14.0614 0.981689 14.5649C0.981689 14.7022 0.981689 14.8344 0.981689 14.9718C1.18844 15.4752 1.59691 15.7346 2.10119 15.7804C2.54495 15.821 2.9988 15.7651 3.44761 15.76C3.66949 15.76 3.92163 15.7193 4.10822 15.8058C5.6261 16.5177 7.13389 17.2552 8.64168 17.9824C8.67194 17.9976 8.7022 18.0231 8.79801 18.0943C7.70372 18.6181 6.65987 19.1114 5.62105 19.6097C5.3084 19.7572 4.99575 19.7776 4.66797 19.6708C4.20403 19.5233 3.74009 19.5589 3.2812 19.6962C2.70632 19.8844 2.3735 20.4997 2.59538 21.0693C2.69119 21.3185 2.86265 21.5778 3.0694 21.7355C3.57368 22.1169 3.76026 22.6 3.76531 23.2154C3.77035 23.7341 4.08805 24.1765 4.50155 24.2935C5.00079 24.4359 5.41934 24.2528 5.73704 23.8765C5.99926 23.5612 6.23123 23.2205 6.45311 22.8696C6.61952 22.6051 6.80611 22.3966 7.09355 22.2542C7.59278 22.0152 8.07185 21.7355 8.561 21.4761C8.94929 21.2676 9.34263 21.0642 9.73597 20.8557C10.1747 21.3388 10.6437 21.7253 11.2538 21.9389C12.1817 22.2644 13.1398 22.3305 14.1081 22.2644C15.2679 22.183 16.337 21.8626 17.1438 20.9523C17.2447 20.8354 17.3254 20.876 17.4262 20.932C18.2431 21.3642 19.055 21.8067 19.877 22.2135C20.2552 22.4017 20.5174 22.6712 20.6687 23.0526C20.8452 23.4951 21.1579 23.8155 21.531 24.085C22.2169 24.5681 22.9279 24.3494 23.18 23.5408C23.291 23.1899 23.3011 22.8085 23.3767 22.4475C23.4019 22.3356 23.4624 22.2186 23.5381 22.1322C23.7902 21.8626 24.0928 21.6338 24.3147 21.3439C24.6979 20.8404 24.5668 20.2353 24.0323 19.9047C23.4725 19.5589 22.8674 19.4877 22.2421 19.6759C21.9446 19.7674 21.6722 19.7369 21.3898 19.5996C20.6586 19.2487 19.9174 18.9079 19.1811 18.5621C18.8533 18.4096 18.5255 18.2468 18.1473 18.0688C18.2734 17.9976 18.344 17.957 18.4146 17.9214C19.8064 17.2602 21.2033 16.6042 22.59 15.9278C22.9733 15.7397 23.3364 15.6888 23.7499 15.8007C24.2441 15.9329 24.7483 15.8566 25.2324 15.6888C25.8124 15.4905 26.3116 14.631 25.7065 14.0055ZM7.20449 10.049C7.16415 10.0134 7.1238 9.98795 7.10363 9.95235C5.97405 8.10631 5.55045 5.43641 7.265 3.29033C7.95082 2.43088 8.83331 1.87655 9.86708 1.55617C12.5196 0.732314 15.162 0.757742 17.7439 1.80536C19.3324 2.45122 20.2754 3.72768 20.6889 5.3703C21.0721 6.89596 20.9108 8.37584 20.0031 9.71333C19.9527 9.78453 19.8972 9.85573 19.8115 9.96252C19.7308 9.34209 19.7257 8.77251 19.9426 8.22328C20.2048 7.55707 20.3056 6.87053 20.2552 6.16364C20.23 5.81274 20.114 5.57881 19.8669 5.36522C19.8417 5.38556 19.8115 5.40082 19.7913 5.42624C19.6854 5.54321 19.5795 5.66526 19.4837 5.77206C19.7812 6.31112 19.645 6.85019 19.5694 7.38925C19.5543 7.49605 19.519 7.60284 19.4736 7.70455C19.0752 8.6352 19.1055 9.59637 19.2719 10.5677C19.3425 10.9847 19.4282 11.3966 19.5038 11.8137C19.5946 12.312 19.5391 12.8053 19.408 13.2935C19.287 13.7411 19.0147 14.0411 18.581 14.214C18.1221 14.3971 17.6531 14.5598 17.2144 14.7836C16.6295 15.0836 16.1756 15.5261 16.0495 16.2228C16.0394 16.2635 16.0243 16.3092 16.0294 16.3448C16.0848 16.6601 15.8932 16.7466 15.636 16.7924C14.2039 17.0314 12.7667 17.0517 11.3345 16.8076C11.0925 16.7669 10.9916 16.6703 10.9815 16.4059C10.9664 15.9177 10.7244 15.5108 10.3714 15.1955C10.0284 14.8853 9.63511 14.6412 9.17622 14.5191C8.90391 14.4429 8.63664 14.3412 8.37441 14.2293C7.97603 14.0665 7.74407 13.7563 7.61295 13.3444C7.38099 12.6121 7.48184 11.895 7.63817 11.1678C7.80458 10.3795 7.94073 9.58619 7.81971 8.7776C7.77432 8.48772 7.70372 8.19785 7.60287 7.92323C7.43646 7.47062 7.34569 7.01292 7.36586 6.53489C7.37594 6.29078 7.4415 6.05176 7.49193 5.74663C7.42133 5.66526 7.29022 5.52795 7.15406 5.38047C6.90192 5.60424 6.78594 5.87885 6.76577 6.19416C6.73047 6.78916 6.75064 7.38417 6.97252 7.94357C7.24483 8.61486 7.31543 9.30649 7.20449 10.049ZM15.7924 17.5705C15.7318 16.9958 15.7318 16.9958 16.0596 16.9449C16.1706 17.3975 16.1353 17.4789 15.7924 17.5705ZM16.11 18.1807C16.11 18.4045 16.11 18.6028 16.11 18.8215C16.0243 18.8723 15.9235 18.9283 15.8226 18.9893C15.6865 18.4401 15.7419 18.2723 16.11 18.1807ZM15.0511 18.5876C15.0712 18.5011 15.2578 18.4452 15.4293 18.3384C15.4293 18.6333 15.4646 18.8418 15.4141 19.03C15.3839 19.1368 15.2225 19.2131 15.1217 19.3046C15.0914 19.2894 15.0662 19.269 15.0359 19.2538C15.0359 19.03 15.0057 18.8011 15.0511 18.5876ZM15.046 17.8095C15.046 17.5959 15.046 17.3823 15.046 17.1433C15.157 17.128 15.2729 17.1077 15.4041 17.0873C15.4696 17.7484 15.4646 17.7535 15.046 17.8095ZM14.4056 18.6232C14.4913 18.6079 14.577 18.5876 14.7031 18.5672C14.7031 18.8113 14.7233 19.03 14.693 19.2436C14.6829 19.3148 14.5518 19.3707 14.4812 19.4368C14.456 19.4165 14.4308 19.3911 14.4056 19.3707C14.4056 19.1266 14.4056 18.8876 14.4056 18.6232ZM14.4005 18.0281C14.4005 17.7078 14.4005 17.4687 14.4005 17.2094C14.4762 17.1941 14.5569 17.184 14.688 17.1636C14.688 17.3925 14.7082 17.6111 14.6779 17.8146C14.6628 17.8858 14.5266 17.9315 14.4005 18.0281ZM14.0375 18.6638C14.0375 18.9232 14.0375 19.1622 14.0375 19.4318C13.9316 19.4368 13.8206 19.447 13.6845 19.4572C13.6845 19.1826 13.6845 18.9537 13.6845 18.6893C13.7954 18.6791 13.9064 18.674 14.0375 18.6638ZM13.6845 18.0129C13.6845 17.7535 13.6845 17.5043 13.6845 17.2297C13.7954 17.2297 13.9064 17.2297 14.0324 17.2297C14.0324 17.4789 14.0324 17.7281 14.0324 18.0129C13.9114 18.0129 13.8055 18.0129 13.6845 18.0129ZM13.3214 18.6842C13.3214 18.9385 13.3214 19.1724 13.3214 19.4216C13.2004 19.4216 13.0793 19.4216 12.9432 19.4216C12.9432 19.1775 12.9432 18.9385 12.9432 18.6842C13.0642 18.6842 13.1751 18.6842 13.3214 18.6842ZM12.9482 18.0129C12.9482 17.7434 12.9482 17.4891 12.9482 17.2196C13.0743 17.2196 13.1802 17.2196 13.3113 17.2196C13.3113 17.484 13.3113 17.7434 13.3113 18.0129C13.1852 18.0129 13.0743 18.0129 12.9482 18.0129ZM12.2826 17.9112C12.2826 17.6772 12.2826 17.4535 12.2826 17.2145C12.3885 17.2145 12.4792 17.2145 12.5851 17.2145C12.5851 17.4637 12.5851 17.6976 12.5851 17.9722C12.4692 17.9468 12.3834 17.9315 12.2826 17.9112ZM12.5751 18.6232C12.5751 18.8825 12.5751 19.1266 12.5751 19.3911C12.4641 19.3707 12.3683 19.3555 12.2674 19.3402C12.2674 19.0859 12.2674 18.8469 12.2674 18.5723C12.3784 18.5926 12.4742 18.6079 12.5751 18.6232ZM11.9144 19.2436C11.6169 19.2487 11.4959 19.1368 11.5362 18.8622C11.5564 18.7249 11.5413 18.5774 11.5413 18.4401C11.9195 18.4502 11.9195 18.4502 11.9144 18.7859C11.9144 18.9283 11.9144 19.0809 11.9144 19.2436ZM11.5766 17.0975C11.6875 17.1178 11.7985 17.1382 11.9245 17.1585C11.9245 17.3772 11.9245 17.5806 11.9245 17.7891C11.5312 17.7993 11.4757 17.6925 11.5766 17.0975ZM10.921 18.1909C11.2488 18.2926 11.2589 18.318 11.1782 18.9588C10.8353 18.8571 10.7597 18.6232 10.921 18.1909ZM10.9059 16.9449C10.9967 16.9704 11.0874 16.9907 11.1883 17.0161C11.1883 17.2094 11.1883 17.3874 11.1883 17.5857C10.8504 17.484 10.8504 17.484 10.9059 16.9449ZM7.66338 16.416C6.59935 15.9024 5.53533 15.3888 4.46625 14.8802C4.07796 14.6921 3.66445 14.7531 3.25599 14.7887C2.91812 14.8192 2.57521 14.8141 2.23734 14.8141C2.15162 14.8141 2.07093 14.7582 1.9146 14.7022C2.1617 14.453 2.35837 14.2191 2.5853 14.0309C2.89795 13.7716 3.07445 13.4868 3.06436 13.0596C3.05427 12.7494 3.15009 12.4392 3.20052 12.1137C3.53334 12.2205 3.71992 12.3934 3.84599 12.6375C3.94685 12.8308 4.03762 13.0291 4.14352 13.2223C4.32506 13.5529 4.5772 13.8173 4.92011 13.9903C6.08499 14.5649 7.24483 15.1447 8.40971 15.7244C8.46518 15.7549 8.54083 15.7905 8.561 15.8414C8.67194 16.2024 8.76775 16.5635 8.86861 16.9246C8.84844 16.9398 8.82322 16.9551 8.80305 16.9704C8.42484 16.7822 8.04663 16.5991 7.66338 16.416ZM7.5121 20.9167C7.21457 21.0744 6.93218 21.2575 6.62457 21.3846C6.16567 21.5778 5.87319 21.9237 5.6261 22.3356C5.4496 22.6305 5.2378 22.9052 5.03609 23.1849C4.98566 23.2561 4.89993 23.2967 4.77891 23.3985C4.71839 22.9408 4.66292 22.5593 4.62258 22.1728C4.59737 21.9237 4.48643 21.7304 4.29984 21.5677C4.07796 21.3744 3.87121 21.1608 3.66445 20.9523C3.5989 20.8862 3.54847 20.7998 3.46778 20.693C3.75018 20.5862 3.99223 20.5353 4.2595 20.5811C4.59232 20.6421 4.95036 20.754 5.26806 20.693C5.76729 20.5963 6.26149 20.4031 6.73047 20.1946C7.44654 19.8742 8.14245 19.5029 8.86356 19.147C8.95938 19.4318 9.06023 19.7216 9.16613 20.0318C8.61647 20.3268 8.0668 20.6218 7.5121 20.9167ZM16.4378 20.7845C15.9588 21.2168 15.3788 21.4456 14.7687 21.5575C13.7349 21.7457 12.7011 21.7406 11.6825 21.4304C10.3764 21.0286 9.65528 20.0929 9.44853 18.7706C9.37289 18.2824 9.49391 17.7637 9.45357 17.2602C9.41827 16.7771 9.30229 16.2991 9.20143 15.8261C9.151 15.5973 9.05015 15.3837 8.96946 15.1599C8.99468 15.1396 9.01485 15.1192 9.04006 15.0989C9.09553 15.165 9.16613 15.2209 9.19639 15.2972C9.60485 16.238 9.87716 17.2196 9.99819 18.2417C10.0133 18.3638 10.0738 18.5011 10.1545 18.5926C10.7244 19.2334 11.4656 19.5436 12.2927 19.6606C13.4525 19.8284 14.6023 19.8488 15.7066 19.3809C15.9588 19.2741 16.2008 19.1317 16.4277 18.9791C16.7656 18.7503 16.9623 18.4401 17.0077 17.9976C17.0984 17.067 17.3758 16.1821 17.7439 15.3227C17.7893 15.2209 17.8902 15.1447 17.9658 15.0531C17.991 15.0684 18.0112 15.0836 18.0364 15.0989C17.9658 15.2921 17.8851 15.4803 17.8347 15.6736C17.7237 16.116 17.6229 16.5584 17.5271 17.0009C17.5069 17.1026 17.522 17.2196 17.5372 17.3263C17.7288 18.6588 17.4817 19.8437 16.4378 20.7845ZM18.8584 19.4877C19.5644 19.8183 20.2703 20.1488 20.9763 20.4845C21.4604 20.7184 21.9496 20.7845 22.464 20.6218C22.827 20.5048 23.175 20.5455 23.5482 20.754C23.4221 20.8862 23.3263 21.0286 23.1952 21.1151C22.6152 21.5066 22.2925 22.0152 22.353 22.7424C22.3681 22.9357 22.2774 23.134 22.232 23.3273C22.2017 23.3425 22.1765 23.3527 22.1463 23.3679C21.9647 23.1645 21.7681 22.9764 21.6117 22.7577C21.4907 22.5899 21.4251 22.3813 21.3142 22.2034C21.1075 21.8677 20.8351 21.6033 20.4771 21.4202C19.5896 20.9676 18.7071 20.4946 17.8145 20.0268C17.9154 19.7369 18.0112 19.4521 18.112 19.147C18.3642 19.2639 18.6113 19.3758 18.8584 19.4877ZM23.9566 14.8395C23.3162 14.6463 22.7464 14.7582 22.1614 15.048C20.9209 15.6583 19.6652 16.238 18.4146 16.8331C18.3339 16.8737 18.2482 16.9093 18.0919 16.9754C18.2129 16.5483 18.3188 16.177 18.4297 15.8109C18.4449 15.7651 18.5104 15.7295 18.5608 15.7041C19.7409 15.1243 20.9259 14.5497 22.1009 13.9597C22.5497 13.7309 22.7665 13.2935 22.9834 12.8562C23.1044 12.6172 23.291 12.4036 23.4574 12.19C23.5028 12.129 23.5935 12.1035 23.7448 12.0069C23.8104 12.4544 23.881 12.8257 23.9062 13.202C23.9213 13.4461 23.9919 13.6343 24.1684 13.8021C24.4609 14.0767 24.7282 14.3767 25.0358 14.6921C24.6475 14.8802 24.2894 14.9412 23.9566 14.8395Z" fill="#359276"/>
<path d="M8.82825 11.9458C9.13082 12.5205 9.5998 12.8663 10.1041 12.8917C10.6285 12.9019 10.921 12.7392 11.1328 12.4646C11.4656 12.0425 11.7783 11.6051 12.0758 11.1525C12.212 10.944 12.3179 10.705 12.3683 10.4609C12.5549 9.59124 12.0002 9.00132 11.1378 9.11828C11.0874 9.12337 11.037 9.12337 10.9866 9.13354C10.4218 9.21491 9.85194 9.26576 9.29723 9.38273C8.52064 9.54547 8.15252 10.2778 8.43491 11.0101C8.56603 11.3254 8.67192 11.6509 8.82825 11.9458Z" fill="#359276"/>
<path d="M15.9132 12.5152C16.1048 12.7694 16.3973 12.9017 16.7301 12.8966C17.2092 12.8813 17.6328 12.7033 17.9 12.3117C18.1471 11.9507 18.3135 11.5286 18.5001 11.1268C18.5707 10.9742 18.6312 10.8115 18.6413 10.6488C18.7018 9.97748 18.2329 9.4435 17.5168 9.34179C16.9268 9.26042 16.3368 9.18923 15.7518 9.10277C15.2223 9.0214 14.8441 9.235 14.6777 9.74355C14.5567 10.1097 14.5315 10.4911 14.7433 10.8217C15.1114 11.3963 15.4997 11.9659 15.9132 12.5152Z" fill="#359276"/>
<path d="M12.1666 15.3277C12.2876 15.6786 12.4994 15.7346 12.7818 15.5057C12.9633 15.3582 13.1197 15.1802 13.276 15.0073C13.4222 14.8497 13.5483 14.8395 13.6895 15.0073C13.8256 15.1701 13.9668 15.3277 14.1232 15.465C14.4711 15.7651 14.698 15.6939 14.8392 15.2514C14.8544 15.2108 14.8645 15.1701 14.8695 15.1294C15.1015 13.9038 14.5922 12.6477 13.4626 12.0425C12.8373 12.4392 12.4439 12.8816 12.212 13.5427C12.0153 14.1225 11.9598 14.7276 12.1666 15.3277Z" fill="#359276"/>
</svg>
