<svg width="28" height="36" viewBox="0 0 28 36" fill="none" xmlns="http://www.w3.org/2000/svg">
<path d="M27.1345 22.0427C25.4723 21.7615 23.8268 21.837 22.2065 22.3491C20.0657 23.025 18.332 24.2801 16.7831 26.0011C16.7831 25.6947 16.8083 25.384 16.7789 25.0818C16.7369 24.6704 16.9006 24.4941 17.291 24.3556C21.5726 22.8612 24.2759 19.0582 24.2843 14.5289C24.2927 10.4697 24.2885 6.41476 24.2843 2.35561C24.2843 2.12054 24.2591 1.88967 24.2423 1.57065C22.1435 2.41438 20.2881 3.50158 18.5755 4.92039C17.5638 3.39664 16.3465 2.1919 14.9025 1.18866C14.2687 0.747905 13.7985 0.726916 13.1479 1.16767C11.6745 2.17092 10.453 3.40503 9.43715 4.91619C7.70351 3.48899 5.86073 2.38919 3.77029 1.59164C3.7535 1.86449 3.73251 2.05338 3.73251 2.24647C3.73251 6.42736 3.73251 10.6082 3.73671 14.7849C3.73671 15.1249 3.74091 15.4733 3.79128 15.8092C4.43353 19.99 6.72965 22.8445 10.6839 24.3682C10.8937 24.448 11.1666 24.6453 11.2086 24.83C11.2883 25.2119 11.2338 25.6233 11.2338 26.1606C11.0365 25.9759 10.9609 25.9172 10.9021 25.85C8.32477 22.7689 5.04219 21.5096 1.06279 21.9923C0.58426 22.0511 0.407958 22.198 0.382772 22.7017C0.156097 27.5668 3.26657 31.9702 7.97216 33.3092C9.01319 33.6073 10.113 33.7038 11.1918 33.8927C11.2799 34.7113 11.4478 35.3745 11.7039 35.8824C12.4595 35.9622 13.2276 36 14.0084 36C14.8228 36 15.6245 35.9538 16.4179 35.8698C16.7579 35.278 16.8209 34.5518 16.8251 33.8549C17.7863 33.7206 18.672 33.6661 19.5158 33.452C20.3595 33.2379 21.199 32.9315 21.984 32.5495C25.5856 30.7781 27.9657 26.551 27.6089 22.601C27.5795 22.3953 27.3192 22.0763 27.1345 22.0427ZM2.46482 23.8897C6.40223 23.4867 10.9819 26.9498 11.1582 31.7267C7.29214 32.5285 2.05764 27.8103 2.46482 23.8897ZM13.8447 2.85514C15.2929 3.78702 16.2836 4.9036 17.0601 6.1755C16.0191 7.58172 14.9991 8.96275 14.0084 10.306C13.0346 8.98374 12.0271 7.61949 10.8812 6.06636C11.813 5.05472 12.8205 3.96332 13.8447 2.85514ZM9.73519 21.7866C7.30893 20.2881 5.83555 18.0885 5.71382 15.2509C5.5627 11.7668 5.67604 8.27433 5.67604 4.70631C11.855 8.07704 15.5616 15.7042 14.0966 22.9536C12.5308 22.9956 11.0658 22.6094 9.73519 21.7866ZM14.8521 34.3964C14.8018 34.9002 14.5415 35.236 14.021 35.2444C13.5005 35.2528 13.2235 34.9296 13.1689 34.4258C13.1479 34.2579 13.1605 34.0858 13.1605 33.9137C13.1605 31.181 13.1605 28.4441 13.1605 25.7115C13.1605 25.4722 13.1815 25.2329 13.1941 24.9601C13.7482 24.9601 14.2519 24.9601 14.8144 24.9601C14.8312 25.1868 14.8563 25.3966 14.8563 25.6107C14.8605 28.419 14.8605 31.2272 14.8563 34.0354C14.8563 34.153 14.8605 34.2747 14.8521 34.3964ZM15.2593 13.2738C15.1712 13.0219 15.1208 12.6777 15.2215 12.4552C16.7159 9.21881 19.0036 6.67502 22.0512 4.81965C22.1099 4.78187 22.1813 4.76927 22.3408 4.71051C22.3408 8.27433 22.4961 11.771 22.2946 15.2509C22.0973 18.6594 20.179 21.0437 17.0391 22.4079C16.7999 22.5128 16.5354 22.5632 16.187 22.6681C16.2374 22.1141 16.292 21.6607 16.3255 21.2074C16.5018 18.4915 16.1492 15.8469 15.2593 13.2738ZM16.8418 31.7519C16.8418 27.5123 21.2998 23.4699 25.5058 23.8603C26.2824 27.4829 21.0353 32.2976 16.8418 31.7519Z" fill="white"/>
</svg>
