<svg width="25" height="23" viewBox="0 0 25 23" fill="none" xmlns="http://www.w3.org/2000/svg">
<mask id="path-1-inside-1_1371_14473" fill="white">
<path d="M24.7416 3.86745C24.3675 3.49422 23.9833 3.49422 23.5687 3.88709C22.6182 4.80052 21.6678 5.73359 20.7173 6.65684C20.6061 6.76488 20.4746 6.87292 20.3533 6.97114C20.3229 6.93185 20.2926 6.90239 20.2522 6.8631C20.3735 6.74524 20.5049 6.61755 20.6263 6.49969C21.5565 5.59609 22.4767 4.7023 23.4069 3.7987C23.8417 3.37636 23.8619 3.01295 23.508 2.65937C23.1238 2.27632 22.7598 2.30578 22.2947 2.74776C21.3543 3.66119 20.4139 4.57462 19.4736 5.47823C19.3522 5.59609 19.2208 5.6943 19.0893 5.80234C19.059 5.76306 19.0186 5.72377 18.9882 5.6943C19.1096 5.57644 19.2309 5.45858 19.3522 5.34072C20.2926 4.42729 21.233 3.52369 22.1632 2.61026C22.5879 2.19774 22.6182 1.82452 22.2542 1.47093C21.8902 1.10752 21.5161 1.11735 21.0813 1.53968C20.1409 2.44329 19.2006 3.35672 18.2602 4.27014C18.1389 4.38801 18.0175 4.50587 17.8861 4.63355C17.8355 4.59426 17.7951 4.54515 17.7445 4.50587C17.8659 4.388 17.9973 4.26032 18.1187 4.14246C19.0489 3.23885 19.969 2.34507 20.8993 1.44147C21.3543 0.989662 21.3846 0.636077 21.0004 0.262849C20.6162 -0.11038 20.2421 -0.0907359 19.787 0.351245C18.4321 1.66737 17.0772 2.98349 15.7222 4.29961C14.7516 5.2425 14.4179 6.35237 14.7414 7.65866C14.7819 7.82563 14.701 8.11047 14.5695 8.22833C13.791 8.95514 13.0023 9.68196 12.2237 10.3989C11.2429 9.50516 10.2722 8.60156 9.3015 7.69795C9.17006 7.57027 9.05883 7.29526 9.10939 7.12829C9.99919 4.04424 6.84443 0.341423 3.29533 0.547681C1.59661 0.645899 0.342796 1.7263 0.0697879 3.33707C-0.193109 4.84963 0.30235 6.18539 1.29327 7.33455C2.6482 8.90603 4.34691 9.79982 6.5512 9.40695C6.95566 9.33819 7.20844 9.36766 7.50167 9.67213C8.36114 10.5659 9.22061 11.4499 10.0902 12.3437C8.87683 13.4535 7.66346 14.5732 6.45009 15.6831C5.08505 16.9403 3.69978 18.1876 2.35497 19.4546C1.34383 20.4074 1.63706 21.9199 2.91109 22.4307C3.63912 22.7253 4.39747 22.5387 5.0446 21.8708C7.43089 19.4154 9.80707 16.9697 12.1934 14.5143C14.4078 16.8028 16.6323 19.0814 18.8467 21.3601C19.6556 22.1851 20.8083 22.244 21.5768 21.4976C22.3452 20.7609 22.2947 19.6216 21.4554 18.8457C20.96 18.3841 20.4443 17.9323 19.9488 17.4805C19.4938 17.068 19.059 16.6358 18.5939 16.2331C18.5838 16.2233 18.5737 16.2233 18.5636 16.2135L18.0074 15.7027C18.0378 15.6831 18.0782 15.6536 18.1085 15.6241C18.0175 15.6045 17.9366 15.5849 17.8558 15.5652L16.5514 14.367C16.5008 14.308 16.43 14.2491 16.3694 14.1902C15.6919 13.5714 15.0043 12.9428 14.3269 12.324C14.974 11.6561 15.6312 10.9784 16.2784 10.3106C16.6019 9.97661 16.8547 9.84893 17.3502 9.96679C18.4422 10.232 19.4837 9.98643 20.3027 9.23015C21.8194 7.82563 23.2856 6.36219 24.772 4.91838C25.0955 4.57462 25.0652 4.20139 24.7416 3.86745ZM7.56234 8.90603C7.33989 8.68013 7.168 8.60156 6.83432 8.71942C6.45009 8.85692 6.0153 8.9355 5.61084 8.92568C3.04254 8.91586 0.605693 6.51934 0.575358 4.03442C0.565247 2.30578 1.86962 1.04859 3.63912 1.10752C5.3075 1.15663 6.59165 1.94238 7.57245 3.18975C8.55326 4.43711 8.97794 5.81217 8.38137 7.36401C8.33081 7.48187 8.46226 7.72742 8.58359 7.83546C9.64529 8.81764 10.7171 9.79982 11.7889 10.782C11.3642 11.1749 10.9396 11.5579 10.5149 11.9508C9.53407 10.9391 8.54315 9.9275 7.56234 8.90603ZM12.2237 11.1847C12.6484 11.5677 13.0629 11.9508 13.4876 12.3437C13.0528 12.7856 12.6282 13.2374 12.1934 13.6794C11.7687 13.2473 11.3541 12.8151 10.9294 12.383C11.3541 11.9803 11.7889 11.5776 12.2237 11.1847ZM4.67048 21.3994C4.41769 21.6547 4.05368 21.8708 3.7099 21.9494C3.19421 22.0672 2.76953 21.8021 2.50664 21.3404C2.25385 20.9083 2.30441 20.3975 2.63809 20.0145C2.7392 19.8868 2.87065 19.7788 2.99199 19.6707C5.00416 17.8242 7.02644 15.9777 9.03861 14.1214C9.53407 13.6696 10.0194 13.2178 10.5048 12.766C10.9294 13.208 11.3642 13.65 11.7889 14.0919C9.41273 16.5278 7.04666 18.9636 4.67048 21.3994ZM14.3673 13.1491L18.2198 16.6849C18.2602 16.7242 18.3108 16.7733 18.3512 16.8028C18.6748 17.1072 19.0085 17.4019 19.3421 17.7064L19.3522 17.7162C19.9084 18.2269 20.4746 18.7377 21.0307 19.2484C21.6475 19.8181 21.688 20.5449 21.1723 21.0654C20.6364 21.5958 19.8679 21.5467 19.2714 20.9377C17.33 18.9439 15.3886 16.9501 13.4573 14.9563C13.1742 14.6616 12.8911 14.3768 12.6079 14.0821C13.0427 13.6303 13.4876 13.1785 13.9224 12.7267C14.064 12.874 14.2156 13.0115 14.3673 13.1491ZM24.1754 4.64337C22.7598 6.03807 21.3543 7.44258 19.8881 8.78817C19.1096 9.50516 18.1187 9.66231 17.1176 9.29891C16.6828 9.14176 16.4705 9.25962 16.1874 9.54445C15.4189 10.34 14.6606 11.1258 13.8921 11.9115C13.4775 11.5383 13.0731 11.1552 12.6585 10.782C13.5382 9.97661 14.4078 9.17122 15.2875 8.37566C15.5099 8.17922 15.5402 8.02207 15.429 7.74706C15.0043 6.6372 15.2066 5.62555 16.066 4.77106C17.4109 3.44511 18.7658 2.13881 20.1308 0.832513C20.2319 0.734295 20.4241 0.724473 20.5656 0.675364C20.5049 0.822692 20.4746 0.999484 20.3735 1.10752C19.423 2.05042 18.4523 2.98349 17.4917 3.91656C17.0772 4.31925 17.0266 4.72195 17.3401 5.0166C17.6535 5.31125 18.058 5.25232 18.4827 4.84963C19.4432 3.91656 20.4038 2.97367 21.3745 2.05042C21.4756 1.9522 21.6475 1.92273 21.779 1.8638C21.7284 2.01113 21.7082 2.18792 21.6071 2.28614C20.6364 3.2585 19.6455 4.21121 18.6546 5.16393C18.3714 5.43894 18.2299 5.77288 18.4827 6.07735C18.6343 6.25415 18.9579 6.35237 19.2107 6.36219C19.3624 6.37201 19.5545 6.18539 19.696 6.05771C20.6667 5.12464 21.6172 4.19157 22.5879 3.2585C22.6991 3.16028 22.8811 3.13081 23.0328 3.07188C22.9721 3.21921 22.9418 3.396 22.8407 3.50404C21.8902 4.44694 20.9195 5.37018 19.969 6.3229C19.8073 6.48987 19.6253 6.73542 19.6354 6.94167C19.6455 7.15775 19.8477 7.48187 20.0297 7.53098C20.2724 7.58991 20.6465 7.50152 20.8285 7.33455C21.7689 6.47023 22.6688 5.56662 23.5889 4.68266C23.6799 4.59426 23.7608 4.4764 23.8822 4.41747C24.0035 4.34872 24.1552 4.3389 24.2967 4.29961C24.2563 4.40765 24.2563 4.5648 24.1754 4.64337Z"/>
</mask>
<path d="M24.7416 3.86745C24.3675 3.49422 23.9833 3.49422 23.5687 3.88709C22.6182 4.80052 21.6678 5.73359 20.7173 6.65684C20.6061 6.76488 20.4746 6.87292 20.3533 6.97114C20.3229 6.93185 20.2926 6.90239 20.2522 6.8631C20.3735 6.74524 20.5049 6.61755 20.6263 6.49969C21.5565 5.59609 22.4767 4.7023 23.4069 3.7987C23.8417 3.37636 23.8619 3.01295 23.508 2.65937C23.1238 2.27632 22.7598 2.30578 22.2947 2.74776C21.3543 3.66119 20.4139 4.57462 19.4736 5.47823C19.3522 5.59609 19.2208 5.6943 19.0893 5.80234C19.059 5.76306 19.0186 5.72377 18.9882 5.6943C19.1096 5.57644 19.2309 5.45858 19.3522 5.34072C20.2926 4.42729 21.233 3.52369 22.1632 2.61026C22.5879 2.19774 22.6182 1.82452 22.2542 1.47093C21.8902 1.10752 21.5161 1.11735 21.0813 1.53968C20.1409 2.44329 19.2006 3.35672 18.2602 4.27014C18.1389 4.38801 18.0175 4.50587 17.8861 4.63355C17.8355 4.59426 17.7951 4.54515 17.7445 4.50587C17.8659 4.388 17.9973 4.26032 18.1187 4.14246C19.0489 3.23885 19.969 2.34507 20.8993 1.44147C21.3543 0.989662 21.3846 0.636077 21.0004 0.262849C20.6162 -0.11038 20.2421 -0.0907359 19.787 0.351245C18.4321 1.66737 17.0772 2.98349 15.7222 4.29961C14.7516 5.2425 14.4179 6.35237 14.7414 7.65866C14.7819 7.82563 14.701 8.11047 14.5695 8.22833C13.791 8.95514 13.0023 9.68196 12.2237 10.3989C11.2429 9.50516 10.2722 8.60156 9.3015 7.69795C9.17006 7.57027 9.05883 7.29526 9.10939 7.12829C9.99919 4.04424 6.84443 0.341423 3.29533 0.547681C1.59661 0.645899 0.342796 1.7263 0.0697879 3.33707C-0.193109 4.84963 0.30235 6.18539 1.29327 7.33455C2.6482 8.90603 4.34691 9.79982 6.5512 9.40695C6.95566 9.33819 7.20844 9.36766 7.50167 9.67213C8.36114 10.5659 9.22061 11.4499 10.0902 12.3437C8.87683 13.4535 7.66346 14.5732 6.45009 15.6831C5.08505 16.9403 3.69978 18.1876 2.35497 19.4546C1.34383 20.4074 1.63706 21.9199 2.91109 22.4307C3.63912 22.7253 4.39747 22.5387 5.0446 21.8708C7.43089 19.4154 9.80707 16.9697 12.1934 14.5143C14.4078 16.8028 16.6323 19.0814 18.8467 21.3601C19.6556 22.1851 20.8083 22.244 21.5768 21.4976C22.3452 20.7609 22.2947 19.6216 21.4554 18.8457C20.96 18.3841 20.4443 17.9323 19.9488 17.4805C19.4938 17.068 19.059 16.6358 18.5939 16.2331C18.5838 16.2233 18.5737 16.2233 18.5636 16.2135L18.0074 15.7027C18.0378 15.6831 18.0782 15.6536 18.1085 15.6241C18.0175 15.6045 17.9366 15.5849 17.8558 15.5652L16.5514 14.367C16.5008 14.308 16.43 14.2491 16.3694 14.1902C15.6919 13.5714 15.0043 12.9428 14.3269 12.324C14.974 11.6561 15.6312 10.9784 16.2784 10.3106C16.6019 9.97661 16.8547 9.84893 17.3502 9.96679C18.4422 10.232 19.4837 9.98643 20.3027 9.23015C21.8194 7.82563 23.2856 6.36219 24.772 4.91838C25.0955 4.57462 25.0652 4.20139 24.7416 3.86745ZM7.56234 8.90603C7.33989 8.68013 7.168 8.60156 6.83432 8.71942C6.45009 8.85692 6.0153 8.9355 5.61084 8.92568C3.04254 8.91586 0.605693 6.51934 0.575358 4.03442C0.565247 2.30578 1.86962 1.04859 3.63912 1.10752C5.3075 1.15663 6.59165 1.94238 7.57245 3.18975C8.55326 4.43711 8.97794 5.81217 8.38137 7.36401C8.33081 7.48187 8.46226 7.72742 8.58359 7.83546C9.64529 8.81764 10.7171 9.79982 11.7889 10.782C11.3642 11.1749 10.9396 11.5579 10.5149 11.9508C9.53407 10.9391 8.54315 9.9275 7.56234 8.90603ZM12.2237 11.1847C12.6484 11.5677 13.0629 11.9508 13.4876 12.3437C13.0528 12.7856 12.6282 13.2374 12.1934 13.6794C11.7687 13.2473 11.3541 12.8151 10.9294 12.383C11.3541 11.9803 11.7889 11.5776 12.2237 11.1847ZM4.67048 21.3994C4.41769 21.6547 4.05368 21.8708 3.7099 21.9494C3.19421 22.0672 2.76953 21.8021 2.50664 21.3404C2.25385 20.9083 2.30441 20.3975 2.63809 20.0145C2.7392 19.8868 2.87065 19.7788 2.99199 19.6707C5.00416 17.8242 7.02644 15.9777 9.03861 14.1214C9.53407 13.6696 10.0194 13.2178 10.5048 12.766C10.9294 13.208 11.3642 13.65 11.7889 14.0919C9.41273 16.5278 7.04666 18.9636 4.67048 21.3994ZM14.3673 13.1491L18.2198 16.6849C18.2602 16.7242 18.3108 16.7733 18.3512 16.8028C18.6748 17.1072 19.0085 17.4019 19.3421 17.7064L19.3522 17.7162C19.9084 18.2269 20.4746 18.7377 21.0307 19.2484C21.6475 19.8181 21.688 20.5449 21.1723 21.0654C20.6364 21.5958 19.8679 21.5467 19.2714 20.9377C17.33 18.9439 15.3886 16.9501 13.4573 14.9563C13.1742 14.6616 12.8911 14.3768 12.6079 14.0821C13.0427 13.6303 13.4876 13.1785 13.9224 12.7267C14.064 12.874 14.2156 13.0115 14.3673 13.1491ZM24.1754 4.64337C22.7598 6.03807 21.3543 7.44258 19.8881 8.78817C19.1096 9.50516 18.1187 9.66231 17.1176 9.29891C16.6828 9.14176 16.4705 9.25962 16.1874 9.54445C15.4189 10.34 14.6606 11.1258 13.8921 11.9115C13.4775 11.5383 13.0731 11.1552 12.6585 10.782C13.5382 9.97661 14.4078 9.17122 15.2875 8.37566C15.5099 8.17922 15.5402 8.02207 15.429 7.74706C15.0043 6.6372 15.2066 5.62555 16.066 4.77106C17.4109 3.44511 18.7658 2.13881 20.1308 0.832513C20.2319 0.734295 20.4241 0.724473 20.5656 0.675364C20.5049 0.822692 20.4746 0.999484 20.3735 1.10752C19.423 2.05042 18.4523 2.98349 17.4917 3.91656C17.0772 4.31925 17.0266 4.72195 17.3401 5.0166C17.6535 5.31125 18.058 5.25232 18.4827 4.84963C19.4432 3.91656 20.4038 2.97367 21.3745 2.05042C21.4756 1.9522 21.6475 1.92273 21.779 1.8638C21.7284 2.01113 21.7082 2.18792 21.6071 2.28614C20.6364 3.2585 19.6455 4.21121 18.6546 5.16393C18.3714 5.43894 18.2299 5.77288 18.4827 6.07735C18.6343 6.25415 18.9579 6.35237 19.2107 6.36219C19.3624 6.37201 19.5545 6.18539 19.696 6.05771C20.6667 5.12464 21.6172 4.19157 22.5879 3.2585C22.6991 3.16028 22.8811 3.13081 23.0328 3.07188C22.9721 3.21921 22.9418 3.396 22.8407 3.50404C21.8902 4.44694 20.9195 5.37018 19.969 6.3229C19.8073 6.48987 19.6253 6.73542 19.6354 6.94167C19.6455 7.15775 19.8477 7.48187 20.0297 7.53098C20.2724 7.58991 20.6465 7.50152 20.8285 7.33455C21.7689 6.47023 22.6688 5.56662 23.5889 4.68266C23.6799 4.59426 23.7608 4.4764 23.8822 4.41747C24.0035 4.34872 24.1552 4.3389 24.2967 4.29961C24.2563 4.40765 24.2563 4.5648 24.1754 4.64337Z" fill="#359276" stroke="#359276" stroke-width="4" mask="url(#path-1-inside-1_1371_14473)"/>
</svg>
