<svg width="40" height="48" viewBox="0 0 40 48" fill="none" xmlns="http://www.w3.org/2000/svg">
<path d="M34.4408 41.6464C34.6671 39.9058 34.8933 38.1546 35.1308 36.414C35.3684 34.6735 34.3617 33.5378 32.484 33.5272C31.7148 33.5166 30.9456 33.5272 30.1765 33.5272C30.1538 33.4848 30.1312 33.4317 30.1086 33.3893C30.2104 33.3256 30.3122 33.2619 30.4027 33.1876C32.1333 31.8503 33.6377 30.322 34.8254 28.5284C37.8116 24.0284 38.9427 19.0508 39.0559 13.8184C39.0785 12.651 38.0718 11.9293 36.8049 12.1946C35.4589 12.4812 34.1128 12.7783 32.812 13.1923C31.1832 13.7123 29.5996 14.3491 27.9821 14.9541C27.9708 14.9116 27.9481 14.8373 27.9481 14.763C27.7219 9.91277 26.0591 5.48705 23.4349 1.35849C23.1069 0.849059 22.5639 0.456369 22.1228 0C21.7721 0 21.4328 0 21.0822 0C20.5731 0.403303 20.0302 0.764153 19.5777 1.20991C18.7294 2.04836 17.8924 2.89741 17.1232 3.79954C14.8835 6.4104 13.119 9.27597 12.067 12.4918C11.9878 12.7359 11.8974 13.0118 11.9313 13.2559C12.0105 13.7548 12.3724 14.0625 12.9041 14.0838C13.5036 14.105 13.8429 13.7654 14.0126 13.2347C14.7931 10.7831 16.0373 8.55427 17.5983 6.46346C18.752 4.92454 20.0415 3.49176 21.5346 2.1651C24.1701 6.34672 25.8442 10.73 25.8668 15.5908C25.8668 16.026 25.7198 16.2913 25.3239 16.5248C23.5367 17.618 21.9418 18.9128 20.5845 20.4517C20.1433 20.9505 20.1886 21.5449 20.6523 21.9057C21.1048 22.256 21.7043 22.2135 22.1454 21.7359C25.0751 18.5307 28.8191 16.5248 33.0043 15.1769C34.2598 14.7736 35.5493 14.4765 36.918 14.105C36.918 14.4552 36.9406 14.6569 36.918 14.8479C36.6578 16.7371 36.5221 18.6475 36.081 20.4942C34.882 25.5355 32.2351 29.7383 27.5975 32.71C26.7491 33.2619 25.9121 33.5909 24.8488 33.5272C23.5593 33.4529 22.2585 33.506 20.9577 33.506C20.7541 33.506 20.5392 33.4848 20.1433 33.4635C20.6976 32.1581 21.2179 30.9482 21.7156 29.7277C21.9192 29.2395 22.2698 29.0272 22.8015 28.9211C24.2154 28.6239 25.6067 28.2737 27.0093 27.9447C27.5183 27.8279 27.9368 27.5414 27.9029 27.0425C27.8803 26.7135 27.6314 26.3102 27.3486 26.1192C27.1224 25.96 26.6813 26.0131 26.3645 26.0767C25.5275 26.2359 24.7018 26.4588 23.7177 26.6817C23.9552 26.3845 24.091 26.2041 24.238 26.0343C26.0931 23.8586 28.3327 22.0968 30.8438 20.6215C31.4886 20.2394 31.6469 19.6769 31.3076 19.1781C30.9796 18.6899 30.3914 18.5838 29.7806 18.934C25.9008 21.1734 22.7223 24.0496 20.4374 27.7748C20.2564 28.072 20.0868 28.3904 19.8605 28.7725C19.7474 28.2524 19.6682 27.8598 19.5664 27.4671C19.261 26.2678 18.7746 25.0791 18.6842 23.8692C18.5371 21.9588 18.6389 20.0272 18.6389 18.1062C18.6389 17.5861 18.8425 17.2253 19.3515 16.9387C20.5279 16.2595 21.659 15.5166 22.8015 14.7842C23.3444 14.434 23.4462 13.8609 23.1182 13.4045C22.7902 12.9588 22.1907 12.8526 21.6251 13.171C21.3876 13.309 21.1613 13.4682 20.9238 13.6062C20.3809 13.9458 19.8379 14.2854 19.295 14.625C19.2497 14.5932 19.2045 14.5614 19.1592 14.5295C19.4307 13.5956 19.6569 12.651 19.9963 11.7382C20.4148 10.6345 20.9351 9.56253 21.4102 8.47998C21.659 7.90686 21.4894 7.3762 20.969 7.12148C20.4374 6.86677 19.8832 7.0578 19.5438 7.59908C19.4759 7.70521 19.4307 7.82196 19.3741 7.92809C17.6661 11.197 16.8517 14.6675 16.5463 18.276C16.4898 18.881 16.4558 19.4859 16.3993 20.2076C12.9606 15.7076 8.45872 12.7465 3.23288 10.6557C1.89815 10.125 0.857504 10.6451 0.586032 11.9611C-0.0360913 15.0071 -0.160516 18.0743 0.201447 21.1522C0.687834 25.2489 2.12437 28.9848 4.91827 32.2112C5.26892 32.6145 5.61957 33.0072 6.02678 33.4742C5.76662 33.4848 5.61957 33.506 5.47252 33.506C3.45911 33.5378 2.48633 34.6098 2.75781 36.4883C2.87092 37.2525 2.9501 38.0166 3.0519 38.7808C3.17633 39.7678 3.31206 40.7655 3.43649 41.7525C2.37322 42.2301 1.80765 43.3551 2.19224 44.5225C2.32798 44.9258 2.49765 45.3185 2.66732 45.7218C3.346 47.3881 4.30746 47.9931 6.20776 47.9931C13.3113 47.9931 20.4261 47.9931 27.5296 47.9931C29.1698 47.9931 30.8099 48.0143 32.45 47.9825C33.8074 47.9612 34.7915 47.3457 35.357 46.1888C35.6285 45.6157 35.8661 45.032 36.0583 44.427C36.4542 43.2171 35.6964 41.9966 34.4408 41.6464ZM2.26011 20.993C1.93208 18.1911 2.04519 15.4104 2.58814 12.5449C6.99955 14.3385 10.8793 16.7583 13.8429 20.3137C17.0553 24.1663 18.0733 28.6451 18.0847 33.4742C17.6548 33.4742 17.2589 33.4742 16.8404 33.4742C15.9807 29.8232 14.3293 26.5119 12.1575 23.4022C12.0557 23.2536 12.0444 22.9883 12.101 22.7972C12.2028 22.447 12.3837 22.118 12.5195 21.7784C12.8249 21.0567 12.6552 20.5366 12.0444 20.2925C11.4675 20.059 10.9698 20.3031 10.6079 20.9718C10.5739 21.0248 10.5513 21.0779 10.4948 21.1946C9.85001 20.4942 9.22788 19.8043 8.60576 19.1251C8.4474 18.9552 8.30036 18.7854 8.11938 18.6368C7.67823 18.2548 7.06742 18.2335 6.66021 18.5944C6.23038 18.9659 6.19645 19.4965 6.59235 19.9635C7.39545 20.8869 8.25511 21.7784 9.03559 22.7229C10.3816 24.3574 11.558 26.098 12.576 28.0826C11.2979 27.8279 10.1554 27.5944 9.02428 27.3715C8.26642 27.223 7.73479 27.4883 7.59905 28.0508C7.45201 28.6557 7.82528 29.1333 8.60576 29.2925C10.0989 29.6003 11.592 29.9081 13.0964 30.1947C13.5036 30.269 13.7298 30.4282 13.8429 30.8209C14.1031 31.6911 14.4198 32.5508 14.7252 33.4742C14.465 33.506 14.2954 33.5378 14.137 33.5378C12.6213 33.5378 11.1169 33.5591 9.60116 33.5272C9.29575 33.5166 8.92248 33.3786 8.69625 33.1876C4.89565 29.8869 2.82567 25.8008 2.26011 20.993ZM5.38203 35.5013C6.73939 35.5013 8.09675 35.5013 9.46542 35.5013C17.0666 35.5013 24.6678 35.5013 32.2577 35.5013C33.0835 35.5013 33.1061 35.5331 33.0156 36.2867C32.8346 37.7088 32.6536 39.1416 32.45 40.6699C32.1786 40.6699 31.9071 40.6699 31.6356 40.6699C25.3578 40.6699 19.0687 40.6699 12.791 40.6699C11.7616 40.6699 11.2639 40.9459 11.2187 41.5508H9.13739C9.08084 41.052 8.6397 40.6912 7.98364 40.6699C7.1466 40.6487 6.30956 40.6699 5.41597 40.6699C5.20105 39.0673 4.98614 37.5072 4.79385 35.9364C4.73729 35.5331 5.05401 35.5013 5.38203 35.5013ZM33.864 44.4164C33.1966 46.0721 33.1966 46.0721 31.3302 46.0721C23.0051 46.0721 14.6686 46.0721 6.3435 46.0721C5.16712 46.0721 5.00876 45.9766 4.59024 44.9365C3.97943 43.44 3.85501 43.5143 5.65351 43.5143C10.1441 43.5249 14.6347 43.5143 19.114 43.5143C23.8195 43.5143 28.525 43.5143 33.2305 43.5143C34.1694 43.5143 34.2033 43.5674 33.864 44.4164Z" fill="#359276"/>
</svg>
