<svg width="36" height="32" viewBox="0 0 36 32" fill="none" xmlns="http://www.w3.org/2000/svg">
<path d="M20.1144 20.4428C20.1144 18.8536 20.1144 17.2444 20.1144 15.6552C20.1144 14.5891 20.5565 14.1465 21.6014 14.1264C23.1285 14.1063 24.6356 14.1063 26.1628 14.1264C27.1876 14.1264 27.6498 14.5891 27.6498 15.5748C27.6699 18.8335 27.6699 22.1124 27.6498 25.3712C27.6498 26.3568 27.2077 26.7793 26.2231 26.7994C24.6557 26.8195 23.0884 26.8195 21.521 26.7994C20.5364 26.7793 20.1144 26.3568 20.1144 25.351C20.0943 23.7418 20.1144 22.0923 20.1144 20.4428ZM25.1782 24.4056C25.1782 23.0578 25.1782 21.7704 25.1782 20.4629C24.294 20.4629 23.43 20.4629 22.5458 20.4629C22.5458 21.7905 22.5458 23.078 22.5458 24.4056C23.43 24.4056 24.2739 24.4056 25.1782 24.4056ZM25.1983 16.6208C24.3342 16.6208 23.4501 16.6208 22.5659 16.6208C22.5659 17.0834 22.5659 17.5059 22.5659 17.9484C23.4701 17.9484 24.3141 17.9484 25.1983 17.9484C25.1983 17.5059 25.1983 17.1036 25.1983 16.6208Z" fill="white"/>
<path d="M17.3614 20.5434C17.3614 22.1325 17.3614 23.7418 17.3614 25.3309C17.3614 26.4172 16.9595 26.8195 15.8744 26.8195C14.3473 26.8396 12.8402 26.8396 11.313 26.8195C10.248 26.7994 9.82605 26.3769 9.82605 25.2907C9.82605 22.0722 9.82605 18.8536 9.82605 15.6351C9.82605 14.569 10.2681 14.1264 11.3331 14.1264C12.8603 14.1063 14.3674 14.1063 15.8945 14.1264C16.9193 14.1264 17.3614 14.569 17.3614 15.5949C17.3815 17.2444 17.3614 18.8939 17.3614 20.5434ZM12.2976 20.4227C12.2976 21.7905 12.2976 23.0981 12.2976 24.4056C13.1818 24.4056 14.0258 24.4056 14.9099 24.4056C14.9099 23.0578 14.9099 21.7503 14.9099 20.4227C14.0258 20.4227 13.1818 20.4227 12.2976 20.4227ZM12.2776 17.9484C13.222 17.9484 14.0659 17.9484 14.9099 17.9484C14.9099 17.4656 14.9099 17.0432 14.9099 16.6208C13.9856 16.6208 13.1416 16.6208 12.2776 16.6208C12.2776 17.0834 12.2776 17.4858 12.2776 17.9484Z" fill="white"/>
<path d="M19.8733 0.508039C18.8685 -0.155783 18.6274 -0.175899 17.6428 0.487923C12.8001 3.72657 7.95734 6.96522 3.09452 10.2039C2.91367 10.3246 2.73282 10.4453 2.57207 10.5861C2.08981 11.0286 1.98934 11.6321 2.33094 12.1551C2.67254 12.658 3.27537 12.8189 3.8581 12.5373C4.11933 12.4166 4.36046 12.2758 4.62169 12.1149C4.62169 15.8162 4.62169 19.4571 4.62169 23.078C3.69735 23.078 2.85339 23.078 1.96924 23.078C1.82858 22.0722 2.31084 20.644 0.763583 20.6239C0.42198 20.6239 0.180849 20.6842 0 20.8049V31.9893C11.2126 31.9893 22.4252 31.9893 33.6379 31.9893C34.3813 31.9893 34.9641 31.7881 35.3258 31.1243C35.3258 30.8829 35.3258 30.6415 35.3258 30.4001C34.7631 29.3541 33.7383 29.5754 32.7939 29.5352C32.7939 23.7217 32.7939 17.9686 32.7939 12.1953C33.2561 12.3563 33.7383 12.6781 34.1804 12.6178C34.6024 12.5574 34.944 12.0947 35.3258 11.793C35.3258 11.5516 35.3258 11.3102 35.3258 11.0688C34.9842 10.7671 34.6828 10.4251 34.3211 10.1837C29.5185 6.9451 24.6959 3.72657 19.8733 0.508039ZM4.66188 29.515C3.75763 29.515 2.91367 29.515 2.00943 29.515C2.00943 28.2075 2.00943 26.9201 2.00943 25.5925C2.89358 25.5925 3.73754 25.5925 4.66188 25.5925C4.66188 26.9402 4.66188 28.2075 4.66188 29.515ZM30.3625 29.3944C30.3625 29.4145 30.3424 29.4346 30.2821 29.515C22.6061 29.515 14.8899 29.515 7.09329 29.515C7.09329 29.2133 7.09329 28.9518 7.09329 28.6903C7.09329 22.8567 7.09329 17.0231 7.07319 11.1895C7.07319 10.6464 7.23395 10.3246 7.69611 10.0228C11.3734 7.60892 15.0104 5.15479 18.7279 2.66043C22.5257 5.19502 26.2833 7.7095 30.041 10.224C30.2017 10.3447 30.3625 10.6062 30.3625 10.8073C30.3826 17.003 30.3625 23.1987 30.3625 29.3944Z" fill="white"/>
</svg>
