<svg width="37" height="38" viewBox="0 0 37 38" fill="none" xmlns="http://www.w3.org/2000/svg">
<path d="M21.2608 11.1814C21.2608 18.6909 21.2608 26.1833 21.2608 33.6927C21.2608 34.0006 21.278 34.3257 21.2436 34.6336C21.1576 36.0705 20.1943 36.9942 18.7322 36.9942C16.6681 37.0113 14.6211 37.0455 12.5569 36.9771C11.9033 36.96 11.2669 36.6521 10.854 36.5323C9.75314 36.7034 8.80707 36.9429 7.84379 36.9771C6.19247 37.0455 4.52394 36.9942 2.87262 36.9942C0.92887 36.9942 0 36.0876 0 34.1204C0 27.107 0 20.0765 0 13.0631C0 9.71031 0 6.35756 0 3.00481C0 0.969211 0.946071 0.0283876 2.97583 0.0283876C4.66155 0.0283876 6.34728 -0.02293 8.03301 0.0454935C8.91027 0.0797052 9.77034 0.336293 10.596 0.47314C11.5765 0.336293 12.5569 0.0968111 13.5374 0.0454935C15.0683 -0.02293 16.6165 0.0625993 18.1646 0.0112817C19.4375 -0.02293 20.4695 0.319187 21.0888 1.49949C21.708 1.36265 22.2757 1.17448 22.8605 1.14027C23.1185 1.12316 23.3938 1.41396 23.6518 1.56792C23.4798 1.8245 23.3594 2.20083 23.1185 2.30347C21.1232 3.05613 21.106 3.05613 21.5188 5.16015C23.4282 14.8763 25.3375 24.5924 27.2469 34.3086C27.4877 35.5573 27.9005 35.831 29.139 35.5915C30.9279 35.2494 32.7341 34.9073 34.523 34.548C35.5379 34.3428 35.8819 33.8125 35.6927 32.8374C34.2822 25.6188 32.8545 18.4172 31.444 11.1985C30.8763 8.30763 30.2915 5.41674 29.7239 2.50874C29.5174 1.48239 29.0702 1.17448 28.0209 1.34554C27.7973 1.37975 27.5393 1.5337 27.3501 1.46528C27.0748 1.37975 26.834 1.14027 26.576 0.969211C26.7308 0.746834 26.8512 0.387611 27.0748 0.302082C29.0186 -0.501894 30.5667 0.336293 30.9623 2.37189C32.9405 12.3959 34.9186 22.42 36.8968 32.444C37.258 34.2743 36.5012 35.4375 34.6778 35.7797C32.8029 36.1389 30.9279 36.5152 29.053 36.8573C27.5393 37.1481 26.404 36.3955 26.1116 34.873C24.5635 27.107 23.0497 19.3409 21.5188 11.5749C21.4844 11.4209 21.4328 11.2669 21.3812 11.113C21.3468 11.1643 21.2952 11.1814 21.2608 11.1814ZM19.9879 18.554C19.9879 13.3025 19.9879 8.05104 19.9879 2.78243C19.9879 1.70476 19.6267 1.34554 18.5602 1.32843C16.6509 1.31133 14.7243 1.32843 12.815 1.32843C11.6281 1.32843 11.2325 1.72187 11.2325 2.91928C11.2325 13.3196 11.2325 23.72 11.2325 34.1033C11.2325 35.3178 11.6625 35.7454 12.8666 35.7626C14.6727 35.7797 16.4616 35.7626 18.2678 35.7626C19.6439 35.7626 19.9707 35.4204 19.9707 34.052C19.9879 28.886 19.9879 23.72 19.9879 18.554ZM1.2729 18.554C1.2729 23.7542 1.2729 28.9544 1.2729 34.1546C1.2729 35.4033 1.65132 35.7626 2.90702 35.7797C4.73036 35.7797 6.5709 35.7797 8.39423 35.7797C9.59833 35.7797 10.0112 35.3691 10.0112 34.2059C10.0112 23.7542 10.0112 13.3025 10.0112 2.85086C10.0112 1.73897 9.61553 1.36265 8.53185 1.34554C6.6397 1.32843 4.76476 1.34554 2.87262 1.34554C1.59972 1.34554 1.2729 1.68766 1.2729 2.9706C1.2729 8.15368 1.2729 13.3539 1.2729 18.554Z" fill="url(#paint0_linear_1026_8033)"/>
<path d="M27.1436 15.3724C25.1827 15.3553 23.6173 13.7644 23.6345 11.8315C23.6517 9.84719 25.2687 8.29056 27.264 8.32477C29.225 8.35898 30.7731 9.93272 30.7559 11.8828C30.7559 13.8671 29.1734 15.4066 27.1436 15.3724ZM27.2296 9.5735C25.9223 9.5564 24.9074 10.5656 24.9074 11.8828C24.9074 13.1657 25.8879 14.1408 27.1608 14.1579C28.4337 14.175 29.5174 13.1144 29.5002 11.8486C29.5002 10.617 28.4681 9.5735 27.2296 9.5735Z" fill="url(#paint1_linear_1026_8033)"/>
<path d="M30.5151 24.6094C30.3775 24.7463 30.1539 25.1055 29.9818 25.0884C29.7238 25.0713 29.3282 24.7976 29.2766 24.5752C28.7777 22.2488 28.3305 19.9053 27.9177 17.5618C27.8833 17.3223 28.1929 17.0144 28.3477 16.7407C28.6057 16.9118 29.0358 17.0486 29.0874 17.2539C29.569 19.6487 30.0162 22.0435 30.5151 24.6094Z" fill="url(#paint2_linear_1026_8033)"/>
<path d="M29.0874 33.4018C28.9497 33.282 28.6229 33.0939 28.5885 32.8715C28.5541 32.6491 28.7949 32.2215 28.9841 32.1702C30.5323 31.8109 32.0976 31.4859 33.6629 31.2293C33.8693 31.1951 34.2821 31.4859 34.3338 31.6741C34.3854 31.8794 34.1273 32.3241 33.9209 32.3583C32.3728 32.7518 30.8075 33.0597 29.0874 33.4018Z" fill="url(#paint3_linear_1026_8033)"/>
<path d="M28.3477 29.9124C28.1929 29.7413 27.8317 29.5189 27.8317 29.3137C27.8317 29.0742 28.1585 28.715 28.3993 28.6465C29.8614 28.3044 31.3407 27.9965 32.82 27.757C33.0781 27.7228 33.3877 28.0307 33.6801 28.2018C33.5253 28.4413 33.4049 28.8347 33.1985 28.886C31.6504 29.2623 30.085 29.5702 28.3477 29.9124Z" fill="url(#paint4_linear_1026_8033)"/>
<path d="M12.0753 10.5999C12.0925 8.64988 13.6406 7.12746 15.636 7.11035C17.6313 7.11035 19.2483 8.7183 19.2139 10.6684C19.1795 12.6184 17.5969 14.158 15.636 14.1751C13.6578 14.1751 12.0753 12.5671 12.0753 10.5999ZM15.6188 12.9263C16.8745 12.9435 17.9066 11.9513 17.941 10.7026C17.9754 9.38543 16.9777 8.35908 15.6704 8.35908C14.4147 8.34197 13.3654 9.35122 13.3138 10.5657C13.2622 11.7974 14.3459 12.9092 15.6188 12.9263Z" fill="url(#paint5_linear_1026_8033)"/>
<path d="M14.9307 20.3844C14.9307 19.2554 14.8963 18.1093 14.9651 16.9803C14.9823 16.6895 15.3436 16.4158 15.55 16.125C15.7564 16.3987 16.152 16.6724 16.1692 16.9632C16.2208 19.2554 16.2208 21.5647 16.1692 23.8569C16.1692 24.1305 15.7564 24.4042 15.5328 24.6779C15.3436 24.4042 14.9823 24.1477 14.9823 23.874C14.8963 22.7108 14.9307 21.5476 14.9307 20.3844Z" fill="url(#paint6_linear_1026_8033)"/>
<path d="M15.6703 29.7071C14.9307 29.7071 14.1738 29.7584 13.4514 29.6729C13.2105 29.6558 12.9869 29.3137 12.7633 29.1084C12.9869 28.9031 13.1933 28.5268 13.417 28.5097C14.8963 28.4584 16.3756 28.4584 17.8721 28.5097C18.1129 28.5097 18.3365 28.886 18.5773 29.0913C18.3193 29.2965 18.0957 29.6558 17.8205 29.6729C17.098 29.7584 16.3756 29.7071 15.6703 29.7071Z" fill="url(#paint7_linear_1026_8033)"/>
<path d="M15.6359 33.2824C14.9823 33.2824 14.3286 33.2824 13.675 33.2824C13.2105 33.2824 12.7633 33.2482 12.7805 32.6495C12.7977 32.0508 13.2621 32.0508 13.7094 32.0508C15.0167 32.0508 16.3412 32.0679 17.6485 32.0508C18.1301 32.0508 18.5601 32.1192 18.5429 32.6837C18.5257 33.2653 18.0613 33.2824 17.5969 33.2824C16.9432 33.2653 16.2896 33.2824 15.6359 33.2824Z" fill="url(#paint8_linear_1026_8033)"/>
<path d="M5.67639 7.11035C7.65454 7.11035 9.20265 8.64988 9.20265 10.6171C9.20265 12.6184 7.62013 14.1751 5.62478 14.158C3.64663 14.158 2.06411 12.5671 2.08132 10.6513C2.08132 8.64988 3.64663 7.11035 5.67639 7.11035ZM5.64198 12.9263C6.88048 12.9263 7.92976 11.9 7.94696 10.6684C7.96416 9.40254 6.91488 8.34197 5.62478 8.35908C4.35189 8.35908 3.33701 9.35122 3.31981 10.5999C3.31981 11.8829 4.36909 12.9263 5.64198 12.9263Z" fill="url(#paint9_linear_1026_8033)"/>
<path d="M6.17527 20.4185C6.17527 21.5304 6.17527 22.6252 6.17527 23.737C6.17527 24.1989 6.07206 24.695 5.53882 24.6265C5.2808 24.5923 4.93677 24.0449 4.93677 23.7199C4.88517 21.4791 4.88517 19.2382 4.93677 16.9973C4.93677 16.7065 5.2808 16.2104 5.52162 16.1591C6.08926 16.0565 6.17527 16.5526 6.17527 17.0144C6.17527 18.1434 6.17527 19.2895 6.17527 20.4185Z" fill="url(#paint10_linear_1026_8033)"/>
<path d="M5.60757 29.7072C4.88512 29.7072 4.17986 29.7586 3.47461 29.673C3.19939 29.6388 2.94137 29.3138 2.68335 29.1085C2.94137 28.9033 3.18219 28.5098 3.44021 28.4927C4.86791 28.4243 6.29562 28.4243 7.72333 28.4927C7.99855 28.5098 8.42858 28.8348 8.48019 29.0743C8.56619 29.5875 8.13616 29.6901 7.68893 29.6901C6.96647 29.6901 6.29562 29.7072 5.60757 29.7072Z" fill="url(#paint11_linear_1026_8033)"/>
<path d="M5.59037 33.2652C4.86791 33.2652 4.16266 33.3165 3.45741 33.231C3.18219 33.1968 2.94137 32.8547 2.68335 32.6665C2.94137 32.4612 3.18219 32.0849 3.44021 32.0678C4.86791 32.0165 6.29562 32.0165 7.72333 32.0678C7.98135 32.0849 8.23937 32.4441 8.49739 32.6494C8.23937 32.8547 8.01575 33.2139 7.74053 33.231C7.01808 33.3336 6.31282 33.2652 5.59037 33.2652Z" fill="url(#paint12_linear_1026_8033)"/>
<defs>
<linearGradient id="paint0_linear_1026_8033" x1="18.4923" y1="0" x2="18.4923" y2="37.018" gradientUnits="userSpaceOnUse">
<stop stop-color="#01160F"/>
<stop offset="1" stop-color="#349075"/>
</linearGradient>
<linearGradient id="paint1_linear_1026_8033" x1="27.1952" y1="8.32422" x2="27.1952" y2="15.373" gradientUnits="userSpaceOnUse">
<stop stop-color="#01160F"/>
<stop offset="1" stop-color="#349075"/>
</linearGradient>
<linearGradient id="paint2_linear_1026_8033" x1="29.2151" y1="16.7407" x2="29.2151" y2="25.089" gradientUnits="userSpaceOnUse">
<stop stop-color="#01160F"/>
<stop offset="1" stop-color="#349075"/>
</linearGradient>
<linearGradient id="paint3_linear_1026_8033" x1="31.4628" y1="31.2266" x2="31.4628" y2="33.4018" gradientUnits="userSpaceOnUse">
<stop stop-color="#01160F"/>
<stop offset="1" stop-color="#349075"/>
</linearGradient>
<linearGradient id="paint4_linear_1026_8033" x1="30.7559" y1="27.7544" x2="30.7559" y2="29.9124" gradientUnits="userSpaceOnUse">
<stop stop-color="#01160F"/>
<stop offset="1" stop-color="#349075"/>
</linearGradient>
<linearGradient id="paint5_linear_1026_8033" x1="15.6449" y1="7.11035" x2="15.6449" y2="14.1751" gradientUnits="userSpaceOnUse">
<stop stop-color="#01160F"/>
<stop offset="1" stop-color="#349075"/>
</linearGradient>
<linearGradient id="paint6_linear_1026_8033" x1="15.565" y1="16.125" x2="15.565" y2="24.6779" gradientUnits="userSpaceOnUse">
<stop stop-color="#01160F"/>
<stop offset="1" stop-color="#349075"/>
</linearGradient>
<linearGradient id="paint7_linear_1026_8033" x1="15.6703" y1="28.4712" x2="15.6703" y2="29.7224" gradientUnits="userSpaceOnUse">
<stop stop-color="#01160F"/>
<stop offset="1" stop-color="#349075"/>
</linearGradient>
<linearGradient id="paint8_linear_1026_8033" x1="15.6617" y1="32.0508" x2="15.6617" y2="33.2824" gradientUnits="userSpaceOnUse">
<stop stop-color="#01160F"/>
<stop offset="1" stop-color="#349075"/>
</linearGradient>
<linearGradient id="paint9_linear_1026_8033" x1="5.64192" y1="7.11035" x2="5.64192" y2="14.1581" gradientUnits="userSpaceOnUse">
<stop stop-color="#01160F"/>
<stop offset="1" stop-color="#349075"/>
</linearGradient>
<linearGradient id="paint10_linear_1026_8033" x1="5.53667" y1="16.1455" x2="5.53667" y2="24.6329" gradientUnits="userSpaceOnUse">
<stop stop-color="#01160F"/>
<stop offset="1" stop-color="#349075"/>
</linearGradient>
<linearGradient id="paint11_linear_1026_8033" x1="5.5873" y1="28.4414" x2="5.5873" y2="29.7225" gradientUnits="userSpaceOnUse">
<stop stop-color="#01160F"/>
<stop offset="1" stop-color="#349075"/>
</linearGradient>
<linearGradient id="paint12_linear_1026_8033" x1="5.59037" y1="32.0293" x2="5.59037" y2="33.2875" gradientUnits="userSpaceOnUse">
<stop stop-color="#01160F"/>
<stop offset="1" stop-color="#349075"/>
</linearGradient>
</defs>
</svg>
