<svg width="28" height="22" viewBox="0 0 28 22" fill="none" xmlns="http://www.w3.org/2000/svg">
<path d="M27.5548 11.2055C27.3446 11.6574 26.9873 11.8104 26.497 11.7826C25.9366 11.7548 25.3761 11.7687 24.8227 11.7826C24.7176 11.7826 24.5845 11.8382 24.5075 11.9077C21.2781 15.1058 18.0556 18.3039 14.8332 21.509C14.3358 22.0026 13.9365 22.0096 13.4392 21.516C10.2097 18.3109 6.98032 15.0989 3.7439 11.8938C3.67384 11.8243 3.54775 11.7826 3.44967 11.7756C2.82621 11.7687 2.20974 11.7687 1.58628 11.7687C1.06088 11.7687 0.703613 11.4419 0.703613 10.9761C0.710619 10.5242 1.06088 10.2044 1.57227 10.2044C1.8805 10.2044 2.19573 10.2044 2.53899 10.2044C1.69836 8.41762 1.55825 6.60999 2.19573 4.7676C2.70712 3.3354 3.63181 2.20216 4.88575 1.31225C7.18348 -0.307659 11.4076 -0.592708 14.1467 2.46635C15.4987 1.0272 17.152 0.20682 19.1415 0.123391C20.7176 0.0608189 22.1677 0.471011 23.4567 1.38178C24.8718 2.37597 25.8105 3.71083 26.2378 5.38637C26.6581 7.04104 26.469 8.64705 25.7124 10.2252C25.9996 10.2252 26.2518 10.2461 26.497 10.2183C26.9873 10.1766 27.3446 10.3434 27.5548 10.7953C27.5548 10.9274 27.5548 11.0665 27.5548 11.2055ZM14.0696 11.9494C14.1397 11.8313 14.1957 11.7478 14.2378 11.6713C15.0224 10.3156 15.7999 8.96686 16.5775 7.61114C16.9698 6.93675 17.6423 6.9159 18.0626 7.56942C18.588 8.38981 19.1134 9.20324 19.6318 10.0306C19.7229 10.1766 19.814 10.2252 19.9891 10.2252C21.215 10.2183 22.4339 10.2183 23.6598 10.2252C23.828 10.2252 23.926 10.1696 24.0171 10.0306C24.7176 8.92514 24.9908 7.72933 24.8437 6.42923C24.4024 2.53588 19.87 0.373678 16.5565 2.50807C15.884 2.93912 15.3306 3.55788 14.7351 4.10017C14.3499 4.44779 13.9155 4.45474 13.5513 4.09322C13.264 3.81512 12.9838 3.52312 12.6966 3.25198C11.4147 2.02835 9.88751 1.51387 8.12218 1.7294C4.17822 2.20911 2.07664 6.7838 4.2833 10.0514C4.36736 10.1696 4.45143 10.2252 4.59854 10.2252C5.42516 10.2183 6.25878 10.2183 7.0854 10.2252C7.27455 10.2252 7.35861 10.1696 7.42866 9.99582C8.04512 8.51495 8.6756 7.04104 9.29906 5.56713C9.43917 5.24037 9.66334 5.03874 10.0276 5.02484C10.3919 5.01094 10.6371 5.19865 10.7912 5.51846C11.0294 5.99818 11.2816 6.47789 11.5267 6.95761C12.3534 8.59838 13.201 10.2531 14.0696 11.9494ZM17.3691 9.39095C17.2991 9.50219 17.257 9.58562 17.208 9.6621C16.4024 11.0595 15.5898 12.457 14.7912 13.8614C14.6161 14.1673 14.3849 14.3897 14.0066 14.3758C13.6283 14.3689 13.4182 14.1325 13.257 13.8196C12.7176 12.742 12.1642 11.6713 11.6178 10.5937C11.1274 9.62734 10.6301 8.66095 10.1187 7.6598C10.0696 7.77104 10.0276 7.84752 9.99959 7.924C9.53724 9.01552 9.0749 10.114 8.61255 11.2055C8.45143 11.581 8.18523 11.7826 7.76491 11.7756C7.50572 11.7687 7.23952 11.7756 6.98032 11.7756C6.63006 11.7756 6.27279 11.7756 5.95756 11.7756C8.69661 14.494 11.4357 17.2124 14.1187 19.8752C16.8297 17.1846 19.5688 14.4662 22.2798 11.7756C21.5513 11.7756 20.7667 11.7756 19.9821 11.7756C18.8612 11.7826 18.9173 11.8243 18.3148 10.8649C18.0066 10.3851 17.6984 9.90543 17.3691 9.39095Z" fill="#515151"/>
</svg>
