<svg width="27" height="26" viewBox="0 0 27 26" fill="none" xmlns="http://www.w3.org/2000/svg">
<path d="M26.8525 5.09681C26.8167 5.58453 26.7809 6.06485 26.7451 6.55256C26.6306 8.10438 26.4158 9.63403 25.9147 11.112C25.521 12.2721 24.9841 13.351 24.0822 14.1934C23.2303 14.9989 22.1852 15.361 21.0613 15.4792C19.6296 15.6344 18.2552 15.4423 16.9739 14.7329C16.6589 14.5629 16.3797 14.3264 16.0576 14.1047C15.8428 14.5038 15.5995 14.8954 15.399 15.3166C14.447 17.2453 13.8814 19.307 13.6452 21.45C13.5235 22.5437 13.4877 23.6447 13.4233 24.7384C13.3947 25.2852 13.2086 25.5734 12.8148 25.5808C12.414 25.5882 12.1921 25.3 12.1921 24.731C12.1849 22.6545 12.0632 20.5854 11.7554 18.5311C11.4476 16.4694 10.9393 14.4594 10.1233 12.5381C10.0803 12.4347 10.0231 12.3312 9.98728 12.2426C9.50766 12.4273 9.06384 12.6416 8.59855 12.7598C6.88769 13.2106 5.20547 13.1589 3.60198 12.2943C2.60697 11.7622 1.96987 10.8755 1.46878 9.87789C0.795892 8.55515 0.430814 7.12895 0.280487 5.66581C0.130161 4.16572 0.0800522 2.66563 0.00130977 1.15815C-0.0201654 0.677826 0.22322 0.419189 0.674199 0.419189C2.49959 0.419189 4.32498 0.500475 6.12174 0.877345C7.3673 1.13598 8.56991 1.53502 9.67231 2.21486C11.197 3.15334 11.9773 4.57215 12.1706 6.36043C12.3138 7.66101 12.1777 8.91724 11.6767 10.1217C11.512 10.5134 11.2543 10.8681 11.061 11.245C11.0181 11.3262 10.9895 11.4667 11.0252 11.5479C11.9773 13.5949 12.5357 15.7674 12.9007 17.9991C12.9079 18.0582 12.9222 18.1247 12.9365 18.1838C12.9437 18.206 12.958 18.2281 12.9723 18.2577C13.1584 17.6739 13.3374 17.0901 13.5378 16.5211C13.9673 15.3166 14.5329 14.1786 15.2201 13.1071C15.2702 13.0332 15.2773 12.8855 15.2415 12.8042C14.4971 10.9715 14.4112 9.11676 15.0626 7.2398C15.4491 6.13136 16.2008 5.33328 17.1528 4.71994C18.4342 3.90708 19.8516 3.50805 21.3119 3.2568C22.9082 2.98338 24.526 2.91688 26.1438 2.9021C26.5089 2.9021 26.7379 3.06467 26.8525 3.41198C26.8525 3.97359 26.8525 4.5352 26.8525 5.09681ZM25.6499 4.18789C25.5425 4.1805 25.4924 4.17311 25.4423 4.17311C24.2253 4.26179 23.0012 4.3209 21.7843 4.4613C20.5674 4.60171 19.3791 4.91946 18.2767 5.50324C17.5537 5.8875 16.8951 6.35304 16.4656 7.09939C16.0361 7.85313 15.8715 8.69555 15.85 9.56013C15.8285 10.3213 15.9144 11.0602 16.1865 11.8805C16.2437 11.777 16.258 11.7179 16.2938 11.681C17.3533 10.4247 18.606 9.40495 20.009 8.5921C20.3455 8.39997 20.6819 8.20784 21.0398 8.06743C21.4407 7.90486 21.7986 8.13394 21.8774 8.54037C21.9346 8.84334 21.813 9.05764 21.4622 9.2276C19.9661 9.97395 18.6275 10.9346 17.4964 12.1908C17.2531 12.4569 17.0311 12.7451 16.7591 13.0628C17.0598 13.2771 17.3032 13.4988 17.5895 13.6466C18.7635 14.2599 20.009 14.3634 21.2904 14.1491C22.4357 13.957 23.3663 13.4027 23.9676 12.3608C24.2683 11.8361 24.5331 11.2819 24.7407 10.7129C25.1846 9.5158 25.3635 8.25956 25.4709 6.98855C25.564 6.06485 25.5997 5.14115 25.6499 4.18789ZM10.3094 10.1661C10.3667 10.0626 10.4096 9.98873 10.4454 9.90744C11.0181 8.6586 11.1183 7.34325 10.8749 5.99834C10.7174 5.12637 10.3595 4.35785 9.68662 3.77407C8.8992 3.09423 7.99008 2.68041 7.01654 2.39221C5.16252 1.84538 3.25838 1.71237 1.33993 1.6902C1.3113 1.6902 1.2755 1.70498 1.24687 1.71237C1.23971 1.74932 1.23255 1.77888 1.23255 1.80105C1.33277 3.14595 1.40436 4.49825 1.54752 5.84316C1.67638 7.04028 1.99134 8.19306 2.52822 9.27194C2.95057 10.107 3.47313 10.8533 4.33214 11.2745C5.39874 11.7918 6.52261 11.8583 7.6608 11.6883C8.2621 11.5997 8.84909 11.4297 9.38597 11.0898C8.94931 10.2991 8.4339 9.5823 7.85407 8.91724C7.15971 8.11916 6.33649 7.48365 5.48464 6.87771C5.30568 6.75208 5.13388 6.60429 4.99787 6.43433C4.81175 6.19786 4.8547 5.85794 5.0623 5.64364C5.25557 5.44412 5.57054 5.40717 5.80677 5.56975C5.98573 5.69537 6.15753 5.83577 6.34365 5.96139C7.63932 6.86293 8.78467 7.91964 9.68662 9.24238C9.89422 9.53058 10.0875 9.83355 10.3094 10.1661Z" fill="#515151"/>
</svg>
