<svg width="22" height="30" viewBox="0 0 22 30" fill="none" xmlns="http://www.w3.org/2000/svg">
<path d="M4.17856 21.0819C4.32142 21.2103 4.55713 21.303 4.74999 21.3102C5.70713 21.3316 6.65713 21.3244 7.61428 21.3173C7.71428 21.3173 7.82142 21.2959 7.98571 21.2745C7.78571 20.6538 7.59285 20.0759 7.42856 19.4909C7.35713 19.2341 7.20713 19.12 6.95713 19.07C6.00713 18.8774 5.06428 18.6705 4.12142 18.4636C3.62856 18.3566 3.39999 18.0356 3.48571 17.6289C3.57142 17.2508 3.90713 17.0724 4.38571 17.1723C5.10713 17.3221 5.82142 17.4791 6.62856 17.6503C5.97856 16.3162 5.24285 15.1391 4.39285 14.0475C3.89999 13.4126 3.35713 12.8204 2.84999 12.1926C2.59285 11.8787 2.62142 11.522 2.89285 11.2723C3.14999 11.0369 3.53571 11.044 3.81428 11.3009C3.92142 11.4007 4.02142 11.5149 4.12142 11.629C4.51428 12.0856 4.90713 12.5422 5.31428 13.0202C5.34999 12.9417 5.37142 12.9061 5.38571 12.8704C5.61428 12.4209 5.92856 12.264 6.29285 12.4138C6.67856 12.5779 6.78571 12.9275 6.59285 13.4126C6.49999 13.6409 6.38571 13.862 6.32856 14.0975C6.29285 14.2259 6.29285 14.4042 6.36428 14.5041C7.73571 16.5944 8.77856 18.8203 9.32142 21.2745C9.5857 21.2745 9.8357 21.2745 10.1071 21.2745C10.1 18.0284 9.45713 15.0178 7.42856 12.4281C5.54999 10.0381 3.10713 8.41149 0.32142 7.20581C-0.0142939 9.13205 -0.0928654 11.0012 0.114277 12.8847C0.47142 16.1236 1.77856 18.8774 4.17856 21.0819Z" fill="white"/>
<path d="M2.25714 28.0307C1.12142 28.0307 1.19999 27.9807 1.58571 28.9867C1.84999 29.6787 1.94999 29.75 2.69285 29.75C7.94999 29.75 13.2143 29.75 18.4714 29.75C19.65 29.75 19.65 29.75 20.0714 28.6371C20.2857 28.0664 20.2643 28.0307 19.6714 28.0307C16.7 28.0307 13.7286 28.0307 10.7571 28.0307C7.92142 28.0307 5.09285 28.0378 2.25714 28.0307Z" fill="white"/>
<path d="M2.09285 22.6443C1.88571 22.6443 1.68571 22.6657 1.71428 22.9439C1.83571 23.9927 1.97143 25.0414 2.10714 26.1258C2.67143 26.1258 3.2 26.1115 3.72857 26.1258C4.14285 26.1401 4.42143 26.3826 4.45714 26.7179H5.77143C5.8 26.3113 6.11428 26.1258 6.76428 26.1258C10.7286 26.1258 14.7 26.1258 18.6643 26.1258C18.8357 26.1258 19.0071 26.1258 19.1786 26.1258C19.3 25.0985 19.4214 24.1425 19.5357 23.1794C19.6 22.6657 19.5786 22.6514 19.0571 22.6514C14.2571 22.6514 9.45714 22.6514 4.66428 22.6514C3.80714 22.6443 2.95 22.6443 2.09285 22.6443Z" fill="white"/>
<path d="M21.9929 8.77539C22.0072 8.64698 21.9929 8.51143 21.9929 8.276C21.1286 8.52569 20.3143 8.72545 19.5215 8.99655C16.8715 9.89546 14.5072 11.251 12.6643 13.4055C12.3857 13.7265 12.0072 13.7551 11.7215 13.5196C11.4286 13.2771 11.4 12.8776 11.6786 12.5423C12.5357 11.5078 13.55 10.6374 14.6715 9.9026C14.9143 9.74565 15.0143 9.56729 15.0143 9.27479C15.0072 6.00732 13.9429 3.06088 12.2857 0.25C11.3429 1.14178 10.5286 2.1049 9.80003 3.13936C8.81431 4.53767 8.0286 6.04299 7.53574 7.69099C7.50717 7.79801 7.46431 7.89075 7.41431 7.96923C7.15003 8.66125 6.8786 9.26765 6.64288 9.66717C7.51431 10.4662 8.32145 11.3651 9.05003 12.3782C9.08574 11.893 9.10717 11.4864 9.14288 11.0797C9.33574 8.66125 9.85003 6.32122 10.9286 4.12388C10.9643 4.05254 10.9929 3.97406 11.0357 3.90272C11.2429 3.53888 11.6 3.41759 11.9357 3.58168C12.2643 3.74577 12.3786 4.10248 12.2143 4.49486C11.9143 5.22255 11.5857 5.94311 11.3215 6.68507C11.1072 7.29861 10.9643 7.93356 10.7929 8.56137C10.8215 8.58277 10.85 8.60417 10.8786 8.62557C11.2215 8.39728 11.5643 8.16898 11.9072 7.94069C12.0572 7.84081 12.2 7.7338 12.35 7.64819C12.7 7.43416 13.0857 7.5055 13.2929 7.80514C13.5 8.11191 13.4357 8.49716 13.0929 8.73259C12.3786 9.23198 11.6572 9.72424 10.9143 10.1808C10.5929 10.3806 10.4643 10.616 10.4643 10.9656C10.4643 12.2569 10.4 13.5553 10.4929 14.8395C10.55 15.6528 10.8572 16.4518 11.05 17.258C11.1143 17.5219 11.1643 17.793 11.2357 18.1355C11.3786 17.8715 11.4857 17.6646 11.6 17.4649C13.0429 14.9679 15.05 13.0274 17.5 11.5221C17.8857 11.2866 18.2572 11.358 18.4643 11.6862C18.6786 12.0215 18.5786 12.3996 18.1715 12.6564C16.5857 13.6481 15.1715 14.8323 14 16.2949C13.9072 16.409 13.8215 16.5303 13.6715 16.73C14.2929 16.5731 14.8143 16.4304 15.3429 16.3234C15.5429 16.2806 15.8286 16.2521 15.9643 16.3519C16.1429 16.4875 16.3 16.7514 16.3143 16.9726C16.3357 17.3079 16.0715 17.4934 15.75 17.579C14.8643 17.8002 13.9857 18.0356 13.0929 18.2354C12.7572 18.3067 12.5286 18.4494 12.4072 18.7776C12.0929 19.598 11.7643 20.4113 11.4143 21.2888C11.6643 21.3031 11.8 21.3174 11.9286 21.3174C12.75 21.3174 13.5715 21.2817 14.3857 21.3316C15.0572 21.3744 15.5857 21.1533 16.1215 20.7823C19.0429 18.7776 20.7143 15.9596 21.4786 12.5708C21.75 11.3294 21.8286 10.0453 21.9929 8.77539Z" fill="white"/>
</svg>
