<svg width="28" height="22" viewBox="0 0 28 22" fill="none" xmlns="http://www.w3.org/2000/svg">
<path d="M27.4059 11.872C27.3358 12.4027 27.2868 12.9333 27.1958 13.4567C26.7055 16.3063 25.4659 18.7489 23.512 20.8134C23.1758 21.1696 22.6786 21.1769 22.3634 20.8497C22.0482 20.5226 22.0553 20.021 22.3984 19.6575C23.7291 18.2473 24.7376 16.6262 25.2628 14.7289C26.5374 10.1709 25.655 6.10732 22.5945 2.55984C22.5315 2.48715 22.4615 2.41445 22.3984 2.34176C22.0553 1.96375 22.0482 1.44762 22.3774 1.12776C22.6996 0.815179 23.1828 0.844257 23.526 1.20046C24.7025 2.43626 25.634 3.8538 26.2993 5.45308C26.8876 6.87062 27.2448 8.34631 27.3569 9.88743C27.3639 9.96739 27.3849 10.0474 27.3989 10.1273C27.4059 10.7161 27.4059 11.2977 27.4059 11.872Z" fill="#515151"/>
<path d="M0.554688 11.1885C0.610715 7.25575 1.85032 4.01358 4.35755 1.30208C4.50462 1.14942 4.69372 1.00403 4.89682 0.945879C5.23998 0.836838 5.57615 1.02584 5.73723 1.33843C5.90531 1.65828 5.84928 2.02175 5.60416 2.3198C5.15594 2.87228 4.67271 3.40295 4.26651 3.99177C3.0339 5.79459 2.34056 7.81549 2.18649 10.0254C1.95537 13.2603 2.80979 16.1535 4.74974 18.6906C5.00187 19.025 5.28901 19.3303 5.56914 19.6429C5.91231 20.0281 5.92632 20.5297 5.59716 20.8568C5.275 21.1767 4.78476 21.1549 4.42759 20.7769C2.29854 18.5088 1.03092 15.8119 0.666742 12.6569C0.603712 12.1117 0.582701 11.5592 0.554688 11.1885Z" fill="#515151"/>
<path d="M17.293 11.0143C17.2859 12.9116 15.8012 14.4455 13.9663 14.4382C12.1384 14.4309 10.6677 12.8826 10.6747 10.978C10.6817 9.09518 12.1664 7.5686 13.9873 7.5686C15.8292 7.5686 17.3 9.10972 17.293 11.0143ZM13.9873 9.20423C13.0279 9.20423 12.2575 10.0039 12.2575 10.9925C12.2505 12.003 13.0279 12.8026 13.9943 12.8026C14.9538 12.8026 15.7242 12.003 15.7242 11.0143C15.7242 10.0039 14.9538 9.20423 13.9873 9.20423Z" fill="#515151"/>
<path d="M3.9303 10.8395C3.97932 8.15712 4.92478 5.72913 6.8017 3.70823C7.15888 3.32295 7.62811 3.2866 7.96427 3.60646C8.30744 3.93358 8.30044 4.44244 7.93626 4.83499C6.62662 6.23799 5.81422 7.90269 5.58311 9.8509C5.26095 12.5624 5.99631 14.9395 7.75417 16.9749C7.83821 17.0694 7.92926 17.1567 8.00629 17.2512C8.30044 17.6147 8.28643 18.0944 7.96427 18.3997C7.64912 18.7051 7.17989 18.6978 6.85773 18.3561C6.05234 17.5129 5.39401 16.5533 4.90377 15.4847C4.24545 14.0526 3.9373 12.5479 3.9303 10.8395Z" fill="#515151"/>
<path d="M24.0442 11.1305C24.0022 13.8348 23.0637 16.27 21.1728 18.3055C20.8086 18.698 20.3254 18.7344 19.9892 18.3927C19.66 18.0583 19.674 17.564 20.0382 17.1787C21.3899 15.7321 22.2093 14.0092 22.4124 12.0029C22.6785 9.35679 21.9432 7.0233 20.2203 5.03875C20.1433 4.95152 20.0592 4.87155 19.9892 4.78432C19.674 4.41358 19.6881 3.92653 20.0102 3.61394C20.3324 3.30135 20.8016 3.32316 21.1378 3.6721C22.1953 4.78432 22.9797 6.07828 23.4839 7.55397C23.8551 8.6662 24.0302 9.8293 24.0442 11.1305Z" fill="#515151"/>
<path d="M7.29907 11.0143C7.32008 9.1606 7.92938 7.56132 9.14798 6.21648C9.52616 5.79485 10.0024 5.75123 10.3456 6.08563C10.6817 6.41275 10.6607 6.92888 10.2825 7.33597C8.50366 9.30599 8.3776 12.2283 9.98139 14.3146C10.1004 14.4673 10.2405 14.6127 10.3666 14.7653C10.6607 15.1215 10.6537 15.6159 10.3526 15.9212C10.0374 16.2338 9.54717 16.2265 9.22502 15.8848C7.9644 14.5254 7.32709 12.8971 7.29907 11.0143Z" fill="#515151"/>
<path d="M20.6686 10.9997C20.6476 12.8606 20.0313 14.4672 18.7987 15.8193C18.4345 16.2191 17.9513 16.2555 17.6151 15.9283C17.279 15.6012 17.3 15.0924 17.6571 14.6925C19.5901 12.5408 19.5831 9.48036 17.6431 7.3068C17.349 6.97241 17.286 6.60167 17.4751 6.26727C17.6431 5.96196 17.9863 5.79476 18.3295 5.89653C18.4976 5.94742 18.6656 6.05646 18.7847 6.18731C20.0313 7.53216 20.6476 9.1387 20.6686 10.9997Z" fill="#515151"/>
</svg>
