<svg width="142" height="126" viewBox="0 0 142 126" fill="none" xmlns="http://www.w3.org/2000/svg">
<path d="M18.4957 26.1218C19.0923 21.6767 19.689 17.3413 20.2314 13.0608C21.1534 4.6645 27.2283 -0.713549 35.5812 0.0547435C47.514 1.20718 59.3926 2.74377 71.2711 4.06084C85.048 5.6523 98.825 7.18889 112.602 8.78035C118.351 9.43889 124.101 9.93279 129.742 10.8657C137.661 12.1279 142.597 18.2194 141.946 26.2316C141.024 37.0974 139.668 47.9633 138.474 58.8291C137.118 70.9572 135.654 83.0852 134.461 95.2133C133.81 102.018 131.043 106.957 124.372 109.262C123.721 109.482 122.853 110.579 122.853 111.293C123.016 119.744 115.639 126.055 107.015 126C76.0984 125.835 45.1817 125.945 14.3192 125.945C5.64083 125.945 0.162607 120.402 0.162607 111.622C0.108367 88.573 0.325326 65.5243 0.0541268 42.4755C-0.0543529 33.256 6.18323 25.1889 16.0549 26.2865C16.76 26.3413 17.5736 26.1767 18.4957 26.1218ZM8.02739 89.2316C9.27491 88.3535 10.2512 87.7499 11.1191 87.0913C17.1397 82.6462 23.1603 78.1462 29.2352 73.756C36.1779 68.7072 43.7715 69.1462 50.1718 74.9084C55.9212 80.0121 61.6706 85.1706 67.4201 90.2194C71.1626 93.5669 74.1458 93.8413 78.485 91.3169C89.9838 84.5669 101.483 77.7621 113.036 71.0121C114.338 70.2438 114.88 69.3108 114.88 67.7743C114.826 59.6523 114.826 51.5852 114.826 43.4633C114.826 36.823 112.276 34.1889 105.659 34.1889C75.773 34.1889 45.8868 34.1889 15.9464 34.1889C9.98002 34.1889 7.86467 36.3291 7.86467 42.4206C7.86467 57.073 7.86467 71.7255 7.86467 86.4328C7.86467 87.2011 7.97315 87.9694 8.02739 89.2316ZM114.826 79.4084C113.524 80.1218 112.602 80.506 111.788 80.9999C102.025 86.7072 92.3162 92.3596 82.6072 98.1218C75.3933 102.347 68.2879 101.689 61.9961 96.0913C56.2466 90.9877 50.4972 85.8291 44.7478 80.7255C41.0595 77.4877 37.6424 77.323 33.7371 80.1767C27.5537 84.7316 21.6958 89.7803 15.1871 93.7864C9.32915 97.4084 6.56291 101.799 7.91891 108.604C8.02739 109.043 7.91891 109.536 7.91891 109.975C7.91891 116.286 9.54611 117.988 15.7295 117.988C45.8326 117.988 75.8815 117.988 105.985 117.988C107.395 117.988 108.914 117.878 110.27 117.549C113.036 116.835 114.826 114.64 114.826 111.841C114.826 101.195 114.826 90.5486 114.826 79.4084ZM122.745 101.195C125.294 99.823 125.945 98.0121 126.216 95.9816C126.542 93.1828 126.758 90.384 127.084 87.5852C129.416 67.1706 131.803 46.756 134.135 26.2865C134.569 22.2804 132.345 19.3718 128.44 18.7133C126.65 18.4389 124.86 18.2743 123.07 18.0547C109.564 16.5182 96.0587 14.9267 82.553 13.3901C66.7149 11.5243 50.9311 9.6584 35.0931 7.84743C32.0557 7.51816 29.0725 9.05474 28.4758 11.8535C27.4995 16.5182 27.0656 21.2377 26.3605 26.2865C27.9877 26.2865 29.0725 26.2865 30.1573 26.2865C55.3788 26.2865 80.6004 26.506 105.822 26.1767C115.748 26.0669 122.962 33.0913 122.853 43.3535C122.582 61.4084 122.799 79.4084 122.799 97.4633C122.745 98.506 122.745 99.6035 122.745 101.195Z" fill="#359276" fill-opacity="0.48"/>
<path d="M86.838 59.2681C86.7837 67.4998 80.2207 74.195 72.0847 74.3047C63.9487 74.4145 57.1145 67.4998 57.1145 59.1584C57.1145 50.8718 63.9487 43.9572 72.0847 44.012C80.2207 44.012 86.838 50.8718 86.838 59.2681ZM71.922 66.1828C75.773 66.2377 79.0817 62.945 79.0817 59.1035C79.0817 55.3169 75.7188 51.9694 71.9762 51.9694C68.2337 52.0242 65.0878 55.1523 65.0335 58.9389C64.925 62.945 68.0167 66.1279 71.922 66.1828Z" fill="#359276" fill-opacity="0.48"/>
</svg>
