<svg width="28" height="26" viewBox="0 0 28 26" fill="none" xmlns="http://www.w3.org/2000/svg">
<path d="M27.4262 4.67762C27.3904 5.16534 27.3546 5.64566 27.3188 6.13337C27.2043 7.68519 26.9895 9.21484 26.4884 10.6928C26.0947 11.8529 25.5579 12.9318 24.6559 13.7742C23.804 14.5797 22.7589 14.9418 21.6351 15.06C20.2034 15.2152 18.829 15.0231 17.5476 14.3137C17.2326 14.1437 16.9535 13.9072 16.6313 13.6856C16.4166 14.0846 16.1732 14.4762 15.9728 14.8974C15.0207 16.8261 14.4552 18.8878 14.2189 21.0308C14.0973 22.1245 14.0615 23.2255 13.997 24.3192C13.9684 24.866 13.7823 25.1542 13.3886 25.1616C12.9877 25.169 12.7658 24.8808 12.7658 24.3118C12.7586 22.2353 12.6369 20.1662 12.3291 18.1119C12.0213 16.0502 11.5131 14.0403 10.697 12.119C10.6541 12.0155 10.5968 11.912 10.561 11.8234C10.0814 12.0081 9.63757 12.2224 9.17228 12.3406C7.46142 12.7914 5.7792 12.7397 4.17571 11.8751C3.1807 11.343 2.5436 10.4563 2.04251 9.4587C1.36962 8.13596 1.00454 6.70976 0.854218 5.24662C0.703891 3.74653 0.653783 2.24644 0.57504 0.738961C0.553565 0.258636 0.796951 0 1.24793 0C3.07332 0 4.89871 0.0812857 6.69547 0.458156C7.94103 0.716792 9.14365 1.11583 10.246 1.79567C11.7708 2.73415 12.551 4.15296 12.7443 5.94124C12.8875 7.24182 12.7515 8.49805 12.2504 9.70255C12.0857 10.0942 11.828 10.4489 11.6348 10.8258C11.5918 10.9071 11.5632 11.0475 11.599 11.1287C12.551 13.1757 13.1094 15.3482 13.4745 17.5799C13.4816 17.639 13.496 17.7055 13.5103 17.7646C13.5174 17.7868 13.5317 17.809 13.5461 17.8385C13.7322 17.2547 13.9111 16.671 14.1116 16.102C14.5411 14.8974 15.1066 13.7594 15.7938 12.688C15.8439 12.6141 15.8511 12.4663 15.8153 12.385C15.0708 10.5524 14.9849 8.69757 15.6363 6.82061C16.0229 5.71217 16.7745 4.91409 17.7266 4.30075C19.0079 3.4879 20.4253 3.08886 21.8856 2.83761C23.4819 2.56419 25.0997 2.49769 26.7175 2.48291C27.0826 2.48291 27.3117 2.64548 27.4262 2.99279C27.4262 3.5544 27.4262 4.11601 27.4262 4.67762ZM26.2236 3.7687C26.1162 3.76131 26.0661 3.75392 26.016 3.75392C24.7991 3.8426 23.575 3.90171 22.358 4.04212C21.1411 4.18252 19.9528 4.50027 18.8504 5.08405C18.1274 5.46831 17.4689 5.93385 17.0394 6.6802C16.6099 7.43394 16.4452 8.27636 16.4237 9.14094C16.4023 9.90207 16.4882 10.641 16.7602 11.4613C16.8174 11.3578 16.8318 11.2987 16.8676 11.2618C17.927 10.0055 19.1797 8.98576 20.5828 8.17291C20.9192 7.98078 21.2557 7.78865 21.6136 7.64824C22.0144 7.48567 22.3724 7.71475 22.4511 8.12118C22.5084 8.42415 22.3867 8.63845 22.0359 8.80841C20.5398 9.55476 19.2012 10.5154 18.0702 11.7716C17.8268 12.0377 17.6049 12.3259 17.3329 12.6436C17.6335 12.8579 17.8769 13.0796 18.1632 13.2274C19.3372 13.8407 20.5828 13.9442 21.8641 13.7299C23.0095 13.5378 23.9401 12.9835 24.5414 11.9416C24.842 11.4169 25.1069 10.8627 25.3145 10.2937C25.7583 9.09661 25.9373 7.84037 26.0446 6.56936C26.1377 5.64566 26.1735 4.72196 26.2236 3.7687ZM10.8831 9.74689C10.9404 9.64344 10.9834 9.56954 11.0191 9.48826C11.5918 8.23941 11.692 6.92406 11.4486 5.57915C11.2912 4.70718 10.9332 3.93866 10.2604 3.35488C9.47293 2.67504 8.56381 2.26122 7.59027 1.97303C5.73625 1.42619 3.83211 1.29318 1.91366 1.27101C1.88503 1.27101 1.84924 1.28579 1.8206 1.29318C1.81344 1.33013 1.80629 1.35969 1.80629 1.38186C1.9065 2.72677 1.97809 4.07906 2.12125 5.42397C2.25011 6.62109 2.56507 7.77387 3.10195 8.85275C3.5243 9.68778 4.04686 10.4341 4.90587 10.8553C5.97247 11.3726 7.09634 11.4391 8.23453 11.2692C8.83583 11.1805 9.42282 11.0105 9.9597 10.6706C9.52304 9.8799 9.00763 9.16311 8.4278 8.49805C7.73344 7.69997 6.91022 7.06447 6.05837 6.45852C5.87941 6.33289 5.70761 6.1851 5.5716 6.01514C5.38548 5.77867 5.42843 5.43875 5.63603 5.22445C5.82931 5.02493 6.14427 4.98798 6.3805 5.15056C6.55946 5.27618 6.73126 5.41658 6.91738 5.54221C8.21305 6.44374 9.3584 7.50045 10.2604 8.82319C10.4679 9.11139 10.6612 9.41436 10.8831 9.74689Z" fill="white"/>
</svg>
