<svg width="332" height="329" viewBox="0 0 332 329" fill="none" xmlns="http://www.w3.org/2000/svg">
<path d="M165.845 199.323C185.114 199.323 200.734 183.813 200.734 164.681C200.734 145.549 185.114 130.039 165.845 130.039C146.577 130.039 130.957 145.549 130.957 164.681C130.957 183.813 146.577 199.323 165.845 199.323Z" stroke="#9E9E9E" stroke-miterlimit="10"/>
<path d="M165.846 260.829C219.325 260.829 262.678 217.782 262.678 164.68C262.678 111.579 219.325 68.5317 165.846 68.5317C112.367 68.5317 69.0132 111.579 69.0132 164.68C69.0132 217.782 112.367 260.829 165.846 260.829Z" stroke="#9E9E9E" stroke-miterlimit="10"/>
<path d="M165.846 296.896C239.386 296.896 299.002 237.701 299.002 164.681C299.002 91.6602 239.386 32.4653 165.846 32.4653C92.3057 32.4653 32.6897 91.6602 32.6897 164.681C32.6897 237.701 92.3057 296.896 165.846 296.896Z" stroke="#9E9E9E" stroke-miterlimit="10"/>
<path d="M165.846 328.362C256.887 328.362 330.691 255.08 330.691 164.681C330.691 74.2825 256.887 1 165.846 1C74.8039 1 1 74.2825 1 164.681C1 255.08 74.8039 328.362 165.846 328.362Z" stroke="#9E9E9E" stroke-miterlimit="10"/>
<path d="M263 179.92L262.975 179.721C261.935 175.435 258.189 172.305 253.857 172.124C249.212 171.917 245.02 175.121 243.898 179.721L243.873 203.968H248.56C248.56 213.192 248.56 222.409 248.56 231.633C248.989 233.657 250.243 235.234 251.811 235.977V211.813H255.21V236.217C257.084 235.63 258.602 233.904 259.08 231.633V203.968H263V179.92ZM261.35 202.316H245.523V180.019C246.497 176.236 249.921 173.61 253.791 173.775C257.364 173.924 260.458 176.492 261.358 180.019V202.316H261.35Z" fill="#359276"/>
<path d="M253.403 176.649C251.704 176.649 250.16 177.97 248.815 180.58C248.609 180.985 248.766 181.48 249.17 181.695C249.294 181.761 249.418 181.786 249.55 181.786C249.847 181.786 250.136 181.62 250.284 181.34C250.994 179.961 252.108 178.309 253.395 178.309C254.839 178.309 256.217 180.34 256.621 181.125C256.828 181.53 257.331 181.687 257.735 181.48C258.14 181.274 258.297 180.778 258.09 180.365C257.9 179.977 256.11 176.649 253.403 176.649Z" fill="#359276"/>
<path d="M253.436 183.42C252.759 183.42 252.215 183.965 252.215 184.643C252.215 185.32 252.759 185.865 253.436 185.865C254.113 185.865 254.657 185.32 254.657 184.643C254.657 183.965 254.113 183.42 253.436 183.42Z" fill="#359276"/>
<path d="M97.1271 33.8053L97.1024 33.6071C96.0627 29.321 92.3165 26.1911 87.9844 26.0094C83.3388 25.803 79.147 29.0072 78.0248 33.6071L78 57.8536H82.6869C82.6869 67.0781 82.6869 76.2944 82.6869 85.519C83.116 87.5423 84.3702 89.1196 85.938 89.8629V65.699H89.3377V90.1023C91.2108 89.516 92.7291 87.79 93.2076 85.519V57.8536H97.1271V33.8053ZM95.4768 56.2019H79.6503V33.9044C80.624 30.1221 84.0484 27.4959 87.9184 27.6611C91.4913 27.8097 94.5857 30.3781 95.4851 33.9044V56.2019H95.4768Z" fill="#359276"/>
<path d="M87.5306 30.5347C85.8307 30.5347 84.2877 31.856 82.9427 34.4656C82.7364 34.8703 82.8932 35.3658 83.2975 35.5805C83.4213 35.6466 83.545 35.6714 83.6771 35.6714C83.9741 35.6714 84.2629 35.5062 84.4115 35.2254C85.1211 33.8463 86.2351 32.1946 87.5223 32.1946C88.9663 32.1946 90.3443 34.2261 90.7487 35.0107C90.955 35.4153 91.4583 35.5723 91.8626 35.3658C92.267 35.1593 92.4237 34.6638 92.2174 34.2509C92.0277 33.8628 90.2371 30.5347 87.5306 30.5347Z" fill="#359276"/>
<path d="M87.5633 37.3062C86.8866 37.3062 86.342 37.8512 86.342 38.5284C86.342 39.2056 86.8866 39.7506 87.5633 39.7506C88.2399 39.7506 88.7845 39.2056 88.7845 38.5284C88.7845 37.8512 88.2399 37.3062 87.5633 37.3062Z" fill="#359276"/>
<path d="M72.4881 209.68H98.4774L99.5609 207.978H71.4788L72.4881 209.68Z" fill="#359276"/>
<path d="M96.5626 230.735L98.2769 210.44H72.6809L74.3878 230.735H96.5626Z" fill="#359276"/>
<path d="M73.7125 231.496H72.6512V233.944H98.3066V231.496H97.2454H73.7125Z" fill="#359276"/>
<path d="M69 199L71.1002 207.217H99.9542L101.965 199H69ZM85.9502 204.982C84.9409 204.982 84.1246 204.146 84.1246 203.112C84.1246 202.079 84.9409 201.242 85.9502 201.242C86.9595 201.242 87.7758 202.079 87.7758 203.112C87.7758 204.146 86.9595 204.982 85.9502 204.982Z" fill="#359276"/>
</svg>
