<svg width="45" height="49" viewBox="0 0 45 49" fill="none" xmlns="http://www.w3.org/2000/svg">
<path d="M43.9758 29.2967C43.9758 27.7921 43.3174 26.2876 41.9146 25.9983C39.7962 25.5643 39.968 24.2623 40.0252 22.7578C40.0539 22.0055 40.0252 21.2243 40.0252 20.4431C40.0252 18.1574 39.5386 17.492 37.3057 16.9712C36.0747 16.6818 34.8151 16.595 33.5555 16.3925C33.5555 15.1194 33.5555 13.9043 33.5555 12.7469C33.7845 12.6891 33.8704 12.6312 33.9563 12.6312C34.901 12.6312 35.8457 12.6312 36.7904 12.6023C38.4221 12.5733 38.6798 12.284 38.279 10.7216C37.5633 7.94404 36.7904 5.16646 36.0747 2.38889C35.8171 1.40516 35.3876 0.913298 34.2998 0.971164C33.0688 1.02903 31.8379 1.02903 30.6069 0.971164C29.6049 0.913298 29.1469 1.34729 28.9179 2.30209C28.3167 4.7614 27.6297 7.22071 26.9712 9.68003C26.1983 12.6023 26.1983 12.5733 29.2328 12.6023C31.8665 12.6312 31.4657 12.1972 31.6089 14.9748C31.6661 16.2768 31.2653 16.595 30.0057 16.5661C23.4501 16.5082 16.8945 16.5082 10.3675 16.5661C8.87886 16.595 7.36162 16.8554 5.90163 17.2026C4.58478 17.5209 3.8691 18.4468 3.95498 19.9802C4.06949 21.803 4.01224 23.5679 4.01224 25.275C1.12089 26.1719 0.061683 27.1845 0.0330558 29.2677C-0.0241986 32.624 0.00442864 35.9802 0.0330558 39.3364C0.061683 40.8699 0.777363 42.2587 2.1801 42.577C4.06949 43.0109 4.12674 44.1104 3.98361 45.586C3.92635 46.0489 3.98361 46.5408 3.98361 47.0326C3.98361 48.8844 4.06949 48.9712 5.93026 48.9712C6.21653 48.9712 6.5028 48.9422 6.78907 48.9712C7.79103 49.0869 8.3922 48.6818 8.59259 47.6113C8.8216 46.5408 9.25101 45.4992 9.42278 44.3997C9.62317 43.2424 10.1957 43.0109 11.2835 43.0109C17.5529 43.0688 23.8223 43.0399 30.0916 43.0399C31.4085 43.0399 33.1261 42.6059 33.9563 43.2714C34.8437 43.9657 35.0441 45.7307 35.3018 47.0616C35.588 48.5082 36.2465 49.1737 37.7351 48.9422C38.05 48.8844 38.3935 48.9133 38.737 48.9422C39.739 49.0001 40.1111 48.4793 40.0825 47.5534C40.0539 46.454 40.1111 45.3545 40.0825 44.2551C40.0539 43.4449 40.3115 43.0977 41.1417 42.8952C42.9452 42.4323 43.9758 41.1303 44.0044 39.2496C44.0331 35.9223 44.0044 32.624 43.9758 29.2967ZM28.6603 10.7506C29.3473 8.1755 29.9485 5.74512 30.6928 3.34368C30.7787 3.05435 31.6375 2.88075 32.1528 2.88075C34.7865 2.88075 34.1853 2.53355 34.8724 4.935C35.4163 6.81565 35.8743 8.72523 36.3896 10.7506C33.6986 10.7506 31.294 10.7506 28.6603 10.7506ZM6.90358 46.6565C6.84633 46.8591 6.5028 46.9748 6.30241 47.1194C6.13065 46.888 5.873 46.6565 5.84438 46.3961C5.75849 45.8464 5.81575 45.2677 5.81575 44.6891C5.81575 42.9241 5.873 42.8952 7.87691 43.2714C7.56201 44.3997 7.27574 45.5281 6.90358 46.6565ZM7.93416 38.9314C7.87691 40.4359 7.21848 41.1014 5.72987 41.1592C5.1287 41.1882 4.4989 41.1882 3.89773 41.1592C2.66676 41.1014 1.89382 40.407 1.8652 39.1918C1.80794 35.9513 1.80794 32.6818 1.83657 29.4413C1.8652 28.1683 2.6095 27.416 3.89773 27.3292C4.47027 27.3003 5.04282 27.3003 5.58673 27.3292C7.16123 27.3871 7.84828 28.0236 7.90553 29.6149C7.96279 31.2062 7.90553 32.7686 7.90553 34.36C7.93416 35.8934 7.99142 37.4269 7.93416 38.9314ZM34.5002 41.1303C26.1983 41.1303 17.8964 41.1303 9.42278 41.1303C9.56591 40.4938 9.70905 39.9151 9.85218 39.1918C10.3675 39.1918 10.8255 39.1918 11.2835 39.1918C18.4117 39.1918 25.5113 39.2496 32.6394 39.1628C34.1567 39.1339 34.5288 39.7415 34.5002 41.1303ZM13.2302 33.0869C14.6043 33.0869 15.9784 33.0869 17.3525 33.0869C20.1866 33.0869 21.1313 34.0996 21.0454 37.2822C17.2953 37.2822 13.631 37.2822 9.96669 37.2822C9.48003 34.5625 10.6537 33.0869 13.2302 33.0869ZM26.456 33.0869C27.8301 33.0869 29.2042 33.0869 30.5783 33.0869C33.3551 33.0869 34.4143 34.3021 34.128 37.2822C30.4638 37.2822 26.7995 37.2822 23.1638 37.2822C22.7344 34.4757 23.8795 33.0869 26.456 33.0869ZM34.7578 27.6764C34.128 28.7759 34.2712 30.3383 34.128 31.293C30.9218 31.293 27.7156 31.1773 24.5379 31.3509C23.6791 31.4088 22.8489 32.2768 21.847 32.8554C20.9023 31.0326 19.0129 31.1773 17.1521 31.2352C15.6349 31.2641 14.1176 31.2062 12.6004 31.2641C11.713 31.293 10.8541 31.4956 9.79493 31.6402C9.79493 31.0326 9.79493 30.3383 9.79493 29.6439C9.73767 27.4739 8.85023 26.1719 6.78907 25.6511C6.01614 25.4486 5.78712 25.1303 5.81575 24.378C5.873 23.0471 5.90163 21.6873 5.81575 20.3563C5.75849 19.4305 6.1879 18.9965 6.98946 18.8807C8.10593 18.7071 9.25101 18.4468 10.3675 18.4468C18.0968 18.4178 25.8548 18.4178 33.5841 18.4178C38.1931 18.4178 38.2504 18.5046 38.2504 23.0471C38.2504 23.7994 38.2504 24.5516 38.2504 25.3328C38.1072 25.2171 37.9641 25.1303 37.821 25.0146C36.7617 25.8826 35.3876 26.577 34.7578 27.6764ZM38.2217 46.454C38.2217 46.6855 37.9641 46.888 37.7923 47.0905C37.5633 46.9169 37.1912 46.8012 37.1053 46.5697C36.7617 45.4992 36.4755 44.3997 36.1606 43.1556C36.9049 43.1556 37.4774 43.1556 38.2217 43.1556C38.2504 44.284 38.279 45.3835 38.2217 46.454ZM42.1723 39.0471C42.1437 40.4359 41.3994 41.1014 39.9966 41.1592C39.4813 41.1882 38.966 41.1882 38.4221 41.1592C36.7617 41.1014 36.1033 40.4359 36.0461 38.7867C36.0174 37.2533 36.0461 35.7198 36.0461 34.1864C36.0461 32.6529 36.0174 31.1194 36.0461 29.586C36.1033 28.0236 36.819 27.3581 38.3649 27.3003C38.9374 27.2713 39.51 27.2713 40.0825 27.3003C41.3707 27.3581 42.115 28.1104 42.1437 29.3835C42.2295 32.6529 42.2295 35.8645 42.1723 39.0471Z" fill="white"/>
</svg>
