<svg width="87" height="87" viewBox="0 0 87 87" fill="none" xmlns="http://www.w3.org/2000/svg">
<path d="M21.1257 0.0118057C23.8815 0.0118057 26.6374 -0.0147571 29.3671 0.0118057C31.2831 0.0383684 32.5429 1.02119 32.8579 2.58839C33.3041 4.79309 31.8868 6.59936 29.5246 6.62592C25.1676 6.67905 20.7845 6.62592 16.4275 6.65248C15.1677 6.65248 13.8816 6.62592 12.648 6.75874C9.18346 7.18374 6.66379 9.94626 6.6113 13.4791C6.53256 18.1276 6.58505 22.7495 6.58505 27.398C6.58505 27.7964 6.6113 28.1948 6.58505 28.5933C6.42757 30.5855 5.01025 31.9933 3.22549 31.9402C1.41447 31.8871 0.0758964 30.4527 0.0758964 28.4339C0.0234033 23.6792 0.0234033 18.8979 0.0496499 14.1166C0.102143 5.93529 5.79765 0.144619 13.9078 0.0383684C16.3225 -0.0147571 18.711 0.0118057 21.1257 0.0118057Z" fill="#359276"/>
<path d="M20.942 85.9153C18.0548 85.9153 15.1677 86.0746 12.3068 85.8887C5.6402 85.4637 0.233399 79.7527 0.0759199 72.9792C-0.0553131 67.9057 0.0234267 62.8323 0.0234267 57.7588C0.0234267 55.5541 1.38825 54.0666 3.30425 54.0931C5.194 54.1197 6.55883 55.6072 6.55883 57.8119C6.58507 62.4604 6.55883 67.0823 6.58507 71.7308C6.58507 72.5276 6.61132 73.3245 6.79505 74.0948C7.60869 77.3355 10.2333 79.3543 13.7504 79.4074C17.5037 79.4605 21.2569 79.4074 25.0102 79.4074C26.5325 79.4074 28.0548 79.3808 29.5771 79.434C31.6243 79.5136 32.9366 80.8418 32.9366 82.7277C32.9366 84.6137 31.6243 85.9684 29.5771 86.0215C26.69 86.0746 23.8291 86.0481 20.942 86.0481C20.942 85.9684 20.942 85.9418 20.942 85.9153Z" fill="#359276"/>
<path d="M65.01 86.0218C62.2279 86.0218 59.4195 86.0484 56.6373 86.0218C54.8263 85.9953 53.6715 85.1984 53.1728 83.7374C52.4904 81.6656 53.8814 79.5671 56.1387 79.4608C58.4484 79.3546 60.758 79.4077 63.0677 79.4077C66.0336 79.4077 68.9995 79.4343 71.9653 79.4077C76.5322 79.3812 79.3931 76.4593 79.4194 71.8639C79.4456 67.0826 79.3931 62.3279 79.4456 57.5466C79.4719 54.8903 81.9653 53.3231 84.17 54.4919C85.3773 55.1294 85.9548 56.1919 85.9548 57.52C85.981 62.6466 86.1385 67.7732 85.876 72.8733C85.4823 80.6562 79.8131 85.9156 72.0703 86.0218C69.7081 86.0484 67.3459 86.0218 65.01 86.0218Z" fill="#359276"/>
<path d="M65.2199 0.144716C68.1071 0.144716 70.9942 -0.0412225 73.8551 0.171279C80.2855 0.675971 85.5611 6.2807 85.771 12.8417C85.9285 17.9949 85.8498 23.1746 85.8235 28.3543C85.8235 30.4793 84.4849 31.9403 82.6214 31.9668C80.7317 31.9934 79.3406 30.5059 79.3144 28.3012C79.2881 23.759 79.3144 19.1902 79.2881 14.648C79.2881 9.4151 76.5585 6.67914 71.3616 6.67914C66.611 6.67914 61.8341 6.70571 57.0835 6.65258C54.5901 6.62602 53.0678 4.501 53.8289 2.26973C54.3014 0.888472 55.535 0.0650283 57.346 0.0650283C59.9706 0.0384656 62.5953 0.0650283 65.1937 0.0650283C65.2199 0.0650283 65.2199 0.118154 65.2199 0.144716Z" fill="#359276"/>
<path d="M53.8069 58.3028C54.7451 58.5524 55.5917 58.6432 56.3011 59.0063C58.063 59.9368 58.4062 62.0702 57.0562 63.5001C56.507 64.0674 55.8434 64.5214 55.2027 64.9753C55.0197 65.1114 54.7451 65.1341 54.5163 65.1341C45.2948 65.1341 36.0504 65.1114 26.8289 65.0887C24.8153 65.0887 23.328 63.5227 23.4424 61.639C23.5339 59.9595 25.4103 58.3482 27.1035 58.4843C27.2408 58.4843 27.3781 58.507 27.5383 58.507C27.7671 57.2815 28.2476 56.1694 29.1858 55.3069C30.4443 54.1495 31.9088 53.7863 33.5563 54.1722C34.0597 54.2856 34.2656 54.1722 34.4944 53.7636C35.3411 52.3565 37.103 51.6529 38.4988 52.1069C38.7734 52.1976 39.048 52.3565 39.2768 52.4473C39.2768 51.199 39.3455 49.9735 39.2539 48.7479C39.0709 46.1606 38.659 43.596 37.6979 41.1449C37.0115 39.42 36.0733 37.8767 34.7462 36.5604C34.586 36.3788 34.2427 36.2426 34.0139 36.2653C31.3138 36.7646 29.0027 35.9022 26.9434 34.2454C23.9687 31.8624 22.0008 28.7758 20.605 25.2806C20.0787 23.9416 19.3694 22.6933 18.7287 21.3997C18.6143 21.1954 18.4999 20.9912 18.4541 20.9004C21.1542 21.15 23.9 21.3316 26.623 21.6493C30.3299 22.0806 33.5792 23.4423 35.8216 26.597C37.2861 28.685 37.881 30.9772 37.4005 33.5191C37.3547 33.7007 37.3318 33.8823 37.2632 34.0412C37.1945 34.2 37.103 34.3589 36.9657 34.6312C33.6936 29.9786 29.14 26.9147 24.106 24.3955C24.2662 24.5544 24.4034 24.7359 24.5636 24.8721C26.8976 27.0055 29.2544 29.0935 31.5427 31.2723C33.419 33.0652 35.2496 34.8809 36.9657 36.81C38.7734 38.8299 39.6887 41.3037 40.215 43.9364C40.5353 45.5024 40.6955 47.0911 40.9472 48.7706C41.0845 48.3167 41.1989 47.9536 41.3133 47.5677C42.0227 45.0712 42.9608 42.6882 44.4024 40.5094C46.2558 37.6951 48.8186 35.8114 52.0221 34.6766C55.935 33.2922 59.7792 31.7943 63.6691 30.3418C64.0123 30.2056 64.3327 30.0694 64.653 29.8652C59.0698 30.3418 53.6925 31.4312 48.7958 34.5178C48.5898 33.5418 48.8415 32.7248 49.1619 31.9532C50.489 28.8439 52.9145 27.0055 56.1409 26.1658C58.5435 25.5303 60.9461 25.7799 63.2801 26.4608C65.5226 27.0963 67.7192 27.8226 69.9617 28.4807C70.3507 28.5942 70.7854 28.6396 71.2889 28.7077C70.671 29.207 70.0761 29.6155 69.5727 30.0921C68.1769 31.3858 66.8726 32.7475 65.431 33.9731C62.7538 36.2653 59.7105 37.8994 56.1638 38.3533C54.2188 38.603 52.434 38.2171 50.7865 37.1051C50.6263 36.9916 50.2831 37.037 50.1 37.1504C47.6288 38.6484 45.8897 40.7817 44.6083 43.301C43.0752 46.3195 42.2972 49.565 41.6337 52.7196C42.5032 52.47 43.3727 52.1069 44.288 51.9934C45.0202 51.9026 45.7982 52.0161 46.5304 52.1976C47.3771 52.4019 47.9262 53.0147 48.2008 53.8544C48.3152 54.2176 48.4296 54.5807 48.5669 54.9892C49.8254 54.5353 51.084 54.1268 52.2738 55.0346C53.3951 55.9197 53.6468 57.1907 53.8069 58.3028Z" fill="#359276"/>
</svg>
