<svg width="29" height="22" viewBox="0 0 29 22" fill="none" xmlns="http://www.w3.org/2000/svg">
<path d="M18.0626 1.85135V1.84562C21.1619 3.87185 24.1667 5.8708 27.1953 7.90025C24.1333 9.92304 21.1575 11.8911 18.0626 13.9474V13.9407V13.9337V13.9267V13.9198V13.9128V13.9058V13.8989V13.8919V13.885V13.8781V13.8711V13.8642V13.8572V13.8503V13.8434V13.8365V13.8295V13.8226V13.8157V13.8088V13.8019V13.795V13.7881V13.7812V13.7743V13.7674V13.7606V13.7537V13.7468V13.7399V13.7331V13.7262V13.7193V13.7125V13.7056V13.6988V13.6919V13.6851V13.6782V13.6714V13.6645V13.6577V13.6509V13.6441V13.6372V13.6304V13.6236V13.6168V13.61V13.6032V13.5964V13.5896V13.5828V13.576V13.5692V13.5624V13.5556V13.5488V13.5421V13.5353V13.5285V13.5217V13.515V13.5082V13.5015V13.4947V13.4879V13.4812V13.4745V13.4677V13.461V13.4542V13.4475V13.4408V13.434V13.4273V13.4206V13.4139V13.4072V13.4005V13.3937V13.387V13.3803V13.3736V13.3669V13.3602V13.3536V13.3469V13.3402V13.3335V13.3268V13.3201V13.3135V13.3068V13.3001V13.2935V13.2868V13.2801V13.2735V13.2668V13.2602V13.2535V13.2469V13.2402V13.2336V13.227V13.2203V13.2137V13.2071V13.2005V13.1938V13.1872V13.1806V13.174V13.1674V13.1608V13.1542V13.1475V13.1409V13.1343V13.1278V13.1212V13.1146V13.108V13.1014V13.0948V13.0882V13.0817V13.0751V13.0685V13.0619V13.0554V13.0488V13.0422V13.0357V13.0291V13.0226V13.016V13.0095V13.0029V12.9964V12.9898V12.9833V12.9768V12.9702V12.9637V12.9572V12.9506V12.9441V12.9376V12.9311V12.9246V12.918V12.9115V12.905V12.8985V12.892V12.8855V12.879V12.8725V12.866V12.8595V12.853V12.8465V12.8401V12.8336V12.8271V12.8206V12.8141V12.8077V12.8012V12.7947V12.7882V12.7818V12.7753V12.7689V12.7624V12.7559V12.7495V12.743V12.7366V12.7301V12.7237V12.7172V12.7108V12.7044V12.6979V12.6915V12.685V12.6786V12.6722V12.6658V12.6593V12.6529V12.6465V12.6401V12.6336V12.6272V12.6208V12.6144V12.608V12.6016V12.5952V12.5888V12.5824V12.576V12.5696V12.5632V12.5568V12.5504V12.544V12.5376V12.5312V12.5248V12.5185V12.5121V12.5057V12.4993V12.493V12.4866V12.4802V12.4738V12.4675V12.4611V12.4547V12.4484V12.442V12.4357V12.4293V12.4229V12.4166V12.4102V12.4039V12.3975V12.3912V12.3848V12.3785V12.3722V12.3658V12.3595V12.3531V12.3468V12.3405V12.3341V12.3278V12.3215V12.3152V12.3088V12.3025V12.2962V12.2899V12.2835V12.2772V12.2709V12.2646V12.2583V12.252V12.2457V12.2394V12.233V12.2267V12.2204V12.2141V12.2078V11.5828L17.5735 11.3444C17.5427 11.3179 17.4957 11.2803 17.4347 11.2425C17.3609 11.1967 17.2711 11.1532 17.1653 11.1229C17.0661 11.0945 16.971 11.0827 16.8839 11.0814C13.8242 11.0181 10.64 11.0756 7.55985 12.0099L7.55983 12.0099L7.55056 12.0128C4.81968 12.8702 2.82042 14.4146 1.35932 16.4289C1.67937 14.4542 2.2563 12.5778 3.26586 10.8113C5.16204 7.57922 8.1135 5.88399 11.8339 5.28896C13.003 5.10668 14.1578 5.02781 15.3616 4.9456C15.7749 4.91737 16.194 4.88874 16.6214 4.85541L16.7398 4.84617L16.8527 4.80947C16.886 4.79866 16.9132 4.79256 16.9945 4.77669L17.0031 4.77503C17.0847 4.75914 17.2159 4.73359 17.3717 4.68297L18.0626 4.45842V3.73193V3.72489V3.71785V3.71081V3.70377V3.69674V3.6897V3.68267V3.67564V3.66861V3.66158V3.65455V3.64753V3.6405V3.63348V3.62646V3.61943V3.61241V3.6054V3.59838V3.59136V3.58435V3.57733V3.57032V3.56331V3.5563V3.54929V3.54228V3.53527V3.52827V3.52126V3.51426V3.50725V3.50025V3.49325V3.48625V3.47925V3.47225V3.46525V3.45826V3.45126V3.44427V3.43727V3.43028V3.42329V3.4163V3.40931V3.40232V3.39533V3.38834V3.38135V3.37436V3.36738V3.36039V3.35341V3.34642V3.33944V3.33246V3.32548V3.3185V3.31151V3.30453V3.29755V3.29058V3.2836V3.27662V3.26964V3.26267V3.25569V3.24871V3.24174V3.23476V3.22779V3.22081V3.21384V3.20687V3.19989V3.19292V3.18595V3.17898V3.17201V3.16504V3.15806V3.15109V3.14412V3.13715V3.13018V3.12321V3.11625V3.10928V3.10231V3.09534V3.08837V3.0814V3.07443V3.06747V3.0605V3.05353V3.04656V3.03959V3.03263V3.02566V3.01869V3.01172V3.00476V2.99779V2.99082V2.98385V2.97688V2.96992V2.96295V2.95598V2.94901V2.94204V2.93507V2.92811V2.92114V2.91417V2.9072V2.90023V2.89326V2.88629V2.87932V2.87235V2.86538V2.85841V2.85143V2.84446V2.83749V2.83052V2.82354V2.81657V2.8096V2.80262V2.79565V2.78867V2.7817V2.77472V2.76775V2.76077V2.75379V2.74681V2.73984V2.73286V2.72588V2.7189V2.71192V2.70493V2.69795V2.69097V2.68399V2.677V2.67002V2.66303V2.65605V2.64906V2.64207V2.63508V2.62809V2.6211V2.61411V2.60712V2.60013V2.59314V2.58614V2.57915V2.57215V2.56515V2.55816V2.55116V2.54416V2.53716V2.53016V2.52315V2.51615V2.50915V2.50214V2.49513V2.48813V2.48112V2.47411V2.4671V2.46008V2.45307V2.44606V2.43904V2.43203V2.42501V2.41799V2.41097V2.40395V2.39693V2.3899V2.38288V2.37585V2.36882V2.36179V2.35476V2.34773V2.3407V2.33366V2.32663V2.31959V2.31255V2.30551V2.29847V2.29143V2.28438V2.27734V2.27029V2.26324V2.25619V2.24914V2.24209V2.23503V2.22797V2.22092V2.21386V2.2068V2.19973V2.19267V2.1856V2.17853V2.17146V2.16439V2.15732V2.15024V2.14317V2.13609V2.12901V2.12193V2.11484V2.10776V2.10067V2.09358V2.08649V2.0794V2.0723V2.06521V2.05811V2.05101V2.0439V2.0368V2.02969V2.02259V2.01547V2.00836V2.00125V1.99413V1.98701V1.97989V1.97277V1.96564V1.95852V1.95139V1.94426V1.93712V1.92999V1.92285V1.91571V1.90857V1.90142V1.89428V1.88713V1.87998V1.87282V1.86567V1.85851V1.85135Z" fill="white" stroke="#359276" stroke-width="2"/>
</svg>
