<svg width="18" height="17" viewBox="0 0 18 17" fill="none" xmlns="http://www.w3.org/2000/svg">
<path d="M14.0696 0C14.3478 0.0944444 14.6261 0.20463 14.7478 0.472222C14.8348 0.64537 14.887 0.834259 14.887 1.02315C14.887 4.12407 14.887 7.24074 14.887 10.3417C14.887 10.4046 14.8522 10.4833 14.8 10.5306C14.1565 11.0185 13.513 11.4907 12.887 11.963C12.8696 11.963 12.8696 11.9787 12.8348 11.9787C12.8348 8.61018 12.8348 5.24167 12.8348 1.85741C9.23478 1.85741 5.66957 1.85741 2.08696 1.85741C2.08696 5.8713 2.08696 9.88519 2.08696 13.9148C2.15652 13.9148 2.24348 13.9148 2.31304 13.9148C4.33043 13.9148 6.33043 13.9148 8.34783 13.9148C8.48696 13.9148 8.57391 13.962 8.66087 14.0565C9.06087 14.5917 9.47826 15.1111 9.87826 15.6306C9.91304 15.6778 9.93044 15.7093 9.98261 15.7722C9.89565 15.7722 9.84348 15.788 9.7913 15.788C6.90435 15.788 4.03478 15.788 1.14783 15.788C0.434783 15.8037 0 15.4259 0 14.7806C0 10.1843 0 5.6037 0 1.02315C0 0.487963 0.278261 0.173148 0.817391 0C5.23478 0 9.65217 0 14.0696 0Z" fill="white"/>
<path d="M12.4522 13.4897C13.2696 12.8916 14.0696 12.2934 14.8696 11.6953C15.6174 11.1443 16.3478 10.5777 17.0957 10.0267C17.4087 9.79063 17.7565 9.83785 17.9305 10.1054C18.0696 10.3101 18 10.499 17.8435 10.6879C17.1131 11.5851 16.3826 12.4823 15.6522 13.3795C14.7478 14.4971 13.8435 15.6147 12.9392 16.7166C12.8348 16.8582 12.7131 16.9684 12.5044 16.9999C12.2609 17.0314 12.087 16.9054 11.9652 16.7323C11.287 15.8666 10.6087 15.0008 9.93046 14.1351C9.51307 13.5999 9.07828 13.049 8.66089 12.5138C8.48698 12.2777 8.48698 12.0573 8.66089 11.8841C8.8348 11.711 9.09567 11.6795 9.35654 11.8369C9.91307 12.136 10.4522 12.4351 11.0087 12.7341C11.4957 12.9703 11.9652 13.2221 12.4522 13.4897Z" fill="white"/>
<path d="M7.46088 6.04446C8.45218 6.04446 9.46088 6.04446 10.4522 6.04446C10.9739 6.04446 11.3565 6.28057 11.4957 6.65835C11.7217 7.2565 11.2696 7.87039 10.5565 7.90187C10.4348 7.90187 10.313 7.90187 10.1913 7.90187C8.27827 7.90187 6.36522 7.90187 4.45218 7.90187C3.91305 7.90187 3.53044 7.65002 3.39131 7.22502C3.20001 6.65835 3.65218 6.0602 4.31305 6.0602C5.35653 6.02872 6.40001 6.04446 7.46088 6.04446Z" fill="white"/>
<path d="M7.44348 8.83048C8.46956 8.83048 9.51304 8.81474 10.5391 8.83048C11.1304 8.84622 11.5478 9.25548 11.5478 9.75919C11.5478 10.2786 11.0957 10.6721 10.5043 10.6879C10.2783 10.6879 10.0348 10.6879 9.8087 10.6879C8.01739 10.6879 6.24348 10.6879 4.45217 10.6879C3.89565 10.6879 3.51304 10.436 3.37391 9.9953C3.2 9.44437 3.63478 8.84622 4.27826 8.83048C5.33913 8.81474 6.38261 8.83048 7.44348 8.83048Z" fill="white"/>
<path d="M7.44348 3.25822C8.46957 3.25822 9.51305 3.25822 10.5391 3.25822C11.0783 3.25822 11.4783 3.60451 11.5304 4.09248C11.6 4.6434 11.1478 5.09988 10.5391 5.11562C10.2261 5.13136 9.91305 5.11562 9.60001 5.11562C7.86088 5.11562 6.13914 5.11562 4.40001 5.11562C3.87827 5.11562 3.49566 4.84803 3.35653 4.42303C3.18261 3.85636 3.63479 3.25822 4.29566 3.25822C5.35653 3.24248 6.40001 3.25822 7.44348 3.25822Z" fill="white"/>
</svg>
