<svg width="83" height="175" viewBox="0 0 83 175" fill="none" xmlns="http://www.w3.org/2000/svg">
<path d="M5.56848 203.167C5.55907 203.167 5.50258 203.035 5.40844 202.781C5.30489 202.5 5.16367 202.124 4.9848 201.635C4.80593 201.128 4.56117 200.507 4.32581 199.756C4.09987 198.994 3.8551 198.13 3.56326 197.153C2.49005 193.215 1.48273 187.333 1.49215 180.022C1.52039 172.711 2.6595 164.028 5.07894 154.677C7.47014 145.318 11.1605 135.347 14.9356 124.888C18.7107 114.429 22.0809 104.356 23.9073 94.8926C25.7713 85.4485 26.1384 76.7091 25.423 69.4733C24.6887 62.2281 22.9753 56.5334 21.4031 52.7839C20.9983 51.8536 20.6311 51.0266 20.3205 50.3031C19.991 49.5889 19.6615 49.0156 19.4261 48.527C19.1908 48.0665 19.0119 47.7 18.8801 47.4369C18.7577 47.1926 18.7012 47.061 18.7107 47.061C18.7201 47.061 18.7954 47.1738 18.9272 47.4181C19.0684 47.6812 19.2661 48.0289 19.5203 48.4894C19.7745 48.9687 20.1134 49.5325 20.4523 50.2467C20.7818 50.9609 21.1583 51.7878 21.582 52.7181C23.2106 56.4582 24.9805 62.1717 25.7619 69.4451C26.5244 76.7185 26.1855 85.4954 24.3497 94.9866C22.5328 104.487 19.1719 114.598 15.3969 125.058C11.6124 135.517 7.92202 145.468 5.51199 154.79C3.07372 164.103 1.89696 172.748 1.83106 180.022C1.77457 187.304 2.7254 193.168 3.74213 197.106C4.00573 198.083 4.2505 198.957 4.45761 199.718C4.67414 200.47 4.90949 201.09 5.06953 201.607C5.22957 202.105 5.35195 202.481 5.44609 202.772C5.53082 203.026 5.56848 203.167 5.56848 203.167Z" fill="#455A64"/>
<path d="M31.1656 176.967C37.9155 178.461 42.7168 178.443 51.2554 173.772C57.3181 170.455 62.8725 166.32 68.2292 161.96C56.4426 160.954 38.1886 167.467 31.1656 176.967Z" fill="#359276"/>
<path d="M30.6196 176.272C26.2608 172.739 22.1092 164.291 21.8173 157.525C21.5255 150.759 23.4742 143.908 27.287 138.307C32.9731 142.649 36.5411 149.622 36.7388 156.754C36.9365 163.886 36.0516 171.62 30.6196 176.272Z" fill="#359276"/>
<path d="M36.5505 172.334C40.9657 168.547 43.8841 163.313 46.0212 157.91C47.6592 153.756 48.9113 149.358 48.723 144.895C48.5347 140.441 46.7649 135.892 43.2534 133.12C41.8695 138.467 38.198 142.874 34.5829 147.047C30.9679 151.219 27.2022 155.514 25.5642 160.785C23.9261 166.057 26.0066 173.218 30.6102 176.263L30.5537 176.103C32.7283 175.154 34.7524 173.876 36.5505 172.334Z" fill="#359276"/>
<path d="M64.3694 147.404C60.18 146.088 57.2899 146.304 52.9688 147.178C48.6477 148.052 44.5525 151.792 42.2649 155.561C40.2973 158.793 39.9396 162.74 38.4239 166.217C36.5693 170.474 33.3308 172.767 30.629 176.272C36.4281 178.969 37.5013 178.264 43.4323 176.554C49.5609 174.787 55.5389 167.645 57.6853 161.866C60.6602 153.803 59.747 151.069 64.3694 147.404Z" fill="#359276"/>
<path d="M60.406 141.183C60.1612 140.647 59.5211 140.431 58.9468 140.3C57.0451 139.877 55.0493 139.867 53.1383 140.253C53.1665 138.909 53.1853 137.509 52.4134 136.362C52.0368 135.808 51.472 135.385 50.813 135.253C49.6268 135.009 48.9301 135.751 48.337 136.494C46.8967 138.307 45.7387 140.356 44.9291 142.527L48.4312 154.123C51.3684 154.527 54.2962 152.892 56.2073 150.618C58.1184 148.344 59.201 145.515 60.246 142.743C60.4342 142.245 60.6319 141.672 60.406 141.183Z" fill="#359276"/>
<path d="M57.3182 139.52C57.3087 138.505 56.6968 137.509 55.7931 137.048C54.8893 136.578 53.7219 136.653 52.8841 137.236L51.6697 137.142C51.1331 138.73 50.8883 140.412 50.9448 142.094C52.6958 141.69 54.4374 141.286 56.1885 140.882C56.4426 140.826 56.7156 140.76 56.9133 140.591C57.224 140.337 57.3182 139.914 57.3182 139.52Z" fill="#359276"/>
<path d="M43.2628 133.13C43.2722 133.12 43.4134 133.214 43.6864 133.411C43.95 133.609 44.3737 133.881 44.7879 134.37C45.6822 135.272 46.7084 136.879 47.358 139.059C48.0169 141.239 48.3935 143.955 48.2805 146.953C48.2052 149.932 47.6875 153.296 46.2283 156.453C43.4793 162.853 39.2335 167.627 36.1928 170.925C34.6488 172.579 33.3591 173.866 32.4553 174.75C32.0317 175.154 31.6834 175.492 31.4104 175.755C31.1656 175.981 31.0338 176.093 31.0244 176.084C31.015 176.075 31.1185 175.934 31.3445 175.689C31.6081 175.407 31.9281 175.05 32.3235 174.618C33.1802 173.697 34.4323 172.363 35.9386 170.69C38.904 167.335 43.0651 162.571 45.7764 156.265C47.2073 153.146 47.7157 149.903 47.8287 146.943C47.9699 143.983 47.6215 141.314 47.019 139.163C46.426 137.011 45.4751 135.422 44.6467 134.502C44.2701 134.003 43.8747 133.712 43.6299 133.487C43.3758 133.261 43.2534 133.139 43.2628 133.13Z" fill="#263238"/>
<path d="M64.3694 147.404C64.3317 147.498 63.315 147.065 61.5734 146.821C60.7073 146.708 59.6623 146.671 58.5232 146.831C57.384 147 56.1602 147.366 54.9552 147.93C52.5263 149.058 50.6435 150.655 49.2879 151.773C47.9416 152.92 47.132 153.672 47.0849 153.615C47.0473 153.578 47.7628 152.741 49.0619 151.52C50.3705 150.326 52.2439 148.663 54.7575 147.488C56.0096 146.906 57.2899 146.539 58.4761 146.389C59.6717 146.257 60.7543 146.323 61.6392 146.492C62.5242 146.661 63.2208 146.878 63.6821 147.084C64.134 147.253 64.3788 147.376 64.3694 147.404Z" fill="#263238"/>
<path d="M48.2429 147.018C48.1205 147 48.5724 145.036 50.0033 143.062C51.4155 141.07 53.1289 140.018 53.1853 140.121C53.2795 140.234 51.7544 141.427 50.3987 143.344C49.0243 145.242 48.3841 147.065 48.2429 147.018Z" fill="#263238"/>
<path d="M60.566 141.775C60.519 141.784 60.5001 141.568 60.3307 141.249C60.1612 140.939 59.7752 140.572 59.1539 140.375C57.9018 139.971 56.0378 140.074 54.0232 140.45C53.6655 140.506 53.3171 140.553 52.9688 140.591L52.6487 140.629L52.7052 140.318C53.0065 138.58 52.7146 136.945 51.9427 136.146C51.5849 135.733 51.1801 135.535 50.8883 135.432C50.5964 135.319 50.427 135.291 50.427 135.253C50.427 135.235 50.6058 135.206 50.9353 135.272C51.2554 135.329 51.7355 135.507 52.178 135.939C53.11 136.785 53.4866 138.589 53.1853 140.412L52.9217 140.131C53.2512 140.093 53.5996 140.046 53.9479 139.99C55.9719 139.614 57.9489 139.538 59.2763 140.074C59.9447 140.337 60.3777 140.807 60.5001 141.192C60.6319 141.549 60.5849 141.775 60.566 141.775Z" fill="#263238"/>
<g opacity="0.3">
<path d="M51.0954 153.296C52.0462 147.986 51.0954 141.925 46.972 138.429C48.723 143.523 48.3841 149.302 46.6707 154.405C44.9668 159.517 41.7283 164.488 38.1132 168.482L30.8643 176.215C35.4396 173.349 39.2241 170.831 43.1122 167.072C47.0002 163.332 50.154 158.605 51.0954 153.296Z" fill="black"/>
</g>
<g opacity="0.3">
<path d="M52.9217 137.029C53.4678 137.584 53.8067 138.335 53.8443 139.115C54.4468 138.984 55.0588 138.937 55.6707 139.031C56.2732 139.134 56.8569 139.388 57.2899 139.82C55.8307 139.698 54.3433 139.848 52.9406 140.271C53.1665 139.247 53.1194 138.063 52.9217 137.029Z" fill="black"/>
</g>
<path d="M30.6196 176.272C30.6102 176.281 30.4878 176.197 30.2524 176.009C30.0265 175.821 29.6782 175.558 29.2922 175.154C28.492 174.374 27.4188 173.124 26.515 171.32C25.6018 169.525 24.9523 167.147 24.9334 164.479C24.9334 161.819 25.6112 158.868 27.0516 156.153C28.492 153.428 30.3466 151.153 32.0882 149.18C33.8392 147.207 35.4679 145.487 36.7482 143.974C38.0379 142.47 38.9982 141.174 39.6195 140.253C40.2409 139.332 40.5515 138.796 40.5892 138.824C40.608 138.834 40.5421 138.975 40.4103 139.238C40.2785 139.501 40.0714 139.877 39.7796 140.365C39.2053 141.324 38.2827 142.658 37.0212 144.199C35.7597 145.75 34.1593 147.498 32.4365 149.481C30.7231 151.464 28.8968 153.719 27.4941 156.388C26.082 159.047 25.423 161.894 25.3947 164.488C25.3853 167.082 25.9878 169.403 26.8351 171.179C27.6729 172.964 28.6897 174.223 29.4334 175.032C30.1677 175.84 30.6572 176.225 30.6196 176.272Z" fill="#263238"/>
<path d="M67.3913 162.045C67.3913 162.082 66.8265 162.092 65.8192 162.101C64.8118 162.12 63.3432 162.167 61.5545 162.327C57.9866 162.655 52.9782 163.473 48.0358 165.879C43.1028 168.331 38.9323 171.094 35.9103 173.077C34.4511 174.035 33.2461 174.834 32.333 175.436C31.4857 175.99 31.0056 176.281 30.9867 176.253C30.9679 176.225 31.4104 175.877 32.22 175.276C33.0296 174.674 34.2252 173.819 35.7032 172.786C38.6781 170.728 42.8392 167.908 47.8098 165.437C52.837 162.994 57.9112 162.223 61.5169 161.979C63.3338 161.857 64.8024 161.866 65.8192 161.904C66.3275 161.913 66.7229 161.951 66.9865 161.969C67.2501 162.007 67.3913 162.026 67.3913 162.045Z" fill="#263238"/>
<path d="M1.65218 184.325C3.83626 167.523 12.0078 152.939 23.0694 140.074C34.1216 127.209 48.996 117.662 65.3108 112.945C60.4625 133.656 46.7743 152.159 28.3602 162.872C23.3142 165.813 17.9387 168.191 13.0621 171.414C8.19502 174.637 3.74212 178.875 1.65218 184.325Z" fill="#455A64"/>
<path d="M7.79963 240.633C10.0308 225.137 6.08625 210.675 -1.48274 202.34C-9.06114 194.004 -19.3697 188.742 -29.4805 183.762C-39.5913 178.781 -49.9657 173.744 -57.8548 165.7C-52.6205 185.321 -39.29 202.659 -21.6573 212.78C-15.8299 216.125 -9.54126 218.728 -4.22226 222.826C1.08733 226.923 5.84148 233.83 7.79963 240.633Z" fill="#455A64"/>
<path d="M10.0685 363.266C10.0685 363.266 10.059 363.041 10.0779 362.608C10.0967 362.157 10.1155 361.518 10.1532 360.691C10.2003 359 10.3791 356.519 10.4356 353.305C10.6521 346.896 10.7086 337.603 10.4733 326.138C10.2379 314.664 9.65423 301.019 8.95758 285.862C8.28918 270.704 7.47956 254.034 7.53604 236.517C7.54545 232.129 7.61135 227.816 7.43248 223.559C7.23479 219.302 6.83939 215.129 6.22747 211.051C5.01304 202.894 2.74423 195.236 0.381276 188.037C-0.776667 184.429 -2.00993 180.942 -3.02666 177.475C-4.09046 174.026 -4.74003 170.577 -5.32371 167.251C-6.36868 160.569 -6.73583 154.264 -6.77349 148.522C-6.83939 137.02 -5.53082 127.764 -4.25049 121.477C-4.09045 120.688 -3.93041 119.945 -3.7892 119.25C-3.61975 118.564 -3.4597 117.916 -3.30908 117.314C-3.01724 116.111 -2.75364 115.097 -2.49946 114.298C-2.25469 113.499 -2.07582 112.888 -1.94402 112.456C-1.81223 112.042 -1.73691 111.836 -1.73691 111.836C-1.73691 111.836 -1.78398 112.052 -1.89695 112.475C-2.01933 112.907 -2.18879 113.527 -2.40532 114.326C-2.65008 115.134 -2.89485 116.149 -3.16786 117.352C-3.30907 117.953 -3.4597 118.602 -3.61975 119.288C-3.76096 119.983 -3.90217 120.725 -4.06221 121.515C-5.28605 127.801 -6.52873 137.048 -6.42517 148.513C-6.36868 154.245 -5.9827 160.522 -4.9189 167.176C-4.3258 170.483 -3.67623 173.913 -2.60301 177.343C-1.58628 180.783 -0.343616 184.278 0.814326 187.887C3.1867 195.095 5.47434 202.772 6.69818 210.966C7.31952 215.054 7.72433 219.255 7.92202 223.521C8.10089 227.787 8.04441 232.129 8.02558 236.499C7.9691 253.996 8.7693 270.667 9.40947 285.824C10.0873 300.982 10.6333 314.636 10.8216 326.119C11.0099 337.593 10.9063 346.887 10.6333 353.305C10.5486 356.51 10.3415 359 10.2567 360.691C10.2003 361.528 10.1626 362.157 10.1344 362.608C10.0967 363.041 10.0685 363.266 10.0685 363.266Z" fill="#455A64"/>
<path d="M7.51721 75.9949C4.57057 66.7763 -3.21495 58.7887 -12.808 57.3604C-10.4074 64.2485 -10.944 72.0951 -14.2578 78.5885C-16.9596 83.8885 -21.3937 88.277 -23.3707 93.8871C-25.6583 100.409 -24.2368 107.795 -20.9795 113.894C-17.7316 119.992 -11.0664 125.593 -5.28606 129.343C-3.91159 125.518 -2.15115 122.595 -0.739023 119.626C1.6051 114.674 3.5915 110.078 5.72851 104.421C9.12703 95.3625 10.4544 85.2136 7.51721 75.9949Z" fill="#359276"/>
<path d="M37.3978 71.2493C30.4972 71.2118 21.6667 73.063 15.5946 76.3802C9.52242 79.6974 4.26932 85.0914 2.60301 91.8009C1.16264 97.5708 2.46179 103.67 1.81221 109.58C1.01201 116.826 -1.53922 123.413 -7.33835 127.848C-1.88755 133.43 11.0569 129.775 18.5883 123.676C26.1196 117.587 30.5913 108.368 32.7189 98.924C34.8277 89.4892 34.8559 81.793 37.3978 71.2493Z" fill="#359276"/>
<path d="M23.1165 61.7768C22.4951 61.0909 21.4408 61.0533 20.5182 61.1284C17.468 61.3822 14.4649 62.2843 11.7818 63.7596C11.264 61.9648 10.7086 60.0948 9.41886 58.7416C8.11971 57.3978 5.84148 56.7964 4.36346 57.9334C3.60091 58.5254 3.17727 59.4464 2.82894 60.3485C1.51096 63.7503 0.729588 67.3494 0.522476 70.9861L11.1887 86.7639C15.7923 86.0121 19.4167 82.1781 21.2242 77.8836C23.0317 73.5891 23.333 68.8341 23.6154 64.1825C23.6625 63.3556 23.6813 62.4159 23.1165 61.7768Z" fill="#359276"/>
<path d="M17.7033 60.7151C17.2138 59.1928 15.8299 57.99 14.2578 57.7081C12.6762 57.4261 10.9722 58.0745 9.98372 59.3338L8.11972 59.7566C8.05382 62.3878 8.47745 65.0378 9.34356 67.5187C11.7818 66.0997 14.2107 64.6807 16.649 63.2618C17.0067 63.055 17.3738 62.8295 17.5998 62.4912C17.9481 61.9932 17.8916 61.3072 17.7033 60.7151Z" fill="#359276"/>
<path d="M0.183572 64.0888C0.192986 64.0794 0.381268 64.2391 0.710763 64.568C1.04967 64.8875 1.53922 65.3856 2.11348 66.0622C3.25259 67.4248 4.83417 69.5109 6.14274 72.4241C7.49838 75.309 8.56218 79.0209 8.93875 83.2308C9.31532 87.4407 8.9105 92.1111 7.90319 96.8661C6.9147 101.63 5.41784 106.028 3.86451 109.938C2.31117 113.847 0.710767 117.286 -0.682529 120.133C-2.07583 122.99 -3.27143 125.264 -4.09988 126.834C-4.50469 127.585 -4.82477 128.177 -5.07895 128.629C-5.30489 129.033 -5.43669 129.249 -5.4461 129.239C-5.46493 129.23 -5.36137 129.004 -5.16367 128.582C-4.93773 128.121 -4.6459 127.51 -4.26933 126.74C-3.49737 125.142 -2.33942 122.849 -0.993199 119.974C0.353027 117.108 1.92519 113.668 3.45029 109.759C4.97538 105.859 6.44399 101.48 7.43248 96.7533C8.43038 92.0359 8.84461 87.4125 8.49628 83.259C8.14796 79.1054 7.13123 75.4312 5.83207 72.5556C4.57057 69.6519 3.05489 67.5563 1.97227 66.1656C1.42624 65.4702 0.964946 64.9533 0.644865 64.615C0.334197 64.2955 0.174158 64.0982 0.183572 64.0888Z" fill="#263238"/>
<path d="M37.4919 70.9863C37.4919 71.0991 35.5526 70.8923 32.4836 71.24C31.7116 71.334 30.8738 71.4374 29.9888 71.6347C29.0945 71.7851 28.1625 72.067 27.174 72.3301C25.2253 72.9409 23.1353 73.7679 21.0548 74.8861C18.9931 76.0326 17.1667 77.3482 15.604 78.6638C14.8508 79.3498 14.1165 79.9888 13.5046 80.6654C12.855 81.3044 12.3184 81.9528 11.8289 82.5542C9.88958 84.9599 9.01406 86.689 8.91992 86.642C8.89168 86.6232 9.1082 86.2003 9.52242 85.4298C9.72012 85.0445 9.98372 84.5746 10.3415 84.0672C10.6898 83.5503 11.0569 82.9489 11.5559 82.3475C12.036 81.7273 12.5632 81.0601 13.2128 80.3929C13.8153 79.6975 14.5496 79.0397 15.3121 78.3349C16.8749 76.9817 18.7295 75.6285 20.8194 74.4727C22.9282 73.3356 25.0558 72.5086 27.0422 71.9166C28.0495 71.6629 28.9909 71.3904 29.9041 71.2588C30.8079 71.0709 31.6645 70.9863 32.4459 70.9205C33.2273 70.8172 33.9334 70.8359 34.5547 70.8172C35.176 70.789 35.7126 70.8172 36.1457 70.8641C37.0118 70.9017 37.4919 70.9487 37.4919 70.9863Z" fill="#263238"/>
<path d="M7.59253 76.1923C7.53604 76.1923 7.47014 75.4311 7.55487 74.2001C7.6396 72.9691 7.92202 71.2776 8.51511 69.4827C9.1082 67.6879 9.89899 66.1655 10.5674 65.1225C11.2358 64.0794 11.7442 63.5061 11.7912 63.5437C11.923 63.6283 10.1343 66.1092 8.9764 69.6331C7.79022 73.1476 7.74315 76.2017 7.59253 76.1923Z" fill="#263238"/>
<path d="M23.6343 62.5945C23.5872 62.6227 23.4648 62.2938 23.0694 61.8803C22.674 61.4669 21.9021 61.0816 20.8665 61.0534C19.8309 61.0252 18.5977 61.2695 17.2797 61.7018C15.9523 62.1153 14.5872 62.8013 13.128 63.5248C12.6197 63.7692 12.1113 64.0135 11.6218 64.2202L11.3299 64.3518L11.2923 64.0323C10.9345 61.2601 9.68246 58.9014 8.11029 58.0557C7.35716 57.6046 6.63227 57.5013 6.14273 57.5013C5.6532 57.4919 5.38019 57.5294 5.37077 57.4919C5.36136 57.4731 5.62495 57.3697 6.14273 57.3321C6.64169 57.2851 7.43247 57.3321 8.27033 57.7832C9.10819 58.2154 9.93664 59.033 10.5391 60.1231C11.1605 61.2037 11.5559 62.5381 11.7724 63.9759L11.4335 63.788C11.9136 63.5812 12.4126 63.3369 12.9209 63.0926C15.7828 61.589 18.6824 60.5647 20.8947 60.7151C21.9962 60.7809 22.8435 61.2695 23.22 61.7582C23.4083 62.0025 23.5213 62.2092 23.5778 62.3596C23.6248 62.5099 23.6531 62.5851 23.6343 62.5945Z" fill="#263238"/>
<g opacity="0.3">
<path d="M14.8038 84.2832C13.74 75.8633 8.6469 67.6972 0.833147 64.3706C5.84148 71.2023 8.86343 79.547 8.69397 88.0139C8.52452 96.4713 5.98269 105.446 2.42414 113.133L-5.43669 129.267C0.0988383 122.83 5.19191 116.14 9.26824 108.697C13.3446 101.254 15.8582 92.7031 14.8038 84.2832Z" fill="black"/>
</g>
<g opacity="0.3">
<path d="M9.95547 59.033C11.0381 59.6062 11.8948 60.5835 12.3184 61.7299C13.1563 61.2601 14.0601 60.8936 15.0203 60.762C15.9711 60.6305 16.9784 60.7432 17.8257 61.1943C15.5757 61.683 13.4199 62.6039 11.5088 63.8913C11.3488 62.2374 10.7274 60.4895 9.95547 59.033Z" fill="black"/>
</g>
<path d="M-9.63541 365.146C-9.63541 365.146 -9.61658 364.939 -9.56009 364.535C-9.49419 364.112 -9.40005 363.52 -9.27767 362.749C-9.01407 361.171 -8.6375 358.868 -8.14796 355.899C-7.15948 349.941 -5.72853 341.343 -3.96808 330.724C-2.23587 320.086 -0.24007 307.419 1.68983 293.304C2.64067 286.247 3.62915 278.833 4.44818 271.127C5.24839 263.421 5.8509 255.415 5.76617 247.211C5.69086 239.007 4.86241 230.992 3.08313 223.455C1.36034 215.909 -1.17207 208.852 -3.99632 202.33C-9.72013 189.287 -16.536 178.349 -22.4104 169.327C-28.3131 160.306 -33.3968 153.221 -36.9647 148.353C-38.7534 145.947 -40.1467 144.068 -41.107 142.78C-41.5777 142.151 -41.9354 141.672 -42.1896 141.333C-42.4344 141.004 -42.5473 140.835 -42.5473 140.835C-42.5473 140.835 -42.4061 140.986 -42.1519 141.305C-41.8883 141.634 -41.5212 142.104 -41.0317 142.724C-40.0526 143.974 -38.6216 145.825 -36.8141 148.24C-33.1991 153.07 -28.0683 160.137 -22.128 169.13C-16.2159 178.133 -9.35298 189.061 -3.59151 202.142C-0.748436 208.683 1.80281 215.759 3.54443 223.342C5.34253 230.907 6.17098 238.96 6.2463 247.192C6.33102 255.424 5.72851 263.459 4.9189 271.165C4.09045 278.88 3.10196 286.294 2.1323 293.351C0.174156 307.466 -1.8593 320.133 -3.63858 330.761C-5.40844 341.39 -6.92413 349.979 -7.9691 355.918C-8.4963 358.868 -8.91051 361.171 -9.19294 362.749C-9.33415 363.52 -9.44712 364.112 -9.52243 364.525C-9.57892 364.939 -9.63541 365.146 -9.63541 365.146Z" fill="#455A64"/>
<path d="M7.79964 216.887C7.79022 216.887 7.74316 216.774 7.65843 216.539C7.5737 216.285 7.45131 215.947 7.30069 215.515C6.99002 214.584 6.53814 213.269 5.96388 211.568C4.79652 208.147 3.02666 203.223 0.710772 197.19C-1.5957 191.157 -4.48585 184.015 -7.7149 176.103C-10.9345 168.181 -14.4743 159.47 -17.8634 150.204C-21.2336 140.929 -24.0767 131.946 -26.1384 123.638C-28.2095 115.331 -29.5369 107.729 -30.2148 101.292C-30.902 94.8549 -31.062 89.6113 -30.9867 85.9934C-30.9961 84.1798 -30.8738 82.7796 -30.8455 81.8305C-30.8173 81.37 -30.7984 81.0129 -30.789 80.7498C-30.7702 80.5055 -30.7608 80.3833 -30.7514 80.3833C-30.742 80.3833 -30.742 80.5055 -30.742 80.7498C-30.742 81.0129 -30.7514 81.3794 -30.7514 81.8305C-30.7514 82.7796 -30.8455 84.1798 -30.7984 85.9934C-30.8173 89.6019 -30.6007 94.8361 -29.8759 101.254C-29.1604 107.673 -27.7953 115.256 -25.7054 123.535C-23.6248 131.814 -20.7818 140.779 -17.4115 150.045C-14.0224 159.301 -10.5015 168.012 -7.30068 175.943C-4.09986 183.865 -1.23796 191.016 1.03086 197.077C3.30909 203.129 5.03188 208.072 6.14275 211.521C6.71701 213.24 7.1124 214.584 7.39483 215.496C7.52663 215.937 7.63018 216.276 7.7055 216.529C7.7714 216.764 7.80905 216.887 7.79964 216.887Z" fill="#455A64"/>
<path d="M52.9029 100.202C57.6947 95.3812 60.6131 89.0005 62.5995 82.4977C64.1246 77.5078 65.1696 72.2548 64.5388 67.0769C63.9081 61.8991 61.4133 56.7588 57.064 53.8645C55.9531 60.217 52.0839 65.7049 48.2523 70.911C44.4207 76.1076 40.4386 81.4734 39.017 87.7695C37.6049 94.0656 40.6927 102.222 46.3506 105.342L46.2753 105.164C48.7136 103.839 50.9542 102.166 52.9029 100.202Z" fill="#359276"/>
<path d="M83 68.5522C77.9917 67.4058 74.6402 67.932 69.6884 69.351C64.7365 70.77 60.3024 75.5155 57.9866 80.1107C56.0002 84.067 55.9437 88.6998 54.5033 92.8909C52.7429 98.0217 49.1749 101.001 46.3506 105.342C53.3548 107.945 54.5504 107.024 61.3003 104.487C68.2857 101.856 74.5837 92.9755 76.5419 86.0404C79.2814 76.3613 77.954 73.2508 83 68.5522Z" fill="#359276"/>
<path d="M77.8034 61.6641C77.4645 61.0627 76.7019 60.8654 76.0241 60.7714C73.7647 60.4613 71.4394 60.621 69.2553 61.26C69.1706 59.7001 69.0576 58.0556 68.0503 56.7964C67.5608 56.1856 66.8547 55.7533 66.0827 55.6499C64.68 55.4714 63.9269 56.4111 63.315 57.332C61.7993 59.5873 60.6508 62.0776 59.8976 64.6806L65.0566 77.8742C68.521 78.081 71.7783 75.8914 73.7929 73.0629C75.8076 70.2437 76.8055 66.842 77.7751 63.506C77.9446 62.9045 78.114 62.2185 77.8034 61.6641Z" fill="#359276"/>
<path d="M74.0471 60.0101C73.9436 58.8261 73.1339 57.7266 72.0325 57.2661C70.931 56.8057 69.5848 57.003 68.6622 57.7548L67.2407 57.7642C66.7606 59.6624 66.6382 61.6546 66.8641 63.5998C68.8599 62.9702 70.8651 62.3312 72.8609 61.7016C73.1528 61.6076 73.4634 61.5137 73.68 61.2975C74.0189 60.978 74.0848 60.4706 74.0471 60.0101Z" fill="#359276"/>
<path d="M57.064 53.8645C57.0734 53.8457 57.2523 53.9491 57.5817 54.1558C57.9112 54.3719 58.429 54.6444 58.9468 55.1801C60.0671 56.1574 61.4039 57.9241 62.3641 60.4143C63.3244 62.8858 64.021 66.015 64.1717 69.5202C64.3599 72.9971 64.0681 76.9533 62.6654 80.7686C61.3945 84.612 59.5681 88.042 57.723 91.0115C55.8589 93.9716 53.9667 96.4994 52.3286 98.5668C50.6906 100.634 49.3067 102.26 48.337 103.378C47.8757 103.904 47.5086 104.327 47.2168 104.656C46.9532 104.947 46.8119 105.088 46.8025 105.079C46.7931 105.07 46.9061 104.9 47.1414 104.59C47.4145 104.243 47.7628 103.801 48.1958 103.256C49.109 102.1 50.4552 100.437 52.0556 98.3507C55.2094 94.1689 59.6246 88.2205 62.1947 80.6088C63.5786 76.8406 63.861 72.9971 63.7104 69.539C63.588 66.0714 62.9384 62.9891 62.0346 60.5365C61.1309 58.0744 59.8694 56.3171 58.815 55.321C58.3255 54.776 57.8359 54.4753 57.5253 54.2404C57.2146 54.0148 57.0546 53.8833 57.064 53.8645Z" fill="#263238"/>
<path d="M83 68.5522C82.9718 68.6556 81.7385 68.2327 79.6956 68.1011C78.6695 68.0448 77.4456 68.1011 76.1277 68.3831C74.8097 68.6932 73.4164 69.2194 72.0607 69.99C69.3306 71.5405 67.2878 73.5797 65.8097 75.0175C64.36 76.4928 63.4938 77.4419 63.4279 77.3855C63.3997 77.3667 63.588 77.1036 63.9551 76.6432C64.3129 76.1827 64.8589 75.5437 65.5556 74.7731C66.9771 73.2602 69.0105 71.1552 71.816 69.5577C73.2093 68.7683 74.6685 68.2233 76.0335 67.932C77.408 67.6595 78.6789 67.6407 79.7239 67.744C80.7689 67.8568 81.6067 68.0354 82.1527 68.2233C82.7082 68.4112 83.0094 68.524 83 68.5522Z" fill="#263238"/>
<path d="M64.1717 69.5954C64.0493 69.586 64.407 67.2649 65.885 64.8404C67.3442 62.3971 69.2271 60.997 69.293 61.1003C69.3965 61.2131 67.7208 62.7354 66.3087 65.0941C64.8777 67.4434 64.3223 69.6423 64.1717 69.5954Z" fill="#263238"/>
<path d="M78.0482 62.3408C78.0011 62.3502 77.9634 62.1059 77.7375 61.7394C77.5115 61.3823 77.022 60.9876 76.2783 60.809C74.7814 60.4426 72.6068 60.7339 70.2815 61.3541C69.8672 61.4481 69.4624 61.542 69.067 61.6172L68.747 61.6736L68.7752 61.3541C68.9635 59.2961 68.4551 57.3979 67.476 56.5333C67.0147 56.0823 66.5158 55.8943 66.1675 55.8004C65.8191 55.7064 65.612 55.6876 65.612 55.6406C65.612 55.6218 65.8192 55.5748 66.2051 55.6218C66.5817 55.6594 67.156 55.8192 67.6926 56.289C68.8505 57.1911 69.4436 59.2397 69.2647 61.3917L68.9729 61.1379C69.3495 61.0628 69.7543 60.9688 70.1591 60.8748C72.4844 60.2546 74.772 59.9821 76.363 60.4707C77.1632 60.7057 77.6998 61.2131 77.8881 61.636C78.0952 62.0777 78.067 62.3408 78.0482 62.3408Z" fill="#263238"/>
<g opacity="0.3">
<path d="M68.088 76.6526C68.6905 70.3659 67.0242 63.3932 61.8934 59.7095C64.407 65.4887 64.5482 72.2547 63.042 78.3628C61.5357 84.4804 58.2219 90.5792 54.3809 95.5785L46.6519 105.276C51.7167 101.508 55.8966 98.2191 60.0765 93.4829C64.247 88.7279 67.476 82.9299 68.088 76.6526Z" fill="black"/>
</g>
<g opacity="0.3">
<path d="M68.6999 57.52C69.3871 58.112 69.8484 58.9672 69.9708 59.8599C70.658 59.6532 71.3735 59.5404 72.089 59.5968C72.8045 59.6532 73.5105 59.9069 74.0565 60.3674C72.3432 60.358 70.6298 60.6681 69.0294 61.2977C69.18 60.0855 69.02 58.7135 68.6999 57.52Z" fill="black"/>
</g>
<path d="M46.3506 105.342C46.3412 105.352 46.1906 105.258 45.9082 105.07C45.6258 104.872 45.2021 104.59 44.7126 104.158C43.7147 103.322 42.3496 101.959 41.1352 99.9388C39.9114 97.9372 38.9323 95.2308 38.6687 92.1203C38.4239 89.0193 38.9323 85.5329 40.3632 82.2345C41.7848 78.9361 43.7335 76.1076 45.5787 73.6455C47.4333 71.1741 49.1655 69.0221 50.5211 67.1333C51.8862 65.2538 52.8747 63.6563 53.5054 62.5193C54.1362 61.3822 54.4468 60.7338 54.4845 60.7526C54.5033 60.762 54.4374 60.9311 54.3056 61.2506C54.1832 61.5701 53.9667 62.0306 53.6749 62.6132C53.0912 63.7785 52.1404 65.423 50.8036 67.34C49.4762 69.2664 47.7628 71.4466 45.9364 73.918C44.1195 76.3895 42.2084 79.1898 40.8151 82.4319C39.4218 85.6645 38.9135 89.0569 39.1206 92.0921C39.3559 95.1274 40.2691 97.7774 41.4364 99.7696C42.585 101.771 43.8936 103.153 44.8444 104.017C45.7858 104.891 46.3883 105.295 46.3506 105.342Z" fill="#263238"/>
<path d="M11.2076 15.1199C5.88857 10.271 -2.08523 8.01565 -8.78812 10.6375C-4.68354 14.1802 -2.12289 19.4332 -1.84988 24.846C-1.62394 29.2532 -2.85719 33.7169 -2.03816 38.0584C-1.08733 43.1047 2.56536 47.3334 6.92412 50.0586C11.2829 52.7838 17.6469 53.9208 22.7588 54.2027C22.2316 51.2332 22.2692 48.696 22.0809 46.2715C21.7514 42.2213 21.3278 38.5282 20.6029 34.0928C19.4356 26.9979 16.5266 19.9688 11.2076 15.1199Z" fill="#359276"/>
<path d="M28.6897 1.02417C24.2368 3.55201 19.2284 8.00626 16.5548 12.3947C13.8718 16.7738 12.4973 22.1866 13.9094 27.1295C15.1239 31.377 18.2211 34.8258 19.991 38.8666C22.1657 43.8283 22.9659 49.0061 20.8853 54.0148C26.4679 55.5935 33.4438 48.4517 36.0233 41.7421C38.6122 35.0325 38.0662 27.449 35.9386 20.5891C33.811 13.7291 30.9679 8.74864 28.6897 1.02417Z" fill="#359276"/>
<path d="M15.9806 0.20658C15.331 -0.00955531 14.6343 0.356934 14.0695 0.751615C12.1961 2.03903 10.6051 3.73052 9.4283 5.67573C8.4304 4.70782 7.37601 3.71172 6.04861 3.32644C4.7118 2.94116 3.02667 3.39222 2.49006 4.67963C2.21705 5.33743 2.29237 6.08921 2.40534 6.80339C2.81956 9.48158 3.65741 12.0846 4.87184 14.5091L17.5904 20.7206C20.2734 18.5311 21.1866 14.7252 20.7535 11.2952C20.3205 7.86527 18.7577 4.68903 17.2138 1.59736C16.922 1.01474 16.5831 0.40392 15.9806 0.20658Z" fill="#359276"/>
<path d="M12.1019 1.52217C11.217 0.723414 9.88959 0.460294 8.7693 0.864372C7.64902 1.26845 6.79232 2.32093 6.62287 3.49558L5.58731 4.45409C6.51931 6.17377 7.7714 7.7243 9.25884 9.00232C10.3038 7.18867 11.3394 5.37501 12.3843 3.56136C12.535 3.29824 12.695 3.01632 12.7138 2.71561C12.7327 2.24576 12.4408 1.83228 12.1019 1.52217Z" fill="#359276"/>
<path d="M2.07584 10.1676C2.07584 10.1488 2.26412 10.1864 2.60303 10.271C2.94194 10.3461 3.44089 10.4871 4.06223 10.7032C5.3049 11.1449 7.103 11.9061 9.03291 13.2968C10.9911 14.65 13.0528 16.6516 14.8697 19.2265C16.6772 21.8013 18.1552 24.9681 19.2755 28.3981C20.4052 31.8375 21.0736 35.2298 21.5255 38.3215C21.9774 41.4132 22.2127 44.2229 22.3728 46.5722C22.5328 48.9309 22.5987 50.8385 22.6364 52.1541C22.6458 52.7649 22.6552 53.2724 22.6646 53.6765C22.6646 54.0242 22.6552 54.2027 22.6364 54.2121C22.6175 54.2121 22.5987 54.0336 22.5611 53.6859C22.5328 53.2818 22.4857 52.7837 22.4387 52.1729C22.3351 50.7915 22.1939 48.9027 22.015 46.6098C21.8173 44.2605 21.5443 41.4695 21.0736 38.3967C20.6029 35.3238 19.9251 31.969 18.8048 28.5578C17.7034 25.1561 16.2536 22.0362 14.4931 19.4896C12.7327 16.9429 10.7275 14.9601 8.82579 13.5882C6.94296 12.1786 5.20134 11.3892 3.98691 10.8912C2.77248 10.3837 2.06642 10.224 2.07584 10.1676Z" fill="#263238"/>
<path d="M28.652 0.817472C28.6991 0.902046 27.3905 1.50346 25.5454 2.86605C24.6228 3.54265 23.5966 4.44478 22.5422 5.53485C21.5161 6.64371 20.4805 7.94992 19.5674 9.43467C18.6636 10.9288 17.9764 12.4512 17.4586 13.8701C16.969 15.2985 16.6301 16.6235 16.4607 17.7512C16.0935 20.0159 16.1594 21.4443 16.0559 21.4443C16.0182 21.4443 15.99 21.0872 15.9711 20.4388C15.9523 20.1099 15.9429 19.7152 15.9806 19.2547C16.0088 18.7943 16.0182 18.268 16.1124 17.6948C16.2442 16.5389 16.5548 15.1763 17.0255 13.7104C17.5339 12.2538 18.2211 10.6939 19.1343 9.17155C20.0757 7.65861 21.1395 6.33361 22.2033 5.21535C23.286 4.12527 24.3592 3.22315 25.3288 2.57474C25.7901 2.22705 26.2608 1.97332 26.6562 1.73839C27.0516 1.49407 27.4094 1.31552 27.7012 1.18396C28.3037 0.92084 28.6332 0.78928 28.652 0.817472Z" fill="#263238"/>
<path d="M11.33 15.2233C11.2358 15.2985 9.92725 13.3532 9.37182 10.5717C8.78814 7.79012 9.22118 5.49721 9.34357 5.5254C9.49419 5.5348 9.28708 7.79012 9.85193 10.4777C10.398 13.1653 11.4712 15.1481 11.33 15.2233Z" fill="#263238"/>
<path d="M16.6207 0.53559C16.5925 0.573179 16.3948 0.422824 15.99 0.310058C15.5852 0.197292 14.9544 0.244278 14.2954 0.610767C12.9398 1.35314 11.5465 3.03524 10.2662 5.05563C10.0308 5.40332 9.79544 5.74162 9.55067 6.06112L9.35298 6.31485L9.15528 6.06112C7.9032 4.41662 6.24631 3.36414 4.93774 3.39233C4.29757 3.37353 3.79862 3.57087 3.47854 3.74002C3.15846 3.90917 2.989 4.03134 2.97017 4.00314C2.95134 3.98435 3.08314 3.8152 3.39381 3.59907C3.69506 3.37353 4.22226 3.11041 4.93774 3.08222C6.39693 2.96006 8.22328 4.06892 9.54126 5.76981H9.15528C9.38122 5.45971 9.61657 5.12141 9.85193 4.77371C11.1323 2.75332 12.6385 1.00545 14.1354 0.291264C14.8791 -0.0752258 15.6228 -0.0658287 16.0465 0.122115C16.4701 0.310058 16.6301 0.516796 16.6207 0.53559Z" fill="#263238"/>
<g opacity="0.3">
<path d="M18.9743 17.7606C15.1709 12.7331 8.86345 9.35952 2.59361 10.1113C8.34567 12.6579 13.3917 16.9148 16.423 22.4216C19.4544 27.9377 21.1395 34.6473 21.7044 40.9058L22.6364 54.1934C23.8131 48.0007 24.6039 41.8173 24.4721 35.5212C24.3309 29.2345 22.787 22.7881 18.9743 17.7606Z" fill="black"/>
</g>
<g opacity="0.3">
<path d="M6.49107 3.29846C7.39483 3.27027 8.31742 3.58038 9.01407 4.163C9.38122 3.55219 9.82369 2.97896 10.3885 2.53729C10.9534 2.10502 11.6406 1.80431 12.3561 1.77612C11.0852 2.92258 10.0402 4.31336 9.28708 5.8451C8.57161 4.849 7.52663 3.95627 6.49107 3.29846Z" fill="black"/>
</g>
<path d="M48.2429 103.266C48.2523 103.266 48.1864 103.378 48.0546 103.576C47.9134 103.792 47.7157 104.083 47.4709 104.45C46.9437 105.211 46.2188 106.376 45.1456 107.767C43.0933 110.633 39.8549 114.58 35.722 119.325C31.5986 124.08 26.5338 129.615 21.3937 136.146C18.8519 139.426 16.3289 142.997 14.0412 146.878C13.4952 147.864 12.9398 148.861 12.3843 149.857C11.8948 150.89 11.3958 151.933 10.8969 152.986C10.3791 154.029 10.0308 155.147 9.5789 156.237C9.10819 157.318 8.82577 158.474 8.49628 159.62C7.24419 164.216 6.72641 168.895 6.66051 173.406C6.64168 173.97 6.62285 174.534 6.60403 175.088C6.61344 175.652 6.62285 176.206 6.63227 176.761C6.6511 177.87 6.66992 178.969 6.68875 180.05C6.82055 182.221 6.87704 184.344 7.07473 186.412C7.73373 194.691 8.75046 202.114 9.42828 208.373C10.1343 214.622 10.4732 219.715 10.4074 223.239C10.3885 224.122 10.3885 224.902 10.3509 225.579C10.285 226.246 10.2191 226.819 10.172 227.289C10.1249 227.731 10.0778 228.079 10.0496 228.332C10.0214 228.567 10.0025 228.69 9.99312 228.69C9.98371 228.69 9.98371 228.567 10.0025 228.332C10.0214 228.069 10.0402 227.722 10.0684 227.28C10.1061 226.81 10.1438 226.246 10.2002 225.579C10.2285 224.902 10.2096 224.123 10.2191 223.249C10.2191 219.734 9.83308 214.66 9.08937 208.42C8.36447 202.18 7.31009 194.756 6.62285 186.459C6.41574 184.391 6.35925 182.249 6.21804 180.078C6.19921 178.988 6.17097 177.888 6.15214 176.77C6.14273 176.216 6.13332 175.652 6.1239 175.097C6.14273 174.534 6.16156 173.97 6.17098 173.406C6.22746 168.877 6.74524 164.159 8.01615 159.498C8.34565 158.333 8.63748 157.168 9.10819 156.078C9.56007 154.978 9.91781 153.841 10.445 152.789C10.9534 151.727 11.4523 150.674 11.9513 149.631C12.5161 148.626 13.0716 147.62 13.627 146.633C15.9335 142.724 18.4753 139.153 21.0359 135.864C26.2043 129.324 31.3068 123.817 35.4584 119.1C39.6289 114.382 42.8956 110.483 44.995 107.654C46.087 106.273 46.8402 105.136 47.3956 104.393C47.6592 104.036 47.8663 103.754 48.0169 103.538C48.1582 103.35 48.2335 103.256 48.2429 103.266Z" fill="#455A64"/>
<path d="M52.8088 124.597C52.8182 124.606 52.6017 124.785 52.178 125.114C51.7167 125.462 51.0954 125.931 50.314 126.524C49.495 127.125 48.5065 127.867 47.3862 128.769C46.2565 129.662 44.9479 130.649 43.5735 131.833C42.1802 132.989 40.6551 134.257 39.0735 135.686C37.4637 137.077 35.8162 138.646 34.0652 140.281C30.629 143.608 26.9669 147.385 23.333 151.548C19.7274 155.73 16.4983 159.883 13.6835 163.755C12.309 165.71 10.9816 167.561 9.8331 169.356C8.6375 171.122 7.60194 172.805 6.65111 174.346C5.68145 175.868 4.89066 177.306 4.15636 178.546C3.42205 179.787 2.82896 180.867 2.34884 181.76C1.87813 182.615 1.50156 183.292 1.21914 183.799C0.955539 184.26 0.814329 184.504 0.795501 184.495C0.776673 184.485 0.899057 184.232 1.13441 183.752C1.39801 183.235 1.74633 182.54 2.18879 181.666C2.64067 180.764 3.21494 179.665 3.93041 178.405C4.63648 177.155 5.40844 175.699 6.36869 174.158C7.30069 172.598 8.32683 170.897 9.5036 169.121C10.6427 167.317 11.9607 165.456 13.3258 163.483C16.1218 159.583 19.3508 155.41 22.9753 151.219C26.6186 147.047 30.2995 143.269 33.7639 139.952C35.5244 138.326 37.1813 136.757 38.8099 135.376C40.4009 133.957 41.9448 132.707 43.3569 131.56C44.7502 130.395 46.0776 129.427 47.2168 128.553C48.3559 127.67 49.3632 126.946 50.201 126.373C51.0013 125.809 51.6414 125.368 52.1215 125.039C52.564 124.738 52.7994 124.588 52.8088 124.597Z" fill="#263238"/>
</svg>
