<svg width="47" height="412" viewBox="0 0 47 412" fill="none" xmlns="http://www.w3.org/2000/svg">
<path d="M90.7996 240.639C93.0308 225.143 89.0863 210.681 81.5173 202.345C73.9389 194.01 63.6303 188.748 53.5195 183.767C43.4087 178.787 33.0343 173.75 25.1452 165.706C30.3795 185.327 43.71 202.665 61.3427 212.786C67.1701 216.131 73.4587 218.734 78.7777 222.831C84.0873 226.928 88.8415 233.835 90.7996 240.639Z" fill="#455A64"/>
<path d="M21.9444 103.872C15.4016 99.8035 6.55226 98.9766 0 103.046C5.00834 105.977 8.74576 111.014 10.092 116.662C11.1934 121.267 10.7698 126.21 12.4738 130.617C14.4602 135.748 19.1296 139.488 24.2603 141.508C29.3816 143.529 36.3104 143.491 41.7518 142.786C40.6127 139.76 40.1608 137.082 39.483 134.564C38.3439 130.354 37.1765 126.548 35.5479 122.018C32.9308 114.773 28.4873 107.941 21.9444 103.872Z" fill="#359276"/>
<path d="M37.6002 85.6138C33.4015 89.1471 29.0051 94.8136 27.0375 99.9538C25.0699 105.094 24.6745 111.061 27.1316 115.985C29.2404 120.224 33.1755 123.249 35.8397 127.168C39.097 131.97 40.9516 137.279 39.7372 142.946C45.9223 143.519 51.8815 134.639 53.2936 127.074C54.7057 119.509 52.6534 111.616 49.0666 104.803C45.4704 97.9898 41.5071 93.31 37.6002 85.6138Z" fill="#359276"/>
<path d="M24.0532 87.2301C23.3189 87.1268 22.6599 87.653 22.1421 88.1793C20.4193 89.9083 19.0731 91.9945 18.207 94.2686C16.8137 93.3383 15.3263 92.3798 13.6035 92.4268C12.7656 92.4456 11.9372 92.7745 11.3535 93.3665C10.2991 94.4566 10.6192 95.6876 11.0146 96.8059C11.9748 99.5404 13.3587 102.134 15.1191 104.446L29.7393 108.515C32.14 105.686 32.3565 101.504 31.2362 97.9711C30.1065 94.4378 27.8377 91.4025 25.6065 88.4424C25.2017 87.9067 24.7216 87.3241 24.0532 87.2301Z" fill="#359276"/>
<path d="M20.2216 89.3728C19.139 88.7056 17.6798 88.6868 16.5783 89.3258C15.4769 89.9648 14.7802 91.2428 14.8273 92.5114L13.9236 93.733C15.2415 95.3588 16.8608 96.7495 18.6777 97.802C19.4214 95.6877 20.1651 93.5733 20.9089 91.4589C21.0218 91.1488 21.1254 90.8293 21.0877 90.5004C21.0312 90.0212 20.6453 89.6265 20.2216 89.3728Z" fill="#359276"/>
<path d="M11.3535 100.433C11.3535 100.414 11.5512 100.424 11.9278 100.442C12.3043 100.461 12.8503 100.508 13.5564 100.621C14.9497 100.847 16.9926 101.298 19.299 102.388C21.6243 103.44 24.185 105.141 26.595 107.5C29.0051 109.858 31.1797 112.903 33.0249 116.305C34.8889 119.707 36.254 123.146 37.3366 126.313C38.4192 129.48 39.21 132.393 39.8408 134.846C40.4715 137.298 40.914 139.29 41.2152 140.672C41.347 141.32 41.46 141.846 41.5447 142.269C41.6106 142.636 41.6483 142.833 41.6294 142.833C41.6106 142.833 41.5541 142.655 41.4506 142.288C41.3376 141.875 41.2058 141.358 41.0269 140.719C40.6692 139.356 40.1703 137.373 39.5018 134.939C38.8334 132.506 38.005 129.621 36.9035 126.473C35.8115 123.325 34.437 119.923 32.5919 116.549C30.7655 113.185 28.6285 110.169 26.2749 107.829C23.9214 105.489 21.4172 103.788 19.1484 102.717C16.889 101.598 14.8932 101.11 13.5187 100.828C12.1349 100.527 11.3441 100.489 11.3535 100.433Z" fill="#263238"/>
<path d="M37.5154 85.4071C37.5813 85.4917 36.3104 86.3656 34.6347 88.1699C33.7874 89.0626 32.8837 90.209 31.9893 91.5622C31.1232 92.9342 30.2854 94.5129 29.6075 96.2514C28.9486 97.9993 28.5249 99.7378 28.2613 101.335C28.026 102.933 27.9318 104.399 27.9695 105.63C28.026 108.082 28.3837 109.586 28.2802 109.605C28.2519 109.614 28.1484 109.238 27.9977 108.562C27.913 108.223 27.8283 107.81 27.7812 107.312C27.7247 106.823 27.6306 106.259 27.6212 105.639C27.5364 104.399 27.5929 102.905 27.8094 101.27C28.0542 99.6344 28.4778 97.8677 29.1463 96.0823C29.8335 94.3062 30.6996 92.6993 31.6034 91.3179C32.5354 89.9553 33.4862 88.7995 34.3711 87.9349C34.7948 87.4745 35.2372 87.1174 35.6044 86.7885C35.9715 86.4502 36.3104 86.1965 36.5929 85.9991C37.1765 85.5856 37.4966 85.3789 37.5154 85.4071Z" fill="#263238"/>
<path d="M22.095 103.957C22.0197 104.051 20.2687 102.247 19.139 99.4276C17.9811 96.6178 17.9811 94.1182 18.1034 94.1276C18.2541 94.1088 18.4706 96.5238 19.5909 99.249C20.6829 101.974 22.2174 103.863 22.095 103.957Z" fill="#263238"/>
<path d="M24.7875 87.4557C24.7687 87.5027 24.5239 87.3712 24.0814 87.3336C23.6296 87.296 22.98 87.4557 22.3398 87.982C21.7091 88.4988 21.0877 89.2788 20.5135 90.2185C19.9298 91.1488 19.4591 92.2671 18.9507 93.4511C18.8189 93.7425 18.6871 94.0432 18.5553 94.3251L18.4518 94.5412L18.4047 94.6446C18.4894 94.6258 17.6892 94.7855 18.0187 94.7198H18.0093L17.9999 94.7104L17.9811 94.6916L17.934 94.654L17.5857 94.3627C17.115 93.9962 16.6537 93.6579 16.1735 93.4135C15.2227 92.8967 14.253 92.643 13.4434 92.6994C12.6338 92.7276 12.0313 93.0659 11.6641 93.329C11.2876 93.6015 11.1275 93.8082 11.0899 93.7706C11.0711 93.7612 11.184 93.5075 11.5418 93.1786C11.8901 92.8497 12.5303 92.4362 13.4152 92.3517C14.3001 92.2483 15.3639 92.4832 16.3806 93.0189C16.8984 93.2726 17.3974 93.6203 17.8869 93.9962L18.2446 94.2969L18.2917 94.3345L18.3106 94.3533L18.32 94.3627L18.3294 94.3721C18.6683 94.3063 17.8681 94.466 17.9528 94.4472L17.9999 94.3439L18.1034 94.1371C18.2352 93.8552 18.3576 93.5639 18.4894 93.2726C19.4497 90.8951 20.6829 88.7619 22.1139 87.7189C22.8293 87.1926 23.6013 87.0517 24.0908 87.1644C24.5898 87.249 24.7969 87.4369 24.7875 87.4557Z" fill="#263238"/>
<g opacity="0.3">
<path d="M30.6431 105.141C25.6536 100.584 18.3482 98.2625 11.8901 100.274C18.4518 101.833 24.5992 105.339 28.8638 110.554C33.1284 115.769 36.2257 122.517 38.0426 129.001L41.62 142.824C41.6483 136.077 41.2811 129.405 39.9066 122.789C38.5228 116.183 35.6326 109.699 30.6431 105.141Z" fill="black"/>
</g>
<g opacity="0.3">
<path d="M14.6579 92.3328C15.6087 92.1261 16.6348 92.2765 17.4821 92.7463C17.7457 92.0321 18.1034 91.3367 18.6118 90.7729C19.1202 90.1997 19.7886 89.758 20.5323 89.5889C19.4214 91.0454 18.593 92.7087 18.094 94.4754C17.162 93.5639 15.8817 92.8215 14.6579 92.3328Z" fill="black"/>
</g>
<path d="M73.3646 365.151C73.3646 365.151 73.3834 364.944 73.4399 364.54C73.5058 364.118 73.5999 363.525 73.7223 362.755C73.9859 361.176 74.3625 358.874 74.852 355.904C75.8405 349.947 77.2715 341.348 79.0319 330.729C80.7641 320.092 82.7599 307.424 84.6898 293.31C85.6407 286.253 86.6292 278.838 87.4482 271.133C88.2484 263.427 88.8509 255.42 88.7662 247.217C88.6909 239.013 87.8624 230.997 86.0831 223.461C84.3603 215.915 81.8279 208.858 79.0037 202.336C73.2799 189.293 66.464 178.354 60.5896 169.333C54.6869 160.312 49.6032 153.226 46.0353 148.359C44.2466 145.953 42.8533 144.073 41.893 142.786C41.4223 142.156 41.0646 141.677 40.8104 141.339C40.5656 141.01 40.4527 140.841 40.4527 140.841C40.4527 140.841 40.5939 140.991 40.8481 141.311C41.1117 141.64 41.4788 142.109 41.9683 142.73C42.9474 143.979 44.3784 145.831 46.1859 148.246C49.8009 153.076 54.9317 160.143 60.872 169.136C66.7841 178.138 73.647 189.067 79.4085 202.148C82.2516 208.688 84.8028 215.764 86.5444 223.348C88.3425 230.913 89.171 238.966 89.2463 247.198C89.331 255.43 88.7285 263.464 87.9189 271.17C87.0904 278.885 86.102 286.3 85.1323 293.357C83.1742 307.471 81.1407 320.139 79.3614 330.767C77.5916 341.395 76.0759 349.984 75.0309 355.923C74.5037 358.874 74.0895 361.176 73.8071 362.755C73.6658 363.525 73.5529 364.118 73.4776 364.531C73.4211 364.944 73.3646 365.151 73.3646 365.151Z" fill="#455A64"/>
<path d="M49.9892 85.9801C58.3678 79.8343 63.0937 74.384 66.2569 60.1191C68.4975 49.9889 69.2977 39.6145 69.6554 29.24C56.8616 41.5597 46.1671 68.6423 49.9892 85.9801Z" fill="#359276"/>
<path d="M48.6524 85.9049C40.3303 87.3239 26.6421 83.659 18.6777 77.2877C10.7039 70.9258 4.86713 61.9421 2.28764 52.0845C12.8315 49.9608 24.2791 52.8269 32.573 59.668C40.8669 66.5092 48.7654 75.1734 48.6524 85.9049Z" fill="#359276"/>
<path d="M50.0645 75.3144C50.1493 66.5845 47.0897 58.0894 43.0886 50.3274C40.0102 44.3602 36.2445 38.5903 31.0103 34.3898C25.7666 30.1705 18.8472 27.6802 12.2384 28.9018C16.9267 35.7524 18.2917 44.2756 19.4497 52.4887C20.5982 60.7112 21.7467 69.2157 26.1055 76.2824C30.4642 83.349 40.641 88.0946 48.6618 85.8957L48.4265 85.8017C49.4809 82.4187 50.0269 78.8666 50.0645 75.3144Z" fill="#359276"/>
<path d="M49.3302 19.1946C43.6912 22.6151 41.074 26.1109 37.7885 31.8526C34.5029 37.5942 34.6912 45.9389 36.6964 52.2444C38.4192 57.6666 42.5332 61.9893 44.9715 67.1295C47.9558 73.435 47.3533 79.374 48.6524 85.8957C57.4452 82.0146 57.7183 80.0976 61.6534 71.7153C65.7203 63.0418 63.5362 49.2091 59.1021 41.0712C52.9264 29.7194 48.916 28.0467 49.3302 19.1946Z" fill="#359276"/>
<path d="M38.3439 17.5125C37.4966 17.2588 36.6117 17.7569 35.8962 18.2831C33.5333 20.0122 31.5469 22.2581 30.0971 24.8047C28.6097 23.4422 27.0281 22.0326 24.9664 21.7695C23.9685 21.6379 22.9235 21.8728 22.1233 22.4743C20.6641 23.5737 20.8241 25.1055 21.0877 26.5056C21.7185 29.9356 22.8953 33.2622 24.5522 36.3351L41.1682 43.8622C44.5478 40.9397 45.574 36.0156 44.8868 31.6083C44.1995 27.201 42.0625 23.179 39.9631 19.2416C39.5866 18.5274 39.1253 17.7381 38.3439 17.5125Z" fill="#359276"/>
<path d="M33.4015 19.3449C32.2341 18.3488 30.5113 18.0575 29.0804 18.6214C27.6494 19.1852 26.5856 20.5666 26.4162 22.0889L25.117 23.3669C26.3879 25.5471 28.0542 27.4923 30.0124 29.0804C31.2833 26.7029 32.5636 24.3348 33.8345 21.9574C34.0228 21.6097 34.2111 21.2432 34.2299 20.8485C34.2393 20.2659 33.8533 19.7302 33.4015 19.3449Z" fill="#359276"/>
<path d="M12.2384 28.9019C12.2384 28.9019 13.2363 28.5072 15.1568 28.4226C17.0679 28.3662 19.8733 28.7891 22.9894 30.2175C26.1055 31.6176 29.5134 33.9199 32.8178 36.9928C36.0939 40.0563 39.3889 43.9279 41.5165 48.6923C43.8041 53.3721 45.2068 58.1552 46.1765 62.5343C47.1273 66.9322 47.6545 70.9448 48.0217 74.3184C48.3794 77.6919 48.5771 80.4265 48.6995 82.3247C48.756 83.2363 48.7936 83.9599 48.8219 84.5049C48.8407 85.0029 48.8501 85.2661 48.8313 85.2661C48.8125 85.2661 48.7748 85.0029 48.7183 84.5143C48.6618 83.9693 48.5959 83.2457 48.5018 82.3435C48.3135 80.4547 48.0687 77.7295 47.6733 74.3653C47.2685 71.0012 46.7037 67.0074 45.734 62.6377C44.7361 58.2868 43.3334 53.5412 41.074 48.9084C38.9652 44.1816 35.7456 40.3946 32.5071 37.3217C29.2592 34.2676 25.8984 31.9559 22.8482 30.537C19.798 29.0804 17.0491 28.6105 15.1662 28.6105C13.2646 28.6387 12.2478 28.9676 12.2384 28.9019Z" fill="#263238"/>
<path d="M49.3302 19.1945C49.3491 19.2227 49.0007 19.4577 48.37 19.8523C47.7298 20.2282 46.8543 20.8578 45.8376 21.7036C44.8397 22.5681 43.7476 23.7146 42.778 25.1617C41.8366 26.6277 41.0269 28.3756 40.4621 30.3114C39.8878 32.2378 39.6148 34.1548 39.4548 35.9027C39.2759 37.6506 39.2665 39.2293 39.2382 40.5637C39.2477 41.8135 39.2571 42.8754 39.2665 43.7211C39.2759 44.4635 39.2665 44.877 39.2288 44.8864C39.1912 44.8864 39.1441 44.4823 39.0688 43.7305C38.9935 42.9882 38.9276 41.9075 38.8899 40.5731C38.8711 39.2387 38.8429 37.6412 39.0029 35.8745C39.1441 34.1078 39.3983 32.1626 39.9914 30.1892C40.5656 28.2158 41.4129 26.421 42.4014 24.9268C43.4181 23.4515 44.5573 22.2956 45.6116 21.4499C46.6754 20.6229 47.5886 20.0215 48.2664 19.702C48.9443 19.3449 49.3208 19.1664 49.3302 19.1945Z" fill="#263238"/>
<path d="M32.9308 37.021C32.8837 37.0492 32.4412 36.4666 31.8952 35.4141C31.3492 34.371 30.7184 32.8487 30.3042 31.082C29.89 29.3248 29.7676 27.6803 29.7958 26.4962C29.8147 25.3122 29.9465 24.5886 30.0124 24.598C30.1724 24.598 29.9559 27.5205 30.7937 30.9693C31.5751 34.4368 33.072 36.9553 32.9308 37.021Z" fill="#263238"/>
<path d="M39.1818 17.9071C39.1535 17.9541 38.8993 17.7474 38.3627 17.6064C37.8355 17.4655 37.0071 17.5406 36.1504 18.0387C35.2937 18.5367 34.4088 19.3543 33.5521 20.3598C32.6766 21.3559 31.914 22.6057 31.0856 23.9213C30.7937 24.3818 30.5019 24.8234 30.2101 25.2463L30.0218 25.5094L29.8241 25.2651C28.1389 23.1883 25.936 21.8915 24.2415 21.9855C23.4036 21.9949 22.7635 22.2768 22.3586 22.5117C21.9538 22.7467 21.7467 22.9158 21.7185 22.8876C21.6997 22.8782 21.8691 22.6621 22.2551 22.3708C22.6411 22.0795 23.3095 21.7224 24.2132 21.6754C25.117 21.6002 26.1996 21.8539 27.2446 22.446C28.299 23.0192 29.2875 23.9119 30.1912 24.9644L29.8052 24.9832C30.0877 24.5697 30.3795 24.1281 30.6619 23.677C32.2341 21.027 34.0887 18.7247 35.9715 17.7474C36.9035 17.2493 37.8449 17.2211 38.4004 17.4373C38.6734 17.55 38.8805 17.6534 38.9935 17.7568C39.1347 17.8413 39.1912 17.8977 39.1818 17.9071Z" fill="#263238"/>
<g opacity="0.3">
<path d="M42.8721 40.0188C37.7791 33.6851 29.9747 28.761 21.935 29.9638C29.4475 33.0273 35.6609 39.1355 39.7654 46.1176C43.87 53.0996 46.2989 61.6887 47.2591 69.7326L48.8595 85.5857C50.1399 77.5699 51.0248 70.8039 50.62 62.6942C50.1963 54.5844 47.9558 46.3431 42.8721 40.0188Z" fill="black"/>
</g>
<g opacity="0.3">
<path d="M26.2373 21.854C27.4046 21.7882 28.5908 22.1547 29.5134 22.8689C29.9559 22.0701 30.5113 21.3089 31.2268 20.7263C31.9329 20.1437 32.8084 19.7396 33.731 19.6738C32.14 21.1962 30.8502 23.0286 29.9371 25.0302C28.9862 23.771 27.6023 22.6527 26.2373 21.854Z" fill="black"/>
</g>
<path d="M48.6524 85.9049C48.6524 85.9237 48.4265 85.9707 47.9934 86.0365C47.5604 86.1023 46.9108 86.2244 46.0729 86.2526C44.3972 86.3654 41.9213 86.3278 38.9935 85.5573C36.0751 84.8055 32.7519 83.1892 29.7299 80.5674C26.7268 77.9362 24.072 74.2807 22.4245 69.9767C20.7677 65.6728 20.0239 61.3314 19.4967 57.4127C18.979 53.4847 18.64 49.942 18.1788 46.9819C17.7363 44.0312 17.1997 41.6725 16.7572 40.0562C16.5313 39.248 16.3524 38.6278 16.2206 38.2143C16.0888 37.7914 16.0323 37.5659 16.0512 37.5659C16.07 37.5659 16.1547 37.7727 16.3148 38.1861C16.4842 38.5996 16.6913 39.2104 16.9455 40.0092C17.4445 41.6067 18.0375 43.9748 18.5271 46.9349C19.026 49.895 19.412 53.4377 19.9486 57.3563C20.4946 61.2562 21.2478 65.5695 22.8858 69.8076C24.5051 74.0457 27.1034 77.6354 30.0312 80.2385C32.9872 82.8321 36.2257 84.4484 39.0876 85.2284C41.9589 86.0365 44.3972 86.1305 46.0635 86.0647C46.9014 86.0647 47.5415 85.9707 47.984 85.9425C48.4171 85.9049 48.6524 85.8956 48.6524 85.9049Z" fill="#263238"/>
<path d="M109.515 263.474L124.587 226.675L92.0988 226.909V226.863L52.2015 226.778L67.4525 263.502C67.4525 263.502 35.1807 293.366 37.5343 326.162C39.8784 358.958 67.4525 411.667 67.4525 411.667H85.6124V411.761L110.249 411.639C110.249 411.639 137.56 358.789 139.744 325.984C141.937 293.188 109.515 263.474 109.515 263.474Z" fill="#EBEBEB"/>
<path d="M109.515 263.474C109.515 263.474 109.713 263.643 110.089 263.991C110.466 264.338 111.012 264.874 111.727 265.588C113.149 267.026 115.22 269.187 117.734 272.147C120.247 275.108 123.231 278.866 126.329 283.546C129.426 288.217 132.674 293.808 135.357 300.48C138.012 307.124 140.13 314.952 139.998 323.597C139.669 332.214 137.776 341.358 135.084 350.839C132.373 360.33 128.833 370.197 124.709 380.375C122.629 385.458 120.426 390.636 118.044 395.861C115.672 401.095 113.168 406.405 110.466 411.742L110.4 411.865H110.259C102.483 411.902 94.1417 411.949 85.6218 411.996H85.3865V411.761C85.3865 411.733 85.3865 411.695 85.3865 411.667L85.6218 411.902C79.9074 411.902 73.7223 411.902 67.4619 411.902H67.3113L67.2454 411.771C63.2444 403.961 59.441 395.861 55.7978 387.526C52.1733 379.181 48.7277 370.583 45.6775 361.731C42.552 352.587 39.869 343.397 38.2968 334.122C37.5813 329.489 36.9694 324.828 37.233 320.195C37.4684 315.572 38.3439 311.033 39.6148 306.682C42.1755 297.961 46.3742 290.011 51.1566 282.804C55.986 275.606 61.3898 269.065 67.3019 263.342L67.2454 263.587C61.8605 250.609 56.7768 238.346 52.0133 226.853L51.9003 226.571H52.2015C66.7182 226.618 80.0769 226.656 92.0988 226.684H92.2682V226.853C92.2682 226.872 92.2682 226.881 92.2682 226.9L92.0988 226.731C104.535 226.656 115.324 226.59 124.587 226.543H124.785L124.709 226.722C119.871 238.468 116.086 247.649 113.507 253.898C112.217 257.018 111.219 259.414 110.551 261.031C110.212 261.829 109.957 262.44 109.788 262.854C109.609 263.267 109.515 263.474 109.515 263.474C109.515 263.474 109.59 263.267 109.75 262.863C109.92 262.45 110.165 261.839 110.485 261.04C111.144 259.424 112.104 257.027 113.375 253.908C115.926 247.63 119.673 238.412 124.474 226.628L124.596 226.806C115.333 226.881 104.554 226.975 92.1082 227.079H91.9387V226.909C91.9387 226.891 91.9387 226.881 91.9387 226.862L92.1082 227.032C80.0863 227.013 66.7276 226.994 52.211 226.975L52.3992 226.693C57.1816 238.186 62.2747 250.44 67.669 263.408L67.7255 263.549L67.6125 263.662C61.7569 269.347 56.3626 275.897 51.552 283.058C46.7884 290.246 42.6179 298.159 40.0855 306.814C38.824 311.136 37.9579 315.628 37.7226 320.214C37.459 324.8 38.0709 329.423 38.7864 334.037C40.3491 343.265 43.0227 352.446 46.1482 361.561C49.189 370.404 52.6252 378.993 56.2496 387.329C59.8835 395.654 63.6868 403.764 67.669 411.545L67.4525 411.413C73.7223 411.413 79.898 411.413 85.6124 411.413H85.8478V411.648C85.8478 411.686 85.8478 411.714 85.8478 411.742L85.6124 411.507C94.1322 411.47 102.483 411.432 110.249 411.395L110.052 411.517C112.753 406.198 115.267 400.889 117.639 395.664C120.021 390.439 122.234 385.271 124.314 380.196C128.447 370.028 131.996 360.18 134.717 350.717C137.428 341.254 139.32 332.139 139.669 323.578C139.819 314.989 137.729 307.199 135.103 300.574C132.438 293.921 129.228 288.329 126.15 283.659C123.071 278.979 120.115 275.211 117.621 272.241C115.126 269.262 113.074 267.092 111.68 265.635C110.306 264.273 109.684 263.652 109.515 263.474Z" fill="#263238"/>
<path d="M48.0876 353.066C48.0687 353.076 47.9934 352.869 47.8616 352.474C47.7204 352.033 47.5321 351.46 47.3062 350.745C47.1838 350.36 47.052 349.947 46.9108 349.486C46.7884 349.016 46.666 348.509 46.5248 347.973C46.2612 346.883 45.9129 345.652 45.6681 344.261C44.5572 338.736 43.597 330.917 44.0865 322.3C44.3313 317.996 44.8114 313.899 45.6587 310.253C45.7528 309.792 45.847 309.341 45.9411 308.9C46.0635 308.458 46.1765 308.026 46.2989 307.603C46.5342 306.748 46.7507 305.921 46.9955 305.122C47.2685 304.342 47.5415 303.581 47.7957 302.848C47.9275 302.481 48.0499 302.124 48.1723 301.777C48.3229 301.438 48.4735 301.11 48.6148 300.781C49.189 299.484 49.688 298.309 50.2811 297.351C50.8459 296.373 51.279 295.509 51.7779 294.889C52.2204 294.287 52.5781 293.798 52.8511 293.423C53.1053 293.094 53.2371 292.925 53.2559 292.934C53.2654 292.943 53.1618 293.131 52.9359 293.488C52.6817 293.874 52.3522 294.381 51.938 295.001C51.4672 295.631 51.0624 296.514 50.5258 297.492C49.961 298.46 49.4809 299.634 48.9348 300.931C48.7936 301.25 48.6524 301.589 48.5112 301.918C48.3888 302.265 48.2758 302.622 48.1535 302.989C47.9087 303.713 47.6545 304.474 47.3815 305.254C47.165 306.052 46.9484 306.879 46.7131 307.725C46.6001 308.148 46.4872 308.58 46.3648 309.022C46.2706 309.464 46.1859 309.915 46.0918 310.366C45.2821 313.993 44.8114 318.062 44.5667 322.347C44.0865 330.927 44.9809 338.698 45.9976 344.224C46.2141 345.614 46.5342 346.846 46.779 347.936C46.9014 348.481 47.0143 348.988 47.1273 349.458C47.2591 349.918 47.3721 350.332 47.4756 350.717C47.6733 351.441 47.824 352.023 47.9463 352.465C48.0593 352.85 48.1064 353.066 48.0876 353.066Z" fill="white"/>
<path d="M90.376 225.819C90.3289 225.838 89.9712 225.068 89.2086 223.733C88.4649 222.399 87.2317 220.538 85.4712 218.443C83.7202 216.338 81.3572 214.064 78.533 211.799C75.6993 209.534 72.3949 207.298 68.8364 205.089C65.2684 202.89 61.8228 200.851 58.7632 198.868C55.7036 196.895 53.03 194.978 50.9118 193.211C48.7936 191.445 47.1932 189.885 46.1671 188.738C45.6305 188.184 45.2727 187.705 45.0091 187.394C44.755 187.084 44.6232 186.915 44.6326 186.896C44.642 186.887 44.802 187.037 45.075 187.329C45.3669 187.611 45.7434 188.071 46.2989 188.607C47.3627 189.706 48.9913 191.229 51.1283 192.948C53.2654 194.668 55.939 196.547 59.008 198.493C62.0676 200.447 65.5226 202.468 69.1 204.676C72.668 206.894 75.9912 209.149 78.8248 211.451C81.6585 213.754 84.012 216.075 85.7442 218.217C87.4859 220.36 88.6815 222.258 89.3781 223.639C89.7641 224.307 89.9712 224.87 90.1501 225.237C90.3101 225.613 90.3854 225.81 90.376 225.819Z" fill="#263238"/>
</svg>
