<svg width="169" height="146" viewBox="0 0 169 146" fill="none" xmlns="http://www.w3.org/2000/svg">
<path d="M155.538 141.086H122.714V139.395H153.836V108.496H155.538V141.086Z" fill="#D68C44"/>
<path d="M46.2861 141.086H13.4619V108.496H15.1642V139.395H46.2861V141.086Z" fill="#D68C44"/>
<path d="M15.1642 32.5954H13.4619V0H46.2861V1.69044H15.1642V32.5954Z" fill="#D68C44"/>
<path d="M155.538 32.5954H153.836V1.69044H122.714V0H155.538V32.5954Z" fill="#D68C44"/>
<path d="M166.384 49.4394C161.581 50.1095 156.766 50.6951 151.988 51.5283C146.023 52.5667 140.631 54.891 135.816 58.6704C133.919 60.1556 133.481 61.7253 133.669 63.8866C134.089 68.7889 134.575 73.6972 134.709 78.6116C134.952 87.1181 133.973 95.5704 130.174 103.232C123.905 115.88 109.959 121.79 96.7962 121.042C97.6048 120.776 98.4377 120.541 99.2767 120.529C104.317 120.438 108.949 118.844 113.296 116.532C124.915 110.356 129.207 99.7421 130.435 87.5528C131.39 78.0984 129.918 68.7527 128.277 59.4673C126.41 48.902 127.638 38.6145 130.782 28.4658C131.311 26.7572 131.821 25.0426 132.575 22.5553C130.313 23.7446 128.745 24.463 127.286 25.3566C118.409 30.8384 111.211 37.8598 107.18 47.6161C106.736 48.6907 106.858 50.3993 107.43 51.4135C113.102 61.4053 117.418 71.8075 117.85 83.4474C118.069 89.3459 117.279 95.0874 114.968 100.624C111.406 109.142 104.347 113.688 96.3402 117.202C94.1819 118.15 91.8959 118.808 89.6647 119.599C93.5131 116.924 97.7811 115.107 101.386 112.414C113.011 103.715 116.586 91.8816 113.898 77.9777C111.856 67.3943 106.396 58.3383 100.979 49.1797C96.4618 41.5426 92.7106 33.4465 88.923 25.4109C87.1903 21.7402 86.181 17.7375 84.7037 13.4812C84.2781 14.7188 83.9741 15.709 83.5972 16.681C80.9951 23.3461 78.8428 30.2407 75.651 36.6161C71.4439 45.02 66.3309 52.9772 61.7711 61.2181C57.9956 68.0403 55.43 75.3877 54.9558 83.1396C54.6822 87.6072 55.2293 92.3464 56.5122 96.639C59.8317 107.717 68.6047 113.779 78.6301 118.252C81.2504 119.424 84.5395 119.237 87.02 120.583C92.7593 123.686 98.6566 125.944 105.125 127.037C112.798 128.335 119.741 126.868 126.289 122.877C134.271 118.017 139.476 110.802 142.765 102.405C145.756 94.7613 147.829 86.768 150.316 78.9255C153.453 69.0304 158.639 60.3065 165.564 52.5787C166.39 51.655 167.296 50.7977 168.482 49.5903C167.406 49.4997 166.883 49.3729 166.384 49.4394Z" fill="url(#paint0_linear_628_5960)"/>
<path d="M70.3738 116.073C64.8231 113.356 59.6736 109.981 56.3237 104.608C51.0708 96.1801 50.3109 86.7317 51.8369 77.4041C53.3872 67.9316 56.7675 58.8454 62.3243 50.7554C62.677 50.2362 62.9202 49.3548 62.7317 48.8114C62.1298 47.0848 61.6009 45.2072 60.5065 43.8005C57.1809 39.52 53.9587 35.0585 50.0191 31.3878C46.3408 27.9586 41.7872 25.4471 37.6226 22.5371C37.3915 22.7605 37.1544 22.9839 36.9234 23.2072C37.0511 23.8532 37.124 24.5053 37.3064 25.1331C38.2488 28.3631 39.4708 31.5387 40.1335 34.823C41.7324 42.7017 42.4194 50.6226 41.1002 58.6824C40.0362 65.1725 39.1851 71.729 38.7534 78.2916C38.188 86.8706 38.9419 95.3469 43.0031 103.195C46.7968 110.525 52.3537 115.904 60.3971 118.428C63.5768 119.424 66.8294 120.196 70.0455 121.072C69.1093 121.271 68.1487 121.313 67.2428 121.126C64.4097 120.535 61.5826 119.895 58.7677 119.206C47.8668 116.544 39.258 107.265 36.6073 96.3914C33.9808 85.6148 33.8228 74.796 35.5494 63.8926C35.8777 61.8097 35.367 60.2219 33.458 58.6885C25.2322 52.0776 15.3527 50.7253 5.41847 49.4454C4.0019 49.2642 2.54277 49.4212 0.5 49.4212C1.38155 50.3509 1.7281 50.7313 2.0868 51.0935C10.5436 59.4975 16.0458 69.5979 19.5233 80.8755C21.6573 87.7943 23.3961 94.87 26.0529 101.583C29.5183 110.338 34.7408 118.017 43.0882 123.076C49.1314 126.741 55.7036 128.299 62.7621 127.345C65.5405 126.97 68.3676 126.53 71.0001 125.636C74.7269 124.368 78.3018 122.642 82.515 120.867C81.0011 120.136 80.2351 119.689 79.4204 119.387C76.4049 118.277 73.2374 117.48 70.3738 116.073Z" fill="url(#paint1_linear_628_5960)"/>
<path d="M94.036 82.0047C96.4436 83.0009 97.7446 85.0958 97.7446 87.7462C97.7446 92.2741 94.7048 95.3653 89.5188 95.3653H77.4688V69.6343H88.4792C93.2213 69.6343 96.632 72.4295 96.632 77.2534C96.632 79.1309 95.6654 81.0086 94.036 82.0047ZM82.9892 74.3494V80.1996H88.0657C89.9565 80.1996 91.1421 79.1672 91.1785 77.4405C91.215 75.5629 89.993 74.3494 88.0657 74.3494H82.9892ZM82.9892 84.6913V90.5777H89.1419C91.0326 90.5777 92.1452 89.4728 92.2546 87.7462C92.2911 86.7138 91.8838 85.7599 91.1056 85.2045C90.4733 84.7638 89.7316 84.6913 88.8804 84.6913H82.9892Z" fill="white"/>
<path d="M65.3642 138.87C66.6105 139.383 67.2793 140.47 67.2793 141.834C67.2793 144.171 65.7107 145.771 63.0296 145.771H56.804V132.482H62.4885C64.9386 132.482 66.7017 133.925 66.7017 136.419C66.7017 137.385 66.2032 138.357 65.3642 138.87ZM59.6554 134.915V137.94H62.2757C63.2545 137.94 63.8625 137.409 63.8868 136.515C63.9051 135.543 63.2728 134.915 62.2757 134.915H59.6554ZM59.6554 140.258V143.301H62.835C63.8139 143.301 64.3854 142.734 64.4462 141.84C64.4644 141.309 64.2577 140.814 63.8503 140.53C63.522 140.301 63.139 140.265 62.7013 140.265H59.6554V140.258Z" fill="#D68C44"/>
<path d="M71.912 131.854V142.293C71.912 143.7 72.4653 143.983 73.7481 143.778L73.8454 145.777C70.994 146.29 69.2673 145.583 69.2673 142.299V131.854H71.912Z" fill="#D68C44"/>
<path d="M84.0288 136.606V143.011C84.0288 143.869 84.0653 144.171 84.8921 144.116L84.9104 145.771C83.6093 146.072 81.5422 146.205 81.5422 144.442C81.0255 145.505 79.7426 145.903 78.5936 145.903C75.9307 145.903 75.1646 144.134 75.1646 141.852V136.606H77.864V141.852C77.8093 143.144 78.5146 143.808 79.4508 143.808C80.5208 143.827 81.3477 143.03 81.3477 141.792V136.6H84.0288V136.606Z" fill="#D68C44"/>
<path d="M99.0578 145.77V140.464C99.1125 139.244 98.4863 138.508 97.5622 138.526C96.6259 138.544 95.8781 139.268 95.8599 140.482V145.764H93.2152V140.482C93.2335 139.244 92.6012 138.501 91.6284 138.526C90.6496 138.544 89.8106 139.304 89.8106 140.542V145.77H87.1477V139.401C87.1477 138.508 87.1112 138.206 86.2662 138.206V136.588C87.4699 136.244 89.5978 136.038 89.5978 137.862C90.0964 136.817 91.4156 136.4 92.5647 136.4C94.1758 136.4 94.9419 136.95 95.3796 138.073C95.9329 136.95 97.2947 136.4 98.5775 136.4C101.198 136.4 101.812 138.242 101.757 140.47V145.776H99.0578V145.77Z" fill="#D68C44"/>
<path d="M112.53 141.744H106.268C106.366 143.168 107.436 143.724 108.718 143.814C109.101 143.833 109.539 143.851 109.947 143.796C110.767 143.7 111.594 143.494 112.147 143.247L112.451 145.185C111.363 145.698 110.099 146 108.87 146C105.77 146.054 103.587 144.177 103.587 141.073C103.642 137.88 105.983 136.376 108.433 136.376C111.807 136.376 113.242 138.622 112.53 141.744ZM106.293 140.029H110.354C110.409 138.834 109.436 138.411 108.439 138.411C107.417 138.411 106.499 138.966 106.293 140.029Z" fill="#D68C44"/>
<defs>
<linearGradient id="paint0_linear_628_5960" x1="54.903" y1="70.4774" x2="168.5" y2="70.4774" gradientUnits="userSpaceOnUse">
<stop stop-color="#359276"/>
<stop offset="1" stop-color="#16442B"/>
</linearGradient>
<linearGradient id="paint1_linear_628_5960" x1="0.5" y1="75.0715" x2="82.5175" y2="75.0715" gradientUnits="userSpaceOnUse">
<stop stop-color="#359276"/>
<stop offset="1" stop-color="#16442B"/>
</linearGradient>
</defs>
</svg>
