<?xml version="1.0" standalone="yes"?>
<svg xmlns="http://www.w3.org/2000/svg" width="200" height="200">
<path style="fill:#010101; stroke:none;" d="M0 0L0 200L200 200L200 0L0 0z"/>
<path style="fill:#c7de58; stroke:none;" d="M91 28C62.5769 41.4712 60.2213 74.401 71 101C67.2198 101 60.6803 99.8043 57.7423 102.742C54.3438 106.141 54.3341 123.999 58.4336 126.821C61.4232 128.879 66.5714 128 70 128L98 128L98 101C94.5823 101 89.2841 101.94 86.564 99.3966C83.4118 96.4489 83.3661 89.0349 83.0895 85C82.1386 71.1273 82.4671 56.4461 86.152 43C87.4699 38.191 91.0529 32.8929 91 28z"/>
<path style="fill:#5ec42e; stroke:none;" d="M131 81C144.84 77.8241 159.188 58.5314 154.146 44.0147C149.803 31.5115 131.997 35.4486 125 43C118.183 35.1964 104.424 21.3388 92.3904 29.0278C88.1248 31.7533 86.7906 39.4621 85.6296 44C82.4326 56.4956 82.9391 69.2075 83.0008 82C83.0238 86.7776 82.8396 94.4953 85.4336 98.6821C88.4149 103.494 98.4945 100.348 103 100.093C109.253 99.7396 116.849 102.872 122.895 100.397C128.978 97.9061 130.533 86.714 131 81M69 94C66.18 85.1807 64.2386 76.3207 65.1705 67C65.5473 63.2317 68.9694 55.9373 66.8819 52.5139C62.7261 45.6984 50.6304 52.432 47.858 57.0046C39.1984 71.2871 54.9865 91.5005 69 94z"/>
<path style="fill:#c7de58; stroke:none;" d="M99 100L99 101L110 101L99 100z"/>
<path style="fill:#fe9924; stroke:none;" d="M98 101L98 128L66 128C66.3876 137.028 66.3158 158.382 71.9383 165.566C74.571 168.93 80.2521 168 84 168L113 168C116.379 168 121.601 168.868 124.262 166.258C126.894 163.675 126.784 158.403 127.271 155C128.555 146.016 129.861 137.003 131 128C141.328 127.75 140.003 120.345 140 112C139.999 108.624 140.797 103.403 137.566 101.179C133.625 98.4662 126.375 100.198 122 100.715C114.137 101.642 105.912 101 98 101z"/>
<path style="fill:#9f2d33; stroke:none;" d="M75 150C77.1984 149.998 79.7522 150.297 81.8889 149.682C92.1753 146.72 79.8407 130.712 75.6034 139.318C74.176 142.217 75 146.845 75 150M87 137L87 150L90 150L90 137L87 137z"/>
<path style="fill:#fe9924; stroke:none;" d="M78 140L78 142L83 142L83 140L78 140z"/>
<path style="fill:#9f2d33; stroke:none;" d="M92 140C89.8951 147.345 93.2591 149.504 100 150L99 140L98 140L96 148L95 148L92 140M101 141L101 150L104 150L104 143L106 143L106 150L109 150L109 143L111 143L111 150L114 150C113.783 141.025 109.113 139.776 101 141M120 147L123 141C118.44 139.85 111.103 143.454 116.333 148.667C119.075 151.399 125.226 148.122 120 147z"/>
<path style="fill:#fe9924; stroke:none;" d="M118 143L117 146L118 143M78 145L78 147L83 147L83 145L78 145z"/>
</svg>
